<?xml version="1.0" standalone="no"?>
<!DOCTYPE svg PUBLIC "-//W3C//DTD SVG 20010904//EN" "http://www.w3.org/TR/2001/REC-SVG-20010904/DTD/svg10.dtd">
<!-- Created using Krita: https://krita.org -->
<svg xmlns="http://www.w3.org/2000/svg" 
    xmlns:xlink="http://www.w3.org/1999/xlink"
    xmlns:krita="http://krita.org/namespaces/svg/krita"
    xmlns:sodipodi="http://sodipodi.sourceforge.net/DTD/sodipodi-0.dtd"
    width="588.96pt"
    height="187.92pt"
    viewBox="0 0 588.96 187.92">
<defs/>
<path id="PavelBrăila" transform="matrix(0.719999940480596 0 0 0.719999940480596 151.909908665307 0.721450165805062)" fill="#1b1c20" fill-rule="evenodd" stroke-opacity="0" stroke="#000000" stroke-width="0" stroke-linecap="square" stroke-linejoin="bevel" d="M0 95.333L12 95.333L12 55.333L38 55.333C58.8 55.333 68.8 44.8 68.8 27.333C68.9157 20.7176 66.6426 14.2772 62.4 9.2C57.467 3.333 49.734 0 39.734 0L0 0ZM12 10.401L37.733 10.401C49.866 10.401 56.933 16.401 56.933 27.867C56.933 38.8 50.533 45.6 37.067 45.6L12 45.6L12 10.4ZM128.852 96.001C130.86 96.0476 132.856 95.6849 134.719 94.935L134.719 87.068L134.319 87.068C128.319 88.402 126.985 85.335 126.985 79.735L126.985 46.935C126.985 30.535 116.185 25.068 101.519 25.068C83.253 25.068 74.453 35.068 74.053 48.401L84.453 48.401C84.853 38.001 90.453 33.201 101.653 33.201C111.52 33.201 117.12 37.601 117.12 45.335C117.12 52.801 110.32 53.735 100.587 55.201C83.387 57.868 70.587 61.201 70.587 77.467C70.587 90.534 80.854 96.667 93.92 96.667C105.653 96.667 112.72 91.067 116.853 85.734L116.987 85.734C118.052 92.799 121.785 95.999 128.852 95.999ZM96.319 88.401C89.253 88.401 82.053 86.401 82.053 77.201C82.053 67.068 90.719 65.201 101.519 63.201C107.386 62.134 113.652 60.401 117.252 58.134L117.252 69.867C117.252 77.866 110.719 88.4 96.319 88.4ZM154.919 95.334L166.919 95.334L191.719 26.401L180.519 26.401L165.985 70.133C163.985 76.133 161.452 84.666 161.452 84.666L161.185 84.666C161.185 84.666 158.652 76.266 156.652 70.133L142.385 26.4L130.785 26.4ZM223.705 97.2C239.305 97.2 250.105 88.8 253.305 74L242.771 74C240.371 83.333 233.705 88.133 223.705 88.133C209.838 88.133 202.238 77.466 201.438 63.467L254.771 63.467C254.771 40.667 243.705 24.667 223.038 24.667C203.438 24.667 190.372 40.934 190.372 60.933C190.372 80.932 202.639 97.199 223.705 97.199ZM223.038 33.2C235.438 33.2 242.505 41.6 243.171 55.333L201.705 55.333C203.305 42.8 210.239 33.2 223.039 33.2ZM263.438 95.333L274.238 95.333L274.238 0.001L263.439 0.001L263.439 95.333ZM313.891 46.895L322.501 16.036C322.631 15.432 322.887 14.8619 323.251 14.3624C323.615 13.863 324.079 13.4452 324.614 13.136C325.634 12.594 327.596 12.3227 330.501 12.322C335.053 12.322 338.727 13.3527 341.524 15.414C344.321 17.4753 345.719 21.002 345.719 25.994C345.719 34.762 342.421 40.7953 335.826 44.094C331.975 46.004 326.61 46.9587 319.733 46.958ZM312.776 91.101C310.775 91.1946 308.772 90.9526 306.85 90.385C305.836 90.0926 304.953 89.4608 304.349 88.5959C303.745 87.731 303.456 86.6844 303.53 85.632C303.537 84.9657 303.604 84.3014 303.73 83.647C303.864 82.9112 304.038 82.1831 304.251 81.466L312.679 51.257C321.879 51.387 327.993 52.125 331.021 53.471C335.788 55.6843 338.172 60.3933 338.172 67.598C338.304 73.7044 336.116 79.6394 332.051 84.198C327.971 88.798 321.548 91.098 312.781 91.098L312.781 91.098ZM279.569 95.333L316.42 95.333C327.661 95.333 336.516 92.8807 342.983 87.976C349.45 83.0713 352.684 76.9733 352.683 69.682C352.683 63.2153 350.622 58.0937 346.499 54.317C344.2 52.2343 340.751 50.3247 336.15 48.588C342.095 47.286 346.739 45.615 350.08 43.575C356.199 39.799 359.258 34.504 359.259 27.69C359.259 19.486 355.506 13.8 347.999 10.632C342.995 9.03181 337.762 8.26226 332.509 8.354L298.081 8.354L298.081 10.502C302.074 10.59 304.797 11.0457 306.252 11.869C307.707 12.6923 308.434 14.2333 308.433 16.492C308.358 17.9851 308.14 19.4676 307.782 20.919C307.564 21.7437 307.251 22.893 306.843 24.367L290.507 83.354C289.335 87.478 287.838 90.1907 286.015 91.492C284.843 92.3587 282.694 92.9227 279.569 93.184ZM387.953 36.088C387.736 36.088 385.619 36.4787 381.602 37.26C377.585 38.0413 373.883 38.779 370.496 39.473L367.891 39.994L367.891 42.143C368.976 42.0097 369.91 41.901 370.691 41.817C371.339 41.7391 371.991 41.6958 372.644 41.687C373.249 41.6236 373.861 41.6832 374.443 41.8622C375.025 42.0413 375.564 42.3361 376.029 42.729C376.729 43.563 377.079 44.6366 377.006 45.723C376.965 47.1916 376.779 48.6527 376.452 50.085C376.083 51.8663 375.595 53.8847 374.988 56.14L364.133 95.333L374.133 95.333C376.101 88.9537 377.676 84.0277 378.857 80.555C380.724 75.0443 382.418 70.6173 383.94 67.274C386.368 61.9245 389.235 56.7849 392.511 51.908C395.704 47.1747 398.147 44.808 399.842 44.808C400.151 44.7975 400.456 44.8767 400.721 45.036C400.967 45.1966 401.177 45.4072 401.337 45.654L402.118 47.087C402.525 47.8017 403.078 48.4229 403.741 48.91C404.649 49.4901 405.72 49.7639 406.795 49.691C407.654 49.7351 408.511 49.5853 409.304 49.2528C410.097 48.9203 410.805 48.4134 411.375 47.77C412.506 46.4135 413.097 44.6852 413.032 42.92C413.048 41.2311 412.46 39.591 411.373 38.298C410.796 37.6201 410.07 37.085 409.252 36.7347C408.433 36.3844 407.545 36.2284 406.656 36.279C402.882 36.279 398.902 38.808 394.716 43.866C390.457 49.0355 386.781 54.6584 383.753 60.633L382.245 63.641L388.879 38.25C388.92 38.029 388.959 37.697 389 37.256C389.004 36.9683 388.925 36.6855 388.772 36.442C388.68 36.3162 388.556 36.2169 388.413 36.1541C388.27 36.0912 388.113 36.0671 387.958 36.084L387.958 36.084ZM456.199 48.339C456.199 56.0723 453.279 64.7423 447.438 74.349C441.375 84.9103 435.075 90.1907 428.538 90.19C427.496 90.2116 426.461 90.0105 425.503 89.6C424.545 89.1896 423.686 88.5793 422.983 87.81C421.489 86.224 420.742 83.6907 420.742 80.21C420.742 73.3007 423.44 65.0653 428.835 55.504C434.975 44.6373 441.619 39.204 448.768 39.204C449.751 39.1891 450.726 39.3784 451.632 39.76C452.538 40.1416 453.355 40.7073 454.031 41.421C455.477 42.899 456.201 45.202 456.202 48.33L456.202 48.33ZM448.112 36.283C438.985 36.283 430.166 41.4317 421.654 51.729C413.405 61.6363 409.28 71.1517 409.281 80.275C409.281 85.577 410.711 89.6727 413.572 92.562C414.783 93.9 416.257 94.975 417.9 95.7203C419.544 96.4657 421.323 96.8655 423.128 96.895C425.345 96.8706 427.542 96.474 429.628 95.722C432.981 94.2585 436.059 92.2311 438.728 89.728C441.25 87.56 443.529 85.1236 445.523 82.462C447.364 79.9647 448.675 78.0647 449.455 76.762C448.891 78.754 448.316 81.2113 447.73 84.134C447.232 86.3431 446.938 88.5932 446.851 90.856C446.796 92.3746 447.268 93.8665 448.187 95.077C448.643 95.6402 449.226 96.0871 449.888 96.3808C450.551 96.6744 451.274 96.8064 451.997 96.766C454.934 96.6206 457.748 95.5365 460.024 93.674C462.833 91.6133 466.557 87.696 471.194 81.922L469.632 80.555L465.38 84.722C464.741 85.33 464.193 85.84 463.736 86.252C463.279 86.664 462.867 87.022 462.501 87.326L461.336 88.237C460.783 88.6695 460.2 89.0612 459.59 89.409C459.196 89.6455 458.749 89.7799 458.29 89.8C457.852 89.8127 457.424 89.6626 457.09 89.379C456.916 89.2068 456.781 88.9982 456.697 88.7681C456.612 88.5381 456.58 88.2922 456.601 88.048C456.601 87.0967 457.404 83.2913 459.01 76.632C459.991 72.944 461.181 68.5623 462.582 63.487L469.024 40.187C469.21 39.5797 469.35 39.113 469.444 38.787C469.538 38.461 469.677 38.017 469.864 37.453C469.95 37.1898 469.961 36.9081 469.896 36.639C469.81 36.5418 469.7 36.4694 469.577 36.4295C469.454 36.3895 469.322 36.3835 469.196 36.412L461.696 37.251C461.525 37.2425 461.354 37.2697 461.193 37.331C461.033 37.3923 460.888 37.4863 460.766 37.607C460.564 37.9623 460.409 38.3416 460.302 38.736L458.841 43.644L458.513 42.732C458.028 41.305 457.216 40.0108 456.143 38.953C454.256 37.1723 451.58 36.2817 448.114 36.281L448.114 36.281ZM435.062 6.205C435.235 12.065 436.06 16.4703 437.536 19.421C440.227 24.7597 445.24 27.429 452.575 27.429C456.134 27.5323 459.658 26.7035 462.798 25.0249C465.938 23.3463 468.584 20.8757 470.475 17.859C472.823 14.3318 474.439 10.3685 475.227 6.205L471.321 6.205C469.875 9.65052 467.724 12.7556 465.006 15.32C462.139 18.098 458.298 19.4867 453.483 19.486C448.1 19.486 444.324 18.0103 442.155 15.059C440.138 12.5444 439.015 9.4282 438.964 6.205L435.058 6.205ZM501.815 22.091C502.683 22.0966 503.542 21.9164 504.334 21.5627C505.126 21.209 505.834 20.6897 506.409 20.04C507.688 18.677 508.378 16.8625 508.329 14.994C508.374 13.1167 507.685 11.2941 506.409 9.916C505.839 9.25839 505.133 8.73175 504.34 8.37225C503.547 8.01274 502.686 7.82878 501.815 7.833C500.949 7.82678 500.093 8.01002 499.306 8.36984C498.519 8.72967 497.82 9.25743 497.258 9.916C496 11.3029 495.324 13.1223 495.37 14.994C495.331 16.845 496.008 18.6415 497.258 20.007C497.819 20.6661 498.518 21.1942 499.305 21.5543C500.093 21.9143 500.949 22.0975 501.815 22.091ZM500.272 36.739C498.421 37.173 496.462 37.5637 494.393 37.911C492.8 38.171 491.217 38.4207 489.646 38.66C488.075 38.8993 485.501 39.2357 481.926 39.669L481.926 41.817C484.205 41.7104 486.489 41.8966 488.721 42.371C489.87 42.7397 490.444 43.7063 490.444 45.271C490.444 45.7076 490.4 46.143 490.314 46.571C490.227 47.005 490.119 47.4823 489.989 48.003L480.72 81.467C480.242 83.2903 479.917 84.6683 479.744 85.601C479.557 86.6865 479.47 87.7867 479.483 88.888C479.441 90.8919 480.098 92.8493 481.339 94.423C481.873 95.1556 482.573 95.7506 483.383 96.1582C484.192 96.5658 485.088 96.7746 485.994 96.767C489.162 96.767 492.418 95.2047 495.761 92.08C498.744 89.0555 501.445 85.7648 503.829 82.249L504.489 81.337L502.789 79.905C501.157 82.1741 499.396 84.348 497.515 86.416C495.084 88.9767 493.13 90.257 491.655 90.257C491.336 90.3116 491.008 90.2656 490.716 90.1256C490.425 89.9855 490.184 89.7581 490.027 89.475C489.756 88.953 489.622 88.3708 489.637 87.783C489.833 86.2872 490.137 84.8076 490.548 83.356L503.696 36.871C503.712 36.7595 503.693 36.6458 503.64 36.5463C503.587 36.4469 503.503 36.3669 503.402 36.318C503.167 36.1647 502.124 36.305 500.272 36.739ZM514.039 81.467C513.659 82.899 513.359 84.157 513.119 85.242C512.815 86.6774 512.641 88.1373 512.599 89.604C512.599 92.4253 513.532 94.4217 515.399 95.593C516.649 96.3817 518.102 96.789 519.579 96.765C523.239 96.765 526.872 94.965 530.479 91.365C533.698 87.7863 536.624 83.9547 539.229 79.907L537.469 78.67C535.547 81.5165 533.414 84.215 531.089 86.743C528.569 89.521 526.529 90.91 524.969 90.91C524.632 90.9453 524.292 90.8809 523.992 90.7246C523.691 90.5683 523.443 90.3271 523.279 90.031C522.955 89.3741 522.797 88.6473 522.819 87.915C522.818 87.5207 522.861 87.1275 522.949 86.743C523.039 86.352 523.319 85.224 523.799 83.358L545.469 5.102C545.379 4.92747 545.249 4.77712 545.089 4.66379C544.929 4.55046 544.743 4.47746 544.549 4.451C541.059 5.31767 538.092 5.96867 535.649 6.404C534.859 6.535 533.199 6.774 530.639 7.121C528.079 7.468 525.829 7.772 523.869 8.032L523.869 10.181C526.234 10.0513 528.606 10.1933 530.939 10.604C531.514 10.7597 532.012 11.1202 532.34 11.6173C532.667 12.1144 532.802 12.7145 532.719 13.304C532.719 13.6507 532.699 14.1063 532.659 14.671C532.607 15.2448 532.497 15.8118 532.329 16.363ZM591.529 48.339C591.529 56.0723 588.609 64.7423 582.769 74.349C576.699 84.9103 570.396 90.1907 563.859 90.19C562.818 90.2122 561.784 90.0113 560.826 89.6008C559.869 89.1903 559.011 88.5797 558.309 87.81C556.819 86.224 556.072 83.6907 556.069 80.21C556.069 73.3007 558.766 65.0653 564.159 55.504C570.299 44.6373 576.942 39.204 584.089 39.204C585.073 39.1881 586.05 39.3769 586.957 39.7586C587.864 40.1402 588.682 40.7064 589.359 41.421C590.799 42.899 591.529 45.202 591.529 48.33L591.529 48.33ZM583.439 36.283C574.309 36.283 565.489 41.4317 556.979 51.729C548.729 61.6363 544.606 71.1517 544.609 80.275C544.609 85.577 546.039 89.6727 548.899 92.562C550.111 93.9 551.585 94.975 553.229 95.7203C554.874 96.4656 556.654 96.8654 558.459 96.895C560.676 96.8702 562.873 96.4737 564.959 95.722C568.312 94.2585 571.39 92.2311 574.059 89.728C576.581 87.5613 578.858 85.1247 580.849 82.462C582.689 79.962 584.009 78.062 584.789 76.762C584.219 78.754 583.649 81.211 583.059 84.134C582.559 86.3427 582.264 88.593 582.179 90.856C582.126 92.375 582.6 93.8666 583.519 95.077C583.975 95.6402 584.558 96.0871 585.22 96.3808C585.883 96.6744 586.606 96.8064 587.329 96.766C589.869 96.766 592.542 95.7353 595.349 93.674C598.156 91.6127 601.879 87.6953 606.519 81.922L604.959 80.555L600.709 84.722C600.069 85.33 599.519 85.84 599.069 86.252C598.619 86.664 598.199 87.023 597.829 87.326L596.669 88.237C596.115 88.6692 595.53 89.0609 594.919 89.409C594.525 89.6454 594.078 89.7798 593.619 89.8C593.178 89.8128 592.747 89.6629 592.409 89.379C592.237 89.2053 592.105 88.9962 592.022 88.7664C591.94 88.5365 591.908 88.2914 591.929 88.048C591.929 87.0967 592.729 83.2913 594.329 76.632C595.319 72.944 596.512 68.5623 597.909 63.487L604.349 40.187C604.529 39.58 604.679 39.113 604.769 38.787C604.859 38.461 604.999 38.017 605.189 37.453C605.278 37.1904 605.289 36.9074 605.219 36.639C605.133 36.542 605.023 36.4697 604.9 36.4298C604.777 36.3899 604.645 36.3837 604.519 36.412L597.019 37.251C596.848 37.2442 596.677 37.2722 596.517 37.3334C596.358 37.3946 596.212 37.4877 596.089 37.607C595.891 37.9637 595.737 38.3427 595.629 38.736L594.169 43.644L593.839 42.732C593.355 41.3045 592.543 40.01 591.469 38.953C589.579 37.172 586.909 36.281 583.439 36.281L583.439 36.281Z" sodipodi:nodetypes="cccccccccccccccccccccccccccccccccccccccccccccccccccccccccccccccccccccccccccccccccccccccccccccccccccccccccccccccccccccccccccccccccccccccccccccccccccccccccccccccccccccccccccccccccccccccccccccccccccccccccccccccccccccccccccccccccccccccccccccccccccccccccccccccccccccccccccccccccccccccccccccccccccccccccccccccccccccccccccccccccccccccccccccccccccccccccccccccccc"/>
</svg>
