<?xml version="1.0" standalone="no"?>
<!DOCTYPE svg PUBLIC "-//W3C//DTD SVG 20010904//EN" "http://www.w3.org/TR/2001/REC-SVG-20010904/DTD/svg10.dtd">
<!-- Created using Krita: https://krita.org -->
<svg xmlns="http://www.w3.org/2000/svg" 
    xmlns:xlink="http://www.w3.org/1999/xlink"
    xmlns:krita="http://krita.org/namespaces/svg/krita"
    xmlns:sodipodi="http://sodipodi.sourceforge.net/DTD/sodipodi-0.dtd"
    width="588.96pt"
    height="187.92pt"
    viewBox="0 0 588.96 187.92">
<defs/>
<path id="MihaiBrunea_" transform="matrix(0.719999977055409 0 0 0.719999977055409 111.598554192879 0.721454283059196)" fill="#1b1c20" fill-rule="evenodd" stroke-opacity="0" stroke="#000000" stroke-width="0" stroke-linecap="square" stroke-linejoin="bevel" d="M0 95.333L10.8 95.333L10.8 16.933L11.066 16.933C11.066 16.933 13.466 24.133 15.333 28.933L41.466 95.333L50.666 95.333L76.799 28.933C78.532 24.4 81.065 16.933 81.065 16.933L81.332 16.933L81.332 95.333L92.798 95.333L92.798 0.001L77.198 0.001L46.532 79.201L46.266 79.201L15.333 0.001L0 0.001ZM107.425 95.333L118.225 95.333L118.225 26.4L107.425 26.4ZM107.425 13.333L118.225 13.333L118.225 0.001L107.425 0.001L107.425 13.334ZM141.05 0L130.25 0L130.25 95.333L141.05 95.333L141.05 52.933C141.05 41.6 149.05 33.867 159.983 33.867C169.717 33.867 175.583 38.934 175.583 47.867L175.583 95.333L186.383 95.333L186.383 46.933C186.383 32.666 177.583 24.8 163.183 24.8C153.183 24.8 146.25 28.933 141.317 35.466L141.05 35.466L141.05 0.001ZM252.53 96C254.537 96.0467 256.533 95.684 258.396 94.934L258.396 87.067L257.996 87.067C251.996 88.401 250.663 85.334 250.663 79.734L250.663 46.934C250.663 30.534 239.863 25.067 225.197 25.067C206.93 25.067 198.13 35.067 197.73 48.4L208.13 48.4C208.53 38 214.13 33.2 225.33 33.2C235.197 33.2 240.796 37.6 240.796 45.334C240.796 52.8 233.996 53.734 224.263 55.2C207.063 57.867 194.263 61.2 194.263 77.466C194.263 90.533 204.529 96.666 217.596 96.666C229.329 96.666 236.396 91.066 240.529 85.733L240.662 85.733C241.73 92.799 245.463 95.999 252.53 95.999ZM219.997 88.4C212.93 88.4 205.73 86.4 205.73 77.2C205.73 67.067 214.397 65.2 225.197 63.2C231.063 62.133 237.33 60.4 240.93 58.133L240.93 69.866C240.93 77.866 234.397 88.4 219.997 88.4ZM264.383 95.333L275.183 95.333L275.183 26.4L264.383 26.4ZM264.383 13.333L275.183 13.333L275.183 0.001L264.383 0.001L264.383 13.334ZM314.663 46.894L323.273 16.035C323.403 15.431 323.659 14.8609 324.023 14.3614C324.387 13.862 324.851 13.4442 325.386 13.135C326.406 12.593 328.368 12.3217 331.273 12.321C335.825 12.321 339.499 13.3517 342.296 15.413C345.093 17.4743 346.493 21.001 346.496 25.993C346.496 34.761 343.198 40.7943 336.603 44.093C332.752 46.003 327.387 46.9577 320.509 46.957ZM313.547 91.1C311.546 91.1936 309.543 90.9515 307.622 90.384C306.608 90.0916 305.725 89.4598 305.121 88.5949C304.517 87.73 304.228 86.6834 304.302 85.631C304.309 84.9647 304.376 84.3004 304.502 83.646C304.636 82.9102 304.81 82.1821 305.023 81.465L313.451 51.256C322.651 51.3893 328.765 52.1273 331.793 53.47C336.56 55.6833 338.944 60.3923 338.944 67.597C339.076 73.7034 336.888 79.6384 332.823 84.197C328.743 88.797 322.319 91.097 313.552 91.097L313.552 91.097ZM280.347 95.332L317.19 95.332C328.431 95.332 337.285 92.8797 343.753 87.975C350.221 83.0703 353.454 76.9723 353.453 69.681C353.453 63.2143 351.392 58.0927 347.269 54.316C344.969 52.2333 341.519 50.3237 336.92 48.587C342.865 47.285 347.508 45.614 350.85 43.574C356.969 39.798 360.028 34.503 360.029 27.689C360.029 19.485 356.276 13.799 348.769 10.631C343.765 9.03081 338.532 8.26126 333.279 8.353L298.854 8.353L298.854 10.501C302.847 10.589 305.571 11.0447 307.025 11.868C308.479 12.6913 309.206 14.2323 309.206 16.491C309.131 17.9841 308.913 19.4666 308.555 20.918C308.337 21.7433 308.024 22.8927 307.616 24.366L291.28 83.354C290.108 87.478 288.611 90.1907 286.788 91.492C285.616 92.3587 283.467 92.9227 280.342 93.184L280.342 95.333ZM388.731 36.087C388.514 36.087 386.397 36.4777 382.38 37.259C378.363 38.0403 374.661 38.778 371.274 39.472L368.674 39.993L368.674 42.142C369.759 42.0087 370.692 41.9 371.474 41.816C372.122 41.7381 372.774 41.6948 373.427 41.686C374.032 41.6226 374.644 41.6822 375.226 41.8612C375.808 42.0403 376.347 42.3351 376.812 42.728C377.512 43.562 377.862 44.6356 377.789 45.722C377.748 47.1906 377.562 48.6517 377.235 50.084C376.866 51.8653 376.378 53.8837 375.771 56.139L364.906 95.333L374.906 95.333C376.874 88.9543 378.449 84.0283 379.63 80.555C381.497 75.0437 383.191 70.6167 384.713 67.274C387.141 61.9245 390.008 56.7849 393.284 51.908C396.477 47.178 398.92 44.8113 400.615 44.808C400.924 44.7975 401.229 44.8767 401.494 45.036C401.74 45.1966 401.95 45.4072 402.11 45.654L402.891 47.087C403.298 47.8017 403.851 48.4229 404.514 48.91C405.422 49.4901 406.493 49.7639 407.568 49.691C408.427 49.7351 409.284 49.5853 410.077 49.2528C410.87 48.9203 411.578 48.4134 412.148 47.77C413.279 46.4135 413.87 44.6852 413.805 42.92C413.821 41.2311 413.233 39.591 412.146 38.298C411.569 37.6201 410.843 37.085 410.025 36.7347C409.206 36.3844 408.318 36.2284 407.429 36.279C403.655 36.279 399.675 38.808 395.489 43.866C391.23 49.0355 387.554 54.6584 384.526 60.633L383.017 63.641L389.652 38.25C389.693 38.029 389.732 37.697 389.773 37.256C389.777 36.9683 389.698 36.6855 389.545 36.442C389.453 36.3162 389.329 36.2169 389.186 36.1541C389.043 36.0912 388.886 36.0671 388.731 36.084L388.731 36.084ZM417.291 84.909C417.073 85.909 416.921 86.691 416.835 87.255C416.738 87.9885 416.694 88.7281 416.705 89.468C416.705 92.5953 417.843 94.767 420.12 95.983C421.344 96.5994 422.698 96.9119 424.068 96.894C429.42 96.894 435.101 93.2877 441.111 86.075C444.578 81.871 449.337 74.7023 455.389 64.569L455.866 64.563L454.166 70.689C452.909 75.2557 451.876 79.0613 451.066 82.106C450.633 83.5983 450.285 85.1141 450.024 86.646C449.817 87.8687 449.709 89.106 449.699 90.346C449.623 91.2404 449.746 92.1407 450.059 92.9818C450.372 93.823 450.868 94.5844 451.511 95.211C452.818 96.2824 454.475 96.8364 456.164 96.767C459.821 96.767 463.78 94.3773 468.04 89.598C470.375 86.9606 472.451 84.1048 474.24 81.07L472.384 79.833C470.814 81.7857 469.647 83.2397 468.884 84.195C467.653 85.757 466.804 86.777 466.337 87.255C465.548 88.0894 464.697 88.862 463.79 89.566C463.23 90.0213 462.537 90.284 461.816 90.315C461.557 90.3407 461.295 90.2969 461.059 90.1882C460.822 90.0794 460.618 89.9095 460.469 89.696C460.201 89.2553 460.066 88.7466 460.079 88.231C460.097 87.6158 460.182 87.0045 460.334 86.408C460.505 85.6707 460.697 84.868 460.91 84L473.71 37.783L463.889 37.783C461.254 45.085 459.234 50.4087 457.828 53.754C455.704 58.8285 453.193 63.7317 450.315 68.42C447.223 73.4149 443.754 78.1657 439.937 82.631C436.049 87.195 432.809 89.4763 430.218 89.475C429.807 89.4929 429.398 89.427 429.013 89.2814C428.629 89.1358 428.279 88.9135 427.983 88.628C427.689 88.3149 427.463 87.9454 427.316 87.542C427.17 87.1385 427.107 86.7095 427.132 86.281C427.159 85.8425 427.226 85.4073 427.332 84.981C427.462 84.373 427.679 83.5257 427.983 82.439L440.639 38.451L440.834 37.376C440.853 37.2413 440.845 37.1041 440.811 36.9724C440.777 36.8408 440.716 36.7172 440.634 36.609C440.581 36.5006 440.496 36.4115 440.39 36.3541C440.284 36.2967 440.163 36.2739 440.043 36.289L429.565 38.242L419.879 40.13L419.879 41.953C421.971 41.843 424.067 42.0517 426.096 42.572C427.203 42.9847 427.756 44.124 427.756 45.99C427.756 46.3719 427.722 46.753 427.656 47.129C427.591 47.498 427.514 47.9 427.428 48.334ZM489.6 95.333C492.44 85.891 494.513 79.381 495.818 75.803C497.247 71.9661 499.04 68.2746 501.172 64.779C503.868 60.3918 506.865 56.1964 510.14 52.223C515.151 46.3257 519.305 43.377 522.603 43.377C523.107 43.3218 523.617 43.3977 524.084 43.5972C524.55 43.7967 524.958 44.1132 525.266 44.516C525.78 45.321 526.042 46.2613 526.018 47.216C525.989 48.0118 525.913 48.8052 525.79 49.592C525.57 51.0275 525.277 52.4507 524.911 53.856L516.603 85.497C516.41 86.2017 516.268 86.9196 516.18 87.645C516.074 88.4219 516.02 89.2049 516.017 89.989C516.017 92.551 516.689 94.3197 518.033 95.295C519.234 96.222 520.703 96.7361 522.22 96.76C525.412 96.76 528.753 95.0457 532.243 91.617C535.282 88.4635 538.058 85.0668 540.543 81.461L538.655 79.768C536.562 82.7716 534.246 85.613 531.726 88.268C530.311 89.592 529.063 90.254 527.981 90.254C527.69 90.273 527.399 90.2098 527.141 90.0715C526.884 89.9333 526.671 89.7255 526.526 89.472C526.219 88.9381 526.061 88.3309 526.071 87.715C526.113 87.0439 526.222 86.3786 526.396 85.729C526.613 84.7957 526.809 84.0037 526.982 83.353L535.55 52.168C535.897 50.866 536.179 49.6507 536.397 48.522C536.608 47.4497 536.717 46.3598 536.722 45.267C536.722 41.5337 535.392 38.951 532.732 37.519C531.187 36.7482 529.475 36.3684 527.749 36.413C522.767 36.413 517.129 39.9067 510.836 46.894C505.944 52.5944 501.474 58.6437 497.462 64.994L506.093 36.994C505.983 36.7513 505.803 36.5473 505.575 36.409L494.002 38.948C492.622 39.252 491.339 39.5123 490.154 39.729C488.969 39.9457 486.975 40.271 484.173 40.705L484.173 42.854C484.78 42.7673 485.334 42.6913 485.833 42.626C486.34 42.5596 486.851 42.5262 487.363 42.526C489.446 42.526 490.846 42.886 491.563 43.606C491.934 44.004 492.22 44.473 492.405 44.9846C492.59 45.4962 492.669 46.0399 492.638 46.583C492.642 47.3635 492.566 48.1423 492.41 48.907C492.257 49.627 491.704 51.6883 490.75 55.091L479.605 95.333L489.605 95.333ZM546.2 78.033C546.2 84.103 547.936 88.764 551.409 92.016C554.644 95.1719 558.999 96.9256 563.518 96.893C570.029 96.893 576.517 94.571 582.984 89.927C586.123 87.7889 588.95 85.2254 591.384 82.31L589.691 80.81C586.827 83.2633 583.803 85.5248 580.641 87.58C577.549 89.5817 573.971 90.7072 570.29 90.836C567.037 90.8994 563.872 89.763 561.403 87.645C558.907 85.519 557.659 82.546 557.66 78.726C557.637 77.3853 557.746 76.0455 557.985 74.726C558.202 73.6627 558.592 72.2413 559.157 70.462L562.868 70.007C571.055 68.9708 578.926 66.1901 585.947 61.853C593.261 57.413 596.918 52.0733 596.918 45.834C596.918 42.7593 595.918 40.442 593.918 38.882C591.568 37.2146 588.722 36.39 585.845 36.543C576.686 36.543 567.81 41.052 559.217 50.07C550.536 59.088 546.195 68.4093 546.196 78.034L546.196 78.034ZM560.068 67.533C560.892 65.3263 561.673 63.3563 562.411 61.623C563.922 58.0645 565.752 54.6505 567.88 51.423C570.007 48.4394 572.464 45.7051 575.204 43.272C577.916 40.872 580.683 39.6703 583.504 39.667C584.153 39.6237 584.804 39.7334 585.403 39.9873C586.003 40.2413 586.534 40.6323 586.955 41.129C587.787 42.2641 588.201 43.6528 588.126 45.058C588.126 49.6047 585.522 54.1837 580.314 58.795C575.106 63.4063 568.358 66.319 560.07 67.533L560.07 67.533ZM647.576 48.339C647.576 56.0723 644.656 64.7423 638.815 74.349C632.753 84.9097 626.453 90.19 619.915 90.19C618.873 90.2117 617.839 90.0106 616.881 89.6002C615.923 89.1897 615.064 88.5794 614.361 87.81C612.866 86.224 612.119 83.6907 612.12 80.21C612.12 73.3013 614.817 65.066 620.212 55.504C626.352 44.6373 632.996 39.204 640.145 39.204C641.128 39.1891 642.103 39.3784 643.009 39.76C643.915 40.1416 644.732 40.7073 645.408 41.421C646.855 42.899 647.579 45.202 647.579 48.33L647.579 48.33ZM639.49 36.283C630.363 36.283 621.543 41.4317 613.032 51.729C604.783 61.6363 600.659 71.1517 600.659 80.275C600.659 85.577 602.089 89.6727 604.95 92.562C606.161 93.8998 607.635 94.9748 609.278 95.7201C610.922 96.4654 612.701 96.8653 614.506 96.895C616.723 96.8706 618.92 96.474 621.006 95.722C624.359 94.2584 627.437 92.231 630.106 89.728C632.628 87.56 634.906 85.1236 636.9 82.462C638.741 79.9647 640.052 78.0647 640.833 76.762C640.268 78.754 639.693 81.2113 639.107 84.134C638.609 86.3431 638.315 88.5932 638.228 90.856C638.173 92.3746 638.645 93.8665 639.564 95.077C640.02 95.6402 640.603 96.0871 641.266 96.3808C641.929 96.6744 642.651 96.8064 643.375 96.766C646.312 96.6204 649.126 95.5363 651.401 93.674C654.211 91.6127 657.934 87.6953 662.571 81.922L661.009 80.555L656.758 84.722C656.118 85.33 655.57 85.84 655.113 86.252C654.656 86.664 654.245 87.022 653.878 87.326L652.713 88.237C652.161 88.6697 651.577 89.0614 650.968 89.409C650.574 89.6452 650.127 89.7796 649.668 89.8C649.23 89.8125 648.802 89.6625 648.468 89.379C648.294 89.2066 648.16 88.9979 648.076 88.7679C647.991 88.5379 647.959 88.2921 647.98 88.048C647.98 87.0973 648.783 83.292 650.389 76.632C651.369 72.944 652.559 68.5623 653.96 63.487L660.402 40.187C660.589 39.5797 660.729 39.113 660.823 38.787C660.917 38.461 661.057 38.0163 661.243 37.453C661.328 37.1896 661.338 36.908 661.274 36.639C661.188 36.5418 661.078 36.4694 660.955 36.4295C660.832 36.3895 660.7 36.3835 660.574 36.412L653.074 37.251C652.903 37.2426 652.732 37.2699 652.572 37.3312C652.411 37.3925 652.266 37.4864 652.144 37.607C651.943 37.9624 651.787 38.3417 651.681 38.736L650.22 43.644L649.891 42.732C649.406 41.3048 648.595 40.0106 647.521 38.953C645.634 37.173 642.957 36.283 639.49 36.283Z" sodipodi:nodetypes="ccccccccccccccccccccccccccccccccccccccccccccccccccccccccccccccccccccccccccccccccccccccccccccccccccccccccccccccccccccccccccccccccccccccccccccccccccccccccccccccccccccccccccccccccccccccccccccccccccccccccccccccccccccccccccccccccccccccccccccccccccccccccccccccccccccccccccccccccccccccccccccccccccccccccccccccccccccccccccccccccccccccccccccccccccccccccccccccccc"/>
</svg>
