<?xml version="1.0" standalone="no"?>
<!DOCTYPE svg PUBLIC "-//W3C//DTD SVG 20010904//EN" "http://www.w3.org/TR/2001/REC-SVG-20010904/DTD/svg10.dtd">
<!-- Created using Krita: https://krita.org -->
<svg xmlns="http://www.w3.org/2000/svg" 
    xmlns:xlink="http://www.w3.org/1999/xlink"
    xmlns:krita="http://krita.org/namespaces/svg/krita"
    xmlns:sodipodi="http://sodipodi.sourceforge.net/DTD/sodipodi-0.dtd"
    width="588.96pt"
    height="160.56pt"
    viewBox="0 0 588.96 160.56">
<defs/>
<path id="DianaCepleanu_" transform="matrix(0.719999973675026 0 0 0.719999973675026 16.5585783334698 0.721448445010285)" fill="#1b1c20" fill-rule="evenodd" stroke-opacity="0" stroke="#000000" stroke-width="0" stroke-linecap="square" stroke-linejoin="bevel" d="M0 95.333L33.733 95.333C62.399 95.333 76.933 76.533 76.933 48C76.933 19.467 63.333 0 34.667 0L0 0ZM12 84.8L12 10.4L34.266 10.4C56.666 10.4 64.666 25.6 64.666 48C64.666 70.4 55.733 84.8 33.333 84.8ZM88.4 95.333L99.2 95.333L99.2 26.4L88.4 26.4ZM88.4 13.333L99.2 13.333L99.2 0.001L88.4 0.001L88.4 13.334ZM165.727 95.999C167.734 96.0457 169.73 95.683 171.593 94.933L171.593 87.066L171.193 87.066C165.193 88.4 163.86 85.333 163.86 79.733L163.86 46.933C163.86 30.533 153.06 25.066 138.394 25.066C120.127 25.066 111.327 35.066 110.928 48.399L121.328 48.399C121.728 37.999 127.328 33.199 138.528 33.199C148.395 33.199 153.994 37.599 153.994 45.333C153.994 52.799 147.194 53.733 137.461 55.199C120.261 57.866 107.461 61.199 107.461 77.465C107.461 90.532 117.727 96.665 130.794 96.665C142.527 96.665 149.594 91.065 153.727 85.732L153.86 85.732C154.927 92.799 158.664 95.999 165.727 95.999ZM133.194 88.399C126.127 88.399 118.927 86.399 118.927 77.199C118.927 67.066 127.594 65.199 138.394 63.199C144.26 62.132 150.527 60.399 154.127 58.132L154.127 69.865C154.127 77.866 147.598 88.4 133.198 88.4ZM188.447 26.399L177.647 26.399L177.647 95.333L188.447 95.333L188.447 52.933C188.447 41.6 196.447 33.867 207.38 33.867C217.113 33.867 222.98 38.934 222.98 47.867L222.98 95.333L233.78 95.333L233.78 46.933C233.78 32.666 224.98 24.8 210.58 24.8C200.58 24.8 193.646 28.933 188.713 35.466L188.447 35.466ZM299.926 95.999C301.933 96.0457 303.929 95.683 305.792 94.933L305.792 87.066L305.392 87.066C299.392 88.4 298.059 85.333 298.059 79.733L298.059 46.933C298.059 30.533 287.259 25.066 272.593 25.066C254.327 25.066 245.527 35.066 245.127 48.399L255.527 48.399C255.927 37.999 261.527 33.199 272.727 33.199C282.594 33.199 288.194 37.599 288.194 45.333C288.194 52.799 281.394 53.733 271.661 55.199C254.461 57.866 241.661 61.199 241.661 77.465C241.661 90.532 251.928 96.665 264.994 96.665C276.727 96.665 283.794 91.065 287.927 85.732L288.06 85.732C289.127 92.799 292.863 95.999 299.927 95.999ZM267.393 88.399C260.327 88.399 253.127 86.399 253.127 77.199C253.127 67.066 261.793 65.199 272.593 63.199C278.46 62.132 284.726 60.399 288.326 58.132L288.326 69.865C288.327 77.866 281.797 88.4 267.397 88.4ZM366.079 6.66C350.497 6.66 337.259 12.91 326.366 25.41C316.426 36.782 311.456 49.195 311.457 62.649C311.327 71.6635 314.501 80.4211 320.376 87.259C326.322 94.2903 334.851 97.806 345.962 97.806C353.073 97.8756 360.076 96.0435 366.242 92.5C372.623 88.751 378.225 83.811 382.742 77.949L380.594 76.061C375.211 81.227 370.849 84.8077 367.508 86.803C361.862 90.1027 355.427 91.8128 348.888 91.751C345.855 91.84 342.839 91.2556 340.059 90.04C337.278 88.8243 334.801 87.0073 332.807 84.72C328.64 80.032 326.557 73.1093 326.557 63.952C326.519 51.7514 330.1 39.8092 336.844 29.642C344.699 17.49 354.704 11.4137 366.857 11.413C374.756 11.413 380.42 14.386 383.849 20.332C385.716 23.544 386.887 27.7757 387.364 33.027L389.708 33.353L394.591 6.79L391.857 6.79C391.496 7.64582 390.938 8.40446 390.229 9.004C389.213 9.61975 388.027 9.89359 386.844 9.785C384.077 9.46183 381.336 8.93947 378.644 8.222C374.528 7.22928 370.313 6.70528 366.079 6.66ZM393.092 78.034C393.092 84.1007 394.828 88.7617 398.3 92.017C401.535 95.1729 405.89 96.9266 410.409 96.894C416.92 96.894 423.409 94.572 429.876 89.928C433.015 87.7898 435.842 85.2263 438.276 82.311L436.583 80.811C433.719 83.264 430.696 85.5255 427.534 87.581C424.442 89.5826 420.863 90.7081 417.182 90.837C413.93 90.9006 410.765 89.7642 408.296 87.646C405.799 85.52 404.551 82.547 404.552 78.727C404.529 77.3862 404.638 76.0464 404.878 74.727C405.197 73.2869 405.587 71.8638 406.049 70.463L409.76 70.008C417.948 68.9717 425.818 66.191 432.84 61.854C440.153 57.414 443.81 52.0743 443.81 45.835C443.81 42.7597 442.812 40.4423 440.815 38.883C438.465 37.2155 435.619 36.3909 432.742 36.544C423.584 36.544 414.708 41.053 406.115 50.071C397.433 59.089 393.093 68.4103 393.094 78.035L393.094 78.035ZM406.959 67.534C407.783 65.3273 408.564 63.3573 409.303 61.624C410.813 58.0653 412.643 54.6513 414.771 51.424C416.899 48.4404 419.356 45.7061 422.096 43.273C424.808 40.873 427.575 39.673 430.396 39.673C431.045 39.6296 431.696 39.7393 432.296 39.9932C432.895 40.2471 433.426 40.6383 433.847 41.135C434.679 42.27 435.093 43.6586 435.019 45.064C435.019 49.6113 432.415 54.1903 427.206 58.801C421.997 63.4117 415.248 66.3237 406.959 67.537L406.959 67.537ZM434.598 122.808L462.347 122.808L462.347 120.855C460.076 120.856 457.817 120.527 455.641 119.878C454.512 119.4 453.948 118.272 453.948 116.493C454.364 113.644 454.929 110.819 455.641 108.029C456.074 106.119 456.86 102.944 458.001 98.503L459.042 94.503C460.525 95.2372 462.063 95.8544 463.642 96.349C465.142 96.7448 466.691 96.9289 468.242 96.896C477.389 96.896 486.212 92.317 494.713 83.159C503.298 73.915 507.591 64.193 507.592 53.993C507.592 48.047 506.243 43.6307 503.544 40.744C500.845 37.8573 497.133 36.4143 492.407 36.415C487.763 36.415 483.287 38.2423 478.978 41.897C476.039 44.5015 473.405 47.4316 471.127 50.631L474.72 38.631C474.853 38.239 475.016 37.65 475.209 36.864C475.196 36.7166 475.126 36.5799 475.014 36.4829C474.902 36.3858 474.757 36.3357 474.609 36.343L453.517 39.403L453.647 41.552C454.055 41.4686 454.468 41.4141 454.884 41.389C455.275 41.368 455.684 41.356 456.121 41.356C457.741 41.2544 459.356 41.6184 460.776 42.405C461.302 42.7522 461.727 43.2323 462.008 43.7964C462.289 44.3606 462.416 44.989 462.376 45.618C462.361 46.1672 462.307 46.7145 462.214 47.256C462 48.4055 461.728 49.5436 461.4 50.666L443.4 114.208C443.034 116.151 442.01 117.911 440.5 119.188C438.739 120.283 436.677 120.796 434.608 120.653L434.608 122.802ZM495.598 53.732C495.598 62.2393 493.021 70.8113 487.867 79.448C482.111 89.128 475.454 93.9677 467.895 93.967C466.198 94.0151 464.518 93.6076 463.031 92.787C462.382 92.4278 461.848 91.8932 461.489 91.2446C461.13 90.596 460.961 89.8592 461.001 89.119C461.001 88.085 461.83 84.6033 463.487 78.674C465.144 72.7447 466.921 67.0637 468.816 61.631C471.17 54.7163 474.115 49.7613 477.651 46.766C481.187 43.7707 484.456 42.2733 487.457 42.274C489.005 42.1735 490.544 42.5841 491.836 43.4425C493.128 44.3008 494.103 45.5601 494.611 47.026C495.349 49.1818 495.683 51.4551 495.598 53.732ZM515.647 81.468C515.27 82.9 514.964 84.1583 514.729 85.243C514.425 86.6785 514.251 88.1384 514.208 89.605C514.208 92.4263 515.143 94.4227 517.014 95.594C518.262 96.3836 519.715 96.7911 521.192 96.766C524.847 96.766 528.48 94.966 532.092 91.366C535.308 87.7858 538.233 83.9543 540.839 79.908L539.081 78.671C537.155 81.5154 535.022 84.2137 532.699 86.744C530.181 89.522 528.141 90.911 526.578 90.911C526.241 90.9466 525.901 90.8823 525.6 90.726C525.299 90.5697 525.051 90.3283 524.886 90.032C524.565 89.3739 524.409 88.6478 524.43 87.916C524.43 87.5217 524.473 87.1286 524.56 86.744C524.646 86.3533 524.928 85.225 525.406 83.359L547.079 5.103C546.989 4.92936 546.859 4.77968 546.699 4.66646C546.54 4.55324 546.356 4.47971 546.162 4.452C542.671 5.31867 539.704 5.96967 537.262 6.405C536.476 6.53833 534.806 6.77733 532.253 7.122C529.7 7.46667 527.442 7.77033 525.479 8.033L525.479 10.182C527.846 10.0527 530.22 10.1946 532.555 10.605C533.129 10.7617 533.626 11.1225 533.954 11.6194C534.281 12.1163 534.416 12.7159 534.333 13.305C534.333 13.652 534.31 14.105 534.268 14.672C534.222 15.2463 534.113 15.8137 533.942 16.364ZM547.195 78.036C547.195 84.1027 548.931 88.7637 552.403 92.019C555.638 95.1749 559.993 96.9286 564.512 96.896C571.023 96.896 577.511 94.574 583.978 89.93C587.117 87.7919 589.944 85.2284 592.378 82.313L590.685 80.813C587.821 83.266 584.798 85.5275 581.636 87.583C578.544 89.5846 574.965 90.7101 571.284 90.839C568.031 90.9024 564.866 89.766 562.397 87.648C559.901 85.522 558.653 82.549 558.654 78.729C558.631 77.3883 558.74 76.0485 558.979 74.729C559.196 73.6663 559.586 72.245 560.151 70.465L563.862 70.01C572.05 68.9737 579.92 66.193 586.942 61.856C594.255 57.416 597.911 52.0763 597.912 45.837C597.912 42.7617 596.912 40.4443 594.912 38.885C592.562 37.2176 589.716 36.393 586.839 36.546C577.681 36.546 568.805 41.055 560.211 50.073C551.53 59.091 547.19 68.4123 547.191 78.037L547.191 78.037ZM561.062 67.536C561.886 65.3293 562.667 63.3593 563.406 61.626C564.916 58.0673 566.746 54.6533 568.874 51.426C571.002 48.4424 573.459 45.7081 576.199 43.275C578.911 40.875 581.678 39.675 584.499 39.675C585.148 39.6316 585.799 39.7413 586.399 39.9952C586.998 40.2491 587.529 40.6403 587.95 41.137C588.783 42.2697 589.199 43.6561 589.127 45.06C589.127 49.6073 586.523 54.1863 581.314 58.797C576.105 63.4077 569.356 66.3197 561.067 67.533L561.067 67.533ZM648.57 48.342C648.57 56.0753 645.65 64.7453 639.81 74.352C633.747 84.9133 627.447 90.1937 620.91 90.193C619.868 90.2146 618.834 90.0134 617.876 89.603C616.918 89.1926 616.059 88.5822 615.356 87.813C613.862 86.227 613.115 83.6937 613.115 80.213C613.115 73.3037 615.812 65.0683 621.207 55.507C627.347 44.6403 633.991 39.207 641.14 39.207C642.123 39.1921 643.098 39.3814 644.004 39.763C644.91 40.1446 645.727 40.7103 646.403 41.424C647.85 42.902 648.573 45.205 648.574 48.333L648.574 48.333ZM640.483 36.286C631.356 36.286 622.537 41.4347 614.025 51.732C605.776 61.6393 601.652 71.1547 601.653 80.278C601.653 85.58 603.083 89.6757 605.943 92.565C607.154 93.9028 608.628 94.9778 610.271 95.7231C611.915 96.4684 613.694 96.8683 615.499 96.898C617.716 96.8735 619.913 96.4769 621.999 95.725C625.352 94.2612 628.43 92.2339 631.099 89.731C633.621 87.5632 635.899 85.1268 637.893 82.465C639.734 79.9677 641.045 78.0677 641.826 76.765C641.261 78.757 640.686 81.2143 640.101 84.137C639.603 86.3461 639.309 88.5962 639.222 90.859C639.167 92.3775 639.639 93.8694 640.557 95.08C641.013 95.6432 641.596 96.0901 642.259 96.3838C642.922 96.6774 643.644 96.8094 644.368 96.769C647.305 96.6234 650.119 95.5393 652.394 93.677C655.204 91.6163 658.928 87.699 663.565 81.925L662.002 80.558L657.751 84.725C657.111 85.333 656.563 85.843 656.106 86.255C655.649 86.667 655.238 87.025 654.871 87.329L653.706 88.24C653.154 88.6727 652.57 89.0644 651.961 89.412C651.567 89.6484 651.12 89.7828 650.661 89.803C650.221 89.8165 649.792 89.6664 649.456 89.382C649.282 89.2096 649.148 89.0009 649.064 88.7709C648.979 88.5409 648.947 88.2951 648.968 88.051C648.968 87.0997 649.771 83.2943 651.377 76.635C652.357 72.947 653.547 68.5653 654.948 63.49L661.391 40.19C661.577 39.5827 661.717 39.116 661.811 38.79C661.905 38.464 662.045 38.0193 662.231 37.456C662.316 37.1927 662.327 36.911 662.262 36.642C662.177 36.5456 662.068 36.4736 661.945 36.4337C661.823 36.3938 661.693 36.3873 661.567 36.415L654.067 37.254C653.896 37.2455 653.725 37.2728 653.565 37.3341C653.405 37.3954 653.26 37.4893 653.138 37.61C652.936 37.9651 652.78 38.3445 652.674 38.739L651.213 43.647L650.884 42.735C650.399 41.3078 649.588 40.0136 648.514 38.956C646.627 37.1753 643.951 36.2847 640.485 36.284L640.485 36.284ZM678.545 95.336C681.386 85.894 683.459 79.384 684.763 75.806C686.195 71.9675 687.991 68.275 690.127 64.779C692.823 60.3924 695.819 56.198 699.095 52.226C704.106 46.3293 708.26 43.3807 711.557 43.38C712.061 43.3247 712.571 43.4005 713.038 43.6C713.504 43.7996 713.912 44.1161 714.22 44.519C714.734 45.324 714.996 46.2643 714.972 47.219C714.943 48.0148 714.867 48.8082 714.744 49.595C714.525 51.0307 714.232 52.4539 713.865 53.859L705.557 85.5C705.364 86.2047 705.222 86.9226 705.134 87.648C705.028 88.4249 704.974 89.2079 704.971 89.992C704.971 92.554 705.643 94.3227 706.988 95.298C708.189 96.2253 709.658 96.7394 711.175 96.763C714.367 96.763 717.708 95.0487 721.198 91.62C724.236 88.4662 727.012 85.0695 729.498 81.464L727.61 79.771C725.517 82.7746 723.201 85.616 720.681 88.271C719.266 89.595 718.018 90.257 716.936 90.257C716.645 90.2761 716.354 90.2128 716.097 90.0746C715.84 89.9363 715.627 89.7285 715.482 89.475C715.174 88.9414 715.016 88.3341 715.026 87.718C715.069 87.0469 715.178 86.3817 715.351 85.732C715.568 84.7987 715.764 84.0067 715.937 83.356L724.506 52.171C724.853 50.869 725.135 49.6537 725.352 48.525C725.564 47.4528 725.673 46.3629 725.678 45.27C725.678 41.5367 724.348 38.954 721.687 37.522C720.142 36.7512 718.43 36.3714 716.704 36.416C711.722 36.416 706.085 39.9097 699.792 46.897C694.9 52.5971 690.43 58.6465 686.418 64.997L695.048 36.997C694.939 36.7539 694.758 36.5497 694.53 36.412L682.957 38.951C681.578 39.255 680.296 39.5153 679.11 39.732C677.924 39.9487 675.93 40.274 673.128 40.708L673.128 42.857C673.736 42.7703 674.289 42.6943 674.788 42.629C675.295 42.5627 675.806 42.5293 676.318 42.529C678.402 42.529 679.802 42.889 680.518 43.609C680.888 44.0072 681.174 44.4762 681.359 44.9878C681.544 45.4994 681.623 46.043 681.592 46.586C681.597 47.3665 681.52 48.1453 681.364 48.91C681.211 49.63 680.657 51.6913 679.704 55.094L668.555 95.333L678.555 95.333ZM737.151 84.913C736.934 85.913 736.783 86.695 736.696 87.259C736.598 87.9924 736.554 88.7321 736.565 89.472C736.565 92.5987 737.703 94.7703 739.98 95.987C741.204 96.6034 742.558 96.9159 743.928 96.898C749.28 96.898 754.961 93.2917 760.971 86.079C764.438 81.875 769.197 74.7063 775.249 64.573L775.727 64.567L774.027 70.693C772.769 75.2603 771.736 79.066 770.927 82.11C770.494 83.6023 770.146 85.1181 769.885 86.65C769.678 87.8727 769.57 89.11 769.56 90.35C769.484 91.2445 769.607 92.1449 769.92 92.9861C770.234 93.8273 770.73 94.5886 771.373 95.215C772.68 96.2865 774.337 96.8405 776.026 96.771C779.683 96.771 783.641 94.3813 787.901 89.602C790.234 86.9646 792.308 84.1088 794.094 81.074L792.244 79.837C790.674 81.7897 789.507 83.2437 788.744 84.199C787.513 85.761 786.664 86.781 786.197 87.259C785.408 88.0934 784.557 88.866 783.65 89.57C783.09 90.0253 782.397 90.288 781.676 90.319C781.417 90.3447 781.156 90.3008 780.919 90.192C780.683 90.0833 780.479 89.9134 780.33 89.7C780.061 89.2596 779.926 88.7507 779.939 88.235C779.957 87.6198 780.042 87.0085 780.194 86.412C780.365 85.6747 780.557 84.872 780.77 84.004L793.57 37.787L783.751 37.787C781.115 45.089 779.094 50.4127 777.689 53.758C775.566 58.8327 773.054 63.7359 770.176 68.424C767.084 73.4189 763.615 78.1697 759.798 82.635C755.91 87.199 752.67 89.4803 750.079 89.479C749.669 89.497 749.259 89.4312 748.875 89.2856C748.491 89.1399 748.14 88.9175 747.845 88.632C747.551 88.3191 747.324 87.9496 747.178 87.5462C747.031 87.1427 746.968 86.7135 746.993 86.285C747.018 85.8466 747.084 85.4115 747.188 84.985C747.321 84.377 747.538 83.5297 747.839 82.443L760.495 38.455L760.69 37.38C760.709 37.2453 760.701 37.1081 760.667 36.9764C760.633 36.8448 760.572 36.7212 760.49 36.613C760.437 36.5046 760.352 36.4155 760.246 36.3581C760.14 36.3007 760.019 36.2779 759.899 36.293L749.421 38.246L739.735 40.134L739.735 41.957C741.827 41.847 743.924 42.0557 745.953 42.576C747.059 42.9893 747.612 44.1287 747.613 45.994C747.613 46.3759 747.579 46.757 747.513 47.133C747.446 47.5017 747.37 47.9033 747.285 48.338Z" sodipodi:nodetypes="cccccccccccccccccccccccccccccccccccccccccccccccccccccccccccccccccccccccccccccccccccccccccccccccccccccccccccccccccccccccccccccccccccccccccccccccccccccccccccccccccccccccccccccccccccccccccccccccccccccccccccccccccccccccccccccccccccccccccccccccccccccccccccccccccccccccccccccccccccccccccccccccccccccccccccccccccccccccccccccccccccccccccccccccccccccccccccccccccccccccccccccccccccccccccccccccccccccccccccccccccccccccccc"/>
</svg>
