<?xml version="1.0" standalone="no"?>
<!DOCTYPE svg PUBLIC "-//W3C//DTD SVG 20010904//EN" "http://www.w3.org/TR/2001/REC-SVG-20010904/DTD/svg10.dtd">
<!-- Created using Krita: https://krita.org -->
<svg xmlns="http://www.w3.org/2000/svg" 
    xmlns:xlink="http://www.w3.org/1999/xlink"
    xmlns:krita="http://krita.org/namespaces/svg/krita"
    xmlns:sodipodi="http://sodipodi.sourceforge.net/DTD/sodipodi-0.dtd"
    width="588.96pt"
    height="187.92pt"
    viewBox="0 0 588.96 187.92">
<defs/>
<path id="LiliaDragneva" transform="matrix(0.719999947266435 0 0 0.719999947266435 77.0385542517581 0.72216982328102)" fill="#1b1c20" fill-rule="evenodd" stroke-opacity="0" stroke="#000000" stroke-width="0" stroke-linecap="square" stroke-linejoin="bevel" d="M0 95.332L62 95.332L62 84.265L12 84.265L12 0L0 0ZM69.2 95.332L80 95.332L80 26.4L69.2 26.4ZM69.2 13.332L80 13.332L80 0L69.2 0L69.2 13.333ZM92.225 95.332L103.025 95.332L103.025 0L92.225 0ZM115.251 95.332L126.051 95.332L126.051 26.4L115.246 26.4L115.246 95.332ZM115.251 13.332L126.051 13.332L126.051 0L115.246 0L115.246 13.333ZM192.583 95.997C194.59 96.0437 196.586 95.681 198.449 94.931L198.449 87.065L198.049 87.065C192.049 88.399 190.716 85.332 190.716 79.732L190.716 46.932C190.716 30.532 179.916 25.066 165.25 25.066C146.983 25.066 138.183 35.066 137.783 48.399L148.183 48.399C148.583 37.999 154.183 33.199 165.383 33.199C175.249 33.199 180.849 37.599 180.849 45.332C180.849 52.799 174.049 53.732 164.316 55.199C147.116 57.866 134.316 61.199 134.316 77.465C134.316 90.532 144.582 96.665 157.649 96.665C169.382 96.665 176.449 91.065 180.582 85.732L180.715 85.732C181.782 92.798 185.515 95.998 192.582 95.998ZM160.05 88.397C152.983 88.397 145.783 86.397 145.783 77.197C145.783 67.064 154.45 65.197 165.25 63.197C171.116 62.13 177.383 60.397 180.983 58.13L180.983 69.866C180.982 77.865 174.446 88.399 160.046 88.399ZM233.714 91.097C230.068 91.097 227.659 90.7497 226.487 90.055C225.315 89.3603 224.729 88.0583 224.729 86.149C224.729 85.539 224.773 84.9297 224.86 84.326C225.026 83.36 225.243 82.4037 225.511 81.461L243.73 16.161C243.879 15.5075 244.177 14.8971 244.6 14.3776C245.024 13.8581 245.562 13.4434 246.172 13.166C248.171 12.4841 250.283 12.1968 252.391 12.32C263.029 12.32 270.389 15.163 274.47 20.849C278.551 26.535 280.592 33.523 280.592 41.813C280.545 50.6086 278.473 59.2764 274.536 67.142C266.679 83.1147 253.071 91.1007 233.713 91.1L233.713 91.1ZM200.839 95.329L236.126 95.329C254.181 95.329 268.851 89.947 280.136 79.183C290.422 69.375 295.565 57.7863 295.566 44.417C295.663 38.0996 294.185 31.8565 291.266 26.253C289.379 22.779 286.912 19.6524 283.973 17.008C280.13 13.6381 275.527 11.2478 270.56 10.042C265.043 8.84046 259.406 8.27245 253.76 8.349L219.32 8.349L219.32 10.497C223.269 10.5843 225.981 11.051 227.458 11.897C228.935 12.743 229.672 14.2513 229.671 16.422C229.65 17.5515 229.508 18.6756 229.248 19.775C228.965 21.0557 228.585 22.5857 228.109 24.365L211.773 83.353C210.601 87.477 209.104 90.1897 207.281 91.491C206.11 92.3577 203.963 92.9217 200.838 93.183L200.838 95.332ZM324.663 36.087C324.445 36.087 322.328 36.4777 318.311 37.259C314.294 38.0403 310.593 38.778 307.206 39.472L304.601 39.993L304.601 42.142C305.685 42.0087 306.618 41.9003 307.401 41.817C308.049 41.7389 308.701 41.6955 309.354 41.687C309.959 41.6235 310.572 41.6831 311.153 41.8622C311.735 42.0413 312.275 42.3361 312.74 42.729C313.44 43.5635 313.79 44.6375 313.716 45.724C313.675 47.1926 313.489 48.6536 313.163 50.086C312.794 51.866 312.306 53.8843 311.698 56.141L300.846 95.332L310.84 95.332C312.809 88.9533 314.384 84.0273 315.565 80.554C317.432 75.0427 319.126 70.6157 320.648 67.273C323.076 61.9236 325.943 56.7841 329.218 51.907C332.411 47.1737 334.854 44.807 336.549 44.807C336.858 44.7965 337.163 44.8757 337.428 45.035C337.675 45.1955 337.885 45.406 338.045 45.653L338.825 47.085C339.233 47.7997 339.786 48.4209 340.449 48.908C341.357 49.4885 342.427 49.7623 343.502 49.689C344.361 49.7331 345.218 49.5832 346.011 49.2507C346.804 48.9182 347.512 48.4114 348.082 47.768C349.214 46.4117 349.804 44.6833 349.739 42.918C349.755 41.2291 349.167 39.5889 348.08 38.296C347.503 37.6182 346.777 37.0832 345.958 36.7331C345.14 36.383 344.252 36.2272 343.363 36.278C339.589 36.278 335.609 38.807 331.424 43.865C327.165 49.0343 323.488 54.6573 320.461 60.632L318.946 63.644L325.581 38.252C325.621 38.0313 325.661 37.7 325.702 37.258C325.706 36.9704 325.627 36.6877 325.474 36.444C325.382 36.3183 325.258 36.219 325.115 36.1562C324.972 36.0934 324.815 36.0692 324.66 36.086L324.66 36.086ZM392.268 48.338C392.268 56.0713 389.348 64.7413 383.508 74.348C377.445 84.9093 371.145 90.1897 364.608 90.189C363.566 90.2107 362.532 90.0096 361.574 89.5992C360.616 89.1887 359.757 88.5784 359.054 87.809C357.559 86.223 356.812 83.6913 356.813 80.214C356.813 73.3047 359.51 65.0693 364.905 55.508C371.045 44.6413 377.689 39.208 384.838 39.208C385.821 39.1931 386.796 39.3824 387.702 39.764C388.608 40.1456 389.425 40.7113 390.101 41.425C391.548 42.903 392.271 45.206 392.272 48.334L392.272 48.334ZM384.181 36.282C375.054 36.282 366.234 41.4307 357.723 51.728C349.472 61.6353 345.346 71.1507 345.346 80.274C345.346 85.576 346.776 89.6717 349.637 92.561C350.848 93.8988 352.322 94.9738 353.965 95.7191C355.609 96.4644 357.388 96.8643 359.193 96.894C361.41 96.8695 363.607 96.4729 365.693 95.721C369.046 94.2572 372.124 92.2299 374.793 89.727C377.315 87.5588 379.593 85.1224 381.587 82.461C383.428 79.9637 384.739 78.0637 385.52 76.761C384.955 78.753 384.38 81.2103 383.795 84.133C383.297 86.3421 383.003 88.5922 382.916 90.855C382.861 92.3735 383.333 93.8654 384.251 95.076C384.707 95.6392 385.29 96.0861 385.953 96.3798C386.616 96.6734 387.338 96.8054 388.062 96.765C390.999 96.6194 393.813 95.5353 396.088 93.673C398.898 91.6123 402.621 87.695 407.258 81.921L405.696 80.554L401.451 84.722C400.811 85.33 400.263 85.84 399.806 86.252C399.349 86.664 398.938 87.0207 398.571 87.322L397.406 88.233C396.854 88.6657 396.27 89.0574 395.661 89.405C395.267 89.6414 394.82 89.7758 394.361 89.796C393.921 89.8095 393.492 89.6594 393.156 89.375C392.982 89.2026 392.848 88.9939 392.764 88.7639C392.679 88.5339 392.647 88.2881 392.668 88.044C392.668 87.0933 393.471 83.288 395.077 76.628C396.057 72.9407 397.247 68.559 398.648 63.483L405.091 40.183C405.277 39.577 405.417 39.1103 405.511 38.783C405.605 38.4557 405.745 38.011 405.931 37.449C406.016 37.1857 406.026 36.904 405.962 36.635C405.877 36.5374 405.767 36.4646 405.643 36.4245C405.52 36.3843 405.388 36.3783 405.262 36.407L397.762 37.246C397.591 37.2378 397.42 37.2652 397.26 37.3265C397.1 37.3878 396.955 37.4816 396.833 37.602C396.631 37.9572 396.475 38.3365 396.369 38.731L394.908 43.639L394.579 42.726C394.094 41.2989 393.283 40.0047 392.209 38.947C390.322 37.167 387.645 36.2767 384.18 36.276L384.18 36.276ZM428.911 61.998C428.911 57.224 430.397 52.2543 433.37 47.089C436.343 41.9237 440.26 39.3413 445.122 39.342C446.192 39.267 447.265 39.4494 448.251 39.8741C449.236 40.2988 450.106 40.9534 450.786 41.783C452.147 43.7559 452.812 46.1279 452.674 48.521C452.726 54.3235 451.135 60.0239 448.084 64.96C445.024 69.93 441.541 72.4147 437.635 72.414C434.035 72.414 431.539 71.0903 430.148 68.443C429.238 66.421 428.814 64.2134 428.911 61.998ZM431.189 120.071C427.896 120.167 424.617 119.592 421.554 118.379C416.562 116.208 414.066 112.237 414.067 106.465C414.067 102.645 415.695 99.227 418.95 96.211C422.205 93.195 424.397 91.6867 425.525 91.686C426.176 91.686 428.618 92.4997 432.85 94.127C437.082 95.7543 440.088 97.0023 441.867 97.871C443.551 98.6561 445.109 99.6874 446.489 100.931C447.359 101.787 448.045 102.811 448.504 103.942C448.963 105.073 449.186 106.286 449.158 107.506C449.158 110.934 447.455 113.885 444.048 116.36C440.641 118.835 436.355 120.072 431.189 120.071ZM406.846 108.157C406.846 112.28 408.799 115.774 412.705 118.639C416.611 121.504 421.906 122.937 428.59 122.939C438.226 122.939 445.431 120.975 450.205 117.047C454.979 113.119 457.366 108.552 457.366 103.347C457.366 96.4017 452.614 91.128 443.109 87.526C433.56 83.9673 428.785 81.45 428.786 79.974C428.935 78.6681 429.561 77.4621 430.543 76.589C431.672 75.3303 432.562 74.701 433.213 74.701C434.037 74.875 434.731 74.9943 435.296 75.059C435.901 75.1271 436.51 75.1605 437.119 75.159C443.493 75.1318 449.684 73.0057 454.73 69.111C460.176 65.0797 462.899 59.552 462.9 52.528C462.921 51.4193 462.855 50.3106 462.705 49.212C462.575 48.432 462.38 47.5653 462.119 46.612L468.76 46.612L468.76 41.36L459.966 41.36C459.486 40.5347 457.879 39.504 455.146 38.268C451.973 36.9465 448.556 36.3142 445.12 36.413C437.568 36.413 431.231 38.583 426.109 42.923C423.668 44.8813 421.707 47.3719 420.376 50.2039C419.044 53.0359 418.378 56.1351 418.427 59.264C418.275 62.9348 419.587 66.5197 422.073 69.225C424.132 71.1744 426.57 72.6812 429.234 73.652C426.858 75.2029 424.595 76.9216 422.464 78.795C419.99 81.0957 418.753 83.1357 418.753 84.915C418.698 86.02 419.071 87.1049 419.794 87.942C420.585 88.7824 421.483 89.5156 422.464 90.123C417.037 93.0317 413.076 95.9507 410.582 98.88C408.247 101.412 406.918 104.713 406.846 108.157ZM481.288 95.332C484.128 85.8893 486.201 79.3793 487.506 75.802C488.935 71.9651 490.728 68.2737 492.86 64.778C495.555 60.3909 498.55 56.1955 501.824 52.222C506.835 46.3247 510.989 43.376 514.286 43.376C514.79 43.3221 515.3 43.3992 515.766 43.5999C516.232 43.8007 516.639 44.1183 516.946 44.522C517.46 45.327 517.722 46.2673 517.698 47.222C517.669 48.0178 517.593 48.8112 517.47 49.598C517.25 51.0335 516.957 52.4567 516.591 53.862L508.286 85.501C508.093 86.2057 507.951 86.9236 507.863 87.649C507.757 88.4259 507.703 89.2089 507.7 89.993C507.7 92.555 508.372 94.3237 509.716 95.299C510.917 96.226 512.386 96.7401 513.903 96.764C517.096 96.764 520.437 95.0497 523.926 91.621C526.965 88.4676 529.741 85.0709 532.226 81.465L530.338 79.772C528.245 82.7756 525.929 85.617 523.409 88.272C521.994 89.596 520.746 90.258 519.664 90.258C519.373 90.2769 519.082 90.2136 518.825 90.0754C518.567 89.9371 518.354 89.7294 518.209 89.476C517.902 88.9421 517.744 88.3349 517.754 87.719C517.797 87.0479 517.906 86.3827 518.079 85.733C518.296 84.7997 518.491 84.0077 518.665 83.357L527.234 52.172C527.58 50.87 527.862 49.6547 528.08 48.526C528.291 47.4538 528.4 46.3638 528.405 45.271C528.405 41.5377 527.075 38.9553 524.415 37.524C522.87 36.7526 521.158 36.3725 519.432 36.417C514.45 36.417 508.812 39.911 502.519 46.899C497.627 52.5993 493.158 58.6487 489.146 64.999L497.776 37.004C497.667 36.7609 497.486 36.5565 497.258 36.418L485.684 38.952C484.304 39.256 483.022 39.5163 481.837 39.733C480.652 39.9497 478.658 40.2753 475.855 40.71L475.855 42.858C476.462 42.7713 477.015 42.6953 477.515 42.63C478.022 42.5635 478.533 42.5301 479.045 42.53C481.129 42.53 482.529 42.8897 483.245 43.609C483.616 44.0071 483.902 44.476 484.087 44.9876C484.271 45.4992 484.351 46.0429 484.32 46.586C484.324 47.3661 484.248 48.1446 484.092 48.909C483.939 49.629 483.385 51.6907 482.432 55.094L471.288 95.332ZM537.888 78.032C537.888 84.0987 539.624 88.7597 543.097 92.015C546.332 95.1709 550.687 96.9246 555.206 96.892C561.717 96.892 568.206 94.57 574.672 89.926C577.811 87.7879 580.638 85.2244 583.072 82.309L581.379 80.809C578.515 83.2622 575.492 85.5241 572.33 87.58C569.238 89.5815 565.659 90.707 561.978 90.836C558.725 90.8994 555.56 89.763 553.091 87.645C550.595 85.5197 549.347 82.5467 549.348 78.726C549.325 77.3853 549.434 76.0455 549.673 74.726C549.888 73.6633 550.279 72.242 550.846 70.462L554.557 70.007C562.745 68.971 570.616 66.1902 577.637 61.853C584.95 57.413 588.607 52.0733 588.607 45.834C588.607 42.7587 587.607 40.4413 585.607 38.882C583.257 37.2141 580.411 36.3891 577.534 36.542C568.376 36.542 559.5 41.051 550.906 50.069C542.225 59.087 537.885 68.4083 537.885 78.033L537.885 78.033ZM551.756 67.532C552.578 65.3253 553.358 63.3553 554.096 61.622C555.607 58.0635 557.437 54.6495 559.565 51.422C561.692 48.4382 564.149 45.7039 566.889 43.271C569.601 40.871 572.368 39.6693 575.189 39.666C575.838 39.6228 576.489 39.7325 577.088 39.9865C577.688 40.2404 578.219 40.6314 578.64 41.128C579.472 42.2632 579.887 43.6523 579.812 45.058C579.812 49.6053 577.208 54.1843 571.999 58.795C566.79 63.4057 560.042 66.318 551.753 67.532L551.753 67.532ZM640.389 36.542C639.05 36.5067 637.75 36.9978 636.769 37.909C636.289 38.3574 635.911 38.903 635.659 39.5094C635.408 40.1157 635.288 40.7688 635.309 41.425C635.309 42.9877 636.286 44.713 638.239 46.601C640.192 48.489 641.169 50.1057 641.169 51.451C641.169 54.1423 638.932 58.7423 634.459 65.251C630.43 71.2089 625.947 76.8464 621.049 82.113L618.899 84.392C618.379 75.4513 617.859 68.7023 617.339 64.145C616.499 56.8117 615.259 49.368 613.619 41.814C613.297 40.2111 612.859 38.6336 612.309 37.094C611.969 36.248 611.489 35.912 610.879 36.085L608.735 36.736C608.475 36.8233 606.263 37.3233 602.1 38.236C597.937 39.1487 595.203 39.7347 593.9 39.994L593.9 41.687C594.724 41.6003 595.451 41.5337 596.081 41.487C596.711 41.4403 597.264 41.4187 597.741 41.422C600.648 41.422 602.623 42.4853 603.665 44.612C604.707 46.7387 605.77 51.4697 606.855 58.805C607.376 62.1477 607.918 67.291 608.483 74.235C609.048 81.179 609.329 86.1053 609.326 89.014C609.296 90.7091 609.363 92.4045 609.526 94.092C609.746 95.871 610.176 96.761 610.826 96.761C612.996 96.761 619.573 89.7943 630.556 75.861C642.146 61.1943 647.939 50.9297 647.936 45.067C647.961 42.9311 647.275 40.8463 645.986 39.143C645.336 38.2854 644.485 37.5999 643.509 37.1467C642.533 36.6935 641.461 36.4862 640.386 36.543L640.386 36.543ZM695.739 48.342C695.739 56.0753 692.819 64.7453 686.979 74.352C680.909 84.9133 674.606 90.1937 668.069 90.193C667.028 90.2152 665.994 90.0143 665.036 89.6038C664.079 89.1933 663.221 88.5827 662.519 87.813C661.029 86.227 660.282 83.6953 660.279 80.218C660.279 73.3087 662.976 65.0733 668.369 55.512C674.509 44.6453 681.152 39.212 688.299 39.212C689.283 39.1971 690.259 39.3865 691.166 39.768C692.073 40.1496 692.892 40.7152 693.569 41.429C695.009 42.907 695.739 45.21 695.739 48.338L695.739 48.338ZM687.646 36.282C678.516 36.282 669.696 41.4307 661.186 51.728C652.936 61.6353 648.813 71.1507 648.816 80.274C648.816 85.576 650.246 89.6717 653.106 92.561C654.318 93.899 655.792 94.974 657.436 95.7193C659.081 96.4646 660.861 96.8644 662.666 96.894C664.883 96.8692 667.08 96.4727 669.166 95.721C672.519 94.2575 675.597 92.2301 678.266 89.727C680.788 87.5601 683.065 85.1236 685.056 82.461C686.896 79.961 688.216 78.061 688.996 76.761C688.426 78.753 687.856 81.211 687.266 84.133C686.766 86.3417 686.471 88.592 686.386 90.855C686.333 92.374 686.807 93.8656 687.726 95.076C688.182 95.6392 688.765 96.0861 689.427 96.3798C690.09 96.6734 690.813 96.8054 691.536 96.765C694.076 96.765 696.749 95.7343 699.556 93.673C702.363 91.6117 706.086 87.6947 710.726 81.922L709.166 80.555L704.916 84.722C704.276 85.33 703.726 85.84 703.276 86.252C702.826 86.664 702.406 87.023 702.036 87.326L700.876 88.237C700.322 88.6692 699.737 89.0609 699.126 89.409C698.732 89.6454 698.285 89.7798 697.826 89.8C697.385 89.8128 696.954 89.6629 696.616 89.379C696.444 89.2053 696.312 88.9962 696.229 88.7664C696.147 88.5365 696.115 88.2914 696.136 88.048C696.136 87.0973 696.936 83.292 698.536 76.632C699.526 72.9447 700.719 68.563 702.116 63.487L708.556 40.187C708.736 39.581 708.886 39.114 708.976 38.787C709.066 38.46 709.206 38.017 709.396 37.453C709.485 37.1904 709.496 36.9074 709.426 36.639C709.341 36.5416 709.23 36.469 709.107 36.4289C708.984 36.3888 708.852 36.3826 708.726 36.411L701.226 37.25C701.055 37.2435 700.884 37.2717 700.725 37.3329C700.565 37.3941 700.419 37.487 700.296 37.606C700.099 37.9628 699.944 38.3418 699.836 38.735L698.376 43.643L698.046 42.73C697.562 41.3026 696.75 40.0082 695.676 38.951C693.786 37.171 691.116 36.28 687.646 36.28L687.646 36.28Z" sodipodi:nodetypes="cccccccccccccccccccccccccccccccccccccccccccccccccccccccccccccccccccccccccccccccccccccccccccccccccccccccccccccccccccccccccccccccccccccccccccccccccccccccccccccccccccccccccccccccccccccccccccccccccccccccccccccccccccccccccccccccccccccccccccccccccccccccccccccccccccccccccccccccccccccccccccccccccccccccccccccccccccccccccccccccccccccccccccccccccccccccccccccccccccccccccccccccccccccccccccccccccccccccccccccccccccccccccccccc"/>
</svg>
