<?xml version="1.0" standalone="no"?>
<!DOCTYPE svg PUBLIC "-//W3C//DTD SVG 20010904//EN" "http://www.w3.org/TR/2001/REC-SVG-20010904/DTD/svg10.dtd">
<!-- Created using Krita: https://krita.org -->
<svg xmlns="http://www.w3.org/2000/svg" 
    xmlns:xlink="http://www.w3.org/1999/xlink"
    xmlns:krita="http://krita.org/namespaces/svg/krita"
    xmlns:sodipodi="http://sodipodi.sourceforge.net/DTD/sodipodi-0.dtd"
    width="588.96pt"
    height="187.92pt"
    viewBox="0 0 588.96 187.92">
<defs/>
<path id="Camilia_Filipov_" transform="matrix(0.719999962940722 0 0 0.719999962940722 305.271352724288 -0.0050355787957824)" fill="#1b1c20" fill-rule="evenodd" stroke-opacity="0" stroke="#000000" stroke-width="0" stroke-linecap="square" stroke-linejoin="bevel" d="M44.667 99.333C56.8 99.333 66.533 95.867 73.2 89.333C80.2115 82.133 84.3002 72.5763 84.666 62.533L72.8 62.533C71.6 76.533 63.066 88.799 45.067 88.799C25.2 88.799 12.267 73.066 12.267 49.733C12.267 27.333 24 10.4 44.933 10.4C60 10.4 69.466 18.534 71.733 30.4L83.466 30.4C80.933 12.8 67.466 0 45.2 0C16.8 0 0 21.733 0 49.732C0.001 78.667 17.601 99.333 44.667 99.333ZM148.053 98.133C150.061 98.1796 152.057 97.8169 153.92 97.067L153.92 89.2L153.52 89.2C147.52 90.534 146.187 87.467 146.187 81.867L146.187 49.067C146.187 32.667 135.387 27.2 120.72 27.2C102.454 27.2 93.654 37.2 93.254 50.533L103.654 50.533C104.054 40.133 109.654 35.333 120.854 35.333C130.72 35.333 136.32 39.733 136.32 47.467C136.32 54.933 129.52 55.867 119.787 57.333C102.587 60 89.787 63.333 89.787 79.599C89.787 92.666 100.054 98.799 113.12 98.799C124.854 98.799 131.92 93.199 136.053 87.866L136.187 87.866C137.253 94.933 140.987 98.133 148.053 98.133ZM115.52 90.533C108.454 90.533 101.254 88.533 101.254 79.333C101.254 69.2 109.92 67.333 120.72 65.333C126.587 64.266 132.853 62.533 136.453 60.266L136.453 71.999C136.453 80 129.92 90.534 115.52 90.534ZM159.973 97.466L170.773 97.466L170.773 54.534C170.773 43.734 180.106 36.001 188.506 36.001C195.573 36.001 200.373 41.068 200.373 49.601L200.373 97.467L211.173 97.467L211.173 54.534C211.173 43.734 219.173 36.001 228.106 36.001C235.039 36.001 240.772 41.068 240.772 49.601L240.772 97.467L251.572 97.467L251.572 49.067C251.572 34.8 242.905 26.934 230.639 26.934C226.355 26.924 222.145 28.0552 218.443 30.2107C214.741 32.3663 211.679 35.4695 209.573 39.2L209.306 39.2C206.373 31.2 199.706 26.934 191.306 26.934C187.236 26.9843 183.245 28.0619 179.702 30.0664C176.16 32.0709 173.181 34.9381 171.043 38.401L170.773 38.401L170.773 28.534L159.973 28.534L159.973 97.467ZM263.745 97.466L274.545 97.466L274.545 28.534L263.743 28.534L263.743 97.467ZM263.745 15.466L274.545 15.466L274.545 2.135L263.743 2.135L263.743 15.468ZM286.771 97.466L297.571 97.466L297.571 2.135L286.771 2.135L286.771 97.467ZM309.797 97.466L320.597 97.466L320.597 28.534L309.797 28.534L309.797 97.467ZM309.797 15.466L320.597 15.466L320.597 2.135L309.797 2.135L309.797 15.468ZM387.128 98.131C389.136 98.1777 391.132 97.815 392.995 97.065L392.995 89.198L392.595 89.198C386.595 90.532 385.262 87.465 385.262 81.865L385.262 49.065C385.262 32.665 374.462 27.198 359.796 27.198C341.529 27.198 332.729 37.198 332.329 50.531L342.729 50.531C343.129 40.131 348.729 35.331 359.929 35.331C369.795 35.331 375.395 39.731 375.395 47.465C375.395 54.931 368.595 55.865 358.862 57.331C341.662 59.998 328.862 63.331 328.862 79.597C328.862 92.664 339.128 98.797 352.195 98.797C363.928 98.797 370.995 93.197 375.128 87.864L375.261 87.864C376.329 94.933 380.062 98.133 387.128 98.133ZM354.596 90.531C347.529 90.531 340.329 88.531 340.329 79.331C340.329 69.198 348.996 67.331 359.796 65.331C365.662 64.264 371.929 62.531 375.529 60.264L375.529 71.997C375.529 80 368.995 90.534 354.596 90.534ZM29.155 222.467L62.675 222.467L62.675 220.318C60.2045 220.292 57.7499 219.919 55.383 219.211C54.4488 218.838 53.659 218.175 53.1313 217.318C52.6037 216.462 52.3658 215.458 52.453 214.456C52.4439 213.855 52.4986 213.255 52.616 212.666C52.724 212.166 53.1037 210.766 53.755 208.466L61.897 178.83L69.517 178.83C74.423 178.83 77.6793 179.112 79.286 179.676C81.848 180.543 83.129 182.496 83.129 185.535C83.1242 186.364 83.0574 187.19 82.929 188.009C82.799 188.876 82.4953 190.59 82.018 193.153L84.362 193.804L94.388 162.621L92.044 161.97C89.0053 167.786 86.2813 171.215 83.872 172.256C81.4627 173.297 74.553 173.991 63.143 174.336L71.923 143.365C72.0664 142.672 72.3979 142.032 72.881 141.516C73.3642 140.999 73.9805 140.625 74.662 140.436C77.4376 139.93 80.261 139.733 83.08 139.85C92.9973 139.85 99.5217 140.523 102.653 141.868C105.784 143.213 107.351 145.904 107.353 149.941C107.353 150.505 107.331 151.308 107.288 152.35C107.288 153.088 107.223 154.173 107.093 155.605L109.827 155.8L113.994 135.488L47.62 135.488L47.62 137.636C51.396 137.724 54.0653 138.16 55.628 138.944C57.1907 139.728 57.972 141.276 57.972 143.588C57.9029 145.024 57.6847 146.449 57.321 147.84C57.103 148.887 56.799 150.129 56.409 151.568L40.093 210.483C38.921 214.608 37.4237 217.322 35.601 218.625C34.429 219.492 32.2803 220.056 29.155 220.318ZM133.662 149.225C134.529 149.23 135.387 149.05 136.179 148.696C136.971 148.343 137.678 147.824 138.252 147.174C139.53 145.81 140.22 143.996 140.172 142.128C140.216 140.251 139.527 138.428 138.252 137.05C137.682 136.393 136.977 135.866 136.185 135.506C135.393 135.147 134.532 134.963 133.662 134.967C132.796 134.961 131.94 135.144 131.152 135.504C130.365 135.864 129.666 136.391 129.104 137.05C127.846 138.437 127.17 140.256 127.216 142.128C127.177 143.979 127.854 145.775 129.104 147.141C129.666 147.8 130.365 148.328 131.152 148.688C131.939 149.048 132.796 149.231 133.662 149.225ZM132.119 163.873C130.267 164.307 128.307 164.698 126.24 165.045C124.647 165.305 123.065 165.555 121.492 165.794C119.919 166.033 117.346 166.37 113.772 166.803L113.772 168.951C116.053 168.844 118.338 169.03 120.572 169.505C121.72 169.874 122.294 170.841 122.295 172.405C122.294 172.842 122.251 173.277 122.165 173.705C122.077 174.139 121.968 174.616 121.839 175.137L112.571 208.601C112.093 210.424 111.767 211.802 111.594 212.735C111.408 213.821 111.321 214.921 111.334 216.022C111.293 218.025 111.949 219.982 113.189 221.556C113.723 222.288 114.424 222.883 115.233 223.291C116.043 223.698 116.938 223.907 117.844 223.9C121.012 223.9 124.268 222.338 127.611 219.213C130.595 216.188 133.297 212.897 135.684 209.382L136.335 208.47L134.643 207.037C133.011 209.306 131.25 211.48 129.37 213.548C126.939 216.109 124.986 217.389 123.509 217.389C123.19 217.443 122.862 217.397 122.571 217.257C122.279 217.117 122.039 216.89 121.882 216.607C121.611 216.085 121.476 215.503 121.491 214.915C121.687 213.419 121.992 211.94 122.403 210.488L135.543 164.003C135.561 163.892 135.543 163.778 135.49 163.678C135.438 163.578 135.354 163.498 135.252 163.45C135.015 163.298 133.97 163.439 132.119 163.873ZM145.883 208.601C145.507 210.033 145.201 211.291 144.966 212.376C144.662 213.812 144.488 215.271 144.445 216.738C144.445 219.559 145.38 221.556 147.25 222.727C148.498 223.517 149.951 223.924 151.428 223.899C155.083 223.899 158.716 222.099 162.328 218.499C165.545 214.919 168.47 211.087 171.076 207.041L169.318 205.804C167.392 208.648 165.258 211.346 162.935 213.877C160.418 216.655 158.378 218.044 156.815 218.044C156.478 218.08 156.137 218.015 155.836 217.859C155.535 217.703 155.287 217.461 155.122 217.165C154.802 216.507 154.645 215.781 154.666 215.049C154.666 214.655 154.71 214.262 154.796 213.877C154.883 213.486 155.165 212.358 155.643 210.492L177.315 132.236C177.225 132.062 177.095 131.913 176.936 131.8C176.776 131.686 176.592 131.613 176.399 131.585C172.908 132.452 169.942 133.103 167.499 133.538C166.712 133.671 165.043 133.91 162.49 134.255C159.937 134.6 157.679 134.903 155.715 135.166L155.715 137.315C158.082 137.186 160.456 137.328 162.791 137.738C163.365 137.895 163.862 138.256 164.19 138.752C164.517 139.249 164.652 139.849 164.569 140.438C164.569 140.785 164.547 141.241 164.504 141.805C164.458 142.379 164.349 142.947 164.179 143.497ZM201.35 149.225C202.217 149.23 203.075 149.05 203.867 148.696C204.659 148.343 205.366 147.824 205.94 147.174C207.219 145.811 207.909 143.997 207.861 142.128C207.905 140.251 207.216 138.428 205.94 137.05C205.37 136.393 204.665 135.866 203.873 135.506C203.081 135.147 202.22 134.963 201.35 134.967C200.484 134.961 199.628 135.144 198.841 135.504C198.054 135.864 197.355 136.391 196.793 137.05C195.535 138.437 194.859 140.256 194.905 142.128C194.866 143.979 195.543 145.775 196.793 147.141C197.354 147.8 198.053 148.328 198.84 148.688C199.628 149.048 200.484 149.232 201.35 149.225ZM199.807 163.873C197.956 164.307 195.996 164.698 193.928 165.045C192.335 165.305 190.753 165.555 189.181 165.794C187.609 166.033 185.036 166.37 181.461 166.803L181.461 168.951C183.74 168.844 186.024 169.031 188.256 169.505C189.405 169.874 189.98 170.841 189.979 172.405C189.979 172.842 189.935 173.277 189.849 173.705C189.762 174.139 189.654 174.616 189.524 175.137L180.256 208.601C179.777 210.424 179.452 211.802 179.279 212.735C179.093 213.821 179.006 214.921 179.019 216.022C178.977 218.025 179.633 219.983 180.874 221.556C181.408 222.289 182.108 222.884 182.918 223.291C183.727 223.699 184.623 223.908 185.529 223.9C188.697 223.9 191.953 222.338 195.296 219.213C198.28 216.188 200.982 212.897 203.369 209.382L204.02 208.47L202.327 207.038C200.695 209.307 198.934 211.481 197.053 213.549C194.622 216.11 192.668 217.39 191.193 217.39C190.874 217.445 190.546 217.399 190.254 217.259C189.963 217.118 189.722 216.891 189.565 216.608C189.294 216.086 189.16 215.504 189.175 214.916C189.371 213.42 189.675 211.941 190.086 210.489L203.231 164.004C203.249 163.893 203.231 163.778 203.178 163.679C203.126 163.579 203.042 163.499 202.94 163.451C202.703 163.298 201.658 163.439 199.807 163.873ZM196.216 249.941L223.96 249.941L223.96 247.988C221.689 247.989 219.43 247.659 217.254 247.011C216.125 246.533 215.561 245.405 215.562 243.626C215.978 240.777 216.542 237.952 217.254 235.162C217.688 233.252 218.475 230.077 219.614 225.636L220.655 221.636C222.138 222.37 223.676 222.987 225.255 223.482C226.755 223.878 228.304 224.062 229.855 224.029C239.002 224.029 247.825 219.45 256.326 210.292C264.912 201.048 269.205 191.326 269.205 181.126C269.205 175.18 267.856 170.764 265.158 167.877C262.46 164.99 258.747 163.547 254.02 163.548C249.376 163.548 244.9 165.375 240.591 169.03C237.654 171.635 235.023 174.566 232.747 177.765L236.34 165.765C236.47 165.373 236.633 164.784 236.829 163.998C236.816 163.851 236.746 163.714 236.634 163.617C236.522 163.52 236.377 163.47 236.229 163.477L215.137 166.537L215.268 168.686C215.676 168.602 216.089 168.548 216.505 168.523C216.895 168.502 217.305 168.49 217.742 168.49C219.362 168.389 220.977 168.753 222.397 169.539C222.923 169.886 223.348 170.366 223.629 170.93C223.91 171.495 224.037 172.123 223.997 172.752C223.982 173.301 223.928 173.849 223.834 174.39C223.62 175.54 223.348 176.678 223.02 177.8L205.02 241.342C204.653 243.285 203.629 245.044 202.12 246.322C200.359 247.417 198.297 247.93 196.228 247.787L196.228 249.936ZM257.216 180.865C257.216 189.372 254.639 197.944 249.485 206.581C243.729 216.261 237.072 221.101 229.513 221.1C227.816 221.148 226.136 220.74 224.649 219.92C224 219.561 223.466 219.026 223.107 218.378C222.748 217.729 222.579 216.992 222.619 216.252C222.619 215.218 223.448 211.736 225.106 205.807C226.764 199.878 228.54 194.197 230.434 188.764C232.788 181.849 235.733 176.894 239.269 173.899C242.805 170.904 246.074 169.407 249.075 169.407C250.623 169.307 252.162 169.717 253.454 170.575C254.746 171.434 255.721 172.693 256.229 174.159C256.967 176.315 257.302 178.588 257.216 180.865ZM286.167 208.465C286.167 199.481 288.9 190.345 294.367 181.057C300.183 171.118 306.411 166.149 313.052 166.148C314.869 166.049 316.67 166.549 318.176 167.573C319.681 168.596 320.809 170.086 321.386 171.812C322.252 174.345 322.65 177.014 322.558 179.689C322.558 187.372 320.236 195.793 315.591 204.95C310.124 215.627 303.853 220.966 296.776 220.965C293.303 220.965 290.667 219.782 288.866 217.417C286.992 214.819 286.042 211.666 286.166 208.465L286.166 208.465ZM313.772 163.413C304.179 163.413 295.259 167.862 287.014 176.76C278.941 185.441 274.904 194.534 274.904 204.038C274.904 210.332 276.704 215.215 280.304 218.687C283.904 222.159 288.7 223.895 294.692 223.895C304.197 223.895 313.138 219.295 321.515 210.095C329.631 201.241 333.689 192.213 333.689 183.012C333.797 178.046 332.212 173.189 329.197 169.242C326.202 165.358 321.059 163.416 313.768 163.415L313.768 163.415ZM383.701 163.674C382.364 163.638 381.065 164.129 380.087 165.041C379.606 165.488 379.226 166.034 378.973 166.64C378.721 167.247 378.601 167.9 378.623 168.557C378.623 170.119 379.599 171.844 381.552 173.732C383.505 175.62 384.481 177.237 384.482 178.583C384.482 181.274 382.247 185.874 377.776 192.383C373.746 198.341 369.263 203.978 364.365 209.245L362.216 211.523C361.696 202.583 361.175 195.834 360.654 191.276C359.791 183.774 358.547 176.321 356.929 168.945C356.607 167.343 356.173 165.766 355.629 164.225C355.282 163.379 354.805 163.043 354.198 163.216L352.051 163.867C351.791 163.955 349.579 164.455 345.415 165.367C341.251 166.279 338.518 166.865 337.215 167.125L337.215 168.818C338.039 168.731 338.766 168.666 339.396 168.623C340.026 168.58 340.58 168.559 341.057 168.558C343.964 168.558 345.939 169.621 346.981 171.748C348.023 173.875 349.086 178.605 350.171 185.94C350.692 189.283 351.234 194.427 351.799 201.37C352.364 208.313 352.645 213.242 352.643 216.157C352.614 217.852 352.681 219.547 352.843 221.235C353.06 223.014 353.493 223.903 354.143 223.904C356.313 223.904 362.889 216.937 373.87 203.004C385.459 188.337 391.254 178.071 391.253 172.204C391.278 170.068 390.591 167.983 389.3 166.28C388.651 165.422 387.8 164.735 386.824 164.282C385.848 163.829 384.775 163.622 383.7 163.68L383.7 163.68Z" sodipodi:nodetypes="ccccccccccccccccccccccccccccccccccccccccccccccccccccccccccccccccccccccccccccccccccccccccccccccccccccccccccccccccccccccccccccccccccccccccccccccccccccccccccccccccccccccccccccccccccccccccccccccccccccccccccccccccccccccccccccccccccccccccccccccccccccccccccccccccccccccccccccccccccccccccccccccccccccccccccccccccccccccccccccccccccccccccccccccccccccccccccccccccccccccccccccccccc"/>
</svg>
