<svg xmlns="http://www.w3.org/2000/svg" width="392.969" height="249.938" viewBox="0 0 392.969 249.938">
  <metadata><?xpacket begin="﻿" id="W5M0MpCehiHzreSzNTczkc9d"?>
<x:xmpmeta xmlns:x="adobe:ns:meta/" x:xmptk="Adobe XMP Core 5.6-c138 79.159824, 2016/09/14-01:09:01        ">
   <rdf:RDF xmlns:rdf="http://www.w3.org/1999/02/22-rdf-syntax-ns#">
      <rdf:Description rdf:about=""/>
   </rdf:RDF>
</x:xmpmeta>
                                                                                                    
                                                                                                    
                                                                                                    
                                                                                                    
                                                                                                    
                                                                                                    
                                                                                                    
                                                                                                    
                                                                                                    
                                                                                                    
                                                                                                    
                                                                                                    
                                                                                                    
                                                                                                    
                                                                                                    
                                                                                                    
                                                                                                    
                                                                                                    
                                                                                                    
                                                                                                    
                           
<?xpacket end="w"?></metadata>
<defs>
    <style>
      .cls-1 {
        fill: #1b1c20;
        fill-rule: evenodd;
      }
    </style>
  </defs>
  <path id="Camilia_Filipov_" data-name="Camilia Filipov " class="cls-1" d="M409.624,218.576c12.133,0,21.866-3.466,28.533-10a40.528,40.528,0,0,0,11.466-26.8H437.757c-1.2,14-9.734,26.266-27.733,26.266-19.867,0-32.8-15.733-32.8-39.066,0-22.4,11.733-39.333,32.666-39.333,15.067,0,24.533,8.134,26.8,20h11.733c-2.533-17.6-16-30.4-38.266-30.4-28.4,0-45.2,21.733-45.2,49.732C364.958,197.91,382.558,218.576,409.624,218.576Zm103.386-1.2a14.794,14.794,0,0,0,5.867-1.066v-7.867h-0.4c-6,1.334-7.333-1.733-7.333-7.333v-32.8c0-16.4-10.8-21.867-25.467-21.867-18.266,0-27.066,10-27.466,23.333h10.4c0.4-10.4,6-15.2,17.2-15.2,9.866,0,15.466,4.4,15.466,12.134,0,7.466-6.8,8.4-16.533,9.866-17.2,2.667-30,6-30,22.266,0,13.067,10.267,19.2,23.333,19.2,11.734,0,18.8-5.6,22.933-10.933h0.134C502.21,214.176,505.944,217.376,513.01,217.376Zm-32.533-7.6c-7.066,0-14.266-2-14.266-11.2,0-10.133,8.666-12,19.466-14,5.867-1.067,12.133-2.8,15.733-5.067v11.733C501.41,199.243,494.877,209.777,480.477,209.777Zm44.453,6.933h10.8V173.777c0-10.8,9.333-18.533,17.733-18.533,7.067,0,11.867,5.067,11.867,13.6V216.71h10.8V173.777c0-10.8,8-18.533,16.933-18.533,6.933,0,12.666,5.067,12.666,13.6V216.71h10.8v-48.4c0-14.267-8.667-22.133-20.933-22.133a24.126,24.126,0,0,0-21.066,12.266h-0.267c-2.933-8-9.6-12.266-18-12.266A24.166,24.166,0,0,0,536,157.644H535.73v-9.867h-10.8V216.71Zm103.772,0h10.8V147.777H628.7V216.71Zm0-82h10.8V121.378H628.7v13.333Zm23.026,82h10.8V121.378h-10.8V216.71Zm23.026,0h10.8V147.777h-10.8V216.71Zm0-82h10.8V121.378h-10.8v13.333Zm77.331,82.665a14.79,14.79,0,0,0,5.867-1.066v-7.867h-0.4c-6,1.334-7.333-1.733-7.333-7.333v-32.8c0-16.4-10.8-21.867-25.466-21.867-18.267,0-27.067,10-27.467,23.333h10.4c0.4-10.4,6-15.2,17.2-15.2,9.866,0,15.466,4.4,15.466,12.134,0,7.466-6.8,8.4-16.533,9.866-17.2,2.667-30,6-30,22.266,0,13.067,10.266,19.2,23.333,19.2,11.733,0,18.8-5.6,22.933-10.933h0.133C741.286,214.176,745.019,217.376,752.085,217.376Zm-32.532-7.6c-7.067,0-14.267-2-14.267-11.2,0-10.133,8.667-12,19.467-14,5.866-1.067,12.133-2.8,15.733-5.067v11.733C740.486,199.243,733.952,209.777,719.553,209.777ZM394.112,341.71h33.52v-2.149a26.4,26.4,0,0,1-7.292-1.107,4.682,4.682,0,0,1-2.93-4.755,8.5,8.5,0,0,1,.163-1.79q0.162-.75,1.139-4.2l8.142-29.636h7.62q7.359,0,9.769.846,3.843,1.3,3.843,5.859a16.583,16.583,0,0,1-.2,2.474q-0.195,1.3-.911,5.144l2.344,0.651,10.026-31.183-2.344-.651q-4.558,8.724-8.172,10.286T428.1,293.579l8.78-30.971a3.85,3.85,0,0,1,2.739-2.929,38.1,38.1,0,0,1,8.418-.586q14.876,0,19.573,2.018t4.7,8.073q0,0.846-.065,2.409,0,1.107-.195,3.255l2.734,0.195,4.167-20.312H412.577v2.148q5.664,0.132,8.008,1.308t2.344,4.644a20.75,20.75,0,0,1-.651,4.252q-0.327,1.57-.912,3.728L405.05,329.726q-1.758,6.188-4.492,8.142-1.758,1.3-6.446,1.693v2.149Zm104.507-73.242a6.076,6.076,0,0,0,4.59-2.051,7.109,7.109,0,0,0,1.92-5.046,7.227,7.227,0,0,0-1.92-5.078,6.036,6.036,0,0,0-4.59-2.083,5.936,5.936,0,0,0-4.558,2.083,7.291,7.291,0,0,0-1.888,5.078,7.2,7.2,0,0,0,1.888,5.013,5.931,5.931,0,0,0,4.558,2.084h0Zm-1.543,14.648q-2.778.651-5.879,1.172-2.389.39-4.748,0.749t-7.72,1.009v2.148a26.693,26.693,0,0,1,6.8.554q1.722,0.554,1.723,2.9a6.685,6.685,0,0,1-.13,1.3q-0.132.651-.326,1.432l-9.268,33.464q-0.717,2.734-.977,4.134a18.158,18.158,0,0,0-.26,3.287,8.651,8.651,0,0,0,1.855,5.534,5.706,5.706,0,0,0,4.655,2.344q4.752,0,9.767-4.687a70,70,0,0,0,8.073-9.831l0.651-.912L499.6,326.28a73.338,73.338,0,0,1-5.273,6.511q-3.646,3.841-5.861,3.841a1.56,1.56,0,0,1-1.627-.782,3.473,3.473,0,0,1-.391-1.692,31.047,31.047,0,0,1,.912-4.427L500.5,283.246a0.519,0.519,0,0,0-.291-0.553Q499.853,282.465,497.076,283.116Zm13.764,44.728q-0.564,2.148-.917,3.775a24.546,24.546,0,0,0-.521,4.362q0,4.232,2.805,5.989a7.577,7.577,0,0,0,4.178,1.172q5.482,0,10.9-5.4a90.307,90.307,0,0,0,8.748-11.458l-1.758-1.237a69.925,69.925,0,0,1-6.383,8.073q-3.776,4.167-6.12,4.167a1.73,1.73,0,0,1-1.693-.879,4.544,4.544,0,0,1-.456-2.116,5.376,5.376,0,0,1,.13-1.172q0.13-.586.847-3.385l21.672-78.256a1.229,1.229,0,0,0-.916-0.651q-5.236,1.3-8.9,1.953-1.18.2-5.009,0.717t-6.775.911v2.149a31.072,31.072,0,0,1,7.076.423,2.446,2.446,0,0,1,1.778,2.7q0,0.521-.065,1.367a7.883,7.883,0,0,1-.325,1.692Zm55.467-59.376a6.076,6.076,0,0,0,4.59-2.051,7.106,7.106,0,0,0,1.921-5.046,7.223,7.223,0,0,0-1.921-5.078,6.036,6.036,0,0,0-4.59-2.083,5.933,5.933,0,0,0-4.557,2.083,7.291,7.291,0,0,0-1.888,5.078,7.2,7.2,0,0,0,1.888,5.013,5.927,5.927,0,0,0,4.557,2.084h0Zm-1.543,14.648q-2.777.651-5.879,1.172-2.389.39-4.747,0.749t-7.72,1.009v2.148a26.684,26.684,0,0,1,6.795.554q1.724,0.554,1.723,2.9a6.608,6.608,0,0,1-.13,1.3q-0.13.651-.325,1.432l-9.268,33.464q-0.718,2.734-.977,4.134a18.158,18.158,0,0,0-.26,3.287,8.645,8.645,0,0,0,1.855,5.534,5.7,5.7,0,0,0,4.655,2.344q4.752,0,9.767-4.687a70.067,70.067,0,0,0,8.073-9.831l0.651-.912-1.693-1.432a73.139,73.139,0,0,1-5.274,6.511q-3.647,3.841-5.86,3.841a1.56,1.56,0,0,1-1.628-.782,3.484,3.484,0,0,1-.39-1.692,31.129,31.129,0,0,1,.911-4.427l13.145-46.485a0.518,0.518,0,0,0-.291-0.553Q567.541,282.465,564.764,283.116Zm-3.591,86.068h27.744v-1.953a23.463,23.463,0,0,1-6.706-.977q-1.694-.717-1.692-3.385a82.283,82.283,0,0,1,1.692-8.464q0.651-2.865,2.36-9.526l1.041-4a31.757,31.757,0,0,0,4.6,1.846,16.647,16.647,0,0,0,4.6.547q13.72,0,26.471-13.737,12.879-13.866,12.879-29.166,0-8.919-4.047-13.249t-11.138-4.329q-6.966,0-13.429,5.482a51.876,51.876,0,0,0-7.844,8.735l3.593-12q0.195-.588.489-1.767a0.574,0.574,0,0,0-.6-0.521l-21.092,3.06,0.131,2.149a8.8,8.8,0,0,1,1.237-.163c0.39-.021.8-0.033,1.237-0.033a8.509,8.509,0,0,1,4.655,1.049,3.579,3.579,0,0,1,1.6,3.213,11.465,11.465,0,0,1-.163,1.638,35.032,35.032,0,0,1-.814,3.41l-18,63.542a8.62,8.62,0,0,1-2.9,4.98,9.867,9.867,0,0,1-5.892,1.465v2.149Zm61-69.076q0,12.761-7.731,25.716-8.634,14.52-19.972,14.519a9.512,9.512,0,0,1-4.864-1.18,3.949,3.949,0,0,1-2.03-3.668q0-1.551,2.487-10.445t5.328-17.043q3.531-10.373,8.835-14.865t9.806-4.492a7.085,7.085,0,0,1,7.154,4.752,18.543,18.543,0,0,1,.987,6.706h0Zm28.951,27.6q0-13.476,8.2-27.408,8.724-14.908,18.685-14.909a8.309,8.309,0,0,1,8.334,5.664,22.009,22.009,0,0,1,1.172,7.877q0,11.525-6.967,25.261-8.2,16.016-18.815,16.015-5.209,0-7.91-3.548a14.353,14.353,0,0,1-2.7-8.952h0Zm27.605-45.052q-14.39,0-26.758,13.347-12.11,13.022-12.11,27.278,0,9.441,5.4,14.649t14.388,5.208q14.257,0,26.823-13.8,12.174-13.281,12.174-27.083a21.9,21.9,0,0,0-4.492-13.77q-4.492-5.826-15.429-5.827h0Zm69.929,0.261a5.1,5.1,0,0,0-3.614,1.367,4.594,4.594,0,0,0-1.464,3.516q0,2.343,2.929,5.175t2.93,4.851q0,4.037-6.706,13.8a139.7,139.7,0,0,1-13.411,16.862l-2.149,2.278q-0.78-13.41-1.562-20.247a223.38,223.38,0,0,0-3.725-22.331,34.755,34.755,0,0,0-1.3-4.72q-0.52-1.269-1.431-1.009l-2.147.651q-0.39.132-6.636,1.5t-8.2,1.758v1.693q1.236-.131,2.181-0.195t1.661-.065q4.361,0,5.924,3.19t3.19,14.192q0.781,5.015,1.628,15.43T717.6,335.4a45.066,45.066,0,0,0,.2,5.078q0.325,2.668,1.3,2.669,3.255,0,19.727-20.9,17.384-22,17.383-30.8a9.618,9.618,0,0,0-1.953-5.924,6.578,6.578,0,0,0-5.6-2.6h0Z" transform="translate(-364.969 -119.25)"/>
</svg>
