<?xml version="1.0" standalone="no"?>
<!DOCTYPE svg PUBLIC "-//W3C//DTD SVG 20010904//EN" "http://www.w3.org/TR/2001/REC-SVG-20010904/DTD/svg10.dtd">
<!-- Created using Krita: https://krita.org -->
<svg xmlns="http://www.w3.org/2000/svg" 
    xmlns:xlink="http://www.w3.org/1999/xlink"
    xmlns:krita="http://krita.org/namespaces/svg/krita"
    xmlns:sodipodi="http://sodipodi.sourceforge.net/DTD/sodipodi-0.dtd"
    width="588.96pt"
    height="187.92pt"
    viewBox="0 0 588.96 187.92">
<defs/>
<path id="AdrianGhenie_" transform="matrix(0.719999920218956 0 0 0.719999920218956 66.9600053132612 0.72216860959721)" fill="#1b1c20" fill-rule="evenodd" stroke-opacity="0" stroke="#000000" stroke-width="0" stroke-linecap="square" stroke-linejoin="bevel" d="M0 95.332L12.267 95.332L22.533 66.266L60.533 66.266L70.67 95.332L83.736 95.332L48.536 0L35.07 0ZM37.333 24.532C39.2 19.065 41.733 11.065 41.733 11.065L42 11.065C42 11.065 44.4 19.199 46.266 24.532L57.199 56.532L26 56.532ZM115.226 97.332C124.959 97.332 131.359 93.598 136.559 86.932L136.825 86.932L136.825 95.332L147.625 95.332L147.625 0L136.825 0L136.825 36.133L136.559 36.133C134.193 32.5895 130.976 29.6951 127.202 27.7154C123.429 25.7358 119.219 24.7333 114.959 24.8C97.893 24.8 84.693 38.133 84.693 61.066C84.7 83.199 96.43 97.332 115.23 97.332ZM115.626 88.265C102.426 88.265 95.759 76.799 95.759 61.199C95.759 45.733 102.426 33.999 115.492 33.999C129.759 33.999 137.492 45.199 137.492 61.199C137.5 76.799 130.963 88.265 115.63 88.265ZM170.718 26.399L159.918 26.399L159.918 95.332L170.718 95.332L170.718 57.066C170.718 44.133 180.052 36.133 190.718 36.133C192.345 36.0539 193.974 36.2797 195.518 36.799L195.918 36.799L195.918 26.399C194.527 25.8161 193.025 25.5431 191.518 25.599C182.318 25.599 175.118 31.199 170.985 37.865L170.718 37.865ZM202.037 95.332L212.837 95.332L212.837 26.399L202.037 26.399ZM202.037 13.332L212.837 13.332L212.837 0L202.037 0L202.037 13.333ZM279.369 95.997C281.376 96.0437 283.372 95.681 285.235 94.931L285.235 87.064L284.835 87.064C278.835 88.398 277.502 85.331 277.502 79.731L277.502 46.931C277.502 30.531 266.702 25.064 252.036 25.064C233.769 25.064 224.969 35.064 224.569 48.397L234.969 48.397C235.369 37.997 240.969 33.197 252.169 33.197C262.036 33.197 267.635 37.597 267.635 45.331C267.635 52.797 260.835 53.731 251.102 55.197C233.902 57.864 221.102 61.197 221.102 77.463C221.102 90.53 231.368 96.663 244.435 96.663C256.168 96.663 263.235 91.063 267.368 85.73L267.501 85.73C268.573 92.798 272.306 95.998 279.373 95.998ZM246.836 88.397C239.769 88.397 232.569 86.397 232.569 77.197C232.569 67.064 241.236 65.197 252.036 63.197C257.902 62.13 264.169 60.397 267.769 58.13L267.769 69.863C267.773 77.865 261.24 88.399 246.84 88.399ZM302.089 26.397L291.289 26.397L291.289 95.332L302.089 95.332L302.089 52.932C302.089 41.599 310.089 33.866 321.022 33.866C330.755 33.866 336.622 38.933 336.622 47.866L336.622 95.332L347.422 95.332L347.422 46.932C347.422 32.665 338.622 24.799 324.222 24.799C314.222 24.799 307.288 28.932 302.355 35.465L302.089 35.465L302.089 26.398ZM414.901 6.463C399.101 6.463 385.711 12.6693 374.732 25.082C364.879 36.282 359.953 48.3917 359.953 61.411C359.953 71.3057 363.078 79.617 369.327 86.345C376.444 93.985 386.36 97.8047 399.075 97.804C405.045 97.8558 410.99 97.022 416.716 95.33C421.397 94.0141 425.868 92.0412 429.995 89.47L436.515 64.47C437.47 60.782 438.74 58.3733 440.324 57.244C441.908 56.1147 444.957 55.3333 449.471 54.9L449.471 52.752L413.928 52.752L413.928 54.9C418.442 55.4653 421.296 56.0187 422.49 56.56C423.684 57.1013 424.281 58.3493 424.28 60.304C424.28 60.6846 424.259 61.0649 424.215 61.443C424.171 61.8049 424.104 62.1636 424.015 62.517L422.583 68.507C421.542 72.9783 420.676 76.4507 419.983 78.924C419.347 81.6252 418.408 84.2458 417.183 86.736C415.967 88.7773 413.645 90.3073 410.216 91.326C407.139 92.2904 403.94 92.8057 400.716 92.856C392.383 92.856 385.97 90.315 381.478 85.233C376.986 80.151 374.74 73.4613 374.74 65.164C374.783 53.1461 378.043 41.3561 384.18 31.023C391.905 17.6897 402.038 11.023 414.58 11.023C423.695 11.023 430.293 14.0483 434.372 20.099C436.542 23.3657 437.975 27.675 438.672 33.027L440.951 33.354L447.591 7.117L445.573 6.661C444.709 7.97751 443.631 9.13997 442.383 10.1C440.907 11.0272 439.174 11.4641 437.435 11.348C436.566 11.3481 435.701 11.2328 434.863 11.005C434.017 10.7757 432.444 10.2483 430.143 9.423C425.286 7.52273 420.124 6.52076 414.909 6.466L414.909 6.466ZM463.901 10.174C466.225 9.93608 468.571 10.0344 470.867 10.466C472.082 10.836 472.69 11.9537 472.69 13.819C472.688 14.1889 472.666 14.5584 472.625 14.926C472.565 15.4079 472.478 15.886 472.364 16.358L450.5 95.332L460.625 95.332C463.645 84.394 465.684 77.406 466.742 74.368C467.967 70.9813 469.539 67.7306 471.434 64.668C474.659 59.5449 478.389 54.7573 482.568 50.377C486.968 45.7103 490.615 43.377 493.508 43.377C494.475 43.3385 495.422 43.6636 496.162 44.288C496.494 44.6184 496.753 45.0155 496.92 45.4532C497.088 45.8909 497.161 46.3591 497.134 46.827C497.134 47.2089 497.101 47.59 497.034 47.966C496.969 48.336 496.892 48.694 496.806 49.041L486.983 87.192C486.823 87.7357 486.703 88.2906 486.625 88.852C486.557 89.381 486.524 89.9137 486.525 90.447C486.468 91.3081 486.595 92.1717 486.898 92.9799C487.2 93.7881 487.672 94.5225 488.281 95.134C489.465 96.2241 491.03 96.8087 492.639 96.762C496.454 96.762 500.248 94.9173 504.019 91.228C506.907 88.1813 509.499 84.8664 511.758 81.328L510.066 79.766C506.983 83.716 504.878 86.2767 503.749 87.448C501.926 89.3147 500.341 90.248 498.995 90.248C498.72 90.2668 498.444 90.2272 498.186 90.1317C497.927 90.0362 497.692 89.887 497.495 89.694C497.114 89.2286 496.927 88.6336 496.974 88.034C496.983 87.2999 497.071 86.5688 497.234 85.853C497.407 85.053 497.624 84.2177 497.885 83.347L506.522 52.162C506.855 51.0295 507.116 49.8768 507.303 48.711C507.496 47.658 507.604 46.5913 507.628 45.521C507.628 42.093 506.674 39.7167 504.766 38.392C503.04 37.1292 500.963 36.4352 498.825 36.407C493.825 36.407 488.331 39.6187 482.342 46.042C477.524 51.6244 473.108 57.542 469.128 63.75L485.265 5.622C485.243 5.40031 485.156 5.18983 485.017 5.01649C484.877 4.84315 484.689 4.71436 484.477 4.646C484.166 4.65798 483.858 4.70154 483.556 4.776C483.161 4.86333 480.379 5.40567 475.21 6.403C473.938 6.621 472.438 6.849 470.71 7.087C468.982 7.325 466.715 7.63967 463.91 8.031L463.91 10.18ZM517.238 78.032C517.238 84.102 518.974 88.763 522.446 92.015C525.682 95.1708 530.036 96.9246 534.556 96.892C541.066 96.892 547.555 94.57 554.022 89.926C557.161 87.788 559.988 85.2245 562.422 82.309L560.729 80.809C557.865 83.262 554.842 85.5235 551.68 87.579C548.588 89.5807 545.009 90.7062 541.328 90.835C538.076 90.8986 534.911 89.7622 532.442 87.644C529.945 85.518 528.697 82.545 528.698 78.725C528.675 77.3842 528.784 76.0444 529.024 74.725C529.343 73.2848 529.734 71.8617 530.196 70.461L533.907 70.006C542.094 68.9695 549.965 66.1888 556.986 61.852C564.299 57.412 567.955 52.0723 567.956 45.833C567.956 42.7583 566.956 40.441 564.956 38.881C562.606 37.2135 559.76 36.3889 556.883 36.542C547.725 36.542 538.849 41.051 530.256 50.069C521.574 59.087 517.234 68.4083 517.235 78.033L517.235 78.033ZM531.105 67.532C531.929 65.3247 532.71 63.3547 533.449 61.622C534.96 58.0635 536.79 54.6495 538.918 51.422C541.045 48.4382 543.502 45.7038 546.242 43.271C548.954 40.871 551.721 39.6693 554.542 39.666C555.191 39.6227 555.842 39.7324 556.441 39.9864C557.04 40.2403 557.571 40.6313 557.992 41.128C558.824 42.263 559.238 43.6516 559.164 45.057C559.164 49.6037 556.56 54.1827 551.351 58.794C546.142 63.4053 539.393 66.3173 531.104 67.53L531.104 67.53ZM582.322 95.332C585.162 85.89 587.234 79.38 588.539 75.802C589.969 71.9651 591.762 68.2736 593.894 64.778C596.59 60.3916 599.586 56.1972 602.862 52.225C607.873 46.3283 612.027 43.3797 615.325 43.379C615.829 43.3239 616.339 43.3998 616.806 43.5993C617.272 43.7988 617.679 44.1153 617.988 44.518C618.502 45.323 618.764 46.2633 618.74 47.218C618.711 48.0138 618.635 48.8072 618.512 49.594C618.292 51.0295 617.999 52.4527 617.633 53.858L609.325 85.499C609.132 86.2037 608.99 86.9216 608.902 87.647C608.796 88.4239 608.742 89.2069 608.739 89.991C608.739 92.553 609.411 94.3217 610.755 95.297C611.956 96.224 613.425 96.7381 614.942 96.762C618.134 96.762 621.475 95.0477 624.966 91.619C628.004 88.4647 630.78 85.0681 633.266 81.463L631.376 79.77C629.286 82.7759 626.969 85.6175 624.446 88.27C623.031 89.594 621.783 90.256 620.702 90.256C620.411 90.275 620.12 90.2118 619.862 90.0735C619.605 89.9353 619.392 89.7275 619.247 89.474C618.939 88.9402 618.782 88.333 618.791 87.717C618.834 87.0458 618.943 86.3806 619.117 85.731C619.334 84.7977 619.53 84.0057 619.703 83.355L628.276 52.17C628.616 50.868 628.896 49.6527 629.116 48.524C629.33 47.4521 629.441 46.3621 629.446 45.269C629.446 41.5357 628.116 38.953 625.456 37.521C623.909 36.7507 622.197 36.3709 620.47 36.415C615.487 36.415 609.849 39.9087 603.557 46.896C598.665 52.5964 594.195 58.6457 590.183 64.996L598.814 36.996C598.704 36.7533 598.524 36.5493 598.296 36.411L586.723 38.95C585.343 39.254 584.06 39.5143 582.875 39.731C581.69 39.9477 579.696 40.273 576.894 40.707L576.894 42.856C577.501 42.7693 578.054 42.6933 578.554 42.628C579.061 42.5616 579.572 42.5282 580.084 42.528C582.167 42.528 583.567 42.888 584.284 43.608C584.654 44.0062 584.94 44.4752 585.125 44.9868C585.31 45.4984 585.389 46.042 585.358 46.585C585.363 47.3654 585.287 48.1442 585.131 48.909C584.978 49.629 584.424 51.6903 583.47 55.093L572.33 95.332L582.33 95.332ZM663.446 22.09C664.313 22.0957 665.171 21.9155 665.963 21.5618C666.755 21.208 667.462 20.6887 668.036 20.039C669.315 18.676 670.005 16.8615 669.956 14.993C670.001 13.1157 669.312 11.2931 668.036 9.915C667.466 9.25739 666.761 8.7307 665.969 8.37117C665.177 8.01164 664.316 7.8277 663.446 7.832C662.58 7.82595 661.723 8.00926 660.936 8.36905C660.148 8.72885 659.448 9.25652 658.886 9.915C657.627 11.3014 656.95 13.121 656.996 14.993C656.958 16.8443 657.635 18.6408 658.886 20.006C659.448 20.665 660.147 21.1931 660.935 21.5531C661.723 21.9131 662.58 22.0963 663.446 22.09ZM661.896 36.738C660.046 37.172 658.089 37.5627 656.026 37.91C654.426 38.17 652.846 38.421 651.276 38.659C649.706 38.897 647.126 39.234 643.556 39.668L643.556 41.816C645.834 41.7094 648.116 41.8956 650.346 42.37C651.496 42.739 652.076 43.704 652.076 45.27C652.072 45.7064 652.029 46.1415 651.946 46.57C651.856 47.004 651.746 47.4813 651.616 48.002L642.346 81.466C641.866 83.289 641.546 84.666 641.376 85.6C641.187 86.6851 641.1 87.7856 641.116 88.887C641.071 90.8901 641.725 92.8477 642.966 94.421C643.501 95.1535 644.203 95.7482 645.013 96.1558C645.823 96.5634 646.719 96.7722 647.626 96.765C650.786 96.765 654.039 95.2027 657.386 92.078C660.372 89.0531 663.077 85.7625 665.466 82.247L666.116 81.335L664.416 79.903C662.785 82.1721 661.025 84.346 659.146 86.414C656.716 88.9747 654.763 90.255 653.286 90.255C652.967 90.3093 652.639 90.2632 652.347 90.1232C652.055 89.9831 651.813 89.7559 651.656 89.473C651.385 88.951 651.251 88.3688 651.266 87.781C651.466 86.2859 651.77 84.8067 652.176 83.354L665.326 36.869C665.342 36.758 665.323 36.6447 665.271 36.5454C665.219 36.446 665.137 36.3657 665.036 36.316C664.8 36.163 663.76 36.305 661.9 36.738ZM673.106 78.038C673.106 84.108 674.839 88.769 678.306 92.021C681.543 95.1755 685.897 96.9289 690.416 96.898C696.926 96.898 703.416 94.576 709.886 89.932C713.024 87.793 715.851 85.2296 718.286 82.315L716.596 80.815C713.731 83.2673 710.708 85.5288 707.546 87.585C704.451 89.5869 700.87 90.7124 697.186 90.841C693.935 90.9039 690.773 89.7675 688.306 87.65C685.806 85.524 684.556 82.551 684.556 78.731C684.533 77.39 684.644 76.0501 684.886 74.731C685.106 73.6683 685.496 72.247 686.056 70.467L689.766 70.012C697.954 68.9775 705.825 66.1966 712.846 61.858C720.156 57.418 723.813 52.0783 723.816 45.839C723.816 42.7643 722.819 40.447 720.826 38.887C718.474 37.2197 715.625 36.3952 712.746 36.548C703.596 36.548 694.723 41.057 686.126 50.075C677.446 59.093 673.106 68.4143 673.106 78.039L673.106 78.039ZM686.966 67.538C687.796 65.3307 688.579 63.3607 689.316 61.628C690.821 58.0668 692.652 54.6523 694.786 51.428C696.913 48.4452 699.368 45.711 702.106 43.277C704.816 40.877 707.583 39.6753 710.406 39.672C711.055 39.6284 711.706 39.738 712.305 39.9919C712.904 40.2458 713.436 40.6371 713.856 41.134C714.687 42.2694 715.1 43.6579 715.026 45.063C715.026 49.6097 712.423 54.1887 707.216 58.8C702.009 63.4113 695.259 66.3233 686.966 67.536L686.966 67.536Z" sodipodi:nodetypes="ccccccccccccccccccccccccccccccccccccccccccccccccccccccccccccccccccccccccccccccccccccccccccccccccccccccccccccccccccccccccccccccccccccccccccccccccccccccccccccccccccccccccccccccccccccccccccccccccccccccccccccccccccccccccccccccccccccccccccccccccccccccccccccccccccccccccccccccccccccccccccccccccccccccccccccccccccccccccccccccccccccccccccccccccccccccc"/>
</svg>
