<?xml version="1.0" standalone="no"?>
<!DOCTYPE svg PUBLIC "-//W3C//DTD SVG 20010904//EN" "http://www.w3.org/TR/2001/REC-SVG-20010904/DTD/svg10.dtd">
<!-- Created using Krita: https://krita.org -->
<svg xmlns="http://www.w3.org/2000/svg" 
    xmlns:xlink="http://www.w3.org/1999/xlink"
    xmlns:krita="http://krita.org/namespaces/svg/krita"
    xmlns:sodipodi="http://sodipodi.sourceforge.net/DTD/sodipodi-0.dtd"
    width="588.96pt"
    height="160.56pt"
    viewBox="0 0 588.96 160.56">
<defs/>
<path id="LuciaMacari" transform="matrix(0.719999999364582 0 0 0.719999999364582 103.669917845979 0.00216421575139212)" fill="#1b1c20" fill-rule="evenodd" stroke-opacity="0" stroke="#000000" stroke-width="0" stroke-linecap="square" stroke-linejoin="bevel" d="M0 95.332L62 95.332L62 84.265L12 84.265L12 0L0 0ZM123.5 95.332L123.5 26.399L112.7 26.399L112.7 68.799C112.7 79.732 105.634 87.999 94.7 87.999C84.967 87.999 79.234 82.799 79.234 73.865L79.234 26.399L68.434 26.399L68.434 74.132C68.434 88.399 77.501 96.932 91.634 96.932C101.634 96.932 107.5 92.532 112.434 85.865L112.701 85.865L112.701 95.332L123.501 95.332ZM165.512 97.198C182.712 97.198 193.512 87.598 194.978 71.065L184.316 71.065C183.382 81.732 176.716 88.132 165.516 88.132C150.85 88.132 143.25 76.132 143.25 60.932C143.25 45.732 150.85 33.599 165.516 33.599C175.916 33.599 182.449 39.333 184.049 48.666L194.982 48.666C192.582 33.999 181.782 24.666 165.516 24.666C144.983 24.666 132.183 40.933 132.183 60.932C132.183 80.931 144.983 97.198 165.516 97.198ZM203.339 95.332L214.139 95.332L214.139 26.399L203.339 26.399ZM203.339 13.332L214.139 13.332L214.139 0L203.339 0L203.339 13.333ZM280.671 95.997C282.678 96.0437 284.674 95.681 286.537 94.931L286.537 87.064L286.137 87.064C280.137 88.398 278.804 85.331 278.804 79.731L278.804 46.931C278.804 30.531 268.004 25.064 253.338 25.064C235.071 25.064 226.271 35.064 225.871 48.397L236.271 48.397C236.671 37.997 242.271 33.197 253.471 33.197C263.338 33.197 268.937 37.597 268.937 45.331C268.937 52.797 262.137 53.731 252.404 55.197C235.204 57.864 222.404 61.197 222.404 77.463C222.404 90.53 232.67 96.663 245.737 96.663C257.47 96.663 264.537 91.063 268.67 85.73L268.803 85.73C269.875 92.798 273.608 95.998 280.675 95.998ZM248.138 88.397C241.071 88.397 233.871 86.397 233.871 77.197C233.871 67.064 242.538 65.197 253.338 63.197C259.204 62.13 265.471 60.397 269.071 58.13L269.071 69.863C269.075 77.865 262.542 88.399 248.142 88.399ZM288.93 95.33L315.46 95.33L315.46 93.181C313.306 93.195 311.167 92.8207 309.145 92.076C308.178 91.6617 307.363 90.9571 306.813 90.06C306.264 89.1629 306.006 88.1168 306.076 87.067C306.111 86.0379 306.243 85.0144 306.47 84.01C306.732 82.7093 307.016 81.4513 307.322 80.236L322.189 23.913L322.662 23.913L332.881 95.332L335.189 95.332L387.389 21.569L387.863 21.569L370.5 84.503C369.415 88.029 367.57 90.4243 364.967 91.689C363.404 92.417 360.778 92.915 357.089 93.183L357.089 95.332L393.828 95.332L393.828 93.183C391.133 93.2198 388.452 92.7905 385.903 91.914C384.265 91.198 383.446 89.668 383.446 87.324C383.463 86.1399 383.607 84.961 383.877 83.808C384.164 82.506 384.552 81.0087 385.039 79.316L401.374 20.332C402.502 16.2527 403.728 13.7027 405.052 12.682C406.376 11.6613 408.796 10.9343 412.312 10.501L412.312 8.353L390.182 8.353L342.989 73.612L342.525 73.59L333.189 8.353L308.845 8.353L308.845 10.501C311.318 10.5296 313.769 10.9585 316.105 11.771C318.385 12.571 319.264 13.949 318.741 15.905L302.801 73.457C300.5 81.617 298.558 86.8253 296.975 89.082C295.392 91.3387 292.712 92.7053 288.934 93.182L288.934 95.331ZM448.941 48.336C448.941 56.0693 446.021 64.7393 440.181 74.346C434.118 84.9067 427.818 90.187 421.281 90.187C420.239 90.2087 419.205 90.0076 418.247 89.5972C417.289 89.1867 416.43 88.5764 415.727 87.807C414.232 86.221 413.485 83.6893 413.486 80.212C413.486 73.3027 416.183 65.0673 421.578 55.506C427.718 44.6393 434.362 39.206 441.511 39.206C442.494 39.1911 443.469 39.3804 444.375 39.762C445.281 40.1436 446.098 40.7093 446.774 41.423C448.221 42.901 448.944 45.204 448.945 48.332L448.945 48.332ZM440.854 36.28C431.727 36.28 422.907 41.4287 414.396 51.726C406.147 61.6333 402.022 71.1487 402.023 80.272C402.023 85.574 403.453 89.6697 406.314 92.559C407.525 93.8968 408.999 94.9718 410.642 95.7171C412.286 96.4624 414.065 96.8623 415.87 96.892C418.087 96.8676 420.284 96.471 422.37 95.719C425.723 94.2554 428.801 92.228 431.47 89.725C433.992 87.557 436.27 85.1206 438.264 82.459C440.105 79.9623 441.416 78.0623 442.197 76.759C441.632 78.751 441.057 81.2083 440.471 84.131C439.974 86.3402 439.68 88.5902 439.593 90.853C439.538 92.3715 440.01 93.8634 440.928 95.074C441.384 95.6372 441.967 96.0841 442.63 96.3778C443.293 96.6714 444.015 96.8034 444.739 96.763C447.676 96.6174 450.49 95.5333 452.765 93.671C455.575 91.6103 459.298 87.693 463.935 81.919L462.373 80.552L458.122 84.719C457.482 85.327 456.934 85.837 456.477 86.249C456.02 86.661 455.609 87.019 455.242 87.323L454.077 88.234C453.525 88.6667 452.941 89.0584 452.332 89.406C451.938 89.6424 451.491 89.7768 451.032 89.797C450.592 89.8106 450.163 89.6606 449.827 89.376C449.653 89.2036 449.519 88.9949 449.435 88.7649C449.35 88.5349 449.318 88.2891 449.339 88.045C449.339 87.0937 450.142 83.2883 451.748 76.629C452.728 72.941 453.918 68.5593 455.319 63.484L461.762 40.184C461.948 39.5767 462.088 39.11 462.182 38.784C462.276 38.458 462.416 38.0133 462.602 37.45C462.687 37.1866 462.697 36.905 462.633 36.636C462.548 36.5387 462.437 36.4663 462.314 36.4263C462.191 36.3864 462.059 36.3804 461.933 36.409L454.433 37.248C454.262 37.2395 454.091 37.2668 453.931 37.3281C453.771 37.3894 453.626 37.4833 453.504 37.604C453.302 37.9591 453.146 38.3385 453.04 38.733L451.579 43.641L451.25 42.729C450.765 41.3018 449.954 40.0076 448.88 38.95C446.993 37.1687 444.316 36.278 440.851 36.278L440.851 36.278ZM507.445 36.541C498.2 36.541 489.607 40.6643 481.664 48.911C473.634 57.201 469.619 66.272 469.62 76.124C469.62 82.548 471.42 87.6147 475.02 91.324C478.62 95.0333 483.329 96.8887 489.148 96.89C495.118 96.9253 500.942 95.0307 505.748 91.49C509.058 88.9166 512.013 85.9173 514.537 82.57L512.649 81.138L512.194 81.659C509.68 84.5404 506.751 87.0308 503.502 89.048C500.595 90.9101 497.221 91.9153 493.769 91.948C489.603 91.948 486.478 90.5577 484.394 87.777C482.31 84.9963 481.268 81.1503 481.269 76.239C481.325 67.3196 484.009 58.6115 488.984 51.208C494.127 43.256 500.194 39.2797 507.184 39.279C508.652 39.1767 510.121 39.4572 511.448 40.093C511.829 40.2731 512.154 40.5527 512.389 40.9023C512.624 41.2518 512.76 41.6584 512.783 42.079C512.582 42.9837 512.218 43.8441 511.708 44.618C511.048 45.7229 510.679 46.9769 510.634 48.263C510.621 48.9625 510.759 49.6566 511.041 50.2972C511.322 50.9379 511.738 51.51 512.262 51.974C513.361 52.9792 514.809 53.5176 516.298 53.474C517.413 53.4962 518.513 53.2078 519.473 52.6411C520.434 52.0744 521.218 51.2515 521.738 50.2648C522.258 49.278 522.494 48.1658 522.418 47.053C522.418 44.805 521.246 42.492 518.902 40.114C516.558 37.736 512.739 36.547 507.444 36.547L507.444 36.547ZM571.805 48.341C571.805 56.0743 568.883 64.7443 563.04 74.351C556.977 84.9117 550.677 90.192 544.14 90.192C543.098 90.2136 542.063 90.0125 541.105 89.602C540.147 89.1916 539.288 88.5813 538.585 87.812C537.091 86.226 536.344 83.6943 536.344 80.217C536.344 73.3077 539.042 65.0723 544.437 55.511C550.577 44.6443 557.221 39.211 564.37 39.211C565.353 39.1961 566.328 39.3854 567.234 39.767C568.14 40.1486 568.957 40.7143 569.633 41.428C571.078 42.906 571.803 45.209 571.808 48.337L571.808 48.337ZM563.714 36.285C554.587 36.285 545.768 41.4337 537.256 51.731C529.011 61.6363 524.889 71.1507 524.889 80.274C524.889 85.576 526.319 89.6717 529.18 92.561C530.391 93.899 531.865 94.974 533.508 95.7193C535.152 96.4647 536.931 96.8645 538.736 96.894C540.953 96.8696 543.15 96.473 545.236 95.721C548.589 94.2575 551.667 92.2301 554.336 89.727C556.858 87.559 559.137 85.1226 561.131 82.461C562.972 79.9643 564.283 78.0643 565.063 76.761C564.499 78.753 563.924 81.2103 563.338 84.133C562.84 86.3421 562.546 88.5922 562.459 90.855C562.404 92.3736 562.876 93.8655 563.795 95.076C564.251 95.6392 564.834 96.0861 565.497 96.3798C566.16 96.6734 566.882 96.8054 567.606 96.765C570.15 96.765 572.825 95.7343 575.63 93.673C578.435 91.6117 582.159 87.6943 586.8 81.921L585.24 80.554L580.99 84.721C580.35 85.329 579.8 85.839 579.34 86.251C578.89 86.664 578.47 87.022 578.11 87.325L576.94 88.236C576.39 88.6701 575.809 89.0619 575.2 89.408C574.806 89.6444 574.359 89.7788 573.9 89.799C573.459 89.8118 573.028 89.6619 572.69 89.378C572.517 89.205 572.383 88.9963 572.298 88.7665C572.214 88.5367 572.18 88.2911 572.2 88.047C572.2 87.0957 573.003 83.2903 574.61 76.631C575.59 72.943 576.78 68.5613 578.18 63.486L584.63 40.186C584.81 39.5787 584.95 39.112 585.05 38.786C585.15 38.46 585.29 38.0153 585.47 37.452C585.549 37.1876 585.559 36.9075 585.5 36.638C585.414 36.5419 585.303 36.4703 585.181 36.4304C585.058 36.3906 584.926 36.3839 584.8 36.411L577.3 37.25C577.129 37.2409 576.957 37.2679 576.797 37.3292C576.637 37.3906 576.491 37.4849 576.37 37.606C576.168 37.9606 576.013 38.3402 575.91 38.735L574.45 43.643L574.12 42.731C573.636 41.3035 572.824 40.009 571.75 38.952C569.861 37.1707 567.184 36.28 563.719 36.28L563.719 36.28ZM616.055 36.09C615.835 36.09 613.725 36.481 609.705 37.262C605.685 38.043 601.985 38.782 598.595 39.475L595.995 39.996L595.995 42.145C597.075 42.014 598.015 41.907 598.795 41.819C599.442 41.7412 600.093 41.6978 600.745 41.689C601.351 41.6251 601.964 41.6845 602.546 41.8635C603.129 42.0426 603.669 42.3377 604.135 42.731C604.832 43.5662 605.18 44.6396 605.105 45.725C605.066 47.1936 604.882 48.6547 604.555 50.087C604.185 51.8683 603.698 53.8867 603.095 56.142L592.235 95.335L602.235 95.335C604.195 88.9557 605.768 84.0297 606.955 80.557C608.825 75.0463 610.518 70.6193 612.035 67.276C614.465 61.9275 617.331 56.7881 620.605 51.91C623.805 47.18 626.252 44.8133 627.945 44.81C628.251 44.7995 628.553 44.8787 628.815 45.038C629.064 45.197 629.275 45.4078 629.435 45.656L630.215 47.089C630.622 47.8027 631.174 48.4237 631.835 48.912C632.746 49.4907 633.818 49.7644 634.895 49.693C635.754 49.7367 636.611 49.5867 637.404 49.2542C638.197 48.9217 638.904 48.4151 639.475 47.772C640.606 46.4149 641.197 44.6873 641.135 42.922C641.149 41.2334 640.56 39.5941 639.475 38.3C638.897 37.6222 638.171 37.0871 637.352 36.7369C636.533 36.3866 635.644 36.2306 634.755 36.281C630.975 36.281 626.995 38.81 622.815 43.868C618.555 49.0359 614.879 54.6591 611.855 60.635L610.345 63.643L616.975 38.252C617.015 38.031 617.055 37.699 617.095 37.258C617.101 36.9712 617.025 36.6887 616.875 36.444C616.781 36.3189 616.656 36.2202 616.512 36.1575C616.368 36.0948 616.211 36.0702 616.055 36.086L616.055 36.086ZM667.105 22.09C667.972 22.0957 668.83 21.9155 669.622 21.5618C670.414 21.208 671.121 20.6887 671.695 20.039C672.974 18.676 673.664 16.8615 673.615 14.993C673.66 13.1157 672.971 11.2931 671.695 9.915C671.125 9.25739 670.42 8.7307 669.628 8.37117C668.836 8.01164 667.975 7.8277 667.105 7.832C666.239 7.82595 665.382 8.00926 664.595 8.36905C663.807 8.72885 663.107 9.25652 662.545 9.915C661.286 11.3014 660.609 13.121 660.655 14.993C660.617 16.8443 661.294 18.6408 662.545 20.006C663.107 20.665 663.806 21.1931 664.594 21.5531C665.382 21.9131 666.239 22.0963 667.105 22.09ZM665.565 36.738C663.715 37.172 661.755 37.5627 659.685 37.91C658.095 38.17 656.505 38.421 654.935 38.659C653.365 38.897 650.795 39.234 647.215 39.668L647.215 41.816C649.496 41.7096 651.781 41.8958 654.015 42.37C655.155 42.739 655.735 43.704 655.735 45.27C655.736 45.7066 655.693 46.1422 655.605 46.57C655.515 47.004 655.405 47.4813 655.275 48.002L646.015 81.466C645.535 83.289 645.205 84.666 645.035 85.6C644.846 86.6851 644.759 87.7856 644.775 88.887C644.735 90.8894 645.389 92.8454 646.625 94.421C647.16 95.1535 647.862 95.7482 648.672 96.1558C649.482 96.5634 650.378 96.7722 651.285 96.765C654.455 96.765 657.712 95.2027 661.055 92.078C664.034 89.0497 666.735 85.7595 669.125 82.247L669.775 81.335L668.085 79.903C666.451 82.1726 664.688 84.3466 662.805 86.414C660.375 88.9747 658.422 90.255 656.945 90.255C656.627 90.3107 656.3 90.2652 656.009 90.1249C655.718 89.9846 655.479 89.7565 655.325 89.473C655.046 88.9536 654.908 88.3702 654.925 87.781C655.125 86.2852 655.433 84.8057 655.845 83.354L668.985 36.869C669.004 36.7578 668.985 36.6436 668.933 36.5438C668.881 36.444 668.797 36.3639 668.695 36.316C668.459 36.163 667.419 36.305 665.569 36.738Z" sodipodi:nodetypes="ccccccccccccccccccccccccccccccccccccccccccccccccccccccccccccccccccccccccccccccccccccccccccccccccccccccccccccccccccccccccccccccccccccccccccccccccccccccccccccccccccccccccccccccccccccccccccccccccccccccccccccccccccccccccccccccccccccccccccccccccccccccccccccccccccccccccccccccccccccccccccccccccccccccccccccccccccccccccccccccccccccccccccccccccccc"/>
</svg>
