<?xml version="1.0" standalone="no"?>
<!DOCTYPE svg PUBLIC "-//W3C//DTD SVG 20010904//EN" "http://www.w3.org/TR/2001/REC-SVG-20010904/DTD/svg10.dtd">
<!-- Created using Krita: https://krita.org -->
<svg xmlns="http://www.w3.org/2000/svg" 
    xmlns:xlink="http://www.w3.org/1999/xlink"
    xmlns:krita="http://krita.org/namespaces/svg/krita"
    xmlns:sodipodi="http://sodipodi.sourceforge.net/DTD/sodipodi-0.dtd"
    width="588.96pt"
    height="187.92pt"
    viewBox="0 0 588.96 187.92">
<defs/>
<path id="DoinaMardari" transform="matrix(0.71999992151391 0 0 0.71999992151391 46.7999965080133 0.721451087424964)" fill="#1b1c20" fill-rule="evenodd" stroke-opacity="0" stroke="#000000" stroke-width="0" stroke-linecap="square" stroke-linejoin="bevel" d="M0 95.333L33.733 95.333C62.399 95.333 76.933 76.533 76.933 48C76.933 19.467 63.333 0 34.667 0L0 0ZM12 84.8L12 10.4L34.266 10.4C56.666 10.4 64.666 25.6 64.666 48C64.666 70.4 55.732 84.8 33.333 84.8ZM117.278 97.2C137.944 97.2 150.478 80.934 150.478 60.934C150.478 40.934 137.944 24.668 117.278 24.668C96.745 24.668 83.945 40.935 83.945 60.934C83.945 80.933 96.745 97.199 117.278 97.199ZM117.278 88.134C102.612 88.134 95.012 76.134 95.012 60.934C95.012 45.734 102.612 33.601 117.278 33.601C131.944 33.601 139.411 45.735 139.411 60.934C139.411 76.133 131.945 88.133 117.278 88.133ZM159.305 95.334L170.105 95.334L170.105 26.4L159.305 26.4L159.305 95.333ZM159.305 13.334L170.105 13.334L170.105 0.001L159.305 0.001ZM192.93 26.4L182.13 26.4L182.13 95.333L192.93 95.333L192.93 52.933C192.93 41.6 200.93 33.867 211.863 33.867C221.597 33.867 227.463 38.934 227.463 47.867L227.463 95.333L238.263 95.333L238.263 46.933C238.263 32.666 229.463 24.8 215.063 24.8C205.063 24.8 198.13 28.933 193.197 35.466L192.93 35.466L192.93 26.399ZM304.41 96C306.417 96.0467 308.413 95.684 310.276 94.934L310.276 87.067L309.876 87.067C303.876 88.401 302.543 85.334 302.543 79.734L302.543 46.934C302.543 30.534 291.743 25.067 277.077 25.067C258.81 25.067 250.01 35.067 249.61 48.4L260.01 48.4C260.41 38 266.01 33.2 277.21 33.2C287.077 33.2 292.677 37.6 292.677 45.334C292.677 52.8 285.877 53.734 276.143 55.2C258.943 57.867 246.143 61.2 246.143 77.466C246.143 90.533 256.409 96.666 269.476 96.666C281.209 96.666 288.276 91.066 292.409 85.733L292.542 85.733C293.61 92.799 297.343 95.999 304.41 95.999ZM271.877 88.4C264.81 88.4 257.61 86.4 257.61 77.2C257.61 67.067 266.277 65.2 277.077 63.2C282.943 62.133 289.21 60.4 292.81 58.133L292.81 69.866C292.81 77.866 286.277 88.4 271.877 88.4ZM312.669 95.333L339.199 95.333L339.199 93.184C337.045 93.198 334.906 92.8237 332.884 92.079C331.917 91.6647 331.102 90.9601 330.552 90.063C330.003 89.1659 329.745 88.1198 329.815 87.07C329.85 86.0409 329.982 85.0174 330.209 84.013C330.471 82.7123 330.755 81.4543 331.061 80.239L345.919 23.914L346.392 23.914L356.612 95.333L358.919 95.333L411.119 21.57L411.593 21.57L394.231 84.504C393.145 88.03 391.3 90.4253 388.697 91.69C387.134 92.418 384.508 92.916 380.819 93.184L380.819 95.333L417.558 95.333L417.558 93.184C414.863 93.2207 412.182 92.7914 409.633 91.915C407.995 91.199 407.176 89.669 407.176 87.325C407.193 86.1409 407.338 84.9621 407.607 83.809C407.894 82.507 408.282 81.0097 408.769 79.317L425.104 20.333C426.232 16.2537 427.458 13.7037 428.783 12.683C430.108 11.6623 432.527 10.9353 436.042 10.502L436.042 8.354L413.919 8.354L366.719 73.613L366.255 73.591L356.921 8.354L332.58 8.354L332.58 10.502C335.053 10.5306 337.504 10.9595 339.84 11.772C342.12 12.572 342.999 13.95 342.476 15.906L326.536 73.458C324.235 81.618 322.293 86.8263 320.71 89.083C319.127 91.3397 316.447 92.7063 312.669 93.183L312.669 95.332ZM472.68 48.339C472.68 56.0723 469.76 64.7423 463.92 74.349C457.857 84.9103 451.557 90.1907 445.02 90.19C443.978 90.2116 442.944 90.0104 441.986 89.6C441.028 89.1896 440.169 88.5792 439.466 87.81C437.971 86.224 437.224 83.6907 437.225 80.21C437.225 73.3007 439.922 65.0653 445.317 55.504C451.457 44.6373 458.101 39.204 465.25 39.204C466.233 39.1891 467.208 39.3784 468.114 39.76C469.02 40.1416 469.837 40.7073 470.513 41.421C471.96 42.899 472.683 45.202 472.684 48.33L472.684 48.33ZM464.593 36.283C455.466 36.283 446.646 41.4317 438.135 51.729C429.886 61.6363 425.761 71.1517 425.762 80.275C425.762 85.577 427.192 89.6727 430.053 92.562C431.264 93.8998 432.738 94.9748 434.381 95.7201C436.025 96.4654 437.804 96.8653 439.609 96.895C441.826 96.8705 444.023 96.4739 446.109 95.722C449.462 94.2582 452.54 92.2309 455.209 89.728C457.731 87.56 460.009 85.1236 462.003 82.462C463.844 79.9647 465.155 78.0647 465.936 76.762C465.371 78.754 464.796 81.2113 464.211 84.134C463.713 86.3431 463.419 88.5932 463.332 90.856C463.277 92.3745 463.749 93.8664 464.667 95.077C465.123 95.6402 465.706 96.0871 466.369 96.3808C467.032 96.6744 467.754 96.8064 468.478 96.766C471.415 96.6204 474.229 95.5363 476.504 93.674C479.314 91.6127 483.038 87.6957 487.677 81.923L486.114 80.556L481.863 84.723C481.223 85.331 480.675 85.841 480.218 86.253C479.761 86.665 479.35 87.023 478.983 87.327L477.818 88.238C477.266 88.6707 476.682 89.0624 476.073 89.41C475.679 89.6464 475.232 89.7808 474.773 89.801C474.333 89.8145 473.904 89.6644 473.568 89.38C473.394 89.2076 473.26 88.9989 473.176 88.7689C473.091 88.5389 473.059 88.2931 473.08 88.049C473.08 87.0977 473.883 83.2923 475.489 76.633C476.469 72.945 477.659 68.5633 479.06 63.488L485.503 40.188C485.689 39.5807 485.829 39.114 485.923 38.788C486.017 38.462 486.157 38.0173 486.343 37.454C486.428 37.1906 486.438 36.909 486.374 36.64C486.289 36.5427 486.178 36.4703 486.055 36.4303C485.932 36.3904 485.8 36.3844 485.674 36.413L478.174 37.252C478.003 37.2435 477.832 37.2708 477.672 37.3321C477.512 37.3934 477.367 37.4873 477.245 37.608C477.043 37.9631 476.887 38.3425 476.781 38.737L475.32 43.645L474.991 42.733C474.506 41.3058 473.695 40.0116 472.621 38.954C470.734 37.1733 468.057 36.2827 464.592 36.282L464.592 36.282ZM516.936 36.088C516.719 36.088 514.602 36.4787 510.585 37.26C506.568 38.0413 502.866 38.779 499.479 39.473L496.874 39.994L496.874 42.143C497.958 42.0097 498.891 41.901 499.674 41.817C500.322 41.7391 500.974 41.6958 501.627 41.687C502.232 41.6236 502.844 41.6832 503.426 41.8622C504.008 42.0413 504.547 42.3361 505.012 42.729C505.712 43.563 506.062 44.6366 505.989 45.723C505.947 47.1916 505.762 48.6526 505.435 50.085C505.066 51.8663 504.577 53.8847 503.97 56.14L493.119 95.333L503.119 95.333C505.087 88.9537 506.662 84.0277 507.843 80.555C509.71 75.0443 511.404 70.6173 512.926 67.274C515.354 61.9245 518.221 56.7849 521.497 51.908C524.69 47.1747 527.133 44.808 528.828 44.808C529.137 44.7975 529.442 44.8767 529.707 45.036C529.953 45.1966 530.163 45.4072 530.323 45.654L531.103 47.087C531.508 47.8022 532.059 48.4246 532.719 48.914C533.627 49.4941 534.698 49.7679 535.773 49.695C536.631 49.7392 537.489 49.5894 538.282 49.2569C539.074 48.9243 539.782 48.4175 540.352 47.774C541.484 46.4178 542.075 44.6894 542.01 42.924C542.026 41.2349 541.437 39.5946 540.35 38.302C539.773 37.624 539.047 37.0888 538.229 36.7385C537.41 36.3882 536.522 36.2323 535.633 36.283C531.859 36.283 527.879 38.812 523.694 43.87C519.435 49.0395 515.759 54.6624 512.731 60.637L511.222 63.645L517.857 38.254C517.898 38.033 517.937 37.701 517.978 37.26C517.982 36.9723 517.903 36.6895 517.75 36.446C517.658 36.3202 517.534 36.2209 517.391 36.1581C517.248 36.0952 517.091 36.0711 516.936 36.088ZM549.227 80.176C549.227 73.1553 552.002 64.876 557.551 55.338C563.757 44.676 570.181 39.3427 576.822 39.338C579.489 39.338 581.258 40.2047 582.131 41.938C583.073 43.995 583.523 46.2438 583.443 48.505C583.443 56.8717 580.682 65.7363 575.16 75.099C569.427 85.069 563.454 90.0537 557.241 90.053C554.331 90.053 552.268 89.067 551.051 87.095C549.803 85.0047 549.171 82.6038 549.227 80.17L549.227 80.17ZM576.148 36.283C567.896 36.283 559.426 41.2473 550.737 51.176C542.004 61.148 537.637 70.8597 537.637 80.311C537.637 85.905 539.049 90.046 541.872 92.734C543.175 94.0255 544.72 95.0467 546.419 95.7385C548.118 96.4303 549.938 96.7792 551.772 96.765C556.495 96.7375 561.058 95.0304 564.64 91.951C568.865 88.4083 572.524 84.24 575.489 79.591C574.956 81.971 574.558 84.159 574.296 86.155C574.082 87.6 573.952 89.056 573.906 90.516C573.906 93.2067 574.8 95.0733 576.587 96.116C577.574 96.6433 578.68 96.912 579.799 96.897C583.381 96.897 587.422 94.697 591.921 90.297C594.237 88.0732 596.323 85.6218 598.147 82.98L599.065 81.608L597.565 80.177C595.195 83.0137 593.328 85.1083 591.965 86.461C589.638 88.687 587.838 89.8 586.565 89.8C586.016 89.7644 585.486 89.5831 585.03 89.275C584.697 89.0003 584.442 88.6438 584.288 88.2407C584.135 87.8376 584.088 87.4014 584.154 86.975C584.16 86.4348 584.214 85.8963 584.317 85.366C584.424 84.7747 584.565 84.1287 584.74 83.428L593.488 52.478L606.334 5.685L606.468 4.969L605.879 4.318C597.164 5.92133 590.344 7.04967 585.419 7.703L585.419 9.851C586.461 9.765 587.296 9.7 587.925 9.656C588.554 9.612 589.237 9.59033 589.976 9.591C590.921 9.53324 591.861 9.76005 592.676 10.242C593.305 10.676 593.619 11.7393 593.62 13.432C593.615 13.9435 593.581 14.4542 593.52 14.962C593.437 15.6347 593.295 16.2989 593.097 16.947L585.448 43.635C585.195 41.874 584.521 40.1998 583.483 38.755C582.042 37.107 579.597 36.283 576.148 36.283ZM650.639 48.339C650.639 56.0723 647.717 64.7423 641.874 74.349C635.811 84.9103 629.511 90.1907 622.974 90.19C621.932 90.2117 620.898 90.0106 619.94 89.6002C618.982 89.1897 618.123 88.5794 617.42 87.81C615.925 86.224 615.178 83.6907 615.178 80.21C615.178 73.3007 617.876 65.0653 623.271 55.504C629.411 44.6373 636.055 39.204 643.202 39.204C644.186 39.1892 645.162 39.3785 646.069 39.7601C646.976 40.1417 647.795 40.7073 648.472 41.421C649.912 42.899 650.642 45.202 650.642 48.33L650.642 48.33ZM642.548 36.283C633.421 36.283 624.602 41.4317 616.09 51.729C607.843 61.6363 603.719 71.1517 603.719 80.275C603.719 85.577 605.149 89.6727 608.01 92.562C609.221 93.9 610.695 94.975 612.338 95.7203C613.982 96.4657 615.761 96.8655 617.566 96.895C619.783 96.8706 621.98 96.474 624.066 95.722C627.419 94.2584 630.497 92.231 633.166 89.728C635.688 87.56 637.966 85.1236 639.96 82.462C641.801 79.9647 643.111 78.0647 643.889 76.762C643.329 78.754 642.749 81.211 642.167 84.134C641.669 86.3431 641.375 88.5932 641.288 90.856C641.233 92.3746 641.705 93.8665 642.624 95.077C643.081 95.6399 643.665 96.0865 644.328 96.3801C644.992 96.6737 645.715 96.8059 646.439 96.766C648.979 96.766 651.652 95.7353 654.459 93.674C657.266 91.6127 660.989 87.6953 665.629 81.922L664.069 80.555L659.819 84.722C659.179 85.33 658.629 85.84 658.169 86.252C657.719 86.665 657.299 87.023 656.939 87.326L655.769 88.237C655.219 88.6711 654.638 89.0629 654.029 89.409C653.635 89.6454 653.188 89.7798 652.729 89.8C652.288 89.8128 651.857 89.6629 651.519 89.379C651.346 89.206 651.212 88.9973 651.127 88.7675C651.043 88.5377 651.009 88.2921 651.029 88.048C651.029 87.0967 651.832 83.2913 653.439 76.632C654.419 72.944 655.609 68.5623 657.009 63.487L663.459 40.187C663.639 39.5797 663.779 39.113 663.879 38.787C663.979 38.461 664.119 38.0163 664.299 37.453C664.378 37.1886 664.388 36.9085 664.329 36.639C664.243 36.5429 664.132 36.4713 664.01 36.4314C663.887 36.3916 663.755 36.3849 663.629 36.412L656.129 37.251C655.958 37.2419 655.786 37.2689 655.626 37.3302C655.466 37.3916 655.32 37.4859 655.199 37.607C654.997 37.9616 654.842 38.3412 654.739 38.736L653.279 43.644L652.949 42.732C652.465 41.3045 651.653 40.01 650.579 38.953C648.689 37.1723 646.012 36.2817 642.548 36.281L642.548 36.281ZM694.889 36.088C694.669 36.088 692.559 36.479 688.539 37.26C684.519 38.041 680.819 38.78 677.429 39.473L674.829 39.994L674.829 42.143C675.909 42.012 676.849 41.905 677.629 41.817C678.276 41.7392 678.927 41.6958 679.579 41.687C680.185 41.6231 680.798 41.6825 681.38 41.8615C681.963 42.0406 682.503 42.3357 682.969 42.729C683.666 43.5642 684.014 44.6376 683.939 45.723C683.9 47.1916 683.716 48.6527 683.389 50.085C683.019 51.8663 682.532 53.8847 681.929 56.14L671.069 95.333L681.069 95.333C683.029 88.9537 684.602 84.0277 685.789 80.555C687.659 75.0443 689.352 70.6173 690.869 67.274C693.299 61.9255 696.165 56.7861 699.439 51.908C702.639 47.1747 705.086 44.808 706.779 44.808C707.085 44.7975 707.387 44.8767 707.649 45.036C707.898 45.195 708.109 45.4058 708.269 45.654L709.049 47.087C709.456 47.8007 710.008 48.4217 710.669 48.91C711.58 49.4887 712.652 49.7624 713.729 49.691C714.588 49.7347 715.445 49.5847 716.238 49.2522C717.031 48.9197 717.738 48.4131 718.309 47.77C719.44 46.4129 720.031 44.6853 719.969 42.92C719.983 41.2314 719.394 39.5921 718.309 38.298C717.731 37.6202 717.005 37.0851 716.186 36.7349C715.367 36.3846 714.478 36.2286 713.589 36.279C709.819 36.279 705.839 38.808 701.649 43.866C697.389 49.0339 693.713 54.6571 690.689 60.633L689.179 63.641L695.809 38.25C695.849 38.029 695.889 37.697 695.929 37.256C695.935 36.9692 695.859 36.6867 695.709 36.442C695.615 36.3169 695.49 36.2182 695.346 36.1555C695.202 36.0928 695.045 36.0682 694.889 36.084L694.889 36.084ZM745.939 22.088C746.806 22.0937 747.664 21.9135 748.456 21.5598C749.248 21.206 749.955 20.6867 750.529 20.037C751.808 18.674 752.498 16.8595 752.449 14.991C752.494 13.1137 751.805 11.2911 750.529 9.913C749.959 9.25539 749.254 8.7287 748.462 8.36917C747.67 8.00964 746.809 7.8257 745.939 7.83C745.073 7.82395 744.216 8.00726 743.429 8.36705C742.641 8.72685 741.941 9.25452 741.379 9.913C740.123 11.3005 739.449 13.1202 739.499 14.991C739.457 16.8411 740.131 18.6377 741.379 20.004C741.941 20.663 742.64 21.1911 743.428 21.5511C744.216 21.9111 745.073 22.0943 745.939 22.088ZM744.399 36.736C742.549 37.17 740.589 37.5607 738.519 37.908C736.929 38.168 735.339 38.419 733.769 38.657C732.199 38.895 729.629 39.232 726.049 39.666L726.049 41.814C728.33 41.7076 730.615 41.8938 732.849 42.368C733.989 42.737 734.569 43.702 734.569 45.268C734.57 45.7046 734.527 46.1402 734.439 46.568C734.349 47.002 734.239 47.4793 734.109 48L724.849 81.464C724.369 83.287 724.039 84.664 723.869 85.598C723.685 86.6838 723.598 87.7838 723.609 88.885C723.569 90.8874 724.223 92.8434 725.459 94.419C725.994 95.1515 726.696 95.7462 727.506 96.1538C728.316 96.5614 729.212 96.7702 730.119 96.763C733.289 96.763 736.546 95.2007 739.889 92.076C742.868 89.0477 745.569 85.7575 747.959 82.245L748.609 81.333L746.919 79.901C745.285 82.1706 743.522 84.3446 741.639 86.412C739.209 88.9727 737.256 90.253 735.779 90.253C735.461 90.3087 735.134 90.2632 734.843 90.1229C734.552 89.9826 734.313 89.7545 734.159 89.471C733.885 88.9499 733.747 88.3677 733.759 87.779C733.959 86.2832 734.267 84.8037 734.679 83.352L747.819 36.867C747.838 36.7558 747.819 36.6416 747.767 36.5418C747.715 36.442 747.631 36.3619 747.529 36.314C747.289 36.164 746.249 36.306 744.399 36.739Z" sodipodi:nodetypes="ccccccccccccccccccccccccccccccccccccccccccccccccccccccccccccccccccccccccccccccccccccccccccccccccccccccccccccccccccccccccccccccccccccccccccccccccccccccccccccccccccccccccccccccccccccccccccccccccccccccccccccccccccccccccccccccccccccccccccccccccccccccccccccccccccccccccccccccccccccccccccccccccccccccccccccccccccccccccccccccccccccccccccccccccccccccccccccccccccccccccccccccccccccccccccccccccccccccccccccccc"/>
</svg>
