<?xml version="1.0" standalone="no"?>
<!DOCTYPE svg PUBLIC "-//W3C//DTD SVG 20010904//EN" "http://www.w3.org/TR/2001/REC-SVG-20010904/DTD/svg10.dtd">
<!-- Created using Krita: https://krita.org -->
<svg xmlns="http://www.w3.org/2000/svg" 
    xmlns:xlink="http://www.w3.org/1999/xlink"
    xmlns:krita="http://krita.org/namespaces/svg/krita"
    xmlns:sodipodi="http://sodipodi.sourceforge.net/DTD/sodipodi-0.dtd"
    width="588.96pt"
    height="187.92pt"
    viewBox="0 0 588.96 187.92">
<defs/>
<path id="AncaMunteanu_Rîmnic_" transform="matrix(0.719999922598249 0 0 0.719999922598249 0.712079947128518 0.720013434273558)" fill="#1b1c20" fill-rule="evenodd" stroke-opacity="0" stroke="#000000" stroke-width="0" stroke-linecap="square" stroke-linejoin="bevel" d="M0 95.33L12.267 95.33L22.533 66.26L60.533 66.26L70.667 95.33L83.733 95.33L48.533 0L35.066 0ZM37.333 24.53C39.199 19.06 41.733 11.06 41.733 11.06L41.999 11.06C41.999 11.06 44.399 19.2 46.266 24.53L57.199 56.53L25.999 56.53ZM101.092 26.4L90.292 26.4L90.292 95.33L101.092 95.33L101.092 52.93C101.092 41.6 109.092 33.86 120.026 33.86C129.759 33.86 135.626 38.93 135.626 47.86L135.626 95.33L146.426 95.33L146.426 46.93C146.426 32.66 137.626 24.8 123.226 24.8C113.226 24.8 106.293 28.93 101.36 35.46L101.093 35.46L101.093 26.4ZM188.012 97.2C205.212 97.2 216.012 87.6 217.478 71.06L206.811 71.06C205.878 81.73 199.211 88.13 188.011 88.13C173.345 88.13 165.745 76.13 165.745 60.93C165.745 45.73 173.345 33.6 188.011 33.6C198.411 33.6 204.944 39.33 206.544 48.66L217.477 48.66C215.077 34 204.277 24.66 188.011 24.66C167.478 24.66 154.678 40.93 154.678 60.93C154.678 80.93 167.479 97.2 188.011 97.2ZM280.251 96C282.259 96.0442 284.255 95.6802 286.118 94.93L286.118 87.06L285.718 87.06C279.718 88.4 278.385 85.33 278.385 79.73L278.385 46.93C278.385 30.53 267.585 25.06 252.918 25.06C234.652 25.06 225.852 35.06 225.452 48.4L235.852 48.4C236.252 38 241.852 33.2 253.052 33.2C262.918 33.2 268.518 37.6 268.518 45.33C268.518 52.8 261.718 53.73 251.985 55.2C234.785 57.86 221.985 61.2 221.985 77.46C221.985 90.53 232.251 96.66 245.318 96.66C257.051 96.66 264.118 91.06 268.251 85.73L268.384 85.73C269.452 92.8 273.185 96 280.251 96ZM247.719 88.4C240.652 88.4 233.452 86.4 233.452 77.2C233.452 67.06 242.119 65.2 252.918 63.2C258.785 62.13 265.052 60.4 268.652 58.13L268.652 69.86C268.652 77.86 262.118 88.4 247.719 88.4ZM288.511 95.33L315.041 95.33L315.041 93.18C312.887 93.1916 310.749 92.8191 308.726 92.08C307.76 91.6644 306.945 90.9594 306.396 90.0624C305.846 89.1654 305.588 88.1197 305.657 87.07C305.692 86.0399 305.824 85.0154 306.051 84.01C306.313 82.71 306.597 81.45 306.903 80.24L321.761 23.91L322.234 23.91L332.453 95.33L334.764 95.33L386.964 21.57L387.438 21.57L370.075 84.5C368.99 88.0333 367.146 90.43 364.541 91.69C362.979 92.42 360.352 92.91 356.664 93.18L356.664 95.33L393.403 95.33L393.403 93.18C389.757 93.05 387.115 92.6267 385.478 91.91C383.841 91.1933 383.022 89.6633 383.021 87.32C383.038 86.1379 383.182 84.961 383.452 83.81C383.739 82.5 384.127 81.01 384.614 79.31L400.949 20.33C402.077 16.25 403.303 13.7 404.627 12.68C405.951 11.66 408.371 10.9333 411.886 10.5L411.886 8.35L389.759 8.35L342.559 73.61L342.095 73.59L332.761 8.35L308.422 8.35L308.422 10.5C310.895 10.528 313.347 10.9569 315.682 11.77C317.962 12.57 318.841 13.9467 318.318 15.9L302.378 73.45C300.077 81.62 298.135 86.83 296.551 89.08C294.967 91.33 292.287 92.6967 288.511 93.18ZM405.103 84.91C404.885 85.91 404.733 86.69 404.647 87.25C404.549 87.9858 404.506 88.7278 404.517 89.47C404.517 92.59 405.655 94.77 407.932 95.98C409.155 96.5975 410.51 96.9098 411.88 96.89C417.232 96.89 422.913 93.2833 428.923 86.07C432.39 81.87 437.149 74.7033 443.201 64.57L443.678 64.56L441.978 70.69C440.721 75.25 439.687 79.0533 438.878 82.1C438.445 83.5923 438.097 85.1081 437.836 86.64C437.629 87.8627 437.521 89.1 437.511 90.34C437.435 91.2352 437.557 92.1362 437.871 92.9782C438.184 93.8203 438.68 94.5825 439.323 95.21C440.633 96.2765 442.288 96.828 443.976 96.76C447.633 96.76 451.591 94.37 455.852 89.59C458.189 86.9532 460.265 84.0966 462.052 81.06L460.196 79.83C458.626 81.78 457.458 83.24 456.696 84.19C455.465 85.75 454.616 86.77 454.149 87.25C453.36 88.0833 452.508 88.8556 451.602 89.56C451.042 90.0159 450.349 90.2791 449.628 90.31C449.369 90.3349 449.107 90.2906 448.871 90.1817C448.634 90.0728 448.431 89.9031 448.281 89.69C448.013 89.251 447.878 88.744 447.891 88.23C447.909 87.6125 447.994 86.9988 448.146 86.4C448.317 85.67 448.508 84.86 448.722 83.99L461.522 37.78L451.701 37.78C449.066 45.08 447.046 50.4033 445.639 53.75C443.516 58.8258 441.004 63.7304 438.127 68.42C435.033 73.4131 431.564 78.1634 427.749 82.63C423.861 87.19 420.621 89.47 418.03 89.47C417.619 89.4883 417.209 89.4224 416.825 89.2762C416.44 89.13 416.09 88.9067 415.795 88.62C415.501 88.3086 415.274 87.9403 415.128 87.5379C414.981 87.1355 414.919 86.7074 414.944 86.28C414.969 85.8383 415.034 85.3998 415.139 84.97C415.269 84.36 415.486 83.52 415.79 82.43L428.446 38.44L428.646 37.37C428.665 37.2348 428.657 37.0972 428.623 36.965C428.589 36.8328 428.529 36.7088 428.446 36.6C428.393 36.4915 428.308 36.4023 428.202 36.3449C428.096 36.2875 427.975 36.2648 427.855 36.28L417.377 38.23L407.691 40.12L407.691 41.94C409.783 41.8313 411.879 42.0403 413.908 42.56C415.015 42.98 415.568 44.12 415.568 45.98C415.568 46.3622 415.534 46.7436 415.468 47.12C415.403 47.49 415.326 47.89 415.24 48.32ZM477.417 95.33C480.257 85.89 482.329 79.38 483.634 75.8C485.063 71.9641 486.856 68.2739 488.989 64.78C491.686 60.3922 494.683 56.1956 497.957 52.22C502.968 46.33 507.122 43.3833 510.42 43.38C510.924 43.3248 511.435 43.4008 511.901 43.6005C512.368 43.8002 512.775 44.1169 513.083 44.52C513.597 45.325 513.859 46.2653 513.835 47.22C513.806 48.0138 513.73 48.8052 513.607 49.59C513.387 51.0274 513.094 52.4526 512.728 53.86L504.42 85.5C504.226 86.2053 504.085 86.9239 503.997 87.65C503.891 88.4256 503.837 89.2073 503.834 89.99C503.834 92.55 504.506 94.32 505.85 95.3C507.053 96.2227 508.521 96.7346 510.037 96.76C513.229 96.76 516.57 95.0467 520.06 91.62C523.1 88.4662 525.876 85.0681 528.36 81.46L526.472 79.77C524.377 82.7719 522.06 85.6131 519.542 88.27C518.127 89.59 516.879 90.25 515.798 90.25C515.507 90.2692 515.216 90.2063 514.959 90.0684C514.702 89.9305 514.488 89.7231 514.343 89.47C514.036 88.935 513.879 88.3269 513.888 87.71C513.93 87.0408 514.039 86.3775 514.213 85.73C514.43 84.79 514.625 84 514.799 83.35L523.367 52.17C523.714 50.86 523.996 49.65 524.214 48.52C524.425 47.446 524.534 46.3545 524.539 45.26C524.539 41.5267 523.209 38.9467 520.549 37.52C519.004 36.7465 517.293 36.3652 515.566 36.41C510.583 36.41 504.946 39.9033 498.653 46.89C493.762 52.5914 489.293 58.6407 485.279 64.99L493.91 37C493.802 36.7547 493.621 36.5486 493.392 36.41L481.819 38.95C480.439 39.25 479.156 39.51 477.971 39.73C476.785 39.95 474.791 40.27 471.99 40.71L471.99 42.86C472.597 42.77 473.151 42.69 473.65 42.63C474.157 42.5611 474.668 42.5277 475.18 42.53C477.263 42.53 478.663 42.89 479.38 43.61C479.751 44.0086 480.037 44.4781 480.222 44.9902C480.406 45.5023 480.485 46.0465 480.454 46.59C480.459 47.3691 480.383 48.1466 480.227 48.91C480.074 49.63 479.52 51.6933 478.566 55.1L467.423 95.33L477.423 95.33ZM535.21 91.03C535.206 92.4952 535.74 93.9121 536.71 95.01C537.71 96.18 539.319 96.7633 541.536 96.76C544.101 96.76 546.807 95.67 549.656 93.47C552.505 91.27 555.796 87.39 559.535 81.79L560.449 80.42L558.756 79.44C555.976 83.05 553.999 85.46 552.826 86.67C550.785 88.93 549.2 90.06 548.071 90.06C547.702 90.0813 547.336 89.9892 547.022 89.7962C546.707 89.6031 546.459 89.3182 546.311 88.98C545.965 88.2852 545.895 87.4842 546.116 86.74L558.116 43L569.345 43L570.127 38.56L559.391 38.56L563.223 24.37C563.265 24.1223 563.276 23.8704 563.255 23.62C563.221 23.3366 563.144 23.0601 563.027 22.8C562.733 22.6828 562.428 22.5957 562.116 22.54C561.898 22.5417 561.685 22.6003 561.497 22.71C561.307 22.8152 561.141 22.9582 561.009 23.13L559.967 24.37C555.775 29.34 552.467 32.6967 550.044 34.44C546.828 36.6062 543.393 38.4264 539.794 39.87C539.276 40.0352 538.82 40.3523 538.484 40.78C538.248 41.4949 538.16 42.25 538.223 43L548.123 43L535.539 88.43C535.413 88.8884 535.326 89.3568 535.279 89.83C535.235 90.29 535.213 90.69 535.214 91.03L535.214 91.03ZM568.584 78.03C568.584 84.0967 570.32 88.7567 573.792 92.01C577.025 95.1698 581.381 96.9252 585.901 96.89C592.412 96.89 598.9 94.57 605.367 89.93C608.504 87.7881 611.33 85.2239 613.767 82.31L612.074 80.81C609.21 83.2639 606.187 85.5256 603.025 87.58C599.933 89.5822 596.355 90.709 592.673 90.84C589.421 90.9 586.257 89.7645 583.786 87.65C581.29 85.52 580.042 82.5467 580.043 78.73C580.02 77.3859 580.129 76.0429 580.368 74.72C580.585 73.66 580.975 72.24 581.54 70.46L585.251 70.01C593.439 68.9697 601.309 66.1871 608.331 61.85C615.644 57.41 619.3 52.07 619.301 45.83C619.301 42.76 618.301 40.4433 616.301 38.88C613.952 37.2118 611.105 36.3869 608.228 36.54C599.07 36.54 590.194 41.05 581.6 50.07C572.919 59.09 568.579 68.41 568.58 78.03L568.58 78.03ZM582.451 67.53C583.275 65.32 584.056 63.35 584.795 61.62C586.304 58.0609 588.134 54.6468 590.263 51.42C592.39 48.4363 594.847 45.7023 597.587 43.27C600.299 40.87 603.066 39.67 605.887 39.67C606.536 39.6251 607.187 39.7339 607.787 39.9876C608.387 40.2412 608.918 40.6326 609.338 41.13C610.171 42.2648 610.585 43.6542 610.51 45.06C610.51 49.6 607.906 54.1767 602.697 58.79C597.488 63.4033 590.739 66.3167 582.45 67.53L582.45 67.53ZM669.959 48.34C669.959 56.0733 667.039 64.7433 661.199 74.35C655.136 84.91 648.836 90.19 642.299 90.19C641.257 90.21 640.223 90.0081 639.266 89.5978C638.308 89.1874 637.449 88.578 636.745 87.81C635.25 86.22 634.503 83.6867 634.504 80.21C634.504 73.3 637.201 65.0667 642.596 55.51C648.736 44.64 655.38 39.2067 662.529 39.21C663.512 39.1947 664.488 39.3842 665.394 39.7664C666.3 40.1485 667.117 40.7151 667.792 41.43C669.239 42.9 669.963 45.21 669.963 48.34L669.963 48.34ZM661.872 36.28C652.745 36.28 643.926 41.43 635.414 51.73C627.165 61.63 623.04 71.1433 623.041 80.27C623.041 85.57 624.471 89.6667 627.332 92.56C628.543 93.8978 630.017 94.9725 631.66 95.7174C633.304 96.4622 635.084 96.8613 636.888 96.89C639.105 96.8656 641.302 96.4701 643.388 95.72C646.743 94.2565 649.821 92.2269 652.488 89.72C655.011 87.5557 657.29 85.1211 659.282 82.46C661.123 79.96 662.434 78.06 663.215 76.76C662.65 78.75 662.075 81.2067 661.49 84.13C660.992 86.3384 660.698 88.5878 660.611 90.85C660.555 92.3684 661.027 93.8603 661.946 95.07C662.401 95.6341 662.985 96.0817 663.647 96.3756C664.31 96.6694 665.033 96.8012 665.757 96.76C668.693 96.6147 671.507 95.5314 673.783 93.67C676.593 91.61 680.317 87.6933 684.954 81.92L683.391 80.55L679.14 84.72C678.5 85.33 677.952 85.84 677.495 86.25C677.037 86.66 676.626 87.02 676.26 87.32L675.095 88.23C674.54 88.6611 673.957 89.0553 673.35 89.41C672.956 89.6457 672.509 89.7797 672.05 89.8C671.608 89.8146 671.178 89.6608 670.845 89.37C670.671 89.198 670.536 88.9896 670.452 88.7597C670.368 88.5297 670.335 88.284 670.357 88.04C670.357 87.09 671.16 83.2867 672.766 76.63C673.746 72.94 674.936 68.5567 676.337 63.48L682.78 40.18C682.966 39.58 683.106 39.11 683.2 38.79C683.294 38.47 683.433 38.02 683.62 37.45C683.704 37.188 683.715 36.9077 683.651 36.64C683.566 36.5432 683.457 36.4708 683.335 36.4304C683.213 36.3899 683.082 36.3829 682.956 36.41L675.456 37.25C675.284 37.24 675.113 37.2669 674.952 37.329C674.792 37.3911 674.647 37.487 674.527 37.61C674.326 37.9624 674.17 38.3387 674.063 38.73L672.602 43.64L672.273 42.73C671.787 41.3035 670.975 40.0093 669.903 38.95C668.016 37.17 665.34 36.28 661.874 36.28L661.874 36.28ZM699.934 95.33C702.774 85.89 704.847 79.38 706.152 75.8C707.58 71.9632 709.375 68.2728 711.511 64.78C714.206 60.393 717.2 56.1964 720.471 52.22C725.481 46.33 729.638 43.3833 732.941 43.38C733.445 43.3252 733.955 43.4013 734.421 43.601C734.887 43.8007 735.293 44.1173 735.601 44.52C736.114 45.3253 736.375 46.2656 736.351 47.22C736.321 48.0138 736.244 48.8052 736.121 49.59C735.906 51.0283 735.612 52.4538 735.241 53.86L726.941 85.5C726.743 86.2046 726.599 86.9234 726.511 87.65C726.406 88.4256 726.352 89.2073 726.351 89.99C726.351 92.55 727.024 94.32 728.371 95.3C729.571 96.2224 731.037 96.7344 732.551 96.76C735.751 96.76 739.094 95.0467 742.581 91.62C745.62 88.4654 748.396 85.0674 750.881 81.46L748.991 79.77C746.892 82.7692 744.576 85.6102 742.061 88.27C740.641 89.59 739.391 90.25 738.311 90.25C738.021 90.2688 737.731 90.2057 737.474 90.0678C737.218 89.9299 737.005 89.7227 736.861 89.47C736.55 88.9365 736.39 88.3277 736.401 87.71C736.444 87.0406 736.555 86.3773 736.731 85.73C736.941 84.79 737.141 84 737.311 83.35L745.881 52.17C746.231 50.86 746.511 49.65 746.731 48.52C746.943 47.4462 747.05 46.3544 747.051 45.26C747.051 41.5267 745.721 38.9467 743.061 37.52C741.518 36.7458 739.807 36.3645 738.081 36.41C733.101 36.41 727.464 39.9033 721.171 46.89C716.279 52.5908 711.809 58.6401 707.796 64.99L716.421 37C716.32 36.7531 716.141 36.5458 715.911 36.41L704.335 38.95C702.955 39.25 701.673 39.51 700.488 39.73C699.302 39.95 697.308 40.27 694.506 40.71L694.506 42.86C695.113 42.77 695.667 42.69 696.166 42.63C696.673 42.5611 697.184 42.5277 697.696 42.53C699.78 42.53 701.18 42.89 701.896 43.61C702.267 44.0086 702.553 44.4781 702.738 44.9902C702.922 45.5023 703.001 46.0465 702.97 46.59C702.974 47.3691 702.898 48.1466 702.742 48.91C702.589 49.63 702.035 51.6933 701.082 55.1L689.939 95.33L699.939 95.33ZM758.541 84.91C758.321 85.91 758.171 86.69 758.081 87.25C757.987 87.9862 757.944 88.7279 757.951 89.47C757.951 92.59 759.091 94.77 761.371 95.98C762.595 96.5982 763.95 96.9105 765.321 96.89C770.671 96.89 776.351 93.2833 782.361 86.07C785.821 81.87 790.581 74.7033 796.641 64.57L797.111 64.56L795.411 70.69C794.151 75.25 793.118 79.0533 792.311 82.1C791.879 83.5925 791.532 85.1082 791.271 86.64C791.065 87.8627 790.958 89.1001 790.951 90.34C790.874 91.235 790.996 92.1362 791.309 92.9783C791.622 93.8203 792.118 94.5826 792.761 95.21C794.07 96.2759 795.724 96.8274 797.411 96.76C801.071 96.76 805.031 94.37 809.291 89.59C811.624 86.9528 813.697 84.0962 815.481 81.06L813.631 79.83C812.061 81.78 810.891 83.24 810.131 84.19C808.891 85.75 808.041 86.77 807.581 87.25C806.791 88.0838 805.939 88.856 805.031 89.56C804.472 90.0148 803.781 90.2779 803.061 90.31C802.801 90.3353 802.539 90.2913 802.302 90.1824C802.065 90.0734 801.861 89.9035 801.711 89.69C801.443 89.251 801.308 88.744 801.321 88.23C801.336 87.612 801.424 86.9978 801.581 86.4C801.751 85.67 801.941 84.86 802.151 83.99L814.951 37.78L805.131 37.78C802.491 45.08 800.471 50.4033 799.071 53.75C796.945 58.8241 794.434 63.7284 791.561 68.42C788.464 73.4115 784.994 78.1617 781.181 82.63C777.291 87.19 774.051 89.47 771.461 89.47C771.049 89.488 770.639 89.4219 770.253 89.2757C769.868 89.1296 769.517 88.9065 769.221 88.62C768.929 88.3076 768.703 87.9392 768.557 87.537C768.41 87.1348 768.347 86.7072 768.371 86.28C768.398 85.8382 768.465 85.3998 768.571 84.97C768.701 84.36 768.921 83.52 769.221 82.43L781.881 38.44L782.071 37.37C782.09 37.2348 782.083 37.0971 782.049 36.9649C782.014 36.8327 781.954 36.7086 781.871 36.6C781.819 36.4912 781.734 36.4016 781.628 36.3442C781.522 36.2867 781.401 36.2642 781.281 36.28L770.801 38.23L761.121 40.12L761.121 41.94C763.214 41.8314 765.311 42.0404 767.341 42.56C768.441 42.98 769.001 44.12 769.001 45.98C768.998 46.3621 768.965 46.7433 768.901 47.12C768.831 47.49 768.761 47.89 768.671 48.32ZM482.352 171.5L490.852 141.03C490.967 140.411 491.221 139.826 491.594 139.319C491.968 138.811 492.45 138.395 493.007 138.1C494.345 137.612 495.767 137.391 497.19 137.45C502.199 137.45 506.294 138.447 509.475 140.44C512.656 142.433 514.246 146.223 514.245 151.81C514.245 159.18 511.917 164.413 507.261 167.51C502.605 170.607 496.921 172.153 490.208 172.15C489.385 172.15 488.627 172.12 487.934 172.06C487.24 171.99 485.379 171.81 482.347 171.5L482.347 171.5ZM448.036 220.33L480.78 220.33L480.78 218.18C477.567 218.05 475.246 217.6 473.814 216.81C472.382 216.02 471.665 214.62 471.665 212.58C471.727 210.913 471.945 209.256 472.316 207.63C472.577 206.59 472.87 205.49 473.195 204.32L480.683 176.51L489.383 177.17L505.789 220.33L525.511 220.33L525.511 218.18C522.429 218.05 520.107 217.227 518.545 215.71C516.667 213.667 515.247 211.246 514.379 208.61L502.029 175.94C508.811 174.46 514.094 172.57 517.877 170.27C524.833 166.02 528.311 160.03 528.311 152.3C528.311 144.23 524.314 138.693 516.319 135.69C511.216 133.992 505.856 133.2 500.48 133.35L467.437 133.35L467.437 135.5C469.893 135.493 472.327 135.968 474.599 136.9C475.34 137.302 475.945 137.915 476.339 138.66C476.733 139.406 476.897 140.251 476.812 141.09C476.787 142.479 476.624 143.863 476.324 145.22C475.999 146.8 475.662 148.17 475.315 149.34L458.974 208.35C457.802 212.47 456.305 215.183 454.482 216.49C453.31 217.36 451.161 217.923 448.036 218.18ZM556.355 161.74C554.504 162.17 552.545 162.56 550.477 162.91C548.884 163.17 547.302 163.42 545.729 163.66C544.157 163.9 541.584 164.23 538.009 164.67L538.009 166.81C540.29 166.704 542.576 166.892 544.809 167.37C545.957 167.74 546.532 168.7 546.532 170.26C546.531 170.7 546.488 171.139 546.402 171.57C546.314 172 546.202 172.48 546.076 173L536.808 206.46C536.33 208.29 536.008 209.66 535.831 210.6C535.645 211.683 535.558 212.781 535.571 213.88C535.528 215.885 536.184 217.845 537.426 219.42C537.961 220.151 538.662 220.745 539.471 221.152C540.28 221.559 541.175 221.767 542.081 221.76C545.249 221.76 548.505 220.197 551.848 217.07C554.834 214.047 557.536 210.757 559.921 207.24L560.572 206.33L558.879 204.9C557.246 207.168 555.486 209.342 553.606 211.41C551.175 213.97 549.221 215.25 547.745 215.25C547.426 215.305 547.099 215.259 546.807 215.119C546.516 214.98 546.275 214.753 546.118 214.47C545.847 213.949 545.712 213.367 545.727 212.78C545.922 211.283 546.227 209.802 546.639 208.35L559.784 161.87C559.802 161.758 559.783 161.643 559.731 161.542C559.678 161.441 559.595 161.36 559.493 161.31C559.252 161.16 558.211 161.3 556.355 161.74ZM574.565 154.77L562.847 132.24L556.336 132.24L535.373 154.77L540.646 154.77L558.81 140.9L569.81 154.77L574.562 154.77ZM614.942 161.41C610.358 161.41 605.069 164.55 599.074 170.83C594.049 176.404 589.411 182.315 585.19 188.52L592.573 161.86L592.054 161.41C582.289 163.58 575.225 165.013 570.861 165.71L570.861 167.86C573.122 167.66 575.401 167.771 577.632 168.19C578.804 168.54 579.39 169.57 579.39 171.28C579.391 171.743 579.348 172.205 579.259 172.66C579.172 173.1 579.063 173.56 578.934 174.04L566.386 220.33L576.386 220.33C578.665 212.99 580.493 207.363 581.871 203.45C583.732 198.033 586.212 192.848 589.263 188C592.312 183.502 595.684 179.23 599.351 175.22C603.458 170.66 606.91 168.38 609.707 168.38C610.131 168.338 610.56 168.396 610.958 168.549C611.356 168.701 611.713 168.945 612.001 169.26C612.503 169.971 612.748 170.832 612.696 171.7C612.696 172.082 612.662 172.464 612.596 172.84C612.531 173.21 612.454 173.59 612.368 173.98L599.33 220.33L609.455 220.33C612.336 209.81 614.32 202.997 615.406 199.89C616.931 195.874 618.812 192.002 621.026 188.32C624.103 183.603 627.547 179.136 631.326 174.96C635.271 170.57 638.729 168.377 641.699 168.38C642.087 168.368 642.472 168.437 642.832 168.581C643.192 168.726 643.518 168.943 643.79 169.22C644.081 169.549 644.303 169.932 644.445 170.347C644.587 170.763 644.645 171.202 644.617 171.64C644.615 171.989 644.582 172.337 644.517 172.68C644.452 173.03 644.354 173.46 644.224 173.98L634.113 210.49C633.895 211.41 633.732 212.23 633.624 212.97C633.52 213.659 633.466 214.354 633.462 215.05C633.462 217.7 634.2 219.59 635.676 220.72C636.706 221.435 637.94 221.8 639.193 221.76C642.275 221.76 645.401 220.447 648.572 217.82C652.168 214.716 655.343 211.156 658.016 207.23L658.667 206.32L656.649 204.75C654.088 207.88 652.536 209.77 651.992 210.42C651.449 211.08 650.744 211.84 649.876 212.71C649.189 213.428 648.437 214.081 647.629 214.66C647.022 215.063 646.306 215.269 645.578 215.25C645.24 215.286 644.899 215.222 644.598 215.066C644.297 214.909 644.048 214.667 643.884 214.37C643.737 214.11 643.644 213.822 643.611 213.525C643.577 213.228 643.604 212.927 643.69 212.64L653.934 177.11C654.526 174.832 654.94 172.512 655.171 170.17C655.171 167.103 654.323 164.877 652.626 163.49C651.062 162.151 649.071 161.413 647.012 161.41C642.178 161.41 636.605 164.9 630.292 171.88C625.728 177.181 621.559 182.81 617.817 188.72C619.684 182.89 620.977 178.667 621.697 176.05C622.309 174.059 622.67 172 622.771 169.92C622.771 166.63 621.724 164.27 619.631 162.84C618.254 161.885 616.612 161.385 614.937 161.41L614.937 161.41ZM673.111 220.33C675.951 210.89 678.023 204.38 679.328 200.8C680.756 196.964 682.549 193.274 684.683 189.78C687.38 185.392 690.376 181.195 693.651 177.22C698.662 171.33 702.816 168.383 706.113 168.38C706.618 168.325 707.129 168.401 707.596 168.601C708.063 168.801 708.471 169.117 708.781 169.52C709.294 170.325 709.555 171.266 709.531 172.22C709.501 173.014 709.424 173.805 709.301 174.59C709.081 176.027 708.787 177.453 708.421 178.86L700.114 210.5C699.92 211.205 699.778 211.924 699.69 212.65C699.585 213.426 699.53 214.207 699.528 214.99C699.528 217.55 700.2 219.32 701.544 220.3C702.747 221.223 704.215 221.735 705.731 221.76C708.921 221.76 712.261 220.047 715.751 216.62C718.793 213.468 721.569 210.07 724.051 206.46L722.161 204.77C720.069 207.774 717.752 210.616 715.231 213.27C713.821 214.59 712.571 215.25 711.491 215.25C711.199 215.269 710.908 215.206 710.65 215.068C710.392 214.93 710.178 214.723 710.031 214.47C709.727 213.934 709.572 213.326 709.581 212.71C709.625 212.041 709.732 211.378 709.901 210.73C710.121 209.79 710.321 209 710.491 208.35L719.061 177.17C719.411 175.86 719.691 174.65 719.911 173.52C720.118 172.445 720.225 171.354 720.231 170.26C720.231 166.527 718.901 163.947 716.241 162.52C714.697 161.747 712.987 161.366 711.261 161.41C706.276 161.41 700.638 164.903 694.346 171.89C689.455 177.591 684.985 183.64 680.972 189.99L689.602 162C689.495 161.754 689.314 161.548 689.084 161.41L677.511 163.95C676.132 164.25 674.849 164.51 673.664 164.73C672.478 164.95 670.484 165.27 667.682 165.71L667.682 167.86C668.29 167.77 668.843 167.69 669.343 167.63C669.85 167.561 670.361 167.528 670.873 167.53C672.956 167.53 674.356 167.89 675.073 168.61C675.444 169.009 675.73 169.478 675.915 169.99C676.099 170.502 676.178 171.047 676.147 171.59C676.152 172.369 676.075 173.147 675.919 173.91C675.767 174.63 675.214 176.693 674.259 180.1L663.111 220.33ZM754.231 147.09C755.098 147.094 755.956 146.913 756.747 146.56C757.538 146.206 758.246 145.688 758.821 145.04C760.1 143.675 760.79 141.86 760.741 139.99C760.785 138.112 760.096 136.289 758.821 134.91C758.252 134.252 757.546 133.726 756.754 133.367C755.962 133.008 755.101 132.825 754.231 132.83C753.365 132.823 752.508 133.005 751.721 133.365C750.933 133.724 750.233 134.252 749.671 134.91C748.416 136.299 747.743 138.119 747.791 139.99C747.748 141.839 748.422 143.635 749.671 145C750.233 145.66 750.932 146.189 751.72 146.55C752.507 146.911 753.365 147.095 754.231 147.09ZM752.691 161.74C750.841 162.17 748.881 162.56 746.811 162.91C745.221 163.17 743.631 163.42 742.061 163.66C740.491 163.9 737.921 164.23 734.341 164.67L734.341 166.81C736.622 166.704 738.908 166.892 741.141 167.37C742.291 167.74 742.861 168.7 742.861 170.26C742.862 170.7 742.819 171.139 742.731 171.57C742.641 172 742.531 172.48 742.401 173L733.141 206.46C732.661 208.29 732.331 209.66 732.161 210.6C731.977 211.683 731.89 212.781 731.901 213.88C731.86 215.884 732.514 217.842 733.751 219.42C734.287 220.152 734.989 220.745 735.799 221.152C736.609 221.559 737.504 221.767 738.411 221.76C741.581 221.76 744.838 220.197 748.181 217.07C751.163 214.044 753.864 210.754 756.251 207.24L756.901 206.33L755.211 204.9C753.576 207.169 751.814 209.342 749.931 211.41C747.501 213.97 745.548 215.25 744.071 215.25C743.753 215.306 743.426 215.26 743.136 215.121C742.845 214.981 742.606 214.753 742.451 214.47C742.181 213.949 742.047 213.367 742.061 212.78C742.254 211.283 742.559 209.802 742.971 208.35L756.111 161.87C756.129 161.758 756.111 161.643 756.059 161.542C756.006 161.441 755.923 161.36 755.821 161.31C755.581 161.16 754.541 161.3 752.691 161.74ZM801.621 161.54C792.371 161.54 783.774 165.663 775.831 173.91C767.801 182.2 763.788 191.27 763.791 201.12C763.791 207.55 765.591 212.62 769.191 216.33C772.791 220.04 777.501 221.893 783.321 221.89C789.291 221.925 795.115 220.03 799.921 216.49C803.23 213.916 806.186 210.917 808.711 207.57L806.821 206.14L806.371 206.66C803.855 209.538 800.926 212.029 797.681 214.05C794.771 215.909 791.394 216.911 787.941 216.94C783.781 216.94 780.658 215.55 778.571 212.77C776.484 209.99 775.441 206.143 775.441 201.23C775.502 192.311 778.188 183.604 783.161 176.2C788.301 168.25 794.368 164.277 801.361 164.28C802.827 164.178 804.295 164.457 805.621 165.09C806.001 165.269 806.326 165.547 806.56 165.896C806.794 166.245 806.929 166.651 806.951 167.07C806.757 167.976 806.394 168.838 805.881 169.61C805.221 170.716 804.853 171.972 804.811 173.26C804.797 173.959 804.935 174.652 805.215 175.292C805.494 175.933 805.909 176.505 806.431 176.97C807.531 177.975 808.981 178.513 810.471 178.47C811.586 178.492 812.685 178.204 813.646 177.637C814.606 177.07 815.391 176.248 815.911 175.261C816.431 174.275 816.666 173.163 816.591 172.05C816.591 169.8 815.418 167.487 813.071 165.11C810.724 162.733 806.908 161.543 801.621 161.54Z" sodipodi:nodetypes="ccccccccccccccccccccccccccccccccccccccccccccccccccccccccccccccccccccccccccccccccccccccccccccccccccccccccccccccccccccccccccccccccccccccccccccccccccccccccccccccccccccccccccccccccccccccccccccccccccccccccccccccccccccccccccccccccccccccccccccccccccccccccccccccccccccccccccccccccccccccccccccccccccccccccccccccccccccccccccccccccccccccccccccccccccccccccccccccccccccccccccccccccccccccccccccccccccccccccccccccccccccccccccccccccccccccccccccccccccccccccccccccccccccccccccccccccccccccccccccccccccccccccccccccccccccccccccccccccccccccccccccccccccccccccccccccccccccccccccccccccccccccccccccccccccccccccccccccccccccccccccccccccccccccccccccccccccccccccccccccccccccccccccccccccccccccccccccccccccccccccccccccccccccc"/>
</svg>
