<?xml version="1.0" standalone="no"?>
<!DOCTYPE svg PUBLIC "-//W3C//DTD SVG 20010904//EN" "http://www.w3.org/TR/2001/REC-SVG-20010904/DTD/svg10.dtd">
<!-- Created using Krita: https://krita.org -->
<svg xmlns="http://www.w3.org/2000/svg" 
    xmlns:xlink="http://www.w3.org/1999/xlink"
    xmlns:krita="http://krita.org/namespaces/svg/krita"
    xmlns:sodipodi="http://sodipodi.sourceforge.net/DTD/sodipodi-0.dtd"
    width="588.96pt"
    height="160.56pt"
    viewBox="0 0 588.96 160.56">
<defs/>
<path id="NavidNuur_" transform="matrix(0.719999947013619 0 0 0.719999947013619 178.558558663679 0.00216421559433376)" fill="#1b1c20" fill-rule="evenodd" stroke-opacity="0" stroke="#000000" stroke-width="0" stroke-linecap="square" stroke-linejoin="bevel" d="M0 95.332L11.2 95.332L11.2 17.066L11.466 17.066C11.466 17.066 15.466 24.266 18.533 28.933L62.266 95.333L74.532 95.333L74.532 0L63.332 0L63.332 78.532L63.066 78.532C63.066 78.532 59.332 71.199 56.132 66.266L12.666 0L0 0ZM143.412 95.998C145.419 96.0446 147.415 95.6819 149.278 94.932L149.278 87.065L148.878 87.065C142.878 88.399 141.545 85.332 141.545 79.732L141.545 46.932C141.545 30.532 130.745 25.065 116.079 25.065C97.812 25.065 89.012 35.065 88.612 48.398L99.012 48.398C99.412 37.998 105.012 33.198 116.212 33.198C126.078 33.198 131.678 37.598 131.678 45.332C131.678 52.798 124.878 53.732 115.145 55.198C97.945 57.865 85.145 61.198 85.145 77.464C85.145 90.531 95.411 96.664 108.478 96.664C120.211 96.664 127.278 91.064 131.411 85.731L131.544 85.731C132.612 92.798 136.345 95.998 143.412 95.998ZM110.879 88.398C103.812 88.398 96.612 86.398 96.612 77.198C96.612 67.065 105.279 65.198 116.079 63.198C121.945 62.131 128.212 60.398 131.812 58.131L131.812 69.864C131.812 77.865 125.278 88.399 110.879 88.399ZM169.479 95.331L181.479 95.331L206.279 26.398L195.079 26.398L180.545 70.132C178.545 76.132 176.011 84.665 176.011 84.665L175.745 84.665C175.745 84.665 173.211 76.265 171.211 70.132L156.945 26.399L145.345 26.399ZM211.506 95.331L222.306 95.331L222.306 26.399L211.506 26.399L211.506 95.332ZM211.506 13.331L222.306 13.331L222.306 0L211.506 0L211.506 13.333ZM261.665 97.331C271.398 97.331 277.798 93.597 282.998 86.931L283.264 86.931L283.264 95.331L294.064 95.331L294.064 0L283.264 0L283.264 36.133L282.998 36.133C280.632 32.5895 277.415 29.6951 273.641 27.7154C269.868 25.7358 265.658 24.7333 261.398 24.8C244.332 24.8 231.132 38.133 231.132 61.066C231.131 83.199 242.864 97.332 261.664 97.332ZM262.065 88.264C248.865 88.264 242.198 76.798 242.198 61.198C242.198 45.732 248.865 33.998 261.931 33.998C276.198 33.998 283.931 45.198 283.931 61.198C283.93 76.799 277.397 88.265 262.064 88.265ZM298.695 95.331L325.258 95.331L325.258 93.182C323.198 93.2141 321.149 92.8837 319.203 92.206C318.161 91.8465 317.265 91.1549 316.654 90.2379C316.043 89.3208 315.749 88.228 315.818 87.128C315.853 86.0101 315.995 84.898 316.241 83.807C316.523 82.419 316.794 81.2257 317.055 80.227L331.875 24.827L332.551 24.827L362.832 97.548L365.332 97.548C366.177 94.2067 366.716 92.1127 366.948 91.266C367.18 90.4193 367.55 89.063 368.058 87.197L383.975 30.231C386.361 21.855 388.261 16.6883 389.675 14.731C391.089 12.7737 393.813 11.363 397.846 10.499L397.846 8.351L371.278 8.351L371.278 10.499C373.429 10.5206 375.563 10.8945 377.593 11.606C378.579 12.0014 379.414 12.7011 379.976 13.6029C380.538 14.5047 380.798 15.5625 380.718 16.622C380.683 17.5406 380.574 18.4549 380.392 19.356C380.174 20.572 379.87 21.9387 379.481 23.456L366.219 74.322L365.765 74.249L338.407 8.349L316.964 8.349L316.964 10.497C318.96 10.757 320.512 11.0173 321.619 11.278C322.654 11.5076 323.637 11.927 324.519 12.515C325.51 13.2649 326.34 14.2058 326.961 15.282C327.761 16.5633 328.119 17.3337 328.035 17.593L312.558 73.457C310.257 81.747 308.323 86.9553 306.758 89.082C305.193 91.2087 302.502 92.5753 298.686 93.182L298.686 95.331ZM392.007 84.908C391.789 85.908 391.637 86.69 391.551 87.254C391.454 87.9875 391.41 88.7271 391.421 89.467C391.421 92.5943 392.559 94.766 394.836 95.982C396.06 96.5985 397.414 96.911 398.784 96.893C404.136 96.893 409.817 93.2867 415.827 86.074C419.294 81.87 424.053 74.7013 430.105 64.568L430.582 64.562L428.882 70.688C427.625 75.2553 426.591 79.061 425.782 82.105C425.349 83.5973 425.001 85.1131 424.74 86.645C424.533 87.8676 424.424 89.105 424.415 90.345C424.339 91.2394 424.462 92.1397 424.775 92.9808C425.088 93.822 425.584 94.5834 426.227 95.21C427.534 96.2814 429.191 96.8354 430.88 96.766C434.537 96.766 438.495 94.3763 442.756 89.597C445.091 86.9596 447.167 84.1038 448.956 81.069L447.1 79.832C445.53 81.7847 444.363 83.2387 443.6 84.194C442.369 85.756 441.52 86.776 441.053 87.254C440.264 88.0885 439.412 88.8611 438.505 89.565C437.945 90.0204 437.253 90.2831 436.532 90.314C436.273 90.3397 436.011 90.2959 435.775 90.1872C435.538 90.0784 435.334 89.9085 435.185 89.695C434.917 89.2543 434.782 88.7456 434.795 88.23C434.813 87.6148 434.898 87.0035 435.05 86.407C435.221 85.6697 435.413 84.867 435.626 83.999L448.426 37.782L438.605 37.782C435.969 45.084 433.948 50.4077 432.543 53.753C430.42 58.8277 427.909 63.7309 425.031 68.419C421.939 73.4139 418.47 78.1647 414.653 82.63C410.765 87.194 407.525 89.4753 404.934 89.474C404.523 89.492 404.114 89.4262 403.729 89.2806C403.345 89.135 402.994 88.9126 402.699 88.627C402.405 88.3139 402.179 87.9444 402.032 87.541C401.886 87.1375 401.823 86.7085 401.848 86.28C401.873 85.8416 401.939 85.4065 402.043 84.98C402.173 84.372 402.39 83.5247 402.694 82.438L415.35 38.45L415.55 37.375C415.569 37.2403 415.561 37.1031 415.527 36.9714C415.493 36.8398 415.432 36.7162 415.35 36.608C415.297 36.4997 415.212 36.4106 415.106 36.3533C415 36.2959 414.879 36.2731 414.759 36.288L404.281 38.241L394.595 40.129L394.595 41.952C396.687 41.8421 398.783 42.0508 400.812 42.571C401.919 42.9843 402.472 44.1237 402.472 45.989C402.472 46.3709 402.438 46.752 402.372 47.128C402.307 47.497 402.23 47.899 402.144 48.328ZM457.487 84.908C457.269 85.908 457.117 86.69 457.031 87.254C456.934 87.9875 456.89 88.7271 456.901 89.467C456.901 92.5943 458.039 94.766 460.316 95.982C461.538 96.5977 462.891 96.9102 464.259 96.893C469.619 96.893 475.302 93.2867 481.309 86.074C484.769 81.87 489.529 74.7013 495.589 64.568L496.059 64.562L494.359 70.688C493.099 75.2553 492.066 79.061 491.259 82.105C490.827 83.5974 490.479 85.1132 490.219 86.645C490.009 87.8674 489.899 89.1048 489.889 90.345C489.814 91.24 489.938 92.1407 490.252 92.982C490.567 93.8233 491.065 94.5843 491.709 95.21C493.016 96.2807 494.671 96.8347 496.359 96.766C500.019 96.766 503.979 94.3763 508.239 89.597C510.571 86.9592 512.644 84.1034 514.429 81.069L512.579 79.832C511.009 81.7847 509.839 83.2387 509.069 84.194C507.839 85.756 506.989 86.777 506.529 87.254C505.74 88.0886 504.887 88.8612 503.979 89.565C503.42 90.0192 502.729 90.2818 502.009 90.314C501.749 90.3402 501.487 90.2966 501.25 90.1878C501.013 90.079 500.809 89.9089 500.659 89.695C500.391 89.2543 500.256 88.7456 500.269 88.23C500.285 87.615 500.369 87.0037 500.519 86.407C500.689 85.67 500.889 84.867 501.099 83.999L513.899 37.782L504.079 37.782C501.439 45.084 499.419 50.4077 498.019 53.753C495.894 58.8281 493.38 63.7313 490.499 68.419C487.408 73.4122 483.941 78.1629 480.129 82.63C476.239 87.194 472.999 89.4753 470.409 89.474C469.998 89.4915 469.587 89.4255 469.202 89.28C468.817 89.1344 468.466 88.9122 468.169 88.627C467.877 88.3129 467.651 87.9432 467.505 87.54C467.359 87.1368 467.296 86.7082 467.319 86.28C467.347 85.8416 467.414 85.4065 467.519 84.98C467.649 84.372 467.859 83.524 468.169 82.438L480.819 38.45L481.019 37.375C481.038 37.2403 481.031 37.103 480.996 36.9713C480.962 36.8396 480.902 36.7161 480.819 36.608C480.767 36.4993 480.682 36.4098 480.576 36.3524C480.47 36.2949 480.348 36.2724 480.229 36.288L469.749 38.241L460.066 40.129L460.066 41.952C462.156 41.8418 464.251 42.0505 466.279 42.571C467.389 42.984 467.939 44.123 467.939 45.989C467.94 46.3705 467.91 46.7514 467.849 47.128C467.779 47.497 467.709 47.899 467.619 48.328ZM544.099 36.086C543.879 36.086 541.759 36.4767 537.739 37.258C533.729 38.0387 530.029 38.7763 526.639 39.471L524.029 39.992L524.029 42.141C525.119 42.01 526.049 41.903 526.829 41.815C527.48 41.7371 528.134 41.6937 528.789 41.685C529.394 41.6218 530.005 41.6816 530.585 41.8607C531.166 42.0397 531.705 42.3344 532.169 42.727C532.87 43.5608 533.221 44.6343 533.149 45.721C533.105 47.1892 532.921 48.6498 532.599 50.083C532.229 51.8643 531.739 53.8827 531.129 56.138L520.279 95.331L530.269 95.331C532.239 88.9523 533.812 84.0263 534.989 80.553C536.859 75.0417 538.556 70.6147 540.079 67.272C542.505 61.9215 545.372 56.7818 548.649 51.906C551.839 47.1727 554.282 44.806 555.979 44.806C556.288 44.7953 556.594 44.8745 556.859 45.034C557.105 45.1957 557.316 45.406 557.479 45.652L558.259 47.085C558.666 47.7987 559.218 48.4197 559.879 48.908C560.786 49.4882 561.855 49.762 562.929 49.689C563.788 49.7337 564.645 49.5842 565.438 49.2516C566.231 48.919 566.939 48.4119 567.509 47.768C568.644 46.4132 569.236 44.684 569.169 42.918C569.187 41.2286 568.598 39.5877 567.509 38.296C566.931 37.6182 566.205 37.0831 565.386 36.7329C564.567 36.3826 563.678 36.2266 562.789 36.277C559.019 36.277 555.039 38.806 550.849 43.864C546.592 49.0343 542.917 54.6572 539.889 60.631L538.379 63.639L545.019 38.248C545.059 38.027 545.099 37.695 545.139 37.254C545.142 36.9663 545.062 36.6836 544.909 36.44C544.818 36.3142 544.694 36.2148 544.552 36.152C544.41 36.0891 544.254 36.065 544.099 36.082L544.099 36.082Z" sodipodi:nodetypes="cccccccccccccccccccccccccccccccccccccccccccccccccccccccccccccccccccccccccccccccccccccccccccccccccccccccccccccccccccccccccccccccccccccccccccccccccccccccccccccccccccccccccccccccccccccccccccccccccccccccccccccccccccccccccccccccccccccccccccccccccccccccccccccccccccccccccc"/>
</svg>
