<?xml version="1.0" standalone="no"?>
<!DOCTYPE svg PUBLIC "-//W3C//DTD SVG 20010904//EN" "http://www.w3.org/TR/2001/REC-SVG-20010904/DTD/svg10.dtd">
<!-- Created using Krita: https://krita.org -->
<svg xmlns="http://www.w3.org/2000/svg" 
    xmlns:xlink="http://www.w3.org/1999/xlink"
    xmlns:krita="http://krita.org/namespaces/svg/krita"
    xmlns:sodipodi="http://sodipodi.sourceforge.net/DTD/sodipodi-0.dtd"
    width="588.96pt"
    height="187.92pt"
    viewBox="0 0 588.96 187.92">
<defs/>
<path id="VasileRa_ă" transform="matrix(0.719999910011271 0 0 0.719999910011271 183.599986300668 0.722171037112228)" fill="#1b1c20" fill-rule="evenodd" stroke-opacity="0" stroke="#000000" stroke-width="0" stroke-linecap="square" stroke-linejoin="bevel" d="M33.199 95.332L46.399 95.332L79.865 0L67.332 0L44.132 70.932C42.666 75.199 40.399 83.732 40.399 83.732L40.132 83.732C40.132 83.732 37.866 75.332 36.399 70.932L12.933 0L0 0ZM133.25 95.998C135.258 96.0447 137.254 95.682 139.117 94.932L139.117 87.065L138.717 87.065C132.717 88.399 131.384 85.332 131.384 79.732L131.384 46.932C131.384 30.532 120.584 25.065 105.918 25.065C87.651 25.065 78.851 35.065 78.451 48.398L88.851 48.398C89.251 37.998 94.851 33.198 106.051 33.198C115.917 33.198 121.517 37.598 121.517 45.332C121.517 52.798 114.717 53.732 104.984 55.198C87.784 57.865 74.984 61.198 74.984 77.464C74.984 90.531 85.25 96.664 98.317 96.664C110.05 96.664 117.117 91.064 121.25 85.731L121.383 85.731C122.451 92.798 126.184 95.998 133.25 95.998ZM100.718 88.398C93.651 88.398 86.451 86.398 86.451 77.198C86.451 67.065 95.118 65.198 105.918 63.198C111.784 62.131 118.051 60.398 121.651 58.131L121.651 69.864C121.651 77.865 115.117 88.399 100.718 88.399ZM171.263 97.331C187.13 97.331 198.463 90.264 198.463 76.398C198.463 60.531 186.863 57.465 172.997 54.665C161.13 52.265 154.464 50.798 154.464 43.332C154.464 37.865 158.464 33.465 168.33 33.465C178.597 33.465 183.53 37.465 184.597 46.532L195.663 46.532C194.063 33.065 185.663 24.932 168.597 24.932C152.597 24.932 143.797 32.398 143.797 43.865C143.797 58.931 155.93 61.731 169.53 64.531C182.197 67.198 187.53 69.198 187.53 76.931C187.53 83.331 182.863 88.264 171.53 88.264C161.264 88.264 153.264 84.931 151.797 72.931L140.731 72.931C141.797 88.399 152.33 97.332 171.263 97.332ZM206.89 95.331L217.69 95.331L217.69 26.399L206.89 26.399L206.89 95.332ZM206.89 13.331L217.69 13.331L217.69 0L206.89 0L206.89 13.333ZM229.916 95.331L240.716 95.331L240.716 0L229.916 0L229.916 95.332ZM282.834 97.197C298.434 97.197 309.234 88.797 312.434 73.997L301.901 73.997C299.501 83.33 292.834 88.13 282.834 88.13C268.968 88.13 261.368 77.463 260.568 63.464L313.901 63.464C313.901 40.664 302.834 24.664 282.168 24.664C262.568 24.664 249.501 40.931 249.501 60.93C249.501 80.929 261.768 97.198 282.834 97.198ZM282.168 33.197C294.568 33.197 301.634 41.597 302.301 55.33L260.835 55.33C262.435 42.799 269.368 33.199 282.168 33.199ZM346.138 46.497L354.638 16.021C354.753 15.4026 355.007 14.8182 355.38 14.3118C355.753 13.8054 356.236 13.39 356.793 13.097C358.131 12.6073 359.553 12.3864 360.976 12.447C365.985 12.447 370.08 13.4437 373.26 15.437C376.44 17.4303 378.03 21.221 378.031 26.809C378.031 34.1743 375.703 39.4053 371.047 42.502C366.391 45.5987 360.707 47.1473 353.994 47.148C353.171 47.148 352.413 47.1147 351.72 47.048C351.027 46.9813 349.165 46.797 346.133 46.495L346.133 46.495ZM311.822 95.332L344.566 95.332L344.566 93.183C341.353 93.0497 339.031 92.594 337.6 91.816C336.169 91.038 335.452 89.6273 335.451 87.584C335.513 85.9179 335.731 84.2613 336.102 82.636C336.363 81.5947 336.656 80.4903 336.981 79.323L344.469 51.517L353.169 52.168L369.575 95.332L389.301 95.332L389.301 93.183C386.219 93.0497 383.897 92.225 382.335 90.709C380.456 88.6669 379.035 86.2458 378.169 83.609L365.819 50.935C372.601 49.4597 377.884 47.5713 381.667 45.27C388.623 41.016 392.101 35.0253 392.101 27.298C392.101 19.2233 388.103 13.688 380.108 10.692C375.006 8.99163 369.646 8.19861 364.27 8.349L331.223 8.349L331.223 10.497C333.679 10.4929 336.112 10.9685 338.385 11.897C339.126 12.2999 339.731 12.9129 340.125 13.6587C340.519 14.4044 340.683 15.2501 340.598 16.089C340.573 17.4778 340.41 18.8607 340.11 20.217C339.785 21.799 339.449 23.1747 339.101 24.344L322.76 83.351C321.588 87.475 320.091 90.1877 318.268 91.489C317.096 92.3557 314.947 92.9197 311.822 93.181L311.822 95.33ZM441.201 48.338C441.201 56.0713 438.281 64.7413 432.441 74.348C426.378 84.9093 420.078 90.1897 413.541 90.189C412.499 90.2106 411.465 90.0094 410.507 89.599C409.549 89.1886 408.69 88.5782 407.987 87.809C406.493 86.223 405.746 83.6897 405.746 80.209C405.746 73.2997 408.443 65.0643 413.838 55.503C419.978 44.6363 426.622 39.203 433.771 39.203C434.754 39.1879 435.73 39.3772 436.636 39.7588C437.542 40.1404 438.359 40.7061 439.035 41.42C440.481 42.898 441.204 45.201 441.205 48.329L441.205 48.329ZM433.114 36.282C423.987 36.282 415.168 41.4307 406.656 51.728C398.408 61.6353 394.284 71.1507 394.284 80.274C394.284 85.576 395.714 89.6717 398.574 92.561C399.785 93.8988 401.259 94.9738 402.902 95.7191C404.546 96.4644 406.325 96.8643 408.13 96.894C410.347 96.8695 412.544 96.473 414.63 95.721C417.983 94.2572 421.061 92.2299 423.73 89.727C426.252 87.5592 428.53 85.1228 430.524 82.461C432.366 79.9637 433.677 78.0637 434.457 76.761C433.892 78.753 433.317 81.2103 432.732 84.133C432.234 86.3421 431.94 88.5922 431.853 90.855C431.798 92.3735 432.27 93.8654 433.188 95.076C433.644 95.6392 434.227 96.086 434.89 96.3796C435.553 96.6733 436.275 96.8054 436.999 96.765C439.936 96.6195 442.75 95.5354 445.025 93.673C447.835 91.6123 451.559 87.695 456.196 81.921L454.633 80.554L450.384 84.722C449.744 85.33 449.196 85.84 448.739 86.252C448.282 86.664 447.871 87.0207 447.504 87.322L446.339 88.233C445.787 88.6657 445.203 89.0574 444.594 89.405C444.2 89.6414 443.753 89.7758 443.294 89.796C442.856 89.8082 442.428 89.6582 442.094 89.375C441.92 89.2026 441.786 88.9939 441.702 88.7639C441.617 88.5339 441.585 88.2881 441.606 88.044C441.606 87.0927 442.409 83.2873 444.015 76.628C444.996 72.94 446.186 68.5583 447.587 63.483L454.029 40.183C454.215 39.5757 454.355 39.109 454.449 38.783C454.543 38.457 454.683 38.0123 454.869 37.449C454.955 37.1858 454.966 36.9041 454.901 36.635C454.815 36.5379 454.705 36.4656 454.582 36.4256C454.459 36.3857 454.327 36.3796 454.201 36.408L446.701 37.247C446.53 37.2384 446.359 37.2656 446.198 37.3269C446.038 37.3882 445.893 37.4823 445.771 37.603C445.569 37.9583 445.414 38.3376 445.307 38.732L443.846 43.64L443.518 42.728C443.033 41.3009 442.221 40.0068 441.147 38.949C439.26 37.1683 436.584 36.2777 433.118 36.277L433.118 36.277ZM463.554 91.037C463.549 92.4993 464.084 93.9132 465.054 95.007C466.054 96.1783 467.664 96.764 469.884 96.764C472.444 96.764 475.151 95.668 478.004 93.476C480.844 91.2847 484.137 87.3893 487.884 81.79L488.794 80.423L487.104 79.446C484.324 83.046 482.347 85.455 481.174 86.673C479.134 88.9297 477.547 90.058 476.414 90.058C476.047 90.0787 475.681 89.9872 475.367 89.7958C475.053 89.6044 474.804 89.3219 474.654 88.986C474.307 88.2901 474.239 87.4873 474.464 86.743L486.464 42.997L497.684 42.997L498.474 38.561L487.734 38.561L491.564 24.368C491.612 24.1217 491.625 23.87 491.604 23.62C491.566 23.3393 491.488 23.0653 491.374 22.806C491.082 22.6839 490.776 22.5963 490.464 22.545C490.247 22.5441 490.033 22.6007 489.844 22.709C489.652 22.8127 489.484 22.9575 489.354 23.133L488.314 24.375C484.124 29.3437 480.817 32.6993 478.394 34.442C475.179 36.6087 471.743 38.4273 468.144 39.867C467.626 40.0352 467.17 40.3538 466.834 40.782C466.592 41.4938 466.5 42.248 466.564 42.997L476.464 42.997L463.884 88.434C463.756 88.892 463.669 89.3605 463.624 89.834C463.579 90.2324 463.556 90.633 463.554 91.034L463.554 91.034ZM460.604 108.418C460.536 109.693 460.737 110.969 461.194 112.161C461.995 113.534 463.003 114.776 464.184 115.84L465.424 117.077C465.814 117.469 466.123 117.933 466.334 118.444C466.55 118.959 466.658 119.513 466.654 120.071C466.654 122.067 465.374 124.324 462.814 126.842C460.862 128.603 458.797 130.234 456.632 131.725L457.869 133.873L459.887 132.767C463.699 130.596 467.138 127.827 470.074 124.567C473.263 121.392 475.078 117.087 475.124 112.587C475.218 110.149 474.458 107.754 472.974 105.817C472.317 104.962 471.467 104.275 470.494 103.811C469.521 103.347 468.452 103.12 467.374 103.147C466.438 103.076 465.498 103.211 464.621 103.543C463.743 103.875 462.949 104.396 462.294 105.068C461.353 105.951 460.755 107.139 460.604 108.421L460.604 108.421ZM543.234 48.338C543.234 56.0713 540.314 64.7413 534.474 74.348C528.404 84.9093 522.101 90.1897 515.564 90.189C514.523 90.2112 513.489 90.0103 512.531 89.5998C511.574 89.1893 510.716 88.5787 510.014 87.809C508.524 86.223 507.777 83.6897 507.774 80.209C507.774 73.2997 510.471 65.0643 515.864 55.503C522.004 44.6363 528.647 39.203 535.794 39.203C536.778 39.1871 537.755 39.3759 538.662 39.7576C539.569 40.1392 540.387 40.7054 541.064 41.42C542.504 42.898 543.234 45.201 543.234 48.329L543.234 48.329ZM535.144 36.282C526.014 36.282 517.194 41.4307 508.684 51.728C500.434 61.6353 496.311 71.1507 496.314 80.274C496.314 85.576 497.744 89.6717 500.604 92.561C501.816 93.899 503.29 94.974 504.934 95.7193C506.579 96.4646 508.359 96.8644 510.164 96.894C512.381 96.8692 514.578 96.4727 516.664 95.721C520.017 94.2575 523.095 92.2301 525.764 89.727C528.286 87.5603 530.563 85.1237 532.554 82.461C534.394 79.961 535.714 78.061 536.494 76.761C535.924 78.753 535.354 81.21 534.764 84.133C534.264 86.3417 533.969 88.592 533.884 90.855C533.831 92.374 534.305 93.8656 535.224 95.076C535.68 95.6392 536.263 96.0861 536.925 96.3798C537.588 96.6734 538.311 96.8054 539.034 96.765C541.574 96.765 544.247 95.7343 547.054 93.673C549.861 91.6117 553.584 87.6943 558.224 81.921L556.664 80.554L552.414 84.721C551.774 85.329 551.224 85.839 550.774 86.251C550.324 86.663 549.904 87.022 549.534 87.325L548.374 88.236C547.82 88.6682 547.235 89.0599 546.624 89.408C546.23 89.6444 545.783 89.7788 545.324 89.799C544.883 89.8118 544.452 89.6619 544.114 89.378C543.942 89.2043 543.81 88.9952 543.727 88.7654C543.645 88.5355 543.613 88.2904 543.634 88.047C543.634 87.0957 544.434 83.2903 546.034 76.631C547.024 72.943 548.217 68.5613 549.614 63.486L556.054 40.186C556.234 39.579 556.384 39.112 556.474 38.786C556.564 38.46 556.704 38.016 556.894 37.452C556.983 37.1894 556.994 36.9064 556.924 36.638C556.838 36.541 556.728 36.4687 556.605 36.4288C556.482 36.3889 556.35 36.3827 556.224 36.411L548.724 37.25C548.553 37.2432 548.382 37.2712 548.222 37.3324C548.063 37.3936 547.917 37.4867 547.794 37.606C547.596 37.9627 547.442 38.3417 547.334 38.735L545.874 43.643L545.544 42.731C545.06 41.3035 544.248 40.009 543.174 38.952C541.284 37.171 538.614 36.28 535.144 36.28L535.144 36.28ZM522.094 6.204C522.264 12.064 523.091 16.4693 524.574 19.42C527.264 24.7587 532.274 27.428 539.604 27.428C543.164 27.5318 546.69 26.7032 549.832 25.0247C552.973 23.3462 555.622 20.8753 557.514 17.858C559.862 14.3309 561.477 10.3675 562.264 6.204L558.354 6.204C556.91 9.64951 554.761 12.7547 552.044 15.319C549.184 18.097 545.334 19.485 540.524 19.485C535.134 19.485 531.357 18.0093 529.194 15.058C527.175 12.5448 526.052 9.42762 526.004 6.204Z" sodipodi:nodetypes="ccccccccccccccccccccccccccccccccccccccccccccccccccccccccccccccccccccccccccccccccccccccccccccccccccccccccccccccccccccccccccccccccccccccccccccccccccccccccccccccccccccccccccccccccccccccccccccccccccccccccccccccccccccccccccccccccccccccccccccccccccccccccccccccccccccccccccccccccccccccccccccccccccccccccccccccccccccc"/>
</svg>
