<?xml version="1.0" standalone="no"?>
<!DOCTYPE svg PUBLIC "-//W3C//DTD SVG 20010904//EN" "http://www.w3.org/TR/2001/REC-SVG-20010904/DTD/svg10.dtd">
<!-- Created using Krita: https://krita.org -->
<svg xmlns="http://www.w3.org/2000/svg" 
    xmlns:xlink="http://www.w3.org/1999/xlink"
    xmlns:krita="http://krita.org/namespaces/svg/krita"
    xmlns:sodipodi="http://sodipodi.sourceforge.net/DTD/sodipodi-0.dtd"
    width="588.96pt"
    height="187.92pt"
    viewBox="0 0 588.96 187.92">
<defs/>
<path id="ValentinaRusu_Ciobanu_" transform="matrix(0.719999952881457 0 0 0.719999952881457 47.5092060527614 0.722173922047386)" fill="#1b1c20" fill-rule="evenodd" stroke-opacity="0" stroke="#000000" stroke-width="0" stroke-linecap="square" stroke-linejoin="bevel" d="M33.2 95.332L46.4 95.332L79.866 0L67.334 0L44.134 70.932C42.667 75.199 40.401 83.732 40.401 83.732L40.134 83.732C40.134 83.732 37.868 75.332 36.401 70.932L12.934 0L0 0ZM133.251 95.998C135.259 96.0447 137.255 95.682 139.118 94.932L139.118 87.065L138.718 87.065C132.718 88.399 131.385 85.332 131.385 79.732L131.385 46.932C131.385 30.532 120.585 25.065 105.918 25.065C87.652 25.065 78.852 35.065 78.452 48.398L88.852 48.398C89.252 37.998 94.852 33.198 106.052 33.198C115.918 33.198 121.518 37.598 121.518 45.332C121.518 52.798 114.718 53.732 104.985 55.198C87.785 57.865 74.985 61.198 74.985 77.464C74.985 90.531 85.252 96.664 98.318 96.664C110.052 96.664 117.118 91.064 121.251 85.731L121.385 85.731C122.451 92.798 126.185 95.998 133.251 95.998ZM100.718 88.398C93.652 88.398 86.452 86.398 86.452 77.198C86.452 67.065 95.119 65.198 105.918 63.198C111.785 62.131 118.052 60.398 121.651 58.131L121.651 69.864C121.651 77.865 115.118 88.399 100.718 88.399ZM145.278 95.331L156.078 95.331L156.078 0L145.278 0L145.278 95.332ZM198.196 97.197C213.796 97.197 224.596 88.797 227.796 73.997L217.263 73.997C214.863 83.33 208.196 88.13 198.196 88.13C184.33 88.13 176.73 77.463 175.93 63.464L229.263 63.464C229.263 40.664 218.196 24.664 197.53 24.664C177.93 24.664 164.864 40.931 164.864 60.93C164.864 80.929 177.134 97.198 198.196 97.198ZM197.53 33.197C209.93 33.197 216.996 41.597 217.663 55.33L176.197 55.33C177.797 42.799 184.734 33.199 197.534 33.199ZM248.382 26.397L237.582 26.397L237.582 95.332L248.382 95.332L248.382 52.932C248.382 41.599 256.382 33.866 267.315 33.866C277.048 33.866 282.915 38.933 282.915 47.866L282.915 95.332L293.715 95.332L293.715 46.932C293.715 32.665 284.915 24.799 270.515 24.799C260.515 24.799 253.582 28.932 248.649 35.465L248.382 35.465L248.382 26.398ZM299.022 35.197L309.022 35.197L309.022 82.397C309.022 92.13 315.422 95.73 324.222 95.73C327.135 95.7198 330.04 95.4068 332.888 94.796L332.888 85.463L332.488 85.463C330.631 86.0449 328.701 86.3594 326.755 86.397C322.355 86.397 319.822 84.797 319.822 79.997L319.822 35.197L333.155 35.197L333.155 26.397L319.822 26.397L319.822 4.666L309.022 4.666L309.022 26.399L299.022 26.399L299.022 35.199ZM340.434 95.332L351.234 95.332L351.234 26.399L340.434 26.399ZM340.434 13.332L351.234 13.332L351.234 0L340.434 0L340.434 13.333ZM374.06 26.398L363.26 26.398L363.26 95.332L374.06 95.332L374.06 52.932C374.06 41.599 382.06 33.866 392.993 33.866C402.726 33.866 408.593 38.933 408.593 47.866L408.593 95.332L419.393 95.332L419.393 46.932C419.393 32.665 410.593 24.799 396.193 24.799C386.193 24.799 379.26 28.932 374.327 35.465L374.06 35.465ZM485.539 95.998C487.547 96.0447 489.543 95.682 491.406 94.932L491.406 87.065L491.006 87.065C485.006 88.399 483.673 85.332 483.673 79.732L483.673 46.932C483.673 30.532 472.873 25.065 458.206 25.065C439.94 25.065 431.14 35.065 430.74 48.398L441.14 48.398C441.54 37.998 447.14 33.198 458.34 33.198C468.206 33.198 473.806 37.598 473.806 45.332C473.806 52.798 467.006 53.732 457.273 55.198C440.073 57.865 427.273 61.198 427.273 77.464C427.273 90.531 437.539 96.664 450.605 96.664C462.339 96.664 469.405 91.064 473.538 85.731L473.672 85.731C474.739 92.798 478.473 95.998 485.539 95.998ZM453.006 88.398C445.94 88.398 438.74 86.398 438.74 77.198C438.74 67.065 447.407 65.198 458.206 63.198C464.073 62.131 470.34 60.398 473.939 58.131L473.939 69.864C473.939 77.865 467.406 88.399 453.006 88.399ZM527.818 46.498L536.318 16.022C536.433 15.4035 536.687 14.8191 537.061 14.3127C537.434 13.8063 537.917 13.391 538.474 13.098C539.812 12.6083 541.233 12.3874 542.656 12.448C547.665 12.448 551.76 13.4447 554.941 15.438C558.122 17.4313 559.713 21.222 559.712 26.81C559.712 34.1753 557.384 39.4063 552.727 42.503C548.07 45.5997 542.386 47.1483 535.674 47.149C534.851 47.149 534.093 47.1157 533.401 47.049C532.709 46.9823 530.847 46.798 527.814 46.496L527.814 46.496ZM493.502 95.332L526.245 95.332L526.245 93.183C523.033 93.0497 520.711 92.594 519.279 91.816C517.847 91.038 517.131 89.6273 517.13 87.584C517.192 85.9179 517.41 84.2612 517.782 82.636C518.042 81.5947 518.335 80.4903 518.66 79.323L526.148 51.517L534.848 52.168L551.254 95.332L570.981 95.332L570.981 93.183C567.898 93.0497 565.576 92.225 564.015 90.709C562.135 88.667 560.714 86.2459 559.848 83.609L547.498 50.935C554.281 49.4597 559.564 47.5713 563.346 45.27C570.302 41.016 573.78 35.0253 573.78 27.298C573.78 19.2233 569.783 13.688 561.788 10.692C556.686 8.99163 551.325 8.19862 545.949 8.349L512.903 8.349L512.903 10.497C515.358 10.4929 517.791 10.9685 520.064 11.897C520.805 12.2999 521.41 12.9129 521.804 13.6586C522.198 14.4043 522.363 15.25 522.278 16.089C522.253 17.4778 522.089 18.8606 521.79 20.217C521.464 21.799 521.127 23.1747 520.78 24.344L504.439 83.351C503.267 87.475 501.77 90.1877 499.947 91.489C498.775 92.3557 496.627 92.9197 493.502 93.181L493.502 95.33ZM579.675 84.909C579.458 85.909 579.306 86.691 579.219 87.255C579.122 87.9885 579.078 88.7281 579.089 89.468C579.089 92.5947 580.227 94.7663 582.504 95.983C583.728 96.5994 585.082 96.9119 586.452 96.894C591.804 96.894 597.485 93.2877 603.495 86.075C606.962 81.871 611.721 74.7023 617.773 64.569L618.25 64.563L616.55 70.689C615.292 75.2563 614.259 79.062 613.45 82.106C613.017 83.5983 612.669 85.1141 612.408 86.646C612.201 87.8687 612.093 89.106 612.083 90.346C612.007 91.2405 612.13 92.1409 612.443 92.9821C612.757 93.8233 613.253 94.5846 613.896 95.211C615.203 96.2825 616.859 96.8366 618.548 96.767C622.206 96.767 626.165 94.3773 630.424 89.598C632.759 86.9606 634.835 84.1048 636.624 81.07L634.769 79.833C633.198 81.7857 632.031 83.2397 631.269 84.195C630.038 85.757 629.189 86.777 628.722 87.255C627.933 88.0894 627.082 88.862 626.175 89.566C625.615 90.0213 624.922 90.284 624.201 90.315C623.942 90.3407 623.68 90.2969 623.444 90.1882C623.207 90.0794 623.003 89.9095 622.854 89.696C622.586 89.2553 622.451 88.7466 622.464 88.231C622.482 87.6158 622.567 87.0045 622.719 86.408C622.89 85.6707 623.082 84.868 623.295 84L636.095 37.783L626.274 37.783C623.639 45.085 621.619 50.4087 620.213 53.754C618.089 58.8285 615.578 63.7317 612.7 68.42C609.608 73.4149 606.139 78.1657 602.322 82.631C598.434 87.195 595.194 89.4763 592.603 89.475C592.192 89.4929 591.783 89.427 591.398 89.2814C591.014 89.1358 590.664 88.9135 590.368 88.628C590.074 88.3149 589.848 87.9454 589.701 87.542C589.555 87.1385 589.492 86.7095 589.517 86.281C589.544 85.8425 589.611 85.4073 589.717 84.981C589.85 84.373 590.067 83.5257 590.368 82.439L603.024 38.451L603.219 37.376C603.238 37.2413 603.23 37.1041 603.196 36.9724C603.162 36.8408 603.101 36.7172 603.019 36.609C602.966 36.5006 602.881 36.4115 602.775 36.3541C602.669 36.2967 602.548 36.2739 602.428 36.289L591.95 38.242L582.254 40.122L582.254 41.945C584.346 41.835 586.442 42.0437 588.471 42.564C589.578 42.9773 590.132 44.1167 590.132 45.982C590.132 46.3639 590.098 46.745 590.032 47.121C589.965 47.4897 589.889 47.8913 589.804 48.326ZM641.027 97.222L643.175 97.222C643.438 96.568 643.824 95.971 644.314 95.464C644.855 95.03 645.543 94.8201 646.235 94.878C648.165 95.1345 650.078 95.5041 651.964 95.985C654.459 96.6122 657.011 96.9831 659.581 97.092C664.75 97.2075 669.799 95.5014 673.839 92.274C677.832 89.062 679.828 85.1123 679.829 80.425C679.848 78.0001 679.336 75.6001 678.329 73.394C676.873 70.4575 675.175 67.6477 673.251 64.994L668.629 58.354C666.957 56.0605 665.425 53.6689 664.039 51.192C663.34 49.7305 662.994 48.1248 663.03 46.505C662.966 45.5164 663.136 44.5265 663.526 43.6159C663.916 42.7053 664.516 41.8994 665.276 41.264C666.718 40.0897 668.527 39.4559 670.387 39.473C672.436 39.3783 674.468 39.89 676.228 40.9437C677.988 41.9975 679.398 43.5471 680.282 45.398C681.655 48.3998 682.514 51.6114 682.821 54.898L684.97 54.898L687.639 36.409L685.751 36.409C685.378 37.0728 684.894 37.6672 684.319 38.166C683.615 38.6545 682.764 38.8846 681.91 38.817C680.003 38.6374 678.123 38.2346 676.31 37.617C673.948 36.8752 671.493 36.4712 669.018 36.417C664.027 36.417 660.175 37.86 657.462 40.746C654.841 43.4083 653.377 47.0029 653.393 50.739C653.422 53.328 654.069 55.873 655.281 58.161C656.105 59.811 658.145 63.0663 661.401 67.927L666.801 75.935C667.512 76.9657 668.091 78.081 668.526 79.255C669.028 80.7653 669.259 82.3523 669.21 83.943C669.274 85.2971 669.068 86.6505 668.604 87.9244C668.141 89.1983 667.429 90.3675 666.51 91.364C665.656 92.272 664.62 92.9905 663.471 93.4728C662.321 93.9552 661.083 94.1907 659.837 94.164C655.104 94.164 651.545 91.9287 649.16 87.458C647.857 85.028 646.728 81.187 645.774 75.935L643.634 75.935ZM694.763 84.911C694.545 85.911 694.393 86.693 694.307 87.257C694.21 87.9905 694.166 88.7301 694.177 89.47C694.177 92.5967 695.315 94.7683 697.592 95.985C698.816 96.6014 700.17 96.9139 701.54 96.896C706.892 96.896 712.573 93.2897 718.583 86.077C722.05 81.873 726.809 74.7043 732.861 64.571L733.338 64.565L731.638 70.691C730.38 75.2583 729.347 79.064 728.538 82.108C728.105 83.6003 727.757 85.1161 727.496 86.648C727.289 87.8707 727.181 89.108 727.171 90.348C727.095 91.2425 727.218 92.1429 727.531 92.9841C727.845 93.8253 728.341 94.5866 728.984 95.213C730.291 96.2845 731.947 96.8386 733.636 96.769C737.293 96.769 741.252 94.3793 745.512 89.6C747.847 86.9626 749.923 84.1068 751.712 81.072L749.856 79.835C748.286 81.7877 747.119 83.2417 746.356 84.197C745.125 85.759 744.276 86.779 743.809 87.257C743.02 88.0914 742.169 88.864 741.262 89.568C740.702 90.0233 740.009 90.286 739.288 90.317C739.029 90.3427 738.767 90.2989 738.531 90.1902C738.294 90.0814 738.09 89.9115 737.941 89.698C737.673 89.2573 737.538 88.7486 737.551 88.233C737.569 87.6178 737.654 87.0065 737.806 86.41C737.977 85.6727 738.169 84.87 738.382 84.002L751.182 37.785L741.354 37.785C738.719 45.087 736.699 50.4107 735.293 53.756C733.169 58.8305 730.658 63.7337 727.78 68.422C724.688 73.4169 721.219 78.1677 717.402 82.633C713.514 87.197 710.274 89.4783 707.683 89.477C707.272 89.4949 706.863 89.429 706.478 89.2834C706.094 89.1378 705.744 88.9155 705.448 88.63C705.154 88.3169 704.928 87.9474 704.781 87.544C704.635 87.1405 704.572 86.7115 704.597 86.283C704.622 85.8446 704.688 85.4095 704.792 84.983C704.922 84.375 705.139 83.5277 705.443 82.441L718.099 38.453L718.294 37.378C718.313 37.2433 718.305 37.1061 718.271 36.9744C718.237 36.8428 718.176 36.7192 718.094 36.611C718.041 36.5026 717.956 36.4135 717.85 36.3561C717.744 36.2987 717.623 36.2759 717.503 36.291L707.025 38.244L697.339 40.132L697.339 41.955C699.431 41.845 701.527 42.0537 703.556 42.574C704.663 42.9873 705.216 44.1267 705.217 45.992C705.217 46.3739 705.183 46.755 705.117 47.131C705.052 47.5 704.975 47.902 704.889 48.336ZM369.676 131.66C354.094 131.66 340.856 137.91 329.963 150.41C320.023 161.782 315.053 174.195 315.054 187.649C314.924 196.663 318.098 205.421 323.973 212.259C329.919 219.29 338.448 222.806 349.559 222.806C356.67 222.876 363.673 221.044 369.839 217.5C376.22 213.751 381.821 208.811 386.339 202.949L384.19 201.061C378.808 206.227 374.446 209.808 371.104 211.803C365.459 215.103 359.024 216.813 352.485 216.751C349.452 216.84 346.436 216.256 343.656 215.04C340.875 213.824 338.398 212.007 336.404 209.72C332.237 205.032 330.153 198.109 330.154 188.952C330.116 176.752 333.696 164.809 340.44 154.642C348.296 142.49 358.3 136.414 370.453 136.413C378.352 136.413 384.017 139.386 387.446 145.332C389.313 148.544 390.484 152.776 390.961 158.027L393.305 158.353L398.188 131.79L395.453 131.79C395.093 132.646 394.535 133.405 393.826 134.004C392.81 134.62 391.623 134.894 390.44 134.785C387.673 134.462 384.932 133.939 382.24 133.222C378.124 132.229 373.909 131.705 369.675 131.66L369.675 131.66ZM421.781 147.09C422.648 147.095 423.506 146.915 424.298 146.561C425.09 146.208 425.797 145.689 426.371 145.039C427.65 143.676 428.34 141.862 428.291 139.993C428.336 138.116 427.647 136.293 426.371 134.915C425.801 134.258 425.096 133.731 424.304 133.371C423.512 133.012 422.651 132.828 421.781 132.832C420.915 132.826 420.059 133.009 419.272 133.369C418.485 133.729 417.786 134.256 417.224 134.915C415.966 136.302 415.289 138.121 415.336 139.993C415.297 141.844 415.974 143.64 417.224 145.006C417.785 145.665 418.484 146.193 419.271 146.553C420.059 146.913 420.915 147.097 421.781 147.09ZM420.234 161.738C418.382 162.172 416.422 162.563 414.355 162.91C412.762 163.17 411.18 163.42 409.608 163.659C408.036 163.898 405.463 164.235 401.888 164.668L401.888 166.816C404.167 166.709 406.451 166.896 408.683 167.37C409.831 167.739 410.405 168.705 410.406 170.27C410.405 170.707 410.362 171.142 410.276 171.57C410.188 172.004 410.076 172.481 409.95 173.002L400.682 206.466C400.204 208.289 399.879 209.667 399.706 210.6C399.519 211.685 399.432 212.786 399.445 213.887C399.403 215.891 400.06 217.848 401.301 219.421C401.835 220.154 402.535 220.749 403.345 221.156C404.154 221.564 405.05 221.773 405.956 221.765C409.123 221.765 412.378 220.203 415.722 217.078C418.706 214.053 421.408 210.762 423.795 207.247L424.446 206.335L422.754 204.903C421.121 207.172 419.36 209.346 417.48 211.414C415.049 213.975 413.095 215.255 411.62 215.255C411.301 215.31 410.973 215.264 410.681 215.124C410.39 214.983 410.149 214.756 409.992 214.473C409.721 213.951 409.586 213.369 409.601 212.781C409.798 211.285 410.102 209.806 410.513 208.354L423.658 161.869C423.676 161.758 423.658 161.643 423.605 161.544C423.553 161.444 423.469 161.364 423.367 161.316C423.133 161.163 422.089 161.304 420.234 161.738ZM442.421 206.338C442.421 197.354 445.154 188.218 450.621 178.93C456.436 168.991 462.664 164.022 469.306 164.021C471.123 163.922 472.924 164.423 474.429 165.446C475.934 166.469 477.062 167.959 477.639 169.685C478.505 172.218 478.903 174.887 478.811 177.562C478.811 185.245 476.489 193.665 471.845 202.823C466.378 213.5 460.107 218.839 453.03 218.838C449.557 218.838 446.921 217.655 445.12 215.29C443.246 212.692 442.295 209.539 442.42 206.338L442.42 206.338ZM470.021 161.286C460.428 161.286 451.509 165.735 443.263 174.633C435.19 183.314 431.153 192.407 431.154 201.911C431.154 208.205 432.954 213.088 436.554 216.56C440.154 220.032 444.95 221.768 450.942 221.768C460.448 221.768 469.389 217.168 477.765 207.968C485.881 199.114 489.939 190.086 489.94 180.885C490.048 175.919 488.463 171.062 485.448 167.115C482.453 163.231 477.31 161.289 470.018 161.288L470.018 161.288ZM495.334 214.212C495.029 215.384 496.744 216.946 500.477 218.899C504.262 220.91 508.491 221.941 512.777 221.899C522.585 221.899 532.068 217.32 541.226 208.162C550.644 198.745 555.353 188.633 555.354 177.824C555.481 173.521 553.939 169.332 551.054 166.138C549.606 164.57 547.834 163.335 545.861 162.52C543.888 161.705 541.762 161.329 539.629 161.418C534.58 161.418 529.683 163.61 524.937 167.993C521.241 171.689 517.925 175.745 515.037 180.102L528.329 130.884L528.459 130.037C528.47 129.893 528.449 129.749 528.398 129.614C528.348 129.479 528.268 129.357 528.165 129.256C527.998 129.095 527.776 129.002 527.544 128.996C525.854 129.096 524.177 129.357 522.536 129.777C520.203 130.298 518.883 130.58 518.576 130.623C515.782 131.058 513.567 131.362 511.931 131.535C510.295 131.708 508.779 131.903 507.382 132.121L507.382 134.399C509.768 134.532 511.32 134.619 512.037 134.66C512.552 134.676 513.064 134.741 513.567 134.855C513.965 134.926 514.345 135.074 514.686 135.292C515.027 135.51 515.321 135.793 515.552 136.125C515.826 136.636 515.972 137.205 515.976 137.785C515.966 138.428 515.911 139.069 515.813 139.705C515.681 140.573 515.497 141.432 515.26 142.277ZM513.543 218.834C511.21 218.834 509.502 218.324 508.42 217.304C507.877 216.78 507.451 216.145 507.171 215.444C506.892 214.742 506.764 213.989 506.798 213.235C506.798 206.161 509.522 197.264 514.971 186.543C521.238 174.217 527.81 168.054 534.689 168.053C535.958 168.028 537.216 168.287 538.371 168.811C539.527 169.334 540.551 170.11 541.369 171.08C543.232 173.357 544.181 176.248 544.03 179.186C544.03 186.653 541.025 194.877 535.014 203.86C528.354 213.844 521.197 218.835 513.543 218.834ZM606.181 173.334C606.181 181.067 603.261 189.737 597.42 199.344C591.358 209.905 585.058 215.186 578.52 215.185C577.478 215.207 576.444 215.006 575.486 214.595C574.528 214.185 573.669 213.574 572.966 212.805C571.471 211.219 570.724 208.686 570.725 205.205C570.725 198.296 573.422 190.06 578.817 180.499C584.957 169.632 591.601 164.199 598.75 164.199C599.733 164.184 600.708 164.373 601.614 164.755C602.52 165.137 603.337 165.702 604.013 166.416C605.46 167.894 606.183 170.197 606.184 173.325L606.184 173.325ZM598.094 161.278C588.967 161.278 580.148 166.427 571.636 176.724C563.387 186.631 559.262 196.147 559.263 205.27C559.263 210.572 560.693 214.668 563.554 217.557C564.765 218.895 566.239 219.97 567.882 220.715C569.526 221.46 571.305 221.86 573.11 221.89C575.327 221.866 577.524 221.469 579.61 220.717C582.963 219.253 586.041 217.226 588.71 214.723C591.232 212.555 593.51 210.119 595.504 207.457C597.345 204.96 598.656 203.06 599.437 201.757C598.872 203.749 598.296 206.206 597.711 209.129C597.213 211.338 596.919 213.588 596.832 215.851C596.777 217.37 597.249 218.861 598.168 220.072C598.624 220.635 599.207 221.082 599.87 221.376C600.533 221.669 601.255 221.801 601.979 221.761C604.916 221.615 607.73 220.531 610.005 218.669C612.815 216.608 616.538 212.691 621.175 206.917L619.613 205.55L615.362 209.717C614.722 210.325 614.174 210.835 613.717 211.247C613.26 211.659 612.849 212.017 612.482 212.321L611.317 213.232C610.765 213.664 610.181 214.056 609.572 214.404C609.178 214.64 608.731 214.775 608.272 214.795C607.834 214.807 607.406 214.657 607.072 214.374C606.898 214.202 606.764 213.993 606.679 213.763C606.595 213.533 606.562 213.287 606.584 213.043C606.584 212.092 607.387 208.286 608.993 201.627C609.973 197.939 611.163 193.557 612.564 188.482L619.006 165.182C619.193 164.575 619.334 164.108 619.427 163.782C619.52 163.456 619.659 163.012 619.847 162.448C619.932 162.185 619.942 161.903 619.878 161.634C619.792 161.537 619.682 161.464 619.559 161.424C619.436 161.385 619.304 161.378 619.178 161.407L611.678 162.246C611.507 162.238 611.336 162.265 611.176 162.326C611.015 162.387 610.87 162.481 610.748 162.602C610.547 162.957 610.391 163.337 610.285 163.731L608.824 168.639L608.495 167.727C608.01 166.3 607.199 165.006 606.125 163.948C604.238 162.167 601.562 161.277 598.096 161.276L598.096 161.276ZM636.156 220.328C638.996 210.886 641.069 204.376 642.374 200.798C643.805 196.962 645.6 193.272 647.734 189.778C650.43 185.392 653.426 181.197 656.702 177.225C661.713 171.328 665.868 168.38 669.165 168.379C669.669 168.324 670.179 168.4 670.646 168.599C671.112 168.799 671.519 169.115 671.828 169.518C672.342 170.323 672.604 171.263 672.58 172.218C672.551 173.014 672.475 173.807 672.352 174.594C672.132 176.029 671.839 177.453 671.473 178.858L663.165 210.499C662.972 211.204 662.83 211.922 662.742 212.647C662.636 213.424 662.582 214.207 662.579 214.991C662.579 217.553 663.251 219.322 664.595 220.297C665.796 221.224 667.265 221.738 668.782 221.762C671.974 221.762 675.315 220.048 678.805 216.619C681.844 213.465 684.62 210.069 687.105 206.463L685.217 204.77C683.124 207.773 680.808 210.615 678.288 213.27C676.872 214.594 675.624 215.256 674.543 215.256C674.252 215.275 673.961 215.212 673.703 215.074C673.446 214.935 673.233 214.728 673.088 214.474C672.781 213.94 672.623 213.333 672.633 212.717C672.675 212.046 672.784 211.381 672.958 210.731C673.175 209.798 673.371 209.006 673.544 208.355L682.112 177.17C682.459 175.868 682.742 174.653 682.959 173.524C683.17 172.452 683.279 171.362 683.284 170.269C683.284 166.536 681.954 163.953 679.294 162.521C677.749 161.75 676.037 161.37 674.311 161.415C669.329 161.415 663.691 164.909 657.398 171.896C652.506 177.596 648.036 183.646 644.024 189.996L652.655 161.996C652.545 161.753 652.365 161.549 652.137 161.411L640.564 163.95C639.184 164.254 637.901 164.514 636.716 164.731C635.531 164.948 633.537 165.273 630.735 165.707L630.735 167.856C631.342 167.769 631.895 167.693 632.395 167.628C632.902 167.562 633.413 167.528 633.925 167.528C636.008 167.528 637.408 167.888 638.125 168.608C638.496 169.006 638.782 169.475 638.967 169.987C639.151 170.498 639.231 171.042 639.2 171.585C639.204 172.365 639.128 173.144 638.972 173.909C638.819 174.629 638.265 176.69 637.312 180.093L626.162 220.332L636.162 220.332ZM694.762 209.905C694.544 210.905 694.392 211.687 694.306 212.251C694.209 212.984 694.165 213.724 694.176 214.464C694.176 217.591 695.314 219.762 697.591 220.979C698.815 221.595 700.169 221.908 701.539 221.89C706.891 221.89 712.572 218.284 718.582 211.071C722.049 206.867 726.808 199.698 732.86 189.565L733.337 189.559L731.637 195.685C730.38 200.252 729.347 204.058 728.537 207.102C728.104 208.594 727.756 210.11 727.495 211.642C727.288 212.865 727.18 214.102 727.17 215.342C727.094 216.236 727.217 217.137 727.53 217.978C727.843 218.819 728.339 219.58 728.982 220.207C730.289 221.278 731.946 221.832 733.635 221.763C737.292 221.763 741.251 219.373 745.511 214.594C747.846 211.957 749.922 209.101 751.711 206.066L749.855 204.829C748.285 206.782 747.118 208.236 746.355 209.191C745.124 210.753 744.275 211.773 743.808 212.251C743.019 213.085 742.168 213.858 741.261 214.562C740.701 215.017 740.008 215.28 739.287 215.311C739.028 215.337 738.766 215.293 738.53 215.184C738.293 215.075 738.089 214.905 737.94 214.692C737.672 214.251 737.537 213.743 737.55 213.227C737.568 212.612 737.653 212 737.805 211.404C737.976 210.667 738.168 209.864 738.381 208.996L751.181 162.779L741.354 162.779C738.719 170.081 736.699 175.405 735.292 178.75C733.169 183.825 730.658 188.728 727.78 193.416C724.688 198.411 721.219 203.162 717.402 207.627C713.514 212.191 710.274 214.472 707.683 214.471C707.272 214.489 706.863 214.423 706.478 214.277C706.094 214.132 705.744 213.909 705.448 213.624C705.154 213.311 704.928 212.941 704.781 212.538C704.635 212.134 704.572 211.705 704.597 211.277C704.622 210.839 704.688 210.403 704.792 209.977C704.922 209.369 705.139 208.522 705.443 207.435L718.099 163.447L718.294 162.372C718.313 162.237 718.305 162.1 718.271 161.968C718.237 161.837 718.176 161.713 718.094 161.605C718.041 161.497 717.956 161.407 717.85 161.35C717.744 161.293 717.623 161.27 717.503 161.285L707.025 163.238L697.339 165.126L697.339 166.949C699.431 166.839 701.527 167.048 703.556 167.568C704.663 167.981 705.216 169.121 705.216 170.986C705.216 171.368 705.182 171.749 705.116 172.125C705.051 172.494 704.974 172.896 704.888 173.33Z" sodipodi:nodetypes="ccccccccccccccccccccccccccccccccccccccccccccccccccccccccccccccccccccccccccccccccccccccccccccccccccccccccccccccccccccccccccccccccccccccccccccccccccccccccccccccccccccccccccccccccccccccccccccccccccccccccccccccccccccccccccccccccccccccccccccccccccccccccccccccccccccccccccccccccccccccccccccccccccccccccccccccccccccccccccccccccccccccccccccccccccccccccccccccccccccccccccccccccccccccccccccccccccccccccccccccccccccccccccccccccccccccccccccccccccccccccccccccccccccccccccccccccccccccccccccccccccccccccccccccccccccccccccccccccccccccccccccccccccccccccccccccccccccccccccccccccccccccccccccccccccccccccccccccccccccccccccccccccccccccccccc"/>
</svg>
