<?xml version="1.0" standalone="no"?>
<!DOCTYPE svg PUBLIC "-//W3C//DTD SVG 20010904//EN" "http://www.w3.org/TR/2001/REC-SVG-20010904/DTD/svg10.dtd">
<!-- Created using Krita: https://krita.org -->
<svg xmlns="http://www.w3.org/2000/svg" 
    xmlns:xlink="http://www.w3.org/1999/xlink"
    xmlns:krita="http://krita.org/namespaces/svg/krita"
    xmlns:sodipodi="http://sodipodi.sourceforge.net/DTD/sodipodi-0.dtd"
    width="588.96pt"
    height="187.92pt"
    viewBox="0 0 588.96 187.92">
<defs/>
<path id="LicăSainciuc_" transform="matrix(0.719999970813873 0 0 0.719999970813873 108.001439300964 0.490894557650021)" fill="#1b1c20" fill-rule="evenodd" stroke-opacity="0" stroke="#000000" stroke-width="0" stroke-linecap="square" stroke-linejoin="bevel" d="M0 95.335L62 95.335L62 84.268L12 84.268L12 0.003L2.84217e-14 0.003ZM69.2 95.335L80 95.335L80 26.402L69.2 26.402ZM69.2 13.335L80 13.335L80 0.003L69.2 0.003L69.2 13.336ZM121.945 97.2C139.145 97.2 149.945 87.6 151.412 71.067L140.743 71.067C139.81 81.734 133.143 88.134 121.943 88.134C107.277 88.134 99.677 76.134 99.677 60.934C99.677 45.734 107.277 33.601 121.943 33.601C132.343 33.601 138.876 39.335 140.476 48.668L151.41 48.668C149.01 34.001 138.21 24.668 121.943 24.668C101.41 24.668 88.611 40.935 88.611 60.934C88.611 80.933 101.41 97.201 121.943 97.201ZM214.958 96C216.966 96.0466 218.962 95.6839 220.825 94.934L220.825 87.067L220.425 87.067C214.425 88.401 213.091 85.334 213.091 79.734L213.091 46.934C213.091 30.534 202.291 25.067 187.625 25.067C169.359 25.067 160.559 35.067 160.159 48.4L170.559 48.4C170.959 38 176.559 33.2 187.759 33.2C197.626 33.2 203.226 37.6 203.226 45.334C203.226 52.8 196.426 53.734 186.693 55.2C169.493 57.867 156.693 61.2 156.693 77.466C156.693 90.533 166.96 96.666 180.026 96.666C191.759 96.666 198.826 91.066 202.959 85.733L203.092 85.733C204.156 92.801 207.892 96.001 214.956 96.001ZM182.425 88.4C175.359 88.4 168.159 86.4 168.159 77.2C168.159 67.067 176.825 65.2 187.625 63.2C193.492 62.133 199.758 60.4 203.358 58.133L203.358 69.866C203.356 77.868 196.823 88.402 182.423 88.402ZM187.625 14.8C197.625 14.8 204.158 8 204.558 0L196.825 0C196.025 4 192.825 6.533 187.492 6.533C182.159 6.533 179.492 4 178.692 0L170.692 0C171.223 8.936 178.556 14.803 187.623 14.803ZM225.45 97.806L227.792 97.806C228.205 96.5892 228.846 95.4621 229.68 94.485C230.139 94.0789 230.676 93.7711 231.258 93.5809C231.84 93.3906 232.455 93.3219 233.065 93.379C234.107 93.379 236.787 94.1927 241.106 95.82C245.187 97.4029 249.522 98.23 253.899 98.261C261.972 98.261 268.428 95.581 273.267 90.221C277.961 85.2281 280.561 78.617 280.526 71.764C280.605 68.1824 279.847 64.6314 278.313 61.394C276.882 58.4907 275.04 55.8085 272.844 53.43L260.8 40.495C258.209 37.8632 255.877 34.9894 253.834 31.913C252.552 29.6118 251.921 27.0038 252.011 24.371C251.973 22.6352 252.313 20.9118 253.009 19.321C253.704 17.7302 254.738 16.3098 256.038 15.159C258.921 12.6346 262.669 11.3166 266.498 11.481C273.472 11.481 278.215 14.0557 280.727 19.205C282.112 22.1043 282.912 26.7127 283.127 33.03L285.471 33.356L290.871 6.793L287.811 6.793C287.19 7.72548 286.446 8.56894 285.597 9.3C284.617 10.1256 283.362 10.554 282.082 10.5C279.796 10.114 277.551 9.51475 275.376 8.71C271.867 7.5524 268.199 6.94815 264.504 6.919C256.604 6.919 250.614 9.23033 246.535 13.853C242.456 18.4757 240.416 23.5213 240.415 28.99C240.395 32.4771 241.342 35.9025 243.149 38.885C244.972 41.9237 249.095 46.9587 255.519 53.99L263.853 63.104C265.825 65.2737 267.294 67.8527 268.153 70.656C268.695 72.34 268.981 74.096 269 75.865C268.98 80.3041 267.388 84.5956 264.508 87.974C261.513 91.664 257.279 93.5087 251.808 93.508C249.204 93.5424 246.624 93.01 244.246 91.9477C241.869 90.8854 239.751 89.3185 238.039 87.356C234.284 83.254 232.407 77.8177 232.407 71.047C232.407 70.787 232.429 69.8973 232.472 68.378L229.933 68.052ZM337.587 48.338C337.587 56.0713 334.667 64.7413 328.827 74.348C322.764 84.9087 316.464 90.189 309.927 90.189C308.885 90.2106 307.851 90.0094 306.893 89.599C305.935 89.1886 305.076 88.5782 304.373 87.809C302.879 86.223 302.132 83.6897 302.132 80.209C302.132 73.3003 304.829 65.065 310.224 55.503C316.364 44.6363 323.008 39.203 330.157 39.203C331.14 39.1879 332.116 39.3772 333.022 39.7588C333.928 40.1404 334.745 40.7061 335.421 41.42C336.867 42.898 337.59 45.201 337.591 48.329L337.591 48.329ZM329.5 36.282C320.373 36.282 311.554 41.4307 303.043 51.728C294.794 61.6353 290.67 71.1507 290.67 80.274C290.67 85.576 292.1 89.6717 294.96 92.561C296.172 93.899 297.645 94.974 299.289 95.7193C300.933 96.4646 302.712 96.8644 304.517 96.894C306.734 96.8696 308.931 96.473 311.017 95.721C314.37 94.2572 317.448 92.2299 320.117 89.727C322.639 87.5592 324.917 85.1228 326.911 82.461C328.753 79.9637 330.064 78.0637 330.844 76.761C330.28 78.753 329.705 81.2103 329.119 84.133C328.621 86.3421 328.327 88.5922 328.24 90.855C328.185 92.3737 328.657 93.8657 329.576 95.076C330.032 95.6392 330.615 96.0861 331.277 96.3798C331.94 96.6734 332.663 96.8054 333.386 96.765C336.323 96.6195 339.137 95.5354 341.412 93.673C344.222 91.6117 347.946 87.6943 352.583 81.921L351.02 80.554L346.769 84.721C346.129 85.329 345.581 85.839 345.124 86.251C344.667 86.663 344.257 87.021 343.892 87.325L342.728 88.236C342.175 88.6685 341.592 89.0602 340.982 89.408C340.588 89.6445 340.141 89.7789 339.682 89.799C339.244 89.8112 338.816 89.6612 338.482 89.378C338.308 89.2056 338.174 88.9969 338.09 88.7669C338.005 88.5369 337.973 88.2911 337.994 88.047C337.994 87.0963 338.797 83.291 340.403 76.631C341.384 72.943 342.574 68.5613 343.975 63.486L350.417 40.186C350.603 39.5793 350.743 39.1127 350.837 38.786C350.931 38.46 351.07 38.016 351.257 37.452C351.343 37.1888 351.354 36.9071 351.289 36.638C351.203 36.5408 351.093 36.4684 350.97 36.4285C350.847 36.3885 350.715 36.3825 350.589 36.411L343.089 37.25C342.918 37.2414 342.747 37.2686 342.586 37.3299C342.426 37.3912 342.281 37.4853 342.159 37.606C341.957 37.9613 341.802 38.3406 341.695 38.735L340.234 43.643L339.906 42.731C339.421 41.3038 338.609 40.0095 337.535 38.952C335.648 37.1707 332.972 36.28 329.506 36.28L329.506 36.28ZM382.471 22.09C383.338 22.0955 384.196 21.9152 384.988 21.5615C385.78 21.2077 386.487 20.6886 387.061 20.039C388.339 18.6754 389.029 16.8613 388.981 14.993C389.025 13.1158 388.336 11.2933 387.061 9.915C386.491 9.25754 385.786 8.73096 384.994 8.37144C384.202 8.01193 383.341 7.8279 382.471 7.832C381.605 7.82576 380.749 8.009 379.961 8.36882C379.174 8.72864 378.475 9.25641 377.913 9.915C376.655 11.3019 375.979 13.1213 376.025 14.993C375.986 16.844 376.663 18.6405 377.913 20.006C378.474 20.6651 379.174 21.1933 379.961 21.5533C380.748 21.9133 381.605 22.0965 382.471 22.09ZM380.927 36.738C379.076 37.172 377.116 37.5627 375.049 37.91C373.456 38.17 371.873 38.4197 370.301 38.659C368.729 38.8983 366.156 39.2347 362.581 39.668L362.581 41.816C364.862 41.709 367.147 41.8952 369.381 42.37C370.529 42.7393 371.103 43.706 371.104 45.27C371.103 45.7065 371.06 46.142 370.974 46.57C370.886 47.004 370.777 47.4813 370.648 48.002L361.38 81.466C360.902 83.2887 360.576 84.6667 360.403 85.6C360.217 86.6855 360.13 87.7857 360.143 88.887C360.098 90.8911 360.752 92.8496 361.992 94.425C362.526 95.1573 363.227 95.7519 364.036 96.1595C364.846 96.5671 365.741 96.7761 366.647 96.769C369.815 96.769 373.071 95.2067 376.414 92.082C379.398 89.0568 382.1 85.7662 384.487 82.251L385.138 81.339L383.445 79.907C381.813 82.176 380.052 84.3499 378.172 86.418C375.741 88.9787 373.787 90.259 372.311 90.259C371.992 90.3135 371.664 90.2675 371.373 90.1274C371.081 89.9873 370.841 89.76 370.684 89.477C370.413 88.9552 370.278 88.373 370.293 87.785C370.489 86.2891 370.794 84.8095 371.205 83.358L384.35 36.873C384.368 36.7617 384.35 36.6476 384.297 36.5478C384.245 36.448 384.161 36.3681 384.059 36.32C383.822 36.1667 382.778 36.307 380.925 36.741ZM401.327 95.332C404.167 85.89 406.239 79.38 407.544 75.802C408.974 71.9651 410.767 68.2736 412.899 64.778C415.595 60.3916 418.591 56.1972 421.867 52.225C426.878 46.3283 431.032 43.3797 434.33 43.379C434.835 43.3249 435.345 43.402 435.811 43.6027C436.278 43.8034 436.684 44.1212 436.992 44.525C437.505 45.3302 437.767 46.2704 437.743 47.225C437.714 48.0208 437.639 48.8142 437.516 49.601C437.296 51.0365 437.003 52.4597 436.637 53.865L428.329 85.506C428.135 86.2106 427.994 86.9286 427.906 87.654C427.8 88.4309 427.746 89.2139 427.743 89.998C427.743 92.56 428.415 94.3287 429.759 95.304C430.96 96.2311 432.429 96.7452 433.946 96.769C437.138 96.769 440.479 95.0547 443.969 91.626C447.008 88.4725 449.784 85.0758 452.269 81.47L450.381 79.777C448.288 82.7805 445.971 85.6218 443.451 88.277C442.036 89.601 440.788 90.263 439.707 90.263C439.416 90.2821 439.125 90.219 438.867 90.0807C438.61 89.9424 438.397 89.7346 438.252 89.481C437.944 88.9472 437.787 88.34 437.796 87.724C437.839 87.0528 437.948 86.3876 438.122 85.738C438.339 84.8047 438.534 84.0127 438.708 83.362L447.276 52.177C447.623 50.875 447.905 49.6597 448.122 48.531C448.334 47.4588 448.443 46.3689 448.448 45.276C448.448 41.5427 447.118 38.96 444.457 37.528C442.912 36.7572 441.201 36.3774 439.475 36.422C434.492 36.422 428.855 39.9157 422.562 46.903C417.67 52.6034 413.2 58.6527 409.188 65.003L417.818 37.003C417.709 36.7601 417.529 36.5561 417.301 36.418L405.727 38.957C404.348 39.261 403.065 39.5213 401.88 39.738C400.695 39.9547 398.701 40.28 395.899 40.714L395.899 42.863C396.506 42.7763 397.06 42.7003 397.559 42.635C398.066 42.5686 398.577 42.5352 399.089 42.535C401.172 42.535 402.572 42.895 403.289 43.615C403.659 44.0132 403.945 44.4822 404.13 44.9938C404.315 45.5054 404.394 46.049 404.363 46.592C404.368 47.3725 404.291 48.1513 404.135 48.916C403.983 49.636 403.43 51.6973 402.475 55.1L391.329 95.335L401.329 95.335ZM496.069 36.543C486.824 36.543 478.231 40.6663 470.288 48.913C462.257 57.205 458.241 66.2757 458.242 76.125C458.242 82.549 460.042 87.6157 463.642 91.325C467.242 95.0343 471.951 96.8897 477.77 96.891C483.74 96.9263 489.564 95.0317 494.37 91.491C497.68 88.9176 500.635 85.9183 503.159 82.571L501.271 81.139L500.816 81.66C498.302 84.5414 495.373 87.0318 492.124 89.049C489.217 90.9111 485.843 91.9163 482.391 91.949C478.225 91.949 475.1 90.5587 473.016 87.778C470.932 84.9973 469.891 81.1513 469.892 76.24C469.948 67.3206 472.632 58.6125 477.607 51.209C482.75 43.257 488.816 39.2807 495.807 39.28C497.275 39.1777 498.744 39.4582 500.071 40.094C500.452 40.2741 500.777 40.5537 501.012 40.9033C501.247 41.2528 501.383 41.6594 501.406 42.08C501.205 42.9847 500.841 43.8451 500.331 44.619C499.671 45.7239 499.302 46.9779 499.257 48.264C499.244 48.9635 499.382 49.6576 499.664 50.2982C499.945 50.9389 500.361 51.511 500.885 51.975C501.984 52.9802 503.432 53.5186 504.921 53.475C506.036 53.4972 507.136 53.2088 508.096 52.6421C509.057 52.0754 509.841 51.2525 510.361 50.2658C510.881 49.279 511.117 48.1668 511.041 47.054C511.041 44.806 509.869 42.493 507.525 40.115C505.181 37.737 501.362 36.548 496.067 36.548L496.067 36.548ZM539.175 22.09C540.042 22.0955 540.9 21.9153 541.692 21.5616C542.483 21.2078 543.19 20.6886 543.764 20.039C545.043 18.6758 545.733 16.8615 545.685 14.993C545.729 13.1156 545.04 11.293 543.764 9.915C543.194 9.25751 542.489 8.7309 541.697 8.37138C540.905 8.01185 540.045 7.82784 539.175 7.832C538.309 7.82576 537.453 8.009 536.665 8.36882C535.878 8.72864 535.179 9.25641 534.617 9.915C533.359 11.3019 532.683 13.1213 532.729 14.993C532.69 16.844 533.367 18.6405 534.617 20.006C535.178 20.6651 535.878 21.1933 536.665 21.5533C537.452 21.9133 538.309 22.0965 539.175 22.09ZM537.631 36.738C535.78 37.172 533.821 37.5627 531.753 37.91C530.16 38.17 528.578 38.4197 527.005 38.659C525.432 38.8983 522.859 39.2347 519.285 39.668L519.285 41.816C521.564 41.7093 523.848 41.8955 526.08 42.37C527.229 42.7393 527.803 43.706 527.804 45.27C527.803 45.7066 527.759 46.1421 527.673 46.57C527.586 47.004 527.478 47.4813 527.348 48.002L518.08 81.466C517.602 83.2887 517.276 84.6667 517.103 85.6C516.917 86.6855 516.83 87.7857 516.843 88.887C516.798 90.8911 517.452 92.8496 518.692 94.425C519.226 95.1573 519.927 95.7519 520.736 96.1595C521.546 96.5671 522.441 96.7761 523.347 96.769C526.515 96.769 529.771 95.2067 533.114 92.082C536.098 89.0568 538.8 85.7662 541.187 82.251L541.838 81.339L540.145 79.907C538.513 82.176 536.752 84.3499 534.872 86.418C532.44 88.9787 530.486 90.259 529.011 90.259C528.692 90.3135 528.364 90.2675 528.073 90.1274C527.781 89.9873 527.541 89.76 527.384 89.477C527.113 88.9552 526.978 88.373 526.993 87.785C527.189 86.2892 527.493 84.8096 527.904 83.358L541.049 36.873C541.068 36.7618 541.049 36.6476 540.997 36.5478C540.945 36.448 540.861 36.3679 540.759 36.32C540.524 36.1667 539.48 36.307 537.629 36.741ZM550.943 84.909C550.726 85.909 550.574 86.691 550.488 87.255C550.39 87.9884 550.346 88.7281 550.357 89.468C550.357 92.5953 551.495 94.767 553.772 95.983C554.996 96.5994 556.35 96.9119 557.72 96.894C563.072 96.894 568.753 93.2877 574.763 86.075C578.23 81.871 582.989 74.7023 589.042 64.569L589.519 64.563L587.819 70.689C586.561 75.2563 585.528 79.062 584.719 82.106C584.285 83.5982 583.938 85.114 583.678 86.646C583.47 87.8686 583.361 89.1059 583.352 90.346C583.276 91.2405 583.399 92.1409 583.712 92.9821C584.026 93.8233 584.522 94.5846 585.165 95.211C586.472 96.2825 588.129 96.8365 589.818 96.767C593.475 96.767 597.434 94.3773 601.693 89.598C604.029 86.9611 606.105 84.1053 607.893 81.07L606.038 79.833C604.467 81.7857 603.301 83.2397 602.538 84.195C601.307 85.757 600.458 86.777 599.991 87.255C599.202 88.0894 598.351 88.862 597.444 89.566C596.884 90.0213 596.191 90.284 595.47 90.315C595.211 90.3407 594.95 90.2968 594.713 90.188C594.477 90.0793 594.273 89.9094 594.124 89.696C593.855 89.2556 593.72 88.7467 593.733 88.231C593.751 87.6158 593.836 87.0045 593.988 86.408C594.159 85.6707 594.351 84.868 594.564 84L607.364 37.783L597.544 37.783C594.908 45.085 592.887 50.4087 591.482 53.754C589.359 58.8287 586.847 63.7319 583.969 68.42C580.877 73.4149 577.408 78.1657 573.591 82.631C569.703 87.195 566.464 89.4763 563.873 89.475C563.462 89.4931 563.053 89.4273 562.668 89.2817C562.284 89.1361 561.933 88.9136 561.638 88.628C561.344 88.3151 561.117 87.9456 560.971 87.5422C560.824 87.1387 560.761 86.7095 560.786 86.281C560.813 85.8424 560.88 85.4073 560.986 84.981C561.119 84.373 561.336 83.5257 561.637 82.439L574.292 38.451L574.492 37.376C574.511 37.2413 574.503 37.1042 574.469 36.9725C574.434 36.8409 574.374 36.7174 574.292 36.609C574.239 36.5006 574.154 36.4115 574.048 36.3541C573.942 36.2967 573.821 36.2739 573.701 36.289L563.223 38.242L553.537 40.13L553.537 41.953C555.629 41.843 557.726 42.0517 559.755 42.572C560.861 42.9853 561.414 44.1247 561.415 45.99C561.415 46.3719 561.381 46.753 561.315 47.129C561.248 47.4983 561.172 47.8983 561.087 48.329ZM652.2 36.543C642.955 36.543 634.361 40.6663 626.418 48.913C618.387 57.205 614.371 66.2757 614.372 76.125C614.372 82.549 616.172 87.6157 619.772 91.325C623.372 95.0343 628.081 96.8897 633.899 96.891C639.869 96.926 645.693 95.0314 650.499 91.491C653.808 88.9173 656.764 85.9181 659.288 82.571L657.4 81.139L656.944 81.66C654.43 84.5411 651.501 87.0316 648.253 89.049C645.346 90.9108 641.972 91.9161 638.52 91.949C634.353 91.949 631.228 90.5587 629.145 87.778C627.062 84.9973 626.02 81.1513 626.02 76.24C626.076 67.3205 628.76 58.6123 633.735 51.209C638.878 43.257 644.945 39.2807 651.935 39.28C653.403 39.1779 654.873 39.4584 656.2 40.094C656.581 40.2741 656.906 40.5538 657.14 40.9034C657.375 41.2529 657.511 41.6595 657.534 42.08C657.333 42.9845 656.969 43.845 656.46 44.619C655.8 45.7239 655.431 46.9779 655.386 48.264C655.373 48.9634 655.511 49.6574 655.792 50.298C656.073 50.9387 656.49 51.5109 657.013 51.975C658.112 52.9801 659.561 53.5184 661.05 53.475C662.165 53.4972 663.265 53.2088 664.225 52.6421C665.186 52.0754 665.97 51.2525 666.49 50.2658C667.01 49.279 667.246 48.1668 667.17 47.054C667.17 44.806 665.998 42.493 663.654 40.115C661.31 37.737 657.491 36.548 652.196 36.548L652.196 36.548Z" sodipodi:nodetypes="ccccccccccccccccccccccccccccccccccccccccccccccccccccccccccccccccccccccccccccccccccccccccccccccccccccccccccccccccccccccccccccccccccccccccccccccccccccccccccccccccccccccccccccccccccccccccccccccccccccccccccccccccccccccccccccccccccccccccccccccccccccccccccccccccccccccccccccccccccccccccccccccccccccccccccccccccccccccccccccccccccccccccccccccccccccccccccccccccccccccccccccccccccccccccccccccccccccccccccccccccccccccccc"/>
</svg>
