<?xml version="1.0" standalone="no"?>
<!DOCTYPE svg PUBLIC "-//W3C//DTD SVG 20010904//EN" "http://www.w3.org/TR/2001/REC-SVG-20010904/DTD/svg10.dtd">
<!-- Created using Krita: https://krita.org -->
<svg xmlns="http://www.w3.org/2000/svg" 
    xmlns:xlink="http://www.w3.org/1999/xlink"
    xmlns:krita="http://krita.org/namespaces/svg/krita"
    xmlns:sodipodi="http://sodipodi.sourceforge.net/DTD/sodipodi-0.dtd"
    width="588.96pt"
    height="187.92pt"
    viewBox="0 0 588.96 187.92">
<defs/>
<path id="MarkVerlan" transform="matrix(0.719999920218956 0 0 0.719999920218956 155.517117112861 0.722168609597153)" fill="#1b1c20" fill-rule="evenodd" stroke-opacity="0" stroke="#000000" stroke-width="0" stroke-linecap="square" stroke-linejoin="bevel" d="M0 95.332L10.8 95.332L10.8 16.932L11.067 16.932C11.067 16.932 13.467 24.132 15.333 28.932L41.466 95.332L50.666 95.332L76.799 28.932C78.532 24.399 81.066 16.932 81.066 16.932L81.332 16.932L81.332 95.332L92.799 95.332L92.799 0L77.199 0L46.533 79.2L46.266 79.2L15.333 0L0 0ZM161.754 95.998C163.761 96.0447 165.757 95.682 167.62 94.932L167.62 87.065L167.22 87.065C161.22 88.399 159.887 85.332 159.887 79.732L159.887 46.932C159.887 30.532 149.087 25.065 134.421 25.065C116.154 25.065 107.354 35.065 106.954 48.398L117.354 48.398C117.754 37.998 123.354 33.198 134.554 33.198C144.421 33.198 150.02 37.598 150.02 45.332C150.02 52.798 143.22 53.732 133.487 55.198C116.287 57.865 103.487 61.198 103.487 77.464C103.487 90.531 113.753 96.664 126.82 96.664C138.553 96.664 145.62 91.064 149.753 85.731L149.886 85.731C150.954 92.798 154.691 95.998 161.754 95.998ZM129.221 88.398C122.154 88.398 114.954 86.398 114.954 77.198C114.954 67.065 123.621 65.198 134.421 63.198C140.287 62.131 146.554 60.398 150.154 58.131L150.154 69.864C150.154 77.865 143.625 88.399 129.225 88.399ZM184.474 26.398L173.674 26.398L173.674 95.332L184.474 95.332L184.474 57.066C184.474 44.133 193.807 36.133 204.474 36.133C206.101 36.0538 207.73 36.2797 209.274 36.799L209.674 36.799L209.674 26.399C208.283 25.8161 206.781 25.5431 205.274 25.599C196.074 25.599 188.874 31.199 184.741 37.865L184.475 37.865L184.475 26.399ZM261.125 95.331L273.791 95.331L244.191 51.198L270.591 26.398L256.862 26.398L226.596 55.865L226.596 0L215.796 0L215.796 95.332L226.596 95.332L226.596 67.732L236.729 58.132ZM273.889 8.352L273.889 10.5C277.578 10.934 279.911 11.9757 280.889 13.625C281.867 15.2743 283.028 20.2007 284.372 28.404L295.646 97.804L298.254 97.804L347.961 15.704C348.719 14.2261 349.798 12.936 351.118 11.928C352.453 11.2241 353.894 10.7406 355.383 10.496L355.383 8.348L330.661 8.348L330.661 10.496C332.863 10.6903 335.03 11.171 337.107 11.926C337.722 12.2016 338.236 12.6636 338.574 13.2464C338.913 13.8293 339.06 14.504 338.995 15.175C338.995 16.779 337.975 19.6383 335.935 23.753C334.712 26.1923 333.424 28.5657 332.072 30.873L305.214 77.26L304.43 77.26L295.87 19.286C295.826 18.9393 295.783 18.5817 295.74 18.213C295.697 17.8566 295.675 17.498 295.675 17.139C295.604 16.0065 295.885 14.8792 296.479 13.9126C297.073 12.946 297.952 12.1865 298.995 11.739C301.254 10.9395 303.63 10.5218 306.026 10.503L306.026 8.355L273.893 8.355ZM338.804 78.033C338.804 84.0997 340.54 88.7607 344.012 92.016C347.248 95.1718 351.602 96.9256 356.122 96.893C362.632 96.893 369.121 94.571 375.588 89.927C378.727 87.789 381.554 85.2255 383.988 82.31L382.295 80.81C379.431 83.263 376.408 85.5245 373.246 87.58C370.154 89.5817 366.575 90.7072 362.894 90.836C359.642 90.8996 356.477 89.7632 354.008 87.645C351.511 85.519 350.263 82.546 350.264 78.726C350.241 77.3852 350.35 76.0454 350.59 74.726C350.909 73.2858 351.3 71.8627 351.762 70.462L355.473 70.007C363.66 68.9705 371.531 66.1898 378.552 61.853C385.865 57.413 389.522 52.0733 389.522 45.834C389.522 42.7587 388.522 40.4413 386.522 38.882C384.172 37.2145 381.326 36.3899 378.449 36.543C369.291 36.543 360.415 41.052 351.822 50.07C343.14 59.088 338.8 68.4093 338.801 78.034L338.801 78.034ZM352.671 67.533C353.495 65.3263 354.276 63.3563 355.015 61.623C356.526 58.0645 358.356 54.6505 360.484 51.423C362.611 48.4392 365.068 45.7048 367.808 43.272C370.52 40.872 373.287 39.672 376.108 39.672C376.757 39.6287 377.408 39.7384 378.007 39.9924C378.606 40.2463 379.137 40.6373 379.558 41.134C380.39 42.269 380.804 43.6576 380.73 45.063C380.73 49.6103 378.126 54.1893 372.917 58.8C367.708 63.4107 360.959 66.3227 352.67 67.536L352.67 67.536ZM418.171 36.088C417.953 36.088 415.836 36.4787 411.819 37.26C407.802 38.0413 404.101 38.779 400.714 39.473L398.109 39.994L398.109 42.143C399.193 42.0097 400.126 41.901 400.909 41.817C401.557 41.7391 402.209 41.6958 402.862 41.687C403.468 41.6225 404.082 41.6815 404.665 41.8604C405.247 42.0393 405.788 42.3345 406.254 42.728C406.954 43.5621 407.304 44.6358 407.23 45.722C407.189 47.1906 407.003 48.6516 406.677 50.084C406.308 51.8653 405.819 53.8837 405.212 56.139L394.354 95.332L404.348 95.332C406.317 88.9527 407.892 84.0267 409.073 80.554C410.94 75.0433 412.634 70.6163 414.156 67.273C416.585 61.9237 419.451 56.7842 422.726 51.907C425.919 47.1737 428.362 44.807 430.057 44.807C430.366 44.7965 430.671 44.8757 430.936 45.035C431.183 45.1955 431.393 45.406 431.553 45.653L432.333 47.086C432.741 47.8005 433.294 48.4216 433.957 48.909C434.865 49.4891 435.935 49.763 437.01 49.69C437.869 49.7341 438.726 49.5843 439.519 49.2518C440.312 48.9193 441.02 48.4124 441.59 47.769C442.722 46.4127 443.312 44.6843 443.247 42.919C443.264 41.2301 442.675 39.5897 441.588 38.297C441.011 37.619 440.285 37.0839 439.467 36.7336C438.648 36.3833 437.76 36.2274 436.871 36.278C433.097 36.278 429.117 38.807 424.932 43.865C420.673 49.0345 416.997 54.6574 413.969 60.632L412.46 63.64L419.095 38.249C419.135 38.028 419.175 37.696 419.216 37.255C419.22 36.9674 419.141 36.6847 418.988 36.441C418.896 36.3153 418.772 36.216 418.629 36.1532C418.486 36.0904 418.329 36.0662 418.174 36.083L418.174 36.083ZM443.143 81.467C442.767 82.899 442.461 84.1573 442.226 85.242C441.922 86.6775 441.748 88.1374 441.705 89.604C441.705 92.4253 442.64 94.4217 444.51 95.593C445.758 96.3825 447.211 96.79 448.688 96.765C452.343 96.765 455.976 94.965 459.588 91.365C462.805 87.7849 465.73 83.9533 468.336 79.907L466.578 78.67C464.652 81.5139 462.518 84.2122 460.196 86.743C457.678 89.521 455.638 90.91 454.075 90.91C453.738 90.9456 453.397 90.8812 453.096 90.7249C452.795 90.5687 452.547 90.3273 452.382 90.031C452.062 89.3727 451.905 88.6467 451.926 87.915C451.926 87.5207 451.97 87.1277 452.056 86.743C452.143 86.3523 452.426 85.224 452.903 83.358L474.575 5.102C474.485 4.92848 474.355 4.77889 474.196 4.66567C474.036 4.55246 473.852 4.47886 473.659 4.451C470.168 5.31767 467.202 5.96867 464.759 6.404C463.973 6.53733 462.303 6.77633 459.75 7.121C457.197 7.46567 454.938 7.76933 452.975 8.032L452.975 10.181C455.342 10.0516 457.716 10.1935 460.051 10.604C460.625 10.7607 461.122 11.1215 461.45 11.6184C461.777 12.1153 461.912 12.7149 461.829 13.304C461.829 13.6513 461.807 14.107 461.764 14.671C461.718 15.2452 461.609 15.8126 461.439 16.363ZM520.632 48.339C520.632 56.0723 517.712 64.7423 511.872 74.349C505.812 84.9103 499.512 90.1907 492.972 90.19C491.93 90.2116 490.895 90.0105 489.937 89.6C488.979 89.1896 488.12 88.5793 487.417 87.81C485.923 86.224 485.176 83.6907 485.176 80.21C485.176 73.3007 487.872 65.0653 493.264 55.504C499.404 44.6373 506.051 39.204 513.204 39.204C514.186 39.1895 515.161 39.379 516.067 39.7606C516.972 40.1422 517.788 40.7076 518.464 41.421C519.914 42.899 520.637 45.202 520.634 48.33L520.634 48.33ZM512.542 36.283C503.422 36.283 494.604 41.4317 486.089 51.729C477.84 61.6363 473.715 71.1517 473.716 80.275C473.716 85.577 475.146 89.6727 478.007 92.562C479.218 93.9 480.692 94.975 482.335 95.7203C483.979 96.4657 485.758 96.8655 487.563 96.895C489.78 96.871 491.977 96.4744 494.063 95.722C497.418 94.2609 500.496 92.2332 503.163 89.728C505.685 87.5587 507.965 85.1224 509.963 82.462C511.803 79.9647 513.113 78.0647 513.893 76.762C513.323 78.754 512.753 81.211 512.163 84.134C511.67 86.3437 511.379 88.5936 511.293 90.856C511.237 92.3739 511.707 93.8656 512.623 95.077C513.079 95.6402 513.662 96.0871 514.324 96.3808C514.987 96.6744 515.71 96.8064 516.433 96.766C519.371 96.6203 522.186 95.5363 524.463 93.674C527.273 91.6133 530.996 87.696 535.633 81.922L534.073 80.555L529.813 84.722C529.173 85.33 528.633 85.84 528.173 86.252C527.713 86.664 527.303 87.023 526.933 87.326L525.773 88.237C525.219 88.6692 524.634 89.0609 524.023 89.409C523.63 89.6467 523.182 89.7812 522.723 89.8C522.285 89.8149 521.856 89.6646 521.523 89.379C521.348 89.2074 521.213 88.9989 521.128 88.7687C521.043 88.5385 521.011 88.2923 521.033 88.048C521.033 87.0967 521.836 83.2913 523.443 76.632C524.423 72.944 525.613 68.5623 527.013 63.487L533.453 40.187C533.643 39.5797 533.783 39.113 533.873 38.787C533.973 38.461 534.113 38.0163 534.293 37.453C534.382 37.1904 534.393 36.9074 534.323 36.639C534.24 36.5417 534.131 36.469 534.01 36.429C533.888 36.389 533.758 36.3831 533.633 36.412L526.133 37.251C525.962 37.2419 525.79 37.2689 525.63 37.3302C525.47 37.3916 525.324 37.4859 525.203 37.607C524.997 37.9606 524.839 38.3404 524.733 38.736L523.273 43.644L522.943 42.732C522.459 41.3045 521.647 40.01 520.573 38.953C518.693 37.1723 516.016 36.2817 512.543 36.281L512.543 36.281ZM550.612 95.333C553.452 85.891 555.522 79.381 556.822 75.803C558.254 71.9663 560.049 68.275 562.182 64.779C564.876 60.3907 567.873 56.1962 571.152 52.226C576.162 46.3293 580.315 43.3807 583.612 43.38C584.116 43.3253 584.625 43.4013 585.091 43.6008C585.557 43.8003 585.964 44.1166 586.272 44.519C586.785 45.3243 587.046 46.2646 587.022 47.219C586.996 48.0147 586.923 48.8081 586.802 49.595C586.642 50.702 586.352 52.124 585.922 53.859L577.612 85.5C577.418 86.2044 577.278 86.9224 577.192 87.648C577.084 88.4247 577.027 89.2078 577.022 89.992C577.022 92.554 577.702 94.322 579.042 95.298C580.243 96.2264 581.714 96.7406 583.232 96.763C586.422 96.763 589.762 95.0487 593.252 91.62C596.29 88.4657 599.066 85.0691 601.552 81.464L599.662 79.771C597.572 82.7769 595.255 85.6185 592.732 88.271C591.322 89.595 590.072 90.257 588.992 90.257C588.7 90.2757 588.408 90.2123 588.15 90.0742C587.893 89.936 587.678 89.7284 587.532 89.475C587.228 88.9399 587.073 88.3333 587.082 87.718C587.121 87.0468 587.228 86.3814 587.402 85.732C587.622 84.799 587.812 84.007 587.992 83.356L596.562 52.171C596.902 50.869 597.182 49.6537 597.402 48.525C597.616 47.4531 597.727 46.3631 597.732 45.27C597.732 41.5367 596.402 38.954 593.742 37.522C592.194 36.7506 590.481 36.3708 588.752 36.416C583.772 36.416 578.135 39.9097 571.842 46.897C566.953 52.5984 562.484 58.6477 558.472 64.997L567.102 36.997C566.991 36.7544 566.81 36.5506 566.582 36.412L555.012 38.951C553.632 39.251 552.352 39.515 551.162 39.732C549.972 39.949 547.982 40.275 545.182 40.708L545.182 42.857C545.792 42.77 546.342 42.694 546.842 42.629C547.349 42.5627 547.86 42.5293 548.372 42.529C550.452 42.529 551.852 42.889 552.572 43.609C552.941 44.0083 553.225 44.4776 553.409 44.9889C553.593 45.5003 553.672 46.0434 553.642 46.586C553.65 47.3667 553.573 48.146 553.412 48.91C553.262 49.63 552.709 51.6913 551.752 55.094L540.612 95.329L550.612 95.329Z" sodipodi:nodetypes="cccccccccccccccccccccccccccccccccccccccccccccccccccccccccccccccccccccccccccccccccccccccccccccccccccccccccccccccccccccccccccccccccccccccccccccccccccccccccccccccccccccccccccccccccccccccccccccccccccccccccccccccccccccccccccccccccccccccccccccccccccccccccccccccccccccccccccccccccccccccccccccccccccccccccccccccc"/>
</svg>
