<?xml version="1.0" standalone="no"?>
<!DOCTYPE svg PUBLIC "-//W3C//DTD SVG 20010904//EN" "http://www.w3.org/TR/2001/REC-SVG-20010904/DTD/svg10.dtd">
<!-- Created using Krita: https://krita.org -->
<svg xmlns="http://www.w3.org/2000/svg" 
    xmlns:xlink="http://www.w3.org/1999/xlink"
    xmlns:krita="http://krita.org/namespaces/svg/krita"
    xmlns:sodipodi="http://sodipodi.sourceforge.net/DTD/sodipodi-0.dtd"
    width="588.96pt"
    height="187.92pt"
    viewBox="0 0 588.96 187.92">
<defs/>
<path id="Alex_Bodea_" transform="matrix(0.719999954127136 0 0 0.719999954127136 348.490790168532 0.722164393945785)" fill="#1b1c20" fill-rule="evenodd" stroke-opacity="0" stroke="#000000" stroke-width="0" stroke-linecap="square" stroke-linejoin="bevel" d="M95.59 95.332L107.856 95.332L118.123 66.266L156.123 66.266L166.256 95.332L179.323 95.332L144.123 1.42109e-14L130.656 1.42109e-14ZM132.923 24.532C134.789 19.065 137.323 11.065 137.323 11.065L137.589 11.065C137.589 11.065 139.989 19.199 141.856 24.532L152.789 56.532L121.589 56.532ZM186.056 95.332L196.856 95.332L196.856 0L186.056 0ZM238.974 97.198C254.574 97.198 265.374 88.798 268.574 73.998L258.04 73.998C255.64 83.331 248.974 88.131 238.974 88.131C225.108 88.131 217.508 77.464 216.708 63.465L270.04 63.465C270.04 40.665 258.974 24.665 238.307 24.665C218.707 24.665 205.641 40.932 205.641 60.931C205.641 80.93 217.908 97.198 238.973 97.198ZM238.307 33.198C250.707 33.198 257.774 41.598 258.44 55.331L216.973 55.331C218.573 42.799 225.508 33.199 238.307 33.199ZM268.027 95.331L280.16 95.331L300.16 65.731L300.427 65.731L320.827 95.331L333.493 95.331L306.56 57.998L329.227 26.398L317.359 26.398L300.293 51.466L300.026 51.466L283.626 26.399L271.093 26.399L294.026 59.199ZM34.321 171.894L42.931 141.035C43.0614 140.431 43.3168 139.861 43.6807 139.361C44.0446 138.862 44.509 138.444 45.044 138.135C46.064 137.593 48.0263 137.322 50.931 137.321C55.483 137.321 59.1573 138.352 61.954 140.413C64.7507 142.474 66.1507 146.001 66.154 150.993C66.154 159.761 62.8563 165.794 56.261 169.093C52.4097 171.003 47.0453 171.958 40.168 171.957ZM33.206 216.1C31.2046 216.194 29.2015 215.952 27.28 215.384C26.2663 215.092 25.3832 214.46 24.7791 213.595C24.1749 212.73 23.8857 211.683 23.96 210.631C23.9657 209.965 24.0309 209.301 24.155 208.646C24.2893 207.91 24.4632 207.182 24.676 206.465L33.104 176.256C42.304 176.386 48.418 177.124 51.446 178.47C56.2127 180.683 58.5963 185.392 58.597 192.597C58.7295 198.703 56.541 204.638 52.476 209.197C48.396 213.797 41.9727 216.097 33.206 216.097L33.206 216.097ZM0 220.332L36.851 220.332C48.0917 220.332 56.946 217.88 63.414 212.975C69.882 208.07 73.1153 201.972 73.114 194.681C73.114 188.214 71.0527 183.093 66.93 179.316C64.6307 177.233 61.181 175.323 56.581 173.587C62.5263 172.285 67.1697 170.614 70.511 168.574C76.6297 164.798 79.6893 159.503 79.69 152.689C79.69 144.485 75.9367 138.799 68.43 135.631C63.4258 134.031 58.193 133.261 52.94 133.353L18.512 133.353L18.512 135.501C22.5047 135.589 25.2283 136.045 26.683 136.868C28.1377 137.691 28.8647 139.232 28.864 141.491C28.7892 142.984 28.5712 144.467 28.213 145.918C27.995 146.743 27.682 147.893 27.274 149.366L10.938 208.353C9.766 212.477 8.26867 215.19 6.446 216.491C5.274 217.358 3.12533 217.922 2.27374e-13 218.183ZM95.891 206.332C95.891 197.348 98.6243 188.212 104.091 178.924C109.907 168.985 116.135 164.016 122.776 164.015C124.593 163.916 126.394 164.416 127.899 165.439C129.405 166.463 130.533 167.953 131.109 169.679C131.976 172.211 132.373 174.881 132.281 177.556C132.281 185.239 129.959 193.66 125.315 202.817C119.848 213.494 113.577 218.833 106.5 218.832C103.027 218.832 100.39 217.649 98.59 215.284C96.7159 212.686 95.765 209.533 95.89 206.332L95.89 206.332ZM123.491 161.28C113.898 161.28 104.979 165.729 96.733 174.627C88.6603 183.308 84.624 192.401 84.624 201.905C84.624 208.199 86.424 213.082 90.024 216.554C93.624 220.026 98.42 221.762 104.412 221.762C113.917 221.762 122.858 217.162 131.235 207.962C139.35 199.108 143.408 190.08 143.409 180.879C143.517 175.913 141.932 171.056 138.917 167.109C135.922 163.225 130.778 161.283 123.487 161.282L123.487 161.282ZM159.717 205.173C159.717 198.152 162.492 189.872 168.041 180.335C174.246 169.673 180.67 164.341 187.312 164.34C189.979 164.34 191.748 165.207 192.621 166.94C193.563 168.997 194.012 171.246 193.932 173.507C193.932 181.874 191.171 190.739 185.65 200.101C179.917 210.071 173.944 215.056 167.731 215.055C164.82 215.055 162.756 214.069 161.541 212.097C160.293 210.007 159.66 207.606 159.717 205.172L159.717 205.172ZM186.637 161.28C178.385 161.28 169.915 166.244 161.226 176.173C152.493 186.145 148.126 195.857 148.126 205.308C148.126 210.902 149.538 215.043 152.361 217.731C153.664 219.022 155.209 220.043 156.908 220.735C158.607 221.427 160.427 221.776 162.261 221.762C166.984 221.735 171.547 220.028 175.128 216.948C179.354 213.406 183.012 209.237 185.977 204.588C185.444 206.968 185.046 209.156 184.785 211.152C184.571 212.597 184.441 214.053 184.394 215.513C184.394 218.204 185.288 220.071 187.076 221.113C188.063 221.64 189.168 221.909 190.287 221.894C193.869 221.894 197.91 219.694 202.41 215.294C204.725 213.07 206.811 210.619 208.635 207.977L209.553 206.605L208.053 205.174C205.682 208.011 203.816 210.105 202.453 211.458C200.125 213.684 198.325 214.797 197.053 214.797C196.504 214.761 195.974 214.58 195.518 214.272C195.185 213.997 194.93 213.641 194.776 213.238C194.623 212.835 194.576 212.398 194.642 211.972C194.648 211.432 194.702 210.893 194.805 210.363C194.913 209.772 195.054 209.126 195.228 208.425L203.977 177.475L216.822 130.682L216.957 129.966L216.368 129.315C207.645 130.921 200.82 132.05 195.891 132.701L195.891 134.849C196.933 134.763 197.769 134.696 198.398 134.649C199.027 134.602 199.711 134.58 200.449 134.584C201.394 134.526 202.334 134.753 203.149 135.235C203.777 135.669 204.092 136.732 204.093 138.425C204.087 138.936 204.054 139.447 203.993 139.955C203.909 140.628 203.768 141.292 203.57 141.94L195.92 168.628C195.668 166.867 194.994 165.193 193.956 163.748C192.514 162.1 190.069 161.276 186.62 161.276L186.62 161.276ZM215.182 203.032C215.182 209.102 216.918 213.763 220.39 217.015C223.625 220.171 227.98 221.925 232.499 221.892C239.01 221.892 245.499 219.57 251.966 214.926C255.105 212.788 257.932 210.224 260.366 207.309L258.673 205.809C255.809 208.262 252.786 210.524 249.624 212.579C246.532 214.581 242.953 215.706 239.272 215.835C236.02 215.899 232.855 214.762 230.386 212.644C227.889 210.518 226.641 207.545 226.642 203.725C226.619 202.384 226.728 201.044 226.968 199.725C227.287 198.285 227.677 196.862 228.139 195.461L231.85 195.006C240.038 193.97 247.908 191.189 254.93 186.852C262.243 182.412 265.899 177.072 265.9 170.833C265.9 167.758 264.9 165.441 262.9 163.881C260.55 162.213 257.704 161.389 254.827 161.542C245.669 161.542 236.793 166.051 228.2 175.069C219.518 184.087 215.178 193.408 215.179 203.033L215.179 203.033ZM229.049 192.532C229.873 190.325 230.654 188.355 231.393 186.622C232.903 183.063 234.733 179.649 236.861 176.422C238.989 173.438 241.446 170.704 244.186 168.271C246.898 165.871 249.665 164.669 252.486 164.666C253.135 164.623 253.786 164.732 254.386 164.986C254.985 165.24 255.516 165.631 255.937 166.128C256.769 167.263 257.183 168.652 257.109 170.057C257.109 174.604 254.505 179.183 249.296 183.794C244.087 188.405 237.34 191.318 229.053 192.532L229.053 192.532ZM316.557 173.338C316.557 181.071 313.637 189.741 307.797 199.348C301.734 209.909 295.434 215.189 288.897 215.189C287.855 215.211 286.821 215.009 285.863 214.599C284.905 214.189 284.046 213.578 283.343 212.809C281.849 211.223 281.102 208.69 281.102 205.209C281.102 198.3 283.799 190.065 289.194 180.503C295.334 169.636 301.978 164.203 309.127 164.203C310.11 164.188 311.086 164.377 311.992 164.759C312.898 165.14 313.715 165.706 314.391 166.42C315.837 167.898 316.56 170.201 316.561 173.329L316.561 173.329ZM308.473 161.282C299.346 161.282 290.526 166.431 282.015 176.728C273.767 186.635 269.643 196.151 269.643 205.274C269.643 210.576 271.073 214.672 273.933 217.561C275.144 218.899 276.618 219.974 278.261 220.719C279.905 221.464 281.684 221.864 283.489 221.894C285.706 221.869 287.903 221.473 289.989 220.721C293.342 219.257 296.42 217.23 299.089 214.727C301.611 212.559 303.889 210.123 305.883 207.461C307.725 204.964 309.036 203.064 309.816 201.761C309.251 203.753 308.676 206.21 308.091 209.133C307.593 211.342 307.299 213.592 307.212 215.855C307.157 217.374 307.629 218.865 308.547 220.076C309.003 220.639 309.586 221.086 310.249 221.38C310.912 221.673 311.634 221.805 312.358 221.765C315.295 221.62 318.109 220.535 320.384 218.673C323.194 216.612 326.918 212.694 331.555 206.921L329.992 205.554L325.741 209.721C325.101 210.329 324.553 210.839 324.096 211.251C323.639 211.663 323.228 212.021 322.861 212.325L321.696 213.236C321.144 213.669 320.56 214.06 319.951 214.408C319.557 214.644 319.11 214.779 318.651 214.799C318.211 214.812 317.782 214.662 317.446 214.378C317.272 214.206 317.138 213.997 317.054 213.767C316.969 213.537 316.937 213.291 316.958 213.047C316.958 212.096 317.761 208.291 319.367 201.631C320.348 197.943 321.538 193.561 322.939 188.486L329.381 165.186C329.567 164.579 329.707 164.113 329.801 163.786C329.895 163.459 330.035 163.015 330.221 162.452C330.306 162.189 330.317 161.907 330.253 161.638C330.167 161.541 330.057 161.469 329.934 161.429C329.811 161.389 329.679 161.383 329.553 161.411L322.053 162.25C321.882 162.241 321.711 162.269 321.55 162.33C321.39 162.391 321.245 162.485 321.123 162.606C320.921 162.961 320.766 163.341 320.659 163.735L319.198 168.643L318.87 167.731C318.385 166.304 317.573 165.01 316.499 163.952C314.615 162.172 311.94 161.282 308.473 161.282Z" sodipodi:nodetypes="ccccccccccccccccccccccccccccccccccccccccccccccccccccccccccccccccccccccccccccccccccccccccccccccccccccccccccccccccccccccccccccccccccccccccccccccccccccccccccccccccccccccccccccccccccccccccccccccccccccccccccccccccccccccccccccccccccccccccccccccccccccccccccccccccc"/>
</svg>
