<?xml version="1.0" standalone="no"?>
<!DOCTYPE svg PUBLIC "-//W3C//DTD SVG 20010904//EN" "http://www.w3.org/TR/2001/REC-SVG-20010904/DTD/svg10.dtd">
<!-- Created using Krita: https://krita.org -->
<svg xmlns="http://www.w3.org/2000/svg" 
    xmlns:xlink="http://www.w3.org/1999/xlink"
    xmlns:krita="http://krita.org/namespaces/svg/krita"
    xmlns:sodipodi="http://sodipodi.sourceforge.net/DTD/sodipodi-0.dtd"
    width="588.96pt"
    height="187.92pt"
    viewBox="0 0 588.96 187.92">
<defs/>
<path id="Flaviu_Cacoveanu_" transform="matrix(0.719999961699249 0 0 0.719999961699249 177.835061071371 0.00216442082991454)" fill="#1b1c20" fill-rule="evenodd" stroke-opacity="0" stroke="#000000" stroke-width="0" stroke-linecap="square" stroke-linejoin="bevel" d="M270.537 95.332L282.537 95.332L282.537 50.399L326.403 50.399L326.403 40.266L282.537 40.266L282.537 10.533L335.203 10.533L335.203 0L270.537 0ZM342.829 95.332L353.629 95.332L353.629 0L342.829 0ZM420.334 95.998C422.341 96.0447 424.337 95.682 426.2 94.932L426.2 87.065L425.8 87.065C419.8 88.399 418.467 85.332 418.467 79.732L418.467 46.932C418.467 30.532 407.667 25.065 393.001 25.065C374.734 25.065 365.935 35.065 365.535 48.398L375.935 48.398C376.335 37.998 381.935 33.198 393.135 33.198C403.002 33.198 408.602 37.598 408.602 45.332C408.602 52.798 401.802 53.732 392.068 55.198C374.868 57.865 362.068 61.198 362.068 77.464C362.068 90.531 372.334 96.664 385.401 96.664C397.134 96.664 404.201 91.064 408.334 85.731L408.467 85.731C409.534 92.798 413.267 95.998 420.334 95.998ZM387.801 88.398C380.734 88.398 373.534 86.398 373.534 77.198C373.534 67.065 382.201 65.198 393.001 63.198C398.867 62.131 405.134 60.398 408.734 58.131L408.734 69.864C408.734 77.865 402.201 88.399 387.801 88.399ZM446.401 95.331L458.401 95.331L483.201 26.398L472.001 26.398L457.467 70.132C455.467 76.132 452.933 84.665 452.933 84.665L452.667 84.665C452.667 84.665 450.133 76.265 448.134 70.132L433.867 26.399L422.267 26.399ZM488.428 95.331L499.228 95.331L499.228 26.399L488.428 26.399L488.428 95.332ZM488.428 13.331L499.228 13.331L499.228 0L488.428 0L488.428 13.333ZM566.106 95.331L566.106 26.399L555.306 26.399L555.306 68.799C555.306 79.732 548.24 87.999 537.306 87.999C527.573 87.999 521.839 82.799 521.839 73.865L521.839 26.399L511.039 26.399L511.039 74.132C511.039 88.399 520.106 96.932 534.239 96.932C544.239 96.932 550.106 92.532 555.039 85.865L555.305 85.865L555.305 95.332L566.105 95.332ZM54.6259 131.66C39.0439 131.66 25.8062 137.91 14.9129 150.41C4.97353 161.782 0.00386373 174.195 0.00386373 187.649C-0.126528 196.663 3.04736 205.421 8.92286 212.259C14.8689 219.29 23.3975 222.805 34.5089 222.806C41.6203 222.876 48.6228 221.044 54.7889 217.5C61.1697 213.751 66.7714 208.811 71.2889 202.949L69.1409 201.061C63.7582 206.227 59.3962 209.808 56.0549 211.803C50.4091 215.103 43.9738 216.813 37.4349 216.751C34.4016 216.84 31.3859 216.256 28.6054 215.04C25.8249 213.824 23.3482 212.007 21.3539 209.72C17.1865 205.032 15.1032 198.109 15.1039 188.952C15.066 176.751 18.6466 164.809 25.3909 154.642C33.2455 142.49 43.2499 136.414 55.4039 136.413C63.3032 136.413 68.9672 139.386 72.3959 145.332C74.2625 148.544 75.4342 152.776 75.9109 158.027L78.2549 158.353L83.1379 131.79L80.4039 131.79C80.043 132.646 79.4852 133.404 78.7759 134.004C77.7603 134.62 76.5735 134.894 75.3909 134.785C72.6235 134.462 69.8831 133.939 67.1909 133.222C63.0748 132.229 58.8597 131.705 54.6259 131.66ZM127.581 173.338C127.581 181.071 124.661 189.741 118.821 199.348C112.758 209.909 106.458 215.189 99.9209 215.189C98.8791 215.211 97.8445 215.009 96.8868 214.599C95.929 214.189 95.0698 213.578 94.3669 212.809C92.8729 211.223 92.1259 208.69 92.1259 205.209C92.1259 198.3 94.8232 190.065 100.218 180.503C106.358 169.636 113.002 164.203 120.151 164.203C121.134 164.188 122.11 164.377 123.016 164.759C123.922 165.14 124.739 165.706 125.415 166.42C126.861 167.898 127.584 170.201 127.585 173.329L127.585 173.329ZM119.494 161.282C110.367 161.282 101.547 166.431 93.0359 176.728C84.7879 186.635 80.6639 196.151 80.6639 205.274C80.6639 210.576 82.0939 214.672 84.9539 217.561C86.1653 218.899 87.6385 219.974 89.2822 220.719C90.926 221.464 92.7053 221.864 94.5099 221.894C96.7269 221.869 98.9241 221.473 101.01 220.721C104.363 219.257 107.441 217.23 110.11 214.727C112.632 212.559 114.91 210.123 116.904 207.461C118.746 204.964 120.057 203.064 120.837 201.761C120.272 203.753 119.697 206.21 119.112 209.133C118.614 211.342 118.32 213.592 118.233 215.855C118.178 217.374 118.649 218.865 119.568 220.076C120.024 220.639 120.607 221.086 121.27 221.38C121.932 221.673 122.655 221.805 123.379 221.765C126.316 221.62 129.13 220.535 131.405 218.673C134.215 216.612 137.939 212.694 142.576 206.921L141.013 205.554L136.762 209.721C136.122 210.329 135.574 210.839 135.117 211.251C134.66 211.663 134.249 212.021 133.882 212.325L132.717 213.236C132.165 213.669 131.581 214.06 130.972 214.408C130.578 214.644 130.131 214.779 129.672 214.799C129.232 214.812 128.803 214.662 128.467 214.378C128.293 214.206 128.159 213.997 128.075 213.767C127.99 213.537 127.958 213.291 127.979 213.047C127.979 212.096 128.782 208.291 130.388 201.631C131.369 197.943 132.56 193.561 133.959 188.486L140.402 165.186C140.588 164.579 140.728 164.113 140.822 163.786C140.916 163.459 141.056 163.015 141.242 162.452C141.327 162.189 141.338 161.907 141.274 161.638C141.188 161.541 141.078 161.469 140.955 161.429C140.832 161.389 140.7 161.383 140.574 161.411L133.074 162.25C132.903 162.241 132.731 162.269 132.571 162.33C132.411 162.391 132.266 162.485 132.144 162.606C131.942 162.961 131.786 163.341 131.68 163.735L130.219 168.643L129.891 167.731C129.406 166.304 128.594 165.01 127.52 163.952C125.633 162.171 122.956 161.28 119.491 161.28L119.491 161.28ZM186.085 161.543C176.841 161.543 168.247 165.666 160.304 173.913C152.274 182.203 148.259 191.273 148.26 201.122C148.26 207.546 150.06 212.613 153.66 216.322C157.26 220.031 161.969 221.887 167.788 221.888C173.757 221.923 179.581 220.028 184.388 216.488C187.697 213.914 190.652 210.915 193.177 207.568L191.289 206.136L190.833 206.657C188.319 209.538 185.39 212.029 182.142 214.046C179.234 215.908 175.86 216.913 172.408 216.946C168.242 216.946 165.117 215.556 163.033 212.775C160.949 209.994 159.907 206.148 159.908 201.237C159.964 192.318 162.648 183.609 167.623 176.206C172.767 168.254 178.834 164.278 185.823 164.277C187.291 164.175 188.76 164.455 190.087 165.091C190.468 165.271 190.793 165.551 191.028 165.9C191.263 166.25 191.399 166.656 191.422 167.077C191.221 167.982 190.857 168.842 190.348 169.616C189.688 170.721 189.318 171.975 189.273 173.261C189.26 173.96 189.399 174.654 189.68 175.295C189.961 175.936 190.377 176.508 190.901 176.972C192 177.977 193.449 178.516 194.938 178.472C196.053 178.494 197.152 178.205 198.113 177.639C199.073 177.072 199.858 176.249 200.377 175.262C200.897 174.276 201.133 173.164 201.057 172.051C201.057 169.803 199.885 167.49 197.542 165.112C195.199 162.734 191.379 161.545 186.083 161.545L186.083 161.545ZM215.95 206.334C215.95 197.35 218.683 188.214 224.15 178.926C229.966 168.987 236.194 164.018 242.835 164.017C244.652 163.918 246.453 164.418 247.958 165.442C249.464 166.465 250.592 167.955 251.169 169.681C252.035 172.214 252.432 174.883 252.341 177.558C252.341 185.241 250.019 193.662 245.374 202.819C239.907 213.496 233.636 218.835 226.559 218.834C223.086 218.834 220.45 217.651 218.649 215.286C216.775 212.688 215.824 209.535 215.949 206.334L215.949 206.334ZM243.55 161.282C233.958 161.282 225.039 165.731 216.793 174.629C208.72 183.31 204.683 192.403 204.683 201.907C204.683 208.201 206.483 213.084 210.083 216.556C213.683 220.028 218.479 221.764 224.471 221.764C233.976 221.764 242.917 217.164 251.294 207.964C259.41 199.11 263.468 190.082 263.468 180.881C263.576 175.915 261.991 171.058 258.976 167.111C255.981 163.227 250.837 161.285 243.546 161.284L243.546 161.284ZM313.48 161.543C312.143 161.507 310.844 161.998 309.866 162.91C309.385 163.357 309.005 163.903 308.752 164.509C308.5 165.116 308.38 165.769 308.402 166.426C308.402 167.988 309.378 169.713 311.331 171.601C313.284 173.489 314.26 175.106 314.261 176.452C314.261 179.143 312.026 183.743 307.555 190.252C303.525 196.21 299.042 201.847 294.144 207.114L291.995 209.392C291.475 200.452 290.954 193.703 290.433 189.145C289.569 181.643 288.326 174.19 286.708 166.814C286.386 165.212 285.951 163.635 285.408 162.094C285.061 161.248 284.584 160.912 283.977 161.085L281.83 161.736C281.57 161.824 279.358 162.324 275.194 163.236C271.03 164.148 268.297 164.734 266.994 164.994L266.994 166.687C267.818 166.6 268.545 166.535 269.175 166.492C269.805 166.449 270.359 166.428 270.836 166.427C273.743 166.427 275.717 167.49 276.76 169.617C277.803 171.744 278.866 176.474 279.95 183.809C280.471 187.152 281.013 192.296 281.578 199.239C282.143 206.182 282.426 211.11 282.429 214.022C282.398 215.717 282.463 217.412 282.624 219.1C282.841 220.879 283.274 221.768 283.924 221.769C286.094 221.769 292.67 214.802 303.651 200.869C315.24 186.202 321.034 175.936 321.034 170.069C321.059 167.933 320.372 165.848 319.081 164.145C318.431 163.287 317.581 162.6 316.605 162.147C315.629 161.694 314.556 161.487 313.481 161.545L313.481 161.545ZM322.887 203.034C322.887 209.104 324.623 213.765 328.096 217.017C331.331 220.173 335.685 221.927 340.205 221.894C346.715 221.894 353.204 219.572 359.671 214.928C362.81 212.79 365.637 210.226 368.071 207.311L366.378 205.811C363.513 208.264 360.49 210.526 357.328 212.581C354.236 214.583 350.658 215.708 346.977 215.837C343.724 215.9 340.559 214.764 338.09 212.646C335.594 210.52 334.346 207.547 334.347 203.727C334.324 202.386 334.433 201.047 334.672 199.727C334.889 198.664 335.279 197.243 335.844 195.463L339.555 195.008C347.742 193.972 355.613 191.191 362.634 186.854C369.947 182.414 373.603 177.074 373.604 170.835C373.604 167.76 372.606 165.443 370.61 163.883C368.26 162.216 365.414 161.391 362.537 161.544C353.378 161.544 344.502 166.053 335.909 175.071C327.228 184.089 322.887 193.41 322.888 203.035L322.888 203.035ZM336.755 192.534C337.579 190.327 338.36 188.357 339.098 186.624C340.608 183.065 342.439 179.651 344.567 176.424C346.694 173.44 349.151 170.706 351.891 168.273C354.603 165.873 357.37 164.671 360.191 164.668C360.84 164.625 361.491 164.734 362.09 164.988C362.69 165.242 363.221 165.633 363.642 166.13C364.476 167.264 364.892 168.653 364.819 170.059C364.819 174.606 362.215 179.185 357.007 183.796C351.799 188.407 345.05 191.319 336.759 192.532L336.759 192.532ZM424.263 173.34C424.263 181.073 421.343 189.743 415.502 199.35C409.44 209.911 403.14 215.191 396.602 215.191C395.56 215.213 394.525 215.012 393.568 214.601C392.61 214.191 391.751 213.58 391.048 212.811C389.553 211.225 388.806 208.692 388.807 205.211C388.807 198.302 391.504 190.067 396.899 180.505C403.039 169.638 409.683 164.205 416.832 164.205C417.815 164.19 418.79 164.379 419.696 164.761C420.602 165.143 421.419 165.708 422.095 166.422C423.542 167.9 424.266 170.203 424.266 173.331L424.266 173.331ZM416.176 161.284C407.049 161.284 398.229 166.433 389.718 176.73C381.469 186.637 377.344 196.153 377.345 205.276C377.345 210.578 378.775 214.674 381.636 217.563C382.847 218.901 384.321 219.976 385.964 220.721C387.608 221.466 389.387 221.866 391.192 221.896C393.409 221.872 395.606 221.475 397.692 220.723C401.045 219.259 404.123 217.232 406.792 214.729C409.314 212.561 411.592 210.125 413.586 207.463C415.427 204.966 416.738 203.066 417.519 201.763C416.954 203.755 416.379 206.212 415.793 209.135C415.295 211.344 415.001 213.594 414.914 215.857C414.859 217.376 415.331 218.867 416.25 220.078C416.706 220.641 417.289 221.088 417.952 221.382C418.614 221.675 419.337 221.807 420.061 221.767C422.998 221.621 425.811 220.537 428.087 218.675C430.897 216.614 434.62 212.696 439.257 206.923L437.695 205.556L433.444 209.723C432.804 210.331 432.256 210.841 431.799 211.253C431.342 211.665 430.931 212.023 430.564 212.327L429.399 213.238C428.846 213.67 428.263 214.062 427.654 214.41C427.26 214.646 426.813 214.781 426.354 214.801C425.916 214.813 425.488 214.663 425.154 214.38C424.98 214.208 424.846 213.999 424.761 213.769C424.677 213.539 424.644 213.293 424.666 213.049C424.666 212.098 425.469 208.293 427.075 201.633C428.055 197.945 429.245 193.563 430.646 188.488L437.088 165.188C437.275 164.581 437.416 164.115 437.509 163.788C437.602 163.462 437.741 163.018 437.929 162.454C438.014 162.191 438.024 161.909 437.96 161.64C437.874 161.543 437.764 161.47 437.641 161.43C437.518 161.391 437.386 161.384 437.26 161.413L429.76 162.252C429.589 162.244 429.418 162.271 429.257 162.332C429.097 162.393 428.952 162.487 428.83 162.608C428.629 162.963 428.473 163.343 428.367 163.737L426.906 168.645L426.577 167.733C426.092 166.306 425.281 165.012 424.207 163.954C422.32 162.173 419.643 161.282 416.178 161.282L416.178 161.282ZM454.238 220.334C457.078 210.892 459.151 204.382 460.456 200.804C461.888 196.966 463.684 193.274 465.819 189.778C468.515 185.392 471.511 181.197 474.787 177.225C479.798 171.328 483.953 168.38 487.25 168.379C487.754 168.324 488.264 168.4 488.731 168.599C489.197 168.799 489.604 169.115 489.913 169.518C490.426 170.323 490.688 171.263 490.665 172.218C490.636 173.014 490.56 173.807 490.437 174.594C490.217 176.029 489.924 177.453 489.558 178.858L481.25 210.499C481.057 211.204 480.915 211.922 480.827 212.647C480.721 213.424 480.667 214.207 480.664 214.991C480.664 217.553 481.336 219.322 482.68 220.297C483.881 221.224 485.35 221.738 486.867 221.762C490.059 221.762 493.4 220.048 496.89 216.619C499.929 213.465 502.705 210.069 505.19 206.463L503.302 204.77C501.209 207.773 498.893 210.615 496.373 213.27C494.957 214.594 493.709 215.256 492.628 215.256C492.336 215.275 492.046 215.212 491.788 215.074C491.531 214.935 491.318 214.728 491.173 214.474C490.866 213.94 490.708 213.333 490.718 212.717C490.76 212.046 490.869 211.381 491.043 210.731C491.26 209.798 491.456 209.006 491.629 208.355L500.197 177.17C500.544 175.868 500.827 174.653 501.044 173.524C501.255 172.452 501.363 171.362 501.369 170.269C501.369 166.536 500.039 163.953 497.379 162.521C495.833 161.75 494.122 161.37 492.396 161.415C487.414 161.415 481.776 164.909 475.483 171.896C470.591 177.596 466.121 183.646 462.109 189.996L470.74 161.996C470.63 161.753 470.45 161.549 470.222 161.411L458.649 163.95C457.269 164.254 455.986 164.514 454.801 164.731C453.616 164.948 451.622 165.273 448.82 165.707L448.82 167.856C449.427 167.769 449.98 167.693 450.48 167.628C450.987 167.562 451.498 167.528 452.01 167.528C454.093 167.528 455.493 167.888 456.21 168.608C456.58 169.006 456.867 169.475 457.051 169.987C457.236 170.498 457.316 171.042 457.285 171.585C457.289 172.365 457.213 173.144 457.057 173.909C456.904 174.629 456.35 176.69 455.397 180.093L444.247 220.332L454.247 220.332ZM512.844 209.911C512.626 210.911 512.474 211.693 512.388 212.257C512.29 212.99 512.247 213.73 512.258 214.47C512.258 217.597 513.396 219.769 515.673 220.985C516.896 221.601 518.251 221.914 519.621 221.896C524.973 221.896 530.654 218.29 536.664 211.077C540.131 206.873 544.89 199.704 550.942 189.571L551.419 189.565L549.719 195.691C548.462 200.258 547.429 204.064 546.619 207.108C546.185 208.6 545.838 210.116 545.577 211.648C545.37 212.871 545.261 214.108 545.252 215.348C545.176 216.242 545.299 217.143 545.612 217.984C545.925 218.825 546.421 219.586 547.064 220.213C548.371 221.284 550.028 221.838 551.717 221.769C555.374 221.769 559.333 219.379 563.593 214.6C565.928 211.963 568.004 209.107 569.793 206.072L567.937 204.835C566.367 206.788 565.2 208.242 564.437 209.197C563.206 210.759 562.357 211.779 561.89 212.257C561.101 213.091 560.25 213.864 559.343 214.568C558.783 215.023 558.09 215.286 557.369 215.317C557.11 215.343 556.848 215.299 556.611 215.19C556.375 215.081 556.171 214.911 556.022 214.698C555.754 214.257 555.619 213.749 555.632 213.233C555.65 212.618 555.735 212.006 555.887 211.41C556.058 210.673 556.25 209.87 556.463 209.002L569.263 162.785L559.439 162.785C556.804 170.087 554.784 175.411 553.377 178.756C551.254 183.831 548.742 188.734 545.865 193.422C542.773 198.417 539.304 203.168 535.487 207.633C531.599 212.197 528.359 214.478 525.768 214.477C525.357 214.495 524.947 214.429 524.563 214.283C524.179 214.138 523.828 213.915 523.533 213.63C523.239 213.317 523.012 212.947 522.866 212.544C522.72 212.14 522.657 211.711 522.682 211.283C522.707 210.845 522.772 210.409 522.877 209.983C523.007 209.375 523.224 208.528 523.528 207.441L536.184 163.453L536.379 162.378C536.398 162.243 536.39 162.106 536.356 161.974C536.322 161.843 536.261 161.719 536.179 161.611C536.126 161.503 536.041 161.413 535.935 161.356C535.829 161.299 535.707 161.276 535.588 161.291L525.11 163.244L515.424 165.132L515.424 166.955C517.516 166.845 519.612 167.054 521.641 167.574C522.748 167.987 523.301 169.127 523.301 170.992C523.301 171.374 523.267 171.755 523.201 172.131C523.136 172.5 523.059 172.902 522.973 173.331Z" sodipodi:nodetypes="ccccccccccccccccccccccccccccccccccccccccccccccccccccccccccccccccccccccccccccccccccccccccccccccccccccccccccccccccccccccccccccccccccccccccccccccccccccccccccccccccccccccccccccccccccccccccccccccccccccccccccccccccccccccccccccccccccccccccccccccccccccccccccccccccccccccccccccccccccccccccccccccccccccccccccccccccccccccccccccccccccccccccccccccccccccccccccccccccccccccccccccccccccccccccccccccccccccccccccccccccccccccccccccccccccccccccccccccccccccc"/>
</svg>
