<?xml version="1.0" standalone="no"?>
<!DOCTYPE svg PUBLIC "-//W3C//DTD SVG 20010904//EN" "http://www.w3.org/TR/2001/REC-SVG-20010904/DTD/svg10.dtd">
<!-- Created using Krita: https://krita.org -->
<svg xmlns="http://www.w3.org/2000/svg" 
    xmlns:xlink="http://www.w3.org/1999/xlink"
    xmlns:krita="http://krita.org/namespaces/svg/krita"
    xmlns:sodipodi="http://sodipodi.sourceforge.net/DTD/sodipodi-0.dtd"
    width="588.96pt"
    height="187.92pt"
    viewBox="0 0 588.96 187.92">
<defs/>
<path id="Diana_Cepleanu_" transform="matrix(0.719999960830878 0 0 0.719999960830878 238.307849228325 0.00144467145461549)" fill="#1b1c20" fill-rule="evenodd" stroke-opacity="0" stroke="#000000" stroke-width="0" stroke-linecap="square" stroke-linejoin="bevel" d="M179.828 95.333L213.561 95.333C242.227 95.333 256.761 76.533 256.761 48C256.761 19.467 243.161 0 214.495 0L179.828 0ZM191.828 84.8L191.828 10.4L214.095 10.4C236.495 10.4 244.495 25.6 244.495 48C244.495 70.4 235.562 84.8 213.162 84.8ZM268.228 95.333L279.028 95.333L279.028 26.4L268.228 26.4ZM268.228 13.333L279.028 13.333L279.028 0.001L268.228 0.001L268.228 13.334ZM345.56 95.998C347.567 96.0447 349.563 95.682 351.426 94.932L351.426 87.065L351.026 87.065C345.026 88.399 343.693 85.332 343.693 79.732L343.693 46.932C343.693 30.532 332.893 25.065 318.227 25.065C299.961 25.065 291.161 35.065 290.761 48.398L301.161 48.398C301.561 37.998 307.161 33.198 318.361 33.198C328.228 33.198 333.828 37.598 333.828 45.332C333.828 52.798 327.028 53.732 317.295 55.198C300.095 57.865 287.295 61.198 287.295 77.464C287.295 90.531 297.562 96.664 310.628 96.664C322.361 96.664 329.428 91.064 333.561 85.731L333.694 85.731C334.759 92.799 338.492 95.999 345.559 95.999ZM313.027 88.398C305.96 88.398 298.761 86.398 298.761 77.198C298.761 67.065 307.427 65.198 318.227 63.198C324.094 62.131 330.36 60.398 333.96 58.131L333.96 69.864C333.959 77.866 327.426 88.4 313.026 88.4ZM368.28 26.398L357.48 26.398L357.48 95.333L368.28 95.333L368.28 52.933C368.28 41.6 376.28 33.867 387.213 33.867C396.946 33.867 402.813 38.934 402.813 47.867L402.813 95.333L413.613 95.333L413.613 46.933C413.613 32.666 404.813 24.8 390.413 24.8C380.413 24.8 373.48 28.933 368.546 35.466L368.28 35.466L368.28 26.399ZM479.764 95.998C481.769 96.0452 483.763 95.6824 485.624 94.932L485.624 87.065L485.224 87.065C479.224 88.399 477.892 85.332 477.892 79.732L477.892 46.932C477.892 30.532 467.092 25.065 452.426 25.065C434.16 25.065 425.36 35.065 424.96 48.398L435.36 48.398C435.76 37.998 441.36 33.198 452.56 33.198C462.426 33.198 468.026 37.598 468.026 45.332C468.026 52.798 461.226 53.732 451.493 55.198C434.293 57.865 421.493 61.198 421.493 77.464C421.493 90.531 431.76 96.664 444.826 96.664C456.559 96.664 463.626 91.064 467.759 85.731L467.893 85.731C468.958 92.799 472.692 95.999 479.763 95.999ZM447.226 88.398C440.16 88.398 432.96 86.398 432.96 77.198C432.96 67.065 441.626 65.198 452.426 63.198C458.293 62.131 464.559 60.398 468.159 58.131L468.159 69.864C468.158 77.866 461.625 88.4 447.225 88.4ZM54.6259 131.659C39.0439 131.659 25.8062 137.909 14.9129 150.409C4.97286 161.781 0.00319706 174.194 0.00386373 187.648C-0.126528 196.662 3.04736 205.42 8.92286 212.258C14.8689 219.289 23.3975 222.805 34.5089 222.805C41.6203 222.875 48.6228 221.043 54.7889 217.499C61.1696 213.75 66.7712 208.81 71.2889 202.948L69.1399 201.06C63.7579 206.226 59.3962 209.807 56.0549 211.802C50.4091 215.102 43.9738 216.812 37.4349 216.75C34.4016 216.839 31.3859 216.255 28.6054 215.039C25.8249 213.823 23.3482 212.006 21.3539 209.719C17.1872 205.031 15.1039 198.108 15.1039 188.951C15.0661 176.751 18.6463 164.808 25.3899 154.641C33.2459 142.489 43.2502 136.413 55.4029 136.412C63.3015 136.412 68.9659 139.385 72.3959 145.331C74.2625 148.543 75.4342 152.775 75.9109 158.026L78.2549 158.352L83.1379 131.789L80.4029 131.789C80.0428 132.645 79.4852 133.404 78.7759 134.003C77.76 134.619 76.5728 134.893 75.3899 134.784C72.6225 134.461 69.8821 133.938 67.1899 133.221C63.0738 132.228 58.8587 131.704 54.6249 131.659L54.6249 131.659ZM81.6389 203.033C81.6389 209.1 83.3749 213.761 86.8469 217.016C90.0821 220.172 94.4364 221.926 98.9559 221.893C105.467 221.893 111.956 219.571 118.422 214.927C121.561 212.789 124.388 210.225 126.822 207.31L125.129 205.81C122.264 208.263 119.242 210.525 116.08 212.58C112.988 214.582 109.409 215.707 105.728 215.836C102.475 215.899 99.3103 214.763 96.8409 212.645C94.3449 210.519 93.0972 207.546 93.0979 203.726C93.0754 202.385 93.1842 201.046 93.4229 199.726C93.6402 198.663 94.0309 197.242 94.5949 195.462L98.3059 195.007C106.493 193.971 114.364 191.19 121.386 186.853C128.699 182.413 132.356 177.073 132.356 170.834C132.356 167.759 131.358 165.441 129.361 163.882C127.011 162.215 124.165 161.39 121.288 161.543C112.13 161.543 103.254 166.052 94.6599 175.07C85.9785 184.088 81.6385 193.409 81.6399 203.034L81.6399 203.034ZM95.5059 192.533C96.3299 190.326 97.1112 188.356 97.8499 186.623C99.3596 183.064 101.19 179.65 103.318 176.423C105.445 173.439 107.903 170.705 110.643 168.272C113.355 165.872 116.122 164.672 118.943 164.672C119.592 164.629 120.243 164.738 120.842 164.992C121.442 165.246 121.973 165.637 122.394 166.134C123.226 167.269 123.64 168.658 123.566 170.063C123.566 174.61 120.962 179.189 115.753 183.8C110.544 188.411 103.795 191.323 95.5059 192.536L95.5059 192.536ZM123.145 247.807L150.893 247.807L150.893 245.854C148.622 245.855 146.363 245.526 144.187 244.877C143.058 244.399 142.494 243.271 142.494 241.492C142.91 238.643 143.475 235.818 144.187 233.028C144.62 231.118 145.406 227.943 146.547 223.502L147.588 219.502C149.071 220.237 150.609 220.854 152.188 221.348C153.688 221.744 155.237 221.928 156.788 221.895C165.935 221.895 174.758 217.316 183.259 208.158C191.844 198.914 196.137 189.192 196.138 178.992C196.138 173.046 194.789 168.63 192.09 165.743C189.391 162.856 185.679 161.413 180.952 161.414C176.309 161.414 171.833 163.241 167.524 166.896C164.584 169.501 161.95 172.431 159.673 175.631L163.266 163.631C163.399 163.239 163.562 162.65 163.755 161.864C163.741 161.717 163.671 161.58 163.56 161.483C163.448 161.386 163.303 161.336 163.155 161.343L142.063 164.403L142.193 166.552C142.601 166.469 143.014 166.414 143.43 166.389C143.821 166.368 144.23 166.356 144.667 166.356C146.287 166.254 147.902 166.618 149.322 167.405C149.848 167.752 150.273 168.232 150.554 168.796C150.835 169.361 150.962 169.989 150.922 170.618C150.907 171.167 150.852 171.715 150.759 172.256C150.546 173.406 150.274 174.544 149.946 175.666L131.946 239.208C131.58 241.151 130.556 242.911 129.046 244.188C127.285 245.283 125.223 245.796 123.154 245.653L123.154 247.802ZM184.145 178.731C184.145 187.238 181.568 195.81 176.414 204.447C170.658 214.127 164.001 218.967 156.442 218.966C154.744 219.014 153.064 218.606 151.577 217.786C150.929 217.427 150.394 216.892 150.036 216.243C149.677 215.595 149.508 214.858 149.548 214.118C149.548 213.084 150.377 209.602 152.034 203.673C153.691 197.744 155.468 192.063 157.363 186.63C159.717 179.715 162.662 174.76 166.197 171.765C169.732 168.77 173.001 167.272 176.004 167.273C177.552 167.173 179.091 167.583 180.383 168.441C181.675 169.3 182.65 170.559 183.158 172.025C183.896 174.181 184.23 176.454 184.145 178.731ZM204.194 206.467C203.817 207.899 203.511 209.157 203.276 210.242C202.972 211.678 202.798 213.137 202.755 214.604C202.755 217.425 203.69 219.422 205.561 220.593C206.809 221.383 208.262 221.79 209.739 221.765C213.394 221.765 217.027 219.965 220.639 216.365C223.855 212.785 226.78 208.953 229.386 204.907L227.628 203.67C225.702 206.514 223.569 209.213 221.246 211.743C218.728 214.521 216.688 215.91 215.125 215.91C214.788 215.945 214.447 215.881 214.146 215.725C213.845 215.569 213.597 215.327 213.432 215.031C213.112 214.373 212.956 213.647 212.977 212.915C212.977 212.521 213.02 212.128 213.107 211.743C213.193 211.352 213.475 210.224 213.953 208.358L235.626 130.102C235.536 129.928 235.406 129.779 235.246 129.666C235.087 129.552 234.902 129.479 234.709 129.451C231.218 130.318 228.251 130.969 225.809 131.404C225.023 131.537 223.353 131.776 220.8 132.121C218.247 132.466 215.988 132.769 214.025 133.032L214.025 135.181C216.392 135.052 218.766 135.194 221.101 135.604C221.675 135.76 222.173 136.121 222.5 136.618C222.828 137.115 222.963 137.715 222.88 138.304C222.88 138.651 222.857 139.104 222.814 139.671C222.769 140.245 222.66 140.813 222.489 141.363ZM235.742 203.035C235.742 209.102 237.478 213.763 240.95 217.018C244.185 220.174 248.539 221.928 253.059 221.895C259.57 221.895 266.058 219.573 272.525 214.929C275.664 212.791 278.491 210.227 280.925 207.312L279.232 205.812C276.367 208.265 273.345 210.527 270.183 212.582C267.091 214.584 263.512 215.709 259.831 215.838C256.578 215.901 253.413 214.765 250.944 212.647C248.448 210.521 247.2 207.548 247.201 203.728C247.178 202.387 247.287 201.048 247.526 199.728C247.743 198.665 248.133 197.244 248.698 195.464L252.409 195.009C260.596 193.973 268.467 191.192 275.489 186.855C282.802 182.415 286.458 177.075 286.459 170.836C286.459 167.761 285.459 165.443 283.459 163.884C281.109 162.217 278.263 161.392 275.386 161.545C266.228 161.545 257.352 166.054 248.758 175.072C240.077 184.09 235.737 193.411 235.738 203.036L235.738 203.036ZM249.609 192.535C250.433 190.328 251.214 188.358 251.952 186.625C253.462 183.066 255.293 179.652 257.421 176.425C259.548 173.441 262.005 170.707 264.745 168.274C267.457 165.874 270.224 164.674 273.045 164.674C273.694 164.631 274.345 164.74 274.944 164.994C275.544 165.248 276.075 165.639 276.496 166.136C277.329 167.269 277.745 168.656 277.673 170.06C277.673 174.607 275.069 179.186 269.86 183.797C264.651 188.408 257.902 191.32 249.613 192.533L249.613 192.533ZM337.117 173.341C337.117 181.074 334.197 189.744 328.357 199.351C322.294 209.912 315.994 215.193 309.457 215.192C308.415 215.214 307.381 215.012 306.423 214.602C305.465 214.192 304.606 213.581 303.903 212.812C302.408 211.226 301.661 208.693 301.662 205.212C301.662 198.303 304.359 190.067 309.754 180.506C315.894 169.639 322.538 164.206 329.687 164.206C330.67 164.191 331.645 164.38 332.551 164.762C333.457 165.144 334.274 165.709 334.95 166.423C336.397 167.901 337.12 170.204 337.121 173.332L337.121 173.332ZM329.03 161.285C319.903 161.285 311.084 166.434 302.572 176.731C294.323 186.638 290.198 196.154 290.199 205.277C290.199 210.579 291.629 214.675 294.49 217.564C295.701 218.902 297.175 219.977 298.818 220.722C300.462 221.467 302.241 221.867 304.046 221.897C306.263 221.872 308.46 221.476 310.546 220.724C313.899 219.26 316.977 217.233 319.646 214.73C322.168 212.562 324.446 210.126 326.44 207.464C328.281 204.967 329.592 203.067 330.373 201.764C329.808 203.756 329.233 206.213 328.648 209.136C328.15 211.345 327.856 213.595 327.769 215.858C327.714 217.377 328.185 218.868 329.104 220.079C329.56 220.642 330.143 221.089 330.806 221.383C331.468 221.676 332.191 221.808 332.915 221.768C335.852 221.622 338.665 220.538 340.941 218.676C343.751 216.615 347.475 212.698 352.112 206.924L350.549 205.557L346.298 209.724C345.658 210.332 345.11 210.842 344.653 211.254C344.196 211.666 343.785 212.024 343.418 212.328L342.253 213.239C341.701 213.672 341.117 214.063 340.508 214.411C340.114 214.647 339.667 214.782 339.208 214.802C338.768 214.815 338.339 214.665 338.003 214.381C337.829 214.209 337.695 214 337.611 213.77C337.526 213.54 337.494 213.294 337.515 213.05C337.515 212.099 338.318 208.293 339.924 201.634C340.904 197.946 342.094 193.564 343.495 188.489L349.938 165.189C350.124 164.582 350.264 164.115 350.358 163.789C350.452 163.463 350.592 163.018 350.778 162.455C350.863 162.192 350.873 161.91 350.809 161.641C350.724 161.545 350.615 161.473 350.492 161.433C350.37 161.393 350.239 161.386 350.114 161.414L342.614 162.253C342.443 162.244 342.272 162.272 342.112 162.333C341.952 162.394 341.806 162.488 341.685 162.609C341.483 162.964 341.327 163.343 341.221 163.738L339.76 168.646L339.431 167.734C338.946 166.307 338.135 165.013 337.061 163.955C335.174 162.174 332.498 161.284 329.032 161.283L329.032 161.283ZM367.092 220.335C369.932 210.893 372.005 204.383 373.31 200.805C374.741 196.967 376.537 193.275 378.673 189.779C381.368 185.392 384.365 181.198 387.641 177.226C392.652 171.329 396.806 168.381 400.103 168.38C400.607 168.325 401.117 168.401 401.584 168.6C402.05 168.8 402.457 169.116 402.766 169.519C403.279 170.324 403.541 171.264 403.518 172.219C403.489 173.015 403.413 173.808 403.29 174.595C403.07 176.03 402.777 177.454 402.411 178.859L394.103 210.5C393.91 211.205 393.768 211.923 393.68 212.648C393.574 213.425 393.52 214.208 393.517 214.992C393.517 217.554 394.189 219.323 395.533 220.298C396.734 221.225 398.203 221.739 399.72 221.763C402.913 221.763 406.254 220.049 409.743 216.62C412.782 213.466 415.558 210.07 418.043 206.464L416.155 204.771C414.062 207.775 411.746 210.616 409.226 213.271C407.811 214.595 406.563 215.257 405.481 215.257C405.19 215.276 404.899 215.213 404.642 215.075C404.385 214.936 404.172 214.729 404.027 214.475C403.719 213.941 403.561 213.334 403.571 212.718C403.614 212.047 403.722 211.382 403.896 210.732C404.113 209.799 404.309 209.007 404.482 208.356L413.051 177.171C413.397 175.869 413.679 174.654 413.897 173.525C414.108 172.453 414.217 171.363 414.222 170.27C414.222 166.537 412.892 163.954 410.232 162.522C408.686 161.751 406.975 161.371 405.249 161.416C400.267 161.416 394.629 164.91 388.336 171.897C383.444 177.597 378.975 183.647 374.963 189.997L383.593 161.997C383.483 161.754 383.303 161.55 383.075 161.412L371.502 163.951C370.122 164.255 368.84 164.515 367.655 164.732C366.47 164.949 364.476 165.274 361.673 165.708L361.673 167.857C362.28 167.77 362.833 167.694 363.333 167.629C363.84 167.563 364.351 167.529 364.863 167.529C366.947 167.529 368.347 167.889 369.063 168.609C369.433 169.007 369.719 169.476 369.904 169.988C370.088 170.499 370.168 171.043 370.137 171.586C370.141 172.366 370.065 173.145 369.909 173.91C369.756 174.63 369.202 176.691 368.249 180.094L357.101 220.333L367.101 220.333ZM425.698 209.912C425.481 210.912 425.33 211.694 425.243 212.258C425.144 212.991 425.101 213.731 425.112 214.471C425.112 217.598 426.25 219.769 428.527 220.986C429.751 221.602 431.105 221.915 432.475 221.897C437.827 221.897 443.508 218.291 449.518 211.078C452.985 206.874 457.744 199.705 463.796 189.572L464.274 189.566L462.574 195.692C461.316 200.259 460.283 204.065 459.474 207.109C459.04 208.601 458.693 210.117 458.432 211.649C458.225 212.872 458.116 214.109 458.107 215.349C458.031 216.243 458.154 217.144 458.467 217.985C458.781 218.826 459.277 219.588 459.92 220.214C461.227 221.286 462.884 221.84 464.573 221.77C468.23 221.77 472.188 219.38 476.448 214.601C478.781 211.963 480.855 209.108 482.641 206.073L480.791 204.836C479.221 206.789 478.054 208.243 477.291 209.198C476.06 210.76 475.211 211.78 474.744 212.258C473.955 213.092 473.104 213.865 472.197 214.569C471.637 215.024 470.944 215.287 470.223 215.318C469.964 215.344 469.702 215.3 469.465 215.191C469.229 215.082 469.025 214.912 468.876 214.699C468.608 214.258 468.473 213.75 468.486 213.234C468.504 212.619 468.589 212.007 468.741 211.411C468.912 210.674 469.104 209.871 469.317 209.003L482.117 162.786L472.297 162.786C469.662 170.088 467.642 175.412 466.236 178.757C464.112 183.831 461.6 188.735 458.723 193.423C455.631 198.418 452.162 203.169 448.345 207.634C444.457 212.198 441.217 214.479 438.626 214.478C438.215 214.496 437.806 214.43 437.422 214.285C437.038 214.139 436.687 213.917 436.392 213.631C436.098 213.318 435.871 212.949 435.724 212.545C435.578 212.142 435.515 211.713 435.54 211.284C435.565 210.846 435.63 210.41 435.735 209.984C435.868 209.376 436.085 208.529 436.386 207.442L449.042 163.454L449.237 162.379C449.256 162.244 449.248 162.107 449.214 161.975C449.18 161.844 449.119 161.72 449.037 161.612C448.984 161.504 448.899 161.414 448.793 161.357C448.687 161.3 448.565 161.277 448.446 161.292L437.968 163.245L428.282 165.133L428.282 166.956C430.374 166.846 432.47 167.055 434.499 167.575C435.606 167.988 436.159 169.128 436.16 170.993C436.16 171.375 436.126 171.756 436.06 172.132C435.993 172.501 435.917 172.902 435.832 173.337Z" sodipodi:nodetypes="cccccccccccccccccccccccccccccccccccccccccccccccccccccccccccccccccccccccccccccccccccccccccccccccccccccccccccccccccccccccccccccccccccccccccccccccccccccccccccccccccccccccccccccccccccccccccccccccccccccccccccccccccccccccccccccccccccccccccccccccccccccccccccccccccccccccccccccccccccccccccccccccccccccccccccccccccccccccccccccccccccccccccccccccccccccccccccccccccccccccccccccccccccccccccccccccccccccccccccccccccccccccccccccc"/>
</svg>
