<?xml version="1.0" standalone="no"?>
<!DOCTYPE svg PUBLIC "-//W3C//DTD SVG 20010904//EN" "http://www.w3.org/TR/2001/REC-SVG-20010904/DTD/svg10.dtd">
<!-- Created using Krita: https://krita.org -->
<svg xmlns="http://www.w3.org/2000/svg" 
    xmlns:xlink="http://www.w3.org/1999/xlink"
    xmlns:krita="http://krita.org/namespaces/svg/krita"
    xmlns:sodipodi="http://sodipodi.sourceforge.net/DTD/sodipodi-0.dtd"
    width="588.96pt"
    height="187.92pt"
    viewBox="0 0 588.96 187.92">
<defs/>
<path id="Anna_Godzina_" transform="matrix(0.71999998285708 0 0 0.71999998285708 275.765749663222 0.722165379854067)" fill="#1b1c20" fill-rule="evenodd" stroke-opacity="0" stroke="#000000" stroke-width="0" stroke-linecap="square" stroke-linejoin="bevel" d="M147.475 95.332L159.741 95.332L170.008 66.266L208.008 66.266L218.142 95.332L231.208 95.332L196.008 0L182.541 0ZM184.808 24.532C186.674 19.065 189.208 11.065 189.208 11.065L189.474 11.065C189.474 11.065 191.874 19.199 193.741 24.532L204.674 56.532L173.474 56.532ZM248.567 26.398L237.767 26.398L237.767 95.332L248.567 95.332L248.567 52.932C248.567 41.599 256.567 33.866 267.5 33.866C277.234 33.866 283.1 38.933 283.1 47.866L283.1 95.332L293.9 95.332L293.9 46.932C293.9 32.665 285.1 24.799 270.7 24.799C260.7 24.799 253.767 28.932 248.834 35.465L248.567 35.465ZM316.754 26.398L305.954 26.398L305.954 95.332L316.754 95.332L316.754 52.932C316.754 41.599 324.754 33.866 335.687 33.866C345.42 33.866 351.287 38.933 351.287 47.866L351.287 95.332L362.087 95.332L362.087 46.932C362.087 32.665 353.287 24.799 338.887 24.799C328.887 24.799 321.954 28.932 317.021 35.465L316.754 35.465ZM428.233 95.998C430.241 96.0447 432.237 95.682 434.1 94.932L434.1 87.065L433.7 87.065C427.7 88.399 426.367 85.332 426.367 79.732L426.367 46.932C426.367 30.532 415.567 25.065 400.9 25.065C382.634 25.065 373.834 35.065 373.434 48.398L383.834 48.398C384.234 37.998 389.834 33.198 401.034 33.198C410.9 33.198 416.5 37.598 416.5 45.332C416.5 52.798 409.7 53.732 399.967 55.198C382.767 57.865 369.967 61.198 369.967 77.464C369.967 90.531 380.233 96.664 393.3 96.664C405.033 96.664 412.1 91.064 416.233 85.731L416.366 85.731C417.434 92.798 421.167 95.998 428.233 95.998ZM395.701 88.398C388.634 88.398 381.434 86.398 381.434 77.198C381.434 67.065 390.101 65.198 400.9 63.198C406.767 62.131 413.034 60.398 416.634 58.131L416.634 69.864C416.634 77.865 410.1 88.399 395.701 88.399ZM54.948 131.465C39.148 131.465 25.7583 137.671 14.779 150.084C4.92567 161.284 -0.000666599 173.394 6.76544e-08 186.413C6.76544e-08 196.308 3.12467 204.619 9.374 211.347C16.49 218.987 26.4047 222.807 39.118 222.806C45.0882 222.858 51.0333 222.024 56.759 220.332C61.44 219.016 65.9109 217.043 70.038 214.472L76.559 189.472C77.513 185.784 78.7827 183.375 80.368 182.246C81.9533 181.117 85.0023 180.335 89.515 179.902L89.515 177.754L53.968 177.754L53.968 179.902C58.4813 180.467 61.335 181.021 62.529 181.562C63.723 182.103 64.3197 183.351 64.319 185.306C64.3194 185.687 64.2977 186.067 64.254 186.445C64.2118 186.807 64.1467 187.165 64.059 187.519L62.627 193.509C61.585 197.98 60.7183 201.453 60.027 203.926C59.3907 206.627 58.4514 209.248 57.227 211.738C56.011 213.779 53.689 215.309 50.261 216.328C47.1828 217.293 43.9814 217.808 40.756 217.858C32.4227 217.858 26.01 215.317 21.518 210.235C17.026 205.153 14.78 198.463 14.78 190.166C14.8235 178.148 18.0834 166.358 24.22 156.025C31.9453 142.692 42.0787 136.025 54.62 136.025C63.734 136.025 70.3313 139.05 74.412 145.101C76.5813 148.368 78.0147 152.677 78.712 158.029L80.991 158.356L87.632 132.119L85.613 131.663C84.7496 132.98 83.6712 134.142 82.423 135.102C80.9467 136.029 79.2144 136.466 77.475 136.35C76.6066 136.35 75.742 136.235 74.904 136.007C74.0567 135.778 72.4833 135.25 70.184 134.425C65.3267 132.525 60.1644 131.523 54.949 131.468L54.949 131.468ZM103.377 206.334C103.377 197.35 106.11 188.214 111.577 178.926C117.392 168.987 123.62 164.018 130.261 164.017C132.078 163.918 133.879 164.418 135.385 165.442C136.89 166.465 138.018 167.955 138.595 169.681C139.461 172.214 139.859 174.883 139.767 177.558C139.767 185.241 137.445 193.662 132.8 202.819C127.333 213.496 121.062 218.835 113.985 218.834C110.512 218.834 107.876 217.651 106.075 215.286C104.201 212.688 103.251 209.535 103.375 206.334L103.375 206.334ZM130.978 161.282C121.385 161.282 112.465 165.731 104.22 174.629C96.1467 183.31 92.11 192.403 92.11 201.907C92.11 208.201 93.91 213.084 97.51 216.556C101.11 220.028 105.906 221.764 111.898 221.764C121.403 221.764 130.344 217.164 138.721 207.964C146.837 199.11 150.895 190.082 150.895 180.881C151.003 175.915 149.418 171.058 146.403 167.111C143.408 163.227 138.265 161.285 130.974 161.284L130.974 161.284ZM167.203 205.175C167.203 198.154 169.978 189.874 175.527 180.337C181.732 169.675 188.156 164.343 194.798 164.342C197.465 164.342 199.234 165.209 200.107 166.942C201.049 168.999 201.498 171.248 201.418 173.509C201.418 181.876 198.657 190.741 193.136 200.103C187.403 210.073 181.43 215.058 175.217 215.057C172.307 215.057 170.244 214.071 169.027 212.099C167.779 210.009 167.146 207.608 167.203 205.174L167.203 205.174ZM194.124 161.282C185.872 161.282 177.402 166.246 168.713 176.175C159.98 186.147 155.613 195.859 155.613 205.31C155.613 210.904 157.024 215.045 159.847 217.733C161.15 219.024 162.695 220.045 164.394 220.737C166.093 221.429 167.913 221.778 169.747 221.764C174.47 221.736 179.033 220.029 182.615 216.95C186.84 213.407 190.499 209.239 193.464 204.59C192.931 206.97 192.533 209.158 192.271 211.154C192.057 212.599 191.927 214.055 191.881 215.515C191.881 218.206 192.775 220.073 194.562 221.115C195.549 221.642 196.655 221.911 197.774 221.896C201.355 221.896 205.395 219.696 209.896 215.296C212.211 213.072 214.297 210.621 216.122 207.979L217.039 206.607L215.539 205.176C213.169 208.013 211.302 210.107 209.939 211.46C207.612 213.686 205.812 214.799 204.539 214.799C203.99 214.763 203.46 214.582 203.004 214.274C202.672 213.999 202.416 213.643 202.263 213.239C202.11 212.836 202.064 212.4 202.129 211.974C202.135 211.434 202.189 210.895 202.291 210.365C202.399 209.774 202.54 209.128 202.715 208.427L211.463 177.477L224.309 130.684L224.443 129.968L223.854 129.317C215.131 130.923 208.306 132.052 203.378 132.703L203.378 134.851C204.419 134.765 205.254 134.698 205.884 134.651C206.514 134.604 207.198 134.582 207.935 134.586C208.88 134.528 209.82 134.755 210.635 135.237C211.264 135.671 211.578 136.734 211.579 138.427C211.573 138.938 211.54 139.449 211.479 139.957C211.396 140.63 211.254 141.294 211.056 141.942L203.406 168.63C203.154 166.869 202.48 165.195 201.442 163.75C200.001 162.102 197.556 161.278 194.107 161.278L194.107 161.278ZM268.914 163.235L231.088 163.235L226.922 178.665L229.07 179.186C230.329 176.018 231.707 173.913 233.204 172.871C234.701 171.829 236.926 171.308 239.878 171.308L259.308 171.308L217.808 220.983L219.24 222.22C220.175 221.474 221.179 220.82 222.24 220.267C223.146 219.887 224.124 219.71 225.105 219.746C226.809 219.748 228.498 220.068 230.085 220.69C232.245 221.577 234.344 222.607 236.368 223.771L244.245 228.171C245.548 228.908 246.897 229.564 248.282 230.133C250.155 230.838 252.14 231.199 254.141 231.2C257.406 231.288 260.592 230.176 263.093 228.075C265.545 225.992 266.771 223.779 266.772 221.435C266.824 220.08 266.41 218.747 265.6 217.659C265.164 217.144 264.612 216.739 263.99 216.478C263.367 216.218 262.692 216.108 262.019 216.159C260.897 216.157 259.807 216.534 258.926 217.229C258.461 217.591 258.091 218.061 257.847 218.597C257.603 219.134 257.493 219.722 257.526 220.31C257.557 221.563 257.869 222.793 258.437 223.91C258.853 224.65 259.16 225.446 259.349 226.273C259.329 226.6 259.222 226.916 259.039 227.188C258.855 227.46 258.603 227.678 258.307 227.819C257.495 228.278 256.57 228.502 255.638 228.464C254.172 228.466 252.74 228.016 251.538 227.175C250.267 226.304 249.146 225.233 248.218 224.004L244.246 218.814C242.313 216.208 239.793 214.093 236.89 212.643C234.788 211.707 232.58 211.029 230.314 210.625L268.921 164.792L268.921 163.229ZM295.635 147.09C296.502 147.095 297.36 146.915 298.152 146.561C298.944 146.208 299.651 145.689 300.225 145.039C301.505 143.676 302.196 141.862 302.148 139.993C302.192 138.116 301.503 136.293 300.227 134.915C299.657 134.258 298.952 133.731 298.16 133.371C297.368 133.012 296.507 132.828 295.637 132.832C294.771 132.826 293.915 133.009 293.128 133.369C292.341 133.729 291.642 134.256 291.08 134.915C289.822 136.302 289.146 138.121 289.192 139.993C289.153 141.844 289.83 143.64 291.08 145.006C291.641 145.665 292.34 146.193 293.127 146.553C293.915 146.913 294.771 147.097 295.637 147.09L295.637 147.09ZM294.092 161.738C292.241 162.172 290.282 162.563 288.213 162.91C286.62 163.17 285.037 163.42 283.466 163.659C281.895 163.898 279.321 164.235 275.746 164.668L275.746 166.816C278.025 166.709 280.309 166.896 282.541 167.37C283.69 167.739 284.265 168.706 284.264 170.27C284.264 170.707 284.22 171.142 284.134 171.57C284.047 172.004 283.939 172.481 283.809 173.002L274.54 206.466C274.062 208.289 273.737 209.667 273.564 210.6C273.377 211.685 273.29 212.786 273.303 213.887C273.261 215.891 273.918 217.848 275.159 219.421C275.693 220.154 276.393 220.749 277.203 221.156C278.012 221.564 278.908 221.773 279.814 221.765C282.982 221.765 286.237 220.203 289.58 217.078C292.564 214.053 295.266 210.762 297.653 207.247L298.304 206.335L296.612 204.903C294.98 207.172 293.219 209.346 291.338 211.414C288.907 213.975 286.953 215.255 285.478 215.255C285.159 215.31 284.831 215.264 284.539 215.124C284.248 214.983 284.007 214.756 283.85 214.473C283.579 213.951 283.445 213.369 283.46 212.781C283.656 211.285 283.96 209.806 284.371 208.354L297.516 161.869C297.534 161.758 297.516 161.643 297.463 161.544C297.411 161.444 297.327 161.364 297.225 161.316C296.988 161.163 295.944 161.304 294.092 161.738ZM314.492 220.332C317.332 210.89 319.405 204.38 320.71 200.802C322.139 196.965 323.932 193.273 326.065 189.778C328.761 185.391 331.757 181.197 335.033 177.225C340.044 171.328 344.198 168.38 347.495 168.379C347.999 168.324 348.509 168.4 348.976 168.599C349.442 168.799 349.85 169.115 350.158 169.518C350.672 170.323 350.934 171.263 350.91 172.218C350.881 173.014 350.805 173.807 350.682 174.594C350.463 176.03 350.17 177.453 349.803 178.858L341.495 210.499C341.302 211.204 341.16 211.922 341.072 212.647C340.966 213.424 340.912 214.207 340.909 214.991C340.909 217.553 341.581 219.322 342.926 220.297C344.127 221.224 345.596 221.738 347.113 221.762C350.305 221.762 353.646 220.048 357.136 216.619C360.174 213.465 362.95 210.069 365.436 206.463L363.548 204.772C361.455 207.776 359.139 210.617 356.619 213.272C355.204 214.596 353.955 215.258 352.874 215.258C352.583 215.277 352.292 215.214 352.035 215.076C351.778 214.937 351.565 214.73 351.42 214.476C351.112 213.942 350.954 213.335 350.964 212.719C351.007 212.048 351.116 211.383 351.289 210.733C351.506 209.8 351.702 209.008 351.875 208.357L360.444 177.172C360.791 175.87 361.073 174.655 361.29 173.526C361.502 172.454 361.611 171.364 361.616 170.271C361.616 166.538 360.286 163.955 357.625 162.523C356.08 161.752 354.368 161.372 352.642 161.417C347.66 161.417 342.022 164.911 335.729 171.898C330.838 177.598 326.368 183.648 322.356 189.998L330.986 162.003C330.877 161.76 330.696 161.556 330.468 161.418L318.895 163.957C317.516 164.261 316.233 164.521 315.048 164.738C313.863 164.955 311.869 165.28 309.066 165.714L309.066 167.863C309.674 167.776 310.227 167.7 310.726 167.635C311.233 167.569 311.744 167.535 312.256 167.535C314.34 167.535 315.74 167.895 316.456 168.615C316.826 169.013 317.112 169.482 317.297 169.994C317.482 170.505 317.561 171.049 317.53 171.592C317.535 172.372 317.458 173.151 317.302 173.916C317.149 174.636 316.595 176.697 315.642 180.1L304.496 220.332L314.496 220.332ZM417.037 173.338C417.037 181.071 414.117 189.741 408.277 199.348C402.214 209.909 395.914 215.189 389.377 215.189C388.335 215.211 387.301 215.009 386.343 214.599C385.385 214.189 384.526 213.578 383.823 212.809C382.329 211.223 381.582 208.69 381.582 205.209C381.582 198.3 384.279 190.065 389.674 180.503C395.814 169.636 402.458 164.203 409.607 164.203C410.59 164.188 411.565 164.377 412.471 164.759C413.377 165.141 414.194 165.706 414.87 166.42C416.317 167.898 417.041 170.201 417.041 173.329L417.041 173.329ZM408.948 161.282C399.821 161.282 391.002 166.431 382.49 176.728C374.241 186.635 370.117 196.151 370.118 205.274C370.118 210.576 371.548 214.672 374.408 217.561C375.619 218.899 377.093 219.974 378.736 220.719C380.38 221.464 382.159 221.864 383.964 221.894C386.181 221.869 388.378 221.473 390.464 220.721C393.817 219.257 396.895 217.23 399.564 214.727C402.086 212.559 404.364 210.123 406.358 207.461C408.199 204.964 409.51 203.064 410.291 201.761C409.726 203.753 409.151 206.21 408.566 209.133C408.068 211.342 407.774 213.592 407.687 215.855C407.632 217.374 408.104 218.865 409.022 220.076C409.478 220.639 410.061 221.086 410.724 221.38C411.387 221.673 412.109 221.805 412.833 221.765C415.77 221.619 418.584 220.535 420.859 218.673C423.669 216.612 427.393 212.694 432.03 206.921L430.467 205.554L426.216 209.721C425.576 210.329 425.028 210.839 424.571 211.251C424.114 211.663 423.703 212.021 423.336 212.325L422.171 213.236C421.619 213.669 421.035 214.06 420.426 214.408C420.032 214.644 419.585 214.779 419.126 214.799C418.688 214.811 418.26 214.661 417.926 214.378C417.752 214.206 417.618 213.997 417.534 213.767C417.449 213.537 417.417 213.291 417.438 213.047C417.438 212.096 418.241 208.291 419.847 201.631C420.827 197.943 422.017 193.561 423.418 188.486L429.861 165.186C430.047 164.579 430.187 164.113 430.281 163.786C430.375 163.459 430.515 163.015 430.701 162.452C430.786 162.189 430.797 161.907 430.732 161.638C430.647 161.542 430.538 161.47 430.415 161.43C430.293 161.39 430.163 161.383 430.037 161.411L422.537 162.25C422.366 162.241 422.195 162.269 422.035 162.33C421.875 162.391 421.73 162.485 421.608 162.606C421.406 162.961 421.25 163.34 421.144 163.735L419.683 168.643L419.354 167.731C418.869 166.304 418.058 165.01 416.984 163.952C415.093 162.172 412.415 161.282 408.948 161.282Z" sodipodi:nodetypes="ccccccccccccccccccccccccccccccccccccccccccccccccccccccccccccccccccccccccccccccccccccccccccccccccccccccccccccccccccccccccccccccccccccccccccccccccccccccccccccccccccccccccccccccccccccccccccccccccccccccccccccccccccccccccccccccccccccccccccccccccccccccccccccccccccccccccccccccccccccccccccccccccccccccccccccccccccccccccccccccccccccccccccccccccccccccccccccccccccccccccccccc"/>
</svg>
