<?xml version="1.0" standalone="no"?>
<!DOCTYPE svg PUBLIC "-//W3C//DTD SVG 20010904//EN" "http://www.w3.org/TR/2001/REC-SVG-20010904/DTD/svg10.dtd">
<!-- Created using Krita: https://krita.org -->
<svg xmlns="http://www.w3.org/2000/svg" 
    xmlns:xlink="http://www.w3.org/1999/xlink"
    xmlns:krita="http://krita.org/namespaces/svg/krita"
    xmlns:sodipodi="http://sodipodi.sourceforge.net/DTD/sodipodi-0.dtd"
    width="588.96pt"
    height="187.92pt"
    viewBox="0 0 588.96 187.92">
<defs/>
<path id="Maria_Gu_u_" transform="matrix(0.719999973138563 0 0 0.719999973138563 372.952068195446 0.722164394002825)" fill="#1b1c20" fill-rule="evenodd" stroke-opacity="0" stroke="#000000" stroke-width="0" stroke-linecap="square" stroke-linejoin="bevel" d="M0 95.332L10.8 95.332L10.8 16.932L11.067 16.932C11.067 16.932 13.467 24.132 15.334 28.932L41.467 95.332L50.667 95.332L76.799 28.932C78.533 24.399 81.066 16.932 81.066 16.932L81.333 16.932L81.333 95.332L92.799 95.332L92.799 0L77.199 0L46.533 79.2L46.267 79.2L15.334 0L0 0ZM161.757 95.998C163.765 96.0446 165.761 95.6819 167.624 94.932L167.624 87.065L167.224 87.065C161.224 88.399 159.89 85.332 159.89 79.732L159.89 46.932C159.89 30.532 149.09 25.065 134.424 25.065C116.158 25.065 107.358 35.065 106.958 48.398L117.358 48.398C117.758 37.998 123.358 33.198 134.558 33.198C144.425 33.198 150.025 37.598 150.025 45.332C150.025 52.798 143.225 53.732 133.492 55.198C116.292 57.865 103.492 61.198 103.492 77.464C103.492 90.531 113.759 96.664 126.825 96.664C138.558 96.664 145.625 91.064 149.758 85.731L149.892 85.731C150.957 92.798 154.69 95.998 161.757 95.998ZM129.224 88.398C122.158 88.398 114.958 86.398 114.958 77.198C114.958 67.065 123.624 65.198 134.424 63.198C140.291 62.131 146.557 60.398 150.157 58.131L150.157 69.864C150.157 77.865 143.624 88.399 129.224 88.399ZM184.477 26.398L173.677 26.398L173.677 95.332L184.477 95.332L184.477 57.066C184.477 44.133 193.81 36.133 204.477 36.133C206.104 36.0539 207.733 36.2797 209.277 36.799L209.677 36.799L209.677 26.399C208.286 25.8162 206.784 25.5432 205.277 25.599C196.077 25.599 188.877 31.199 184.744 37.865L184.477 37.865L184.477 26.399ZM215.795 95.331L226.595 95.331L226.595 26.399L215.795 26.399L215.795 95.332ZM215.795 13.331L226.595 13.331L226.595 0L215.795 0L215.795 13.333ZM293.127 95.996C295.135 96.0426 297.131 95.6799 298.994 94.93L298.994 87.063L298.594 87.063C292.594 88.397 291.26 85.33 291.26 79.73L291.26 46.93C291.26 30.53 280.46 25.063 265.794 25.063C247.528 25.063 238.728 35.063 238.328 48.396L248.728 48.396C249.128 37.996 254.728 33.196 265.928 33.196C275.794 33.196 281.394 37.596 281.394 45.33C281.394 52.796 274.594 53.73 264.861 55.196C247.661 57.863 234.861 61.196 234.861 77.462C234.861 90.529 245.128 96.662 258.194 96.662C269.927 96.662 276.994 91.062 281.127 85.729L281.261 85.729C282.327 92.798 286.061 95.998 293.127 95.998ZM260.594 88.396C253.528 88.396 246.328 86.396 246.328 77.196C246.328 67.063 254.994 65.196 265.794 63.196C271.661 62.129 277.927 60.396 281.527 58.129L281.527 69.862C281.527 77.865 274.994 88.399 260.594 88.399ZM96.78 131.465C80.98 131.465 67.5903 137.671 56.611 150.084C46.757 161.284 41.8307 173.394 41.832 186.413C41.832 196.308 44.9567 204.619 51.206 211.347C58.3233 218.987 68.239 222.807 80.953 222.806C86.9236 222.858 92.869 222.024 98.595 220.332C103.276 219.016 107.747 217.043 111.874 214.472L118.394 189.472C119.349 185.784 120.618 183.375 122.203 182.246C123.788 181.117 126.837 180.335 131.35 179.902L131.35 177.754L95.803 177.754L95.803 179.902C100.317 180.467 103.171 181.021 104.364 181.562C105.557 182.103 106.154 183.351 106.155 185.306C106.155 185.687 106.133 186.067 106.09 186.445C106.046 186.807 105.979 187.166 105.89 187.519L104.458 193.509C103.416 197.98 102.549 201.453 101.858 203.926C101.223 206.627 100.283 209.248 99.058 211.738C97.8427 213.779 95.5207 215.309 92.092 216.328C89.0138 217.293 85.8124 217.808 82.587 217.858C74.2537 217.858 67.841 215.317 63.349 210.235C58.857 205.153 56.611 198.463 56.611 190.166C56.6544 178.148 59.9143 166.358 66.051 156.025C73.7763 142.692 83.9097 136.025 96.451 136.025C105.566 136.025 112.163 139.05 116.243 145.101C118.413 148.368 119.846 152.677 120.543 158.029L122.821 158.356L129.462 132.119L127.444 131.663C126.58 132.98 125.502 134.142 124.254 135.102C122.778 136.029 121.045 136.466 119.306 136.35C118.437 136.35 117.572 136.235 116.734 136.007C115.888 135.778 114.315 135.251 112.014 134.425C107.157 132.525 101.995 131.523 96.78 131.468L96.78 131.468ZM135.921 209.909C135.703 210.909 135.551 211.691 135.465 212.255C135.367 212.988 135.324 213.728 135.335 214.468C135.335 217.595 136.473 219.766 138.75 220.983C139.973 221.599 141.327 221.912 142.697 221.894C148.049 221.894 153.73 218.288 159.741 211.075C163.208 206.871 167.967 199.702 174.019 189.569L174.496 189.563L172.796 195.689C171.539 200.256 170.506 204.062 169.696 207.106C169.262 208.598 168.915 210.114 168.655 211.646C168.447 212.869 168.338 214.106 168.329 215.346C168.253 216.24 168.376 217.141 168.689 217.982C169.003 218.823 169.499 219.585 170.142 220.211C171.449 221.282 173.106 221.837 174.795 221.767C178.452 221.767 182.411 219.377 186.67 214.598C189.006 211.961 191.082 209.105 192.87 206.07L191.015 204.833C189.444 206.786 188.278 208.24 187.515 209.195C186.285 210.757 185.436 211.777 184.968 212.255C184.18 213.09 183.328 213.862 182.421 214.566C181.861 215.021 181.169 215.284 180.448 215.315C180.189 215.341 179.927 215.297 179.69 215.188C179.454 215.08 179.25 214.91 179.101 214.696C178.832 214.256 178.697 213.747 178.71 213.231C178.728 212.616 178.814 212.005 178.965 211.408C179.136 210.671 179.328 209.868 179.541 209L192.341 162.783L182.521 162.783C179.885 170.085 177.864 175.409 176.459 178.754C174.335 183.829 171.821 188.733 168.942 193.422C165.85 198.417 162.381 203.168 158.564 207.633C154.677 212.197 151.438 214.478 148.846 214.477C148.435 214.495 148.026 214.429 147.641 214.284C147.257 214.138 146.906 213.916 146.611 213.63C146.317 213.317 146.09 212.948 145.944 212.544C145.797 212.141 145.734 211.712 145.759 211.283C145.786 210.844 145.853 210.409 145.959 209.983C146.089 209.375 146.306 208.528 146.61 207.441L159.265 163.453L159.465 162.378C159.484 162.243 159.476 162.106 159.442 161.975C159.407 161.843 159.347 161.719 159.265 161.611C159.212 161.503 159.127 161.413 159.021 161.356C158.915 161.299 158.794 161.276 158.674 161.291L148.197 163.244L138.51 165.132L138.51 166.955C140.602 166.845 142.699 167.054 144.728 167.574C145.834 167.987 146.387 169.127 146.388 170.992C146.388 171.374 146.354 171.755 146.288 172.131C146.221 172.5 146.145 172.901 146.06 173.336ZM201.134 216.037C201.129 217.499 201.663 218.913 202.634 220.007C203.634 221.178 205.243 221.764 207.46 221.764C210.026 221.764 212.733 220.668 215.58 218.476C218.427 216.284 221.72 212.389 225.459 206.79L226.373 205.423L224.68 204.446C221.9 208.046 219.924 210.455 218.751 211.673C216.709 213.93 215.124 215.058 213.995 215.058C213.627 215.08 213.262 214.989 212.947 214.797C212.633 214.606 212.384 214.323 212.235 213.986C211.889 213.29 211.819 212.488 212.04 211.743L224.04 167.997L235.27 167.997L236.051 163.561L225.315 163.561L229.147 149.368C229.19 149.121 229.2 148.87 229.179 148.62C229.146 148.339 229.069 148.064 228.952 147.806C228.659 147.684 228.353 147.597 228.04 147.545C227.823 147.545 227.61 147.602 227.422 147.709C227.231 147.814 227.064 147.959 226.933 148.133L225.892 149.375C221.7 154.344 218.392 157.699 215.968 159.442C212.754 161.61 209.318 163.429 205.718 164.867C205.201 165.037 204.746 165.355 204.408 165.782C204.173 166.495 204.085 167.249 204.147 167.997L214.042 167.997L201.458 213.434C201.331 213.892 201.244 214.361 201.198 214.834C201.154 215.289 201.132 215.689 201.133 216.034L201.133 216.034ZM198.182 233.422C198.118 234.697 198.317 235.971 198.768 237.165C199.572 238.537 200.582 239.778 201.762 240.844L202.999 242.081C203.79 242.876 204.235 243.953 204.236 245.075C204.236 247.071 202.956 249.328 200.395 251.846C198.44 253.604 196.374 255.234 194.21 256.726L195.447 258.876L197.466 257.766C201.279 255.595 204.719 252.827 207.654 249.566C210.839 246.389 212.652 242.085 212.7 237.586C212.796 235.148 212.036 232.752 210.551 230.816C209.894 229.961 209.044 229.274 208.071 228.81C207.098 228.346 206.029 228.118 204.951 228.146C204.015 228.075 203.076 228.21 202.198 228.542C201.321 228.874 200.526 229.395 199.872 230.067C198.931 230.951 198.332 232.138 198.18 233.42L198.18 233.42ZM239.071 209.913C238.854 210.913 238.703 211.695 238.616 212.259C238.518 212.992 238.475 213.732 238.486 214.472C238.486 217.599 239.624 219.77 241.9 220.987C243.124 221.603 244.478 221.916 245.848 221.898C251.2 221.898 256.881 218.292 262.891 211.079C266.358 206.875 271.117 199.706 277.17 189.573L277.647 189.567L275.947 195.693C274.689 200.26 273.656 204.066 272.847 207.11C272.413 208.602 272.066 210.118 271.806 211.65C271.598 212.873 271.489 214.11 271.48 215.35C271.404 216.244 271.527 217.145 271.84 217.986C272.154 218.827 272.65 219.589 273.293 220.215C274.6 221.286 276.257 221.841 277.946 221.771C281.603 221.771 285.562 219.381 289.821 214.602C292.157 211.965 294.233 209.109 296.021 206.074L294.166 204.837C292.595 206.79 291.429 208.244 290.666 209.199C289.435 210.761 288.586 211.781 288.119 212.259C287.33 213.093 286.479 213.866 285.572 214.57C285.012 215.025 284.319 215.288 283.598 215.319C283.339 215.345 283.078 215.301 282.841 215.192C282.605 215.083 282.401 214.913 282.252 214.7C281.983 214.26 281.848 213.751 281.861 213.235C281.879 212.62 281.964 212.008 282.116 211.412C282.287 210.675 282.479 209.872 282.692 209.004L295.492 162.787L285.672 162.787C283.036 170.089 281.015 175.413 279.61 178.758C277.487 183.833 274.975 188.736 272.097 193.424C269.005 198.419 265.536 203.17 261.719 207.635C257.831 212.199 254.592 214.48 252.001 214.479C251.59 214.497 251.181 214.431 250.796 214.286C250.412 214.14 250.061 213.918 249.766 213.632C249.472 213.319 249.245 212.95 249.099 212.546C248.952 212.143 248.889 211.714 248.914 211.285C248.941 210.846 249.008 210.411 249.114 209.985C249.244 209.377 249.461 208.53 249.765 207.443L262.42 163.455L262.62 162.38C262.639 162.245 262.631 162.108 262.597 161.977C262.562 161.845 262.502 161.721 262.42 161.613C262.367 161.505 262.282 161.415 262.176 161.358C262.07 161.301 261.949 161.278 261.829 161.293L251.351 163.246L241.665 165.134L241.665 166.957C243.757 166.847 245.854 167.056 247.883 167.576C248.989 167.989 249.542 169.129 249.543 170.994C249.543 171.376 249.509 171.757 249.443 172.133C249.376 172.502 249.3 172.903 249.215 173.338Z" sodipodi:nodetypes="cccccccccccccccccccccccccccccccccccccccccccccccccccccccccccccccccccccccccccccccccccccccccccccccccccccccccccccccccccccccccccccccccccccccccccccccccccccccccccccccccccccccccccccccccccccccccccccccccccccccccccccccccccccccccccccccccccccccccccccccccccccccccccccccccccccccccccccccccccccccccccccccccc"/>
</svg>
