<?xml version="1.0" standalone="no"?>
<!DOCTYPE svg PUBLIC "-//W3C//DTD SVG 20010904//EN" "http://www.w3.org/TR/2001/REC-SVG-20010904/DTD/svg10.dtd">
<!-- Created using Krita: https://krita.org -->
<svg xmlns="http://www.w3.org/2000/svg" 
    xmlns:xlink="http://www.w3.org/1999/xlink"
    xmlns:krita="http://krita.org/namespaces/svg/krita"
    xmlns:sodipodi="http://sodipodi.sourceforge.net/DTD/sodipodi-0.dtd"
    width="588.96pt"
    height="187.92pt"
    viewBox="0 0 588.96 187.92">
<defs/>
<path id="Salt_Salome_" transform="matrix(0.719999961997184 0 0 0.719999961997184 316.084308207601 0.727205647804727)" fill="#1b1c20" fill-rule="evenodd" stroke-opacity="0" stroke="#000000" stroke-width="0" stroke-linecap="square" stroke-linejoin="bevel" d="M215.682 99.066C236.215 99.066 250.749 89.066 250.749 71.2C250.749 49.734 233.816 45.2 215.282 41.467C201.016 38.667 190.35 35.467 190.35 24.667C190.35 14.8 198.883 9.333 211.816 9.333C225.816 9.333 234.616 16.133 236.349 29.733L247.682 29.733C245.282 12.133 235.415 0 211.549 0C192.216 0 179.149 9.467 179.149 25.2C179.149 43.2 193.549 48 210.349 51.733C227.416 55.466 238.882 58.533 238.882 71.599C238.882 83.466 229.416 89.466 216.216 89.466C198.216 89.466 188.35 81.066 186.75 64.933L175.016 64.933C176.083 84.133 188.883 99.066 215.682 99.066ZM315.308 97.866C317.315 97.9127 319.311 97.55 321.174 96.8L321.174 88.933L320.774 88.933C314.774 90.267 313.441 87.2 313.441 81.6L313.441 48.8C313.441 32.4 302.641 26.933 287.975 26.933C269.708 26.933 260.909 36.933 260.509 50.266L270.909 50.266C271.309 39.866 276.909 35.066 288.109 35.066C297.976 35.066 303.576 39.466 303.576 47.2C303.576 54.666 296.776 55.6 287.043 57.066C269.843 59.733 257.043 63.066 257.043 79.332C257.043 92.399 267.309 98.532 280.376 98.532C292.109 98.532 299.176 92.932 303.309 87.599L303.442 87.599C304.508 94.666 308.241 97.866 315.308 97.866ZM282.775 90.266C275.708 90.266 268.508 88.266 268.508 79.066C268.508 68.933 277.175 67.066 287.975 65.066C293.841 63.999 300.108 62.266 303.708 59.999L303.708 71.732C303.708 79.733 297.175 90.267 282.775 90.267ZM327.335 97.199L338.135 97.199L338.135 1.868L327.335 1.868L327.335 97.2ZM344.52 37.066L354.52 37.066L354.52 84.266C354.52 93.999 360.92 97.599 369.72 97.599C372.633 97.5888 375.538 97.2758 378.386 96.665L378.386 87.332L377.986 87.332C376.129 87.9139 374.199 88.2284 372.253 88.266C367.853 88.266 365.32 86.666 365.32 81.866L365.32 37.066L378.653 37.066L378.653 28.266L365.32 28.266L365.32 6.534L354.52 6.534L354.52 28.267L344.52 28.267L344.52 37.067ZM0 224.674L2.344 224.674C2.75703 223.457 3.39778 222.33 4.232 221.353C4.69051 220.947 5.22754 220.639 5.80977 220.449C6.39201 220.259 7.00714 220.19 7.617 220.247C8.659 220.247 11.339 221.061 15.657 222.688C19.7379 224.271 24.073 225.098 28.45 225.129C36.5227 225.129 42.9787 222.449 47.818 217.089C52.5122 212.096 55.1123 205.485 55.077 198.632C55.1558 195.05 54.398 191.499 52.864 188.262C51.4326 185.359 49.5907 182.676 47.395 180.298L35.356 167.36C32.7654 164.728 30.4328 161.854 28.39 158.778C27.1077 156.477 26.4773 153.869 26.567 151.236C26.5291 149.5 26.8697 147.777 27.5652 146.186C28.2606 144.595 29.2942 143.175 30.594 142.024C33.4776 139.5 37.2261 138.182 41.055 138.346C48.0277 138.346 52.7703 140.921 55.283 146.07C56.6677 148.969 57.4677 153.577 57.683 159.895L60.026 160.221L65.426 133.658L62.366 133.658C61.7458 134.59 61.0013 135.434 60.153 136.165C59.1727 136.991 57.9175 137.419 56.637 137.365C54.3507 136.979 52.1056 136.38 49.931 135.575C46.4219 134.417 42.754 133.813 39.059 133.784C31.159 133.784 25.1693 136.095 21.09 140.718C17.0107 145.341 14.9707 150.386 14.97 155.855C14.9501 159.342 15.8965 162.768 17.704 165.75C19.5267 168.789 23.6497 173.824 30.073 180.855L38.407 189.969C40.3791 192.139 41.8476 194.718 42.707 197.521C43.2483 199.205 43.5335 200.961 43.553 202.73C43.5326 207.169 41.9406 211.461 39.061 214.839C36.0657 218.529 31.8323 220.374 26.361 220.373C23.757 220.407 21.1765 219.875 18.7988 218.813C16.4212 217.75 14.3028 216.184 12.591 214.221C8.83633 210.119 6.959 204.683 6.959 197.912C6.959 197.652 6.98067 196.762 7.024 195.243L4.485 194.917ZM112.138 175.206C112.138 182.939 109.218 191.609 103.377 201.216C97.3143 211.777 91.0143 217.058 84.477 217.057C83.4352 217.079 82.4007 216.877 81.4429 216.467C80.4851 216.056 79.626 215.446 78.923 214.677C77.429 213.091 76.682 210.558 76.682 207.077C76.682 200.168 79.3793 191.932 84.774 182.371C90.9147 171.504 97.5593 166.071 104.708 166.071C105.691 166.056 106.666 166.245 107.572 166.627C108.478 167.009 109.295 167.574 109.971 168.288C111.417 169.766 112.141 172.069 112.142 175.197L112.142 175.197ZM104.05 163.15C94.924 163.15 86.105 168.299 77.593 178.596C69.3443 188.503 65.22 198.019 65.22 207.142C65.22 212.444 66.6503 216.54 69.511 219.429C70.7223 220.767 72.1955 221.842 73.8393 222.587C75.483 223.333 77.2624 223.732 79.067 223.762C81.284 223.738 83.4813 223.341 85.567 222.589C88.9204 221.125 91.9983 219.098 94.667 216.595C97.1909 214.427 99.471 211.991 101.467 209.329C103.308 206.832 104.618 204.932 105.399 203.629C104.835 205.621 104.26 208.078 103.674 211.001C103.176 213.21 102.882 215.46 102.795 217.723C102.74 219.242 103.212 220.733 104.131 221.944C104.587 222.507 105.17 222.954 105.832 223.248C106.495 223.541 107.218 223.673 107.941 223.633C110.878 223.488 113.692 222.404 115.968 220.541C118.777 218.48 122.5 214.563 127.138 208.789L125.575 207.422L121.324 211.589C120.685 212.197 120.136 212.707 119.679 213.119C119.222 213.531 118.81 213.889 118.445 214.193L117.28 215.104C116.727 215.537 116.144 215.928 115.534 216.276C115.14 216.513 114.693 216.647 114.234 216.667C113.796 216.68 113.368 216.53 113.034 216.246C112.86 216.074 112.725 215.865 112.641 215.635C112.556 215.405 112.524 215.159 112.545 214.915C112.545 213.964 113.348 210.158 114.954 203.499C115.935 199.811 117.125 195.429 118.526 190.354L124.968 167.054C125.154 166.447 125.294 165.98 125.388 165.654C125.482 165.328 125.621 164.884 125.808 164.32C125.894 164.057 125.905 163.775 125.84 163.506C125.754 163.409 125.644 163.336 125.521 163.296C125.398 163.257 125.266 163.25 125.14 163.279L117.64 164.118C117.469 164.109 117.298 164.137 117.137 164.198C116.977 164.259 116.832 164.353 116.71 164.474C116.508 164.829 116.353 165.209 116.246 165.603L114.785 170.511L114.457 169.599C113.972 168.172 113.16 166.878 112.087 165.82C110.2 164.039 107.523 163.149 104.057 163.148L104.057 163.148ZM135.411 208.334C135.035 209.766 134.729 211.024 134.494 212.109C134.19 213.545 134.016 215.004 133.973 216.471C133.973 219.292 134.908 221.289 136.779 222.46C138.027 223.25 139.479 223.657 140.956 223.632C144.611 223.632 148.245 221.832 151.856 218.232C155.073 214.652 157.998 210.82 160.604 206.774L158.846 205.537C156.92 208.381 154.786 211.079 152.464 213.61C149.946 216.388 147.906 217.777 146.343 217.777C146.006 217.813 145.665 217.748 145.364 217.592C145.063 217.436 144.815 217.194 144.65 216.898C144.33 216.24 144.173 215.514 144.194 214.782C144.194 214.388 144.238 213.995 144.325 213.61C144.411 213.219 144.693 212.091 145.171 210.225L166.844 131.969C166.754 131.796 166.624 131.646 166.464 131.533C166.305 131.42 166.121 131.346 165.927 131.318C162.436 132.185 159.469 132.836 157.027 133.271C156.241 133.404 154.571 133.643 152.018 133.988C149.465 134.333 147.206 134.636 145.243 134.899L145.243 137.048C147.61 136.919 149.984 137.061 152.319 137.471C152.893 137.628 153.39 137.989 153.718 138.485C154.045 138.982 154.18 139.582 154.097 140.171C154.097 140.518 154.075 140.973 154.032 141.538C153.986 142.112 153.877 142.68 153.707 143.23ZM177.945 208.202C177.945 199.218 180.678 190.082 186.145 180.794C191.96 170.855 198.189 165.886 204.83 165.885C206.647 165.786 208.448 166.287 209.953 167.31C211.458 168.333 212.586 169.823 213.163 171.549C214.029 174.082 214.427 176.751 214.335 179.426C214.335 187.109 212.013 195.529 207.369 204.687C201.902 215.364 195.631 220.703 188.554 220.702C185.081 220.702 182.444 219.519 180.643 217.154C178.769 214.556 177.819 211.403 177.943 208.202L177.943 208.202ZM205.545 163.15C195.952 163.15 187.033 167.599 178.787 176.497C170.714 185.178 166.678 194.271 166.678 203.775C166.678 210.069 168.478 214.952 172.078 218.424C175.678 221.896 180.474 223.632 186.466 223.632C195.971 223.632 204.912 219.032 213.289 209.832C221.405 200.978 225.463 191.95 225.464 182.749C225.571 177.783 223.987 172.926 220.971 168.979C217.977 165.095 212.834 163.153 205.542 163.152L205.542 163.152ZM278.526 163.281C273.943 163.281 268.654 166.422 262.659 172.703C257.637 178.276 253.001 184.186 248.783 190.39L256.166 163.734L255.647 163.283C245.882 165.453 238.818 166.886 234.454 167.583L234.454 169.732C236.715 169.532 238.994 169.643 241.225 170.062C242.396 170.412 242.982 171.442 242.982 173.153C242.984 173.617 242.94 174.08 242.852 174.535C242.765 174.975 242.657 175.436 242.527 175.917L229.979 222.2L239.973 222.2C242.253 214.859 244.081 209.234 245.458 205.325C247.318 199.907 249.799 194.721 252.851 189.873C255.897 185.372 259.269 181.101 262.939 177.093C267.046 172.529 270.498 170.247 273.295 170.247C273.719 170.206 274.147 170.264 274.545 170.417C274.943 170.57 275.3 170.813 275.588 171.128C276.092 171.84 276.338 172.702 276.288 173.572C276.288 173.955 276.255 174.336 276.188 174.713C276.121 175.083 276.045 175.463 275.96 175.854L262.921 222.2L273.046 222.2C275.927 211.683 277.91 204.871 278.997 201.764C280.519 197.747 282.4 193.874 284.617 190.194C287.695 185.475 291.141 181.007 294.922 176.83C298.867 172.442 302.324 170.248 305.295 170.247C305.683 170.235 306.07 170.305 306.43 170.451C306.79 170.596 307.115 170.816 307.386 171.094C307.676 171.422 307.899 171.804 308.041 172.218C308.183 172.632 308.241 173.07 308.213 173.507C308.212 173.857 308.178 174.206 308.113 174.55C308.046 174.898 307.949 175.331 307.82 175.85L297.709 212.359C297.491 213.271 297.328 214.096 297.22 214.835C297.115 215.524 297.061 216.221 297.058 216.918C297.058 219.568 297.796 221.457 299.272 222.585C300.301 223.303 301.535 223.669 302.789 223.628C305.871 223.628 308.997 222.314 312.168 219.685C315.765 216.582 318.94 213.021 321.612 209.094L322.263 208.181L320.245 206.617C317.683 209.75 316.131 211.642 315.588 212.291C315.045 212.94 314.34 213.701 313.472 214.573C312.785 215.294 312.033 215.949 311.225 216.531C310.616 216.929 309.901 217.133 309.174 217.118C308.836 217.154 308.495 217.089 308.194 216.932C307.893 216.775 307.644 216.532 307.48 216.235C307.333 215.975 307.24 215.688 307.207 215.392C307.173 215.095 307.2 214.795 307.286 214.509L317.53 178.979C318.122 176.7 318.536 174.379 318.767 172.036C318.767 168.965 317.919 166.738 316.222 165.353C314.656 164.017 312.665 163.281 310.607 163.277C305.773 163.277 300.2 166.766 293.888 173.744C289.324 179.045 285.155 184.674 281.413 190.584C283.283 184.76 284.576 180.538 285.293 177.919C285.905 175.926 286.266 173.865 286.367 171.783C286.367 168.493 285.32 166.134 283.227 164.705C281.85 163.75 280.208 163.25 278.532 163.277L278.532 163.277ZM327.498 204.902C327.498 210.969 329.234 215.63 332.706 218.885C335.941 222.041 340.296 223.795 344.815 223.762C351.326 223.762 357.815 221.44 364.282 216.796C367.421 214.658 370.248 212.094 372.682 209.179L370.989 207.679C368.125 210.132 365.102 212.394 361.94 214.449C358.848 216.451 355.269 217.576 351.588 217.705C348.335 217.768 345.17 216.632 342.701 214.514C340.205 212.388 338.957 209.415 338.958 205.595C338.935 204.254 339.044 202.914 339.284 201.595C339.603 200.155 339.993 198.732 340.455 197.331L344.166 196.876C352.354 195.84 360.224 193.059 367.246 188.722C374.559 184.282 378.216 178.942 378.216 172.703C378.216 169.628 377.216 167.31 375.216 165.751C372.866 164.083 370.02 163.259 367.143 163.412C357.985 163.412 349.109 167.921 340.516 176.939C331.834 185.957 327.494 195.278 327.495 204.903L327.495 204.903ZM341.365 194.402C342.189 192.195 342.97 190.225 343.709 188.492C345.219 184.933 347.049 181.519 349.177 178.292C351.305 175.308 353.762 172.574 356.502 170.141C359.214 167.741 361.981 166.541 364.802 166.541C365.451 166.498 366.102 166.607 366.702 166.861C367.301 167.115 367.832 167.506 368.253 168.003C369.085 169.138 369.499 170.527 369.425 171.932C369.425 176.479 366.821 181.058 361.612 185.669C356.403 190.28 349.654 193.192 341.365 194.405L341.365 194.405Z" sodipodi:nodetypes="cccccccccccccccccccccccccccccccccccccccccccccccccccccccccccccccccccccccccccccccccccccccccccccccccccccccccccccccccccccccccccccccccccccccccccccccccccccccccccccccccccccccccccccccccccccccccccccccccccccccccccccccccccccccccccccccccccccccccccccccccccccccccccccccccccccccccccccccccccccccccccccccccccccccccccccccccccccc"/>
</svg>
