<?xml version="1.0" standalone="no"?>
<!DOCTYPE svg PUBLIC "-//W3C//DTD SVG 20010904//EN" "http://www.w3.org/TR/2001/REC-SVG-20010904/DTD/svg10.dtd">
<!-- Created using Krita: https://krita.org -->
<svg xmlns="http://www.w3.org/2000/svg" 
    xmlns:xlink="http://www.w3.org/1999/xlink"
    xmlns:krita="http://krita.org/namespaces/svg/krita"
    xmlns:sodipodi="http://sodipodi.sourceforge.net/DTD/sodipodi-0.dtd"
    width="588.96pt"
    height="187.92pt"
    viewBox="0 0 588.96 187.92">
<defs/>
<path id="Mihail_arpe_" transform="matrix(0.719999973138563 0 0 0.719999973138563 371.512068688622 0.00144442089110824)" fill="#1b1c20" fill-rule="evenodd" stroke-opacity="0" stroke="#000000" stroke-width="0" stroke-linecap="square" stroke-linejoin="bevel" d="M0 95.333L10.8 95.333L10.8 16.933L11.067 16.933C11.067 16.933 13.467 24.133 15.333 28.933L41.466 95.333L50.666 95.333L76.799 28.933C78.532 24.4 81.066 16.933 81.066 16.933L81.332 16.933L81.332 95.333L92.799 95.333L92.799 0.001L77.199 0.001L46.533 79.201L46.266 79.201L15.333 0.001L0 0.001ZM107.425 95.333L118.225 95.333L118.225 26.4L107.423 26.4L107.423 95.333ZM107.425 13.333L118.225 13.333L118.225 0.001L107.423 0.001L107.423 13.334ZM141.051 0L130.251 0L130.251 95.333L141.051 95.333L141.051 52.933C141.051 41.6 149.051 33.867 159.984 33.867C169.717 33.867 175.584 38.934 175.584 47.867L175.584 95.333L186.384 95.333L186.384 46.933C186.384 32.666 177.584 24.8 163.184 24.8C153.184 24.8 146.251 28.933 141.318 35.466L141.051 35.466L141.051 0.001ZM252.53 96C254.538 96.0467 256.534 95.684 258.397 94.934L258.397 87.067L257.997 87.067C251.997 88.401 250.664 85.334 250.664 79.734L250.664 46.934C250.664 30.534 239.864 25.067 225.197 25.067C206.931 25.067 198.131 35.067 197.731 48.4L208.131 48.4C208.531 38 214.131 33.2 225.331 33.2C235.197 33.2 240.797 37.6 240.797 45.334C240.797 52.8 233.997 53.734 224.264 55.2C207.064 57.867 194.264 61.2 194.264 77.466C194.264 90.533 204.53 96.666 217.596 96.666C229.33 96.666 236.396 91.066 240.529 85.733L240.663 85.733C241.73 92.799 245.464 95.999 252.53 95.999ZM219.997 88.4C212.931 88.4 205.731 86.4 205.731 77.2C205.731 67.067 214.398 65.2 225.197 63.2C231.064 62.133 237.331 60.4 240.93 58.133L240.93 69.866C240.93 77.866 234.397 88.4 219.997 88.4ZM264.384 95.333L275.184 95.333L275.184 26.4L264.384 26.4ZM264.384 13.333L275.184 13.333L275.184 0.001L264.384 0.001L264.384 13.334ZM287.41 95.333L298.21 95.333L298.21 0.001L287.41 0.001ZM4.393 222.807L6.736 222.807C7.14954 221.591 7.79024 220.464 8.624 219.486C9.08266 219.08 9.61986 218.772 10.2023 218.582C10.7847 218.392 11.4 218.323 12.01 218.38C13.052 218.38 15.732 219.194 20.05 220.821C24.1309 222.404 28.466 223.231 32.843 223.262C40.9163 223.262 47.3727 220.582 52.212 215.222C56.9062 210.229 59.5063 203.618 59.471 196.765C59.5495 193.183 58.7913 189.632 57.257 186.395C55.8256 183.492 53.984 180.81 51.789 178.431L39.744 165.493C37.1537 162.861 34.8211 159.987 32.778 156.911C31.4957 154.61 30.8653 152.002 30.955 149.369C30.9171 147.633 31.2577 145.91 31.9532 144.319C32.6486 142.728 33.6822 141.308 34.982 140.157C37.8656 137.633 41.6141 136.315 45.443 136.479C52.4157 136.479 57.1583 139.054 59.671 144.203C61.057 147.102 61.857 151.71 62.071 158.028L64.415 158.354L69.815 131.791L66.755 131.791C66.1348 132.723 65.3903 133.567 64.542 134.298C63.5618 135.124 62.3065 135.552 61.026 135.498C58.74 135.112 56.4953 134.513 54.321 133.708C50.8116 132.55 47.1433 131.946 43.448 131.917C35.548 131.917 29.5583 134.228 25.479 138.851C21.3997 143.474 19.36 148.519 19.36 153.988C19.34 157.475 20.2864 160.901 22.094 163.883C23.9173 166.922 28.0407 171.957 34.464 178.988L42.797 188.102C44.7691 190.272 46.2376 192.851 47.097 195.654C47.6387 197.338 47.9239 199.094 47.943 200.863C47.9226 205.302 46.3306 209.594 43.451 212.972C40.4563 216.662 36.2247 218.507 30.756 218.506C28.1521 218.54 25.5715 218.008 23.1939 216.946C20.8162 215.883 18.6978 214.316 16.986 212.354C13.232 208.252 11.355 202.816 11.355 196.045C11.355 195.785 11.3767 194.895 11.42 193.376L8.881 193.05ZM20.278 234.916C20.2138 236.191 20.4133 237.466 20.864 238.66C21.6687 240.032 22.6787 241.272 23.859 242.338L25.096 243.575C25.8878 244.372 26.3327 245.451 26.333 246.575C26.333 248.571 25.0527 250.828 22.492 253.346C20.5378 255.105 18.4718 256.736 16.307 258.228L17.544 260.377L19.562 259.27C23.3742 257.098 26.8142 254.33 29.751 251.07C32.9359 247.893 34.7487 243.589 34.796 239.091C34.8922 236.653 34.132 234.257 32.648 232.32C31.9906 231.466 31.1407 230.779 30.1676 230.315C29.1945 229.851 28.1256 229.624 27.048 229.651C26.1127 229.58 25.1732 229.716 24.2958 230.047C23.4185 230.379 22.6245 230.899 21.97 231.571C21.0293 232.455 20.4296 233.642 20.277 234.924L20.277 234.924ZM115.623 173.339C115.623 181.072 112.703 189.742 106.863 199.349C100.8 209.91 94.5003 215.191 87.963 215.19C86.9212 215.212 85.8867 215.01 84.9289 214.6C83.9711 214.19 83.1119 213.579 82.409 212.81C80.915 211.224 80.168 208.691 80.168 205.21C80.168 198.301 82.8653 190.065 88.26 180.504C94.4 169.637 101.044 164.204 108.193 164.204C109.176 164.189 110.152 164.378 111.058 164.76C111.964 165.141 112.781 165.707 113.457 166.421C114.903 167.899 115.626 170.202 115.627 173.33L115.627 173.33ZM107.536 161.283C98.4093 161.283 89.59 166.432 81.078 176.729C72.83 186.636 68.706 196.152 68.706 205.275C68.706 210.577 70.136 214.673 72.996 217.562C74.2074 218.9 75.6807 219.975 77.3244 220.72C78.9681 221.465 80.7475 221.865 82.552 221.895C84.769 221.87 86.9663 221.474 89.052 220.722C92.4053 219.258 95.4832 217.231 98.152 214.728C100.674 212.56 102.952 210.124 104.946 207.462C106.787 204.965 108.098 203.065 108.879 201.762C108.314 203.754 107.739 206.211 107.154 209.134C106.656 211.343 106.362 213.593 106.275 215.856C106.22 217.375 106.692 218.866 107.61 220.077C108.066 220.64 108.649 221.087 109.312 221.381C109.975 221.674 110.697 221.806 111.421 221.766C114.358 221.621 117.172 220.536 119.447 218.674C122.257 216.613 125.981 212.696 130.618 206.922L129.055 205.555L124.804 209.722C124.164 210.33 123.616 210.84 123.159 211.252C122.702 211.664 122.29 212.021 121.923 212.323L120.758 213.234C120.206 213.667 119.622 214.058 119.013 214.406C118.619 214.642 118.172 214.777 117.713 214.797C117.275 214.809 116.847 214.659 116.513 214.376C116.339 214.204 116.205 213.995 116.121 213.765C116.036 213.535 116.004 213.289 116.025 213.045C116.025 212.094 116.828 208.288 118.434 201.629C119.415 197.941 120.605 193.559 122.005 188.484L128.448 165.184C128.634 164.577 128.774 164.11 128.868 163.784C128.962 163.458 129.102 163.013 129.288 162.45C129.373 162.187 129.384 161.905 129.32 161.636C129.234 161.539 129.124 161.467 129.001 161.427C128.878 161.387 128.746 161.381 128.62 161.409L121.12 162.248C120.949 162.239 120.778 162.267 120.617 162.328C120.457 162.389 120.312 162.483 120.19 162.604C119.988 162.959 119.833 163.339 119.726 163.733L118.265 168.641L117.937 167.729C117.452 166.302 116.64 165.008 115.566 163.95C113.679 162.169 111.003 161.279 107.537 161.278L107.537 161.278ZM159.879 161.088C159.662 161.088 157.545 161.479 153.528 162.26C149.511 163.041 145.809 163.779 142.423 164.473L139.818 164.994L139.818 167.143C140.903 167.01 141.836 166.901 142.618 166.817C143.266 166.739 143.918 166.696 144.571 166.687C145.176 166.624 145.788 166.683 146.37 166.862C146.952 167.041 147.491 167.336 147.956 167.729C148.656 168.563 149.006 169.637 148.933 170.723C148.892 172.192 148.706 173.653 148.379 175.085C148.01 176.866 147.522 178.885 146.915 181.14L136.059 220.333L146.059 220.333C148.027 213.954 149.602 209.028 150.783 205.555C152.65 200.044 154.344 195.617 155.866 192.274C158.294 186.924 161.161 181.785 164.437 176.908C167.63 172.175 170.073 169.808 171.768 169.808C172.077 169.798 172.382 169.877 172.647 170.036C172.893 170.197 173.103 170.407 173.263 170.654L174.044 172.087C174.451 172.802 175.004 173.423 175.667 173.91C176.575 174.49 177.646 174.764 178.721 174.691C179.58 174.735 180.437 174.585 181.23 174.253C182.023 173.92 182.731 173.413 183.301 172.77C184.432 171.413 185.023 169.685 184.958 167.92C184.974 166.231 184.386 164.591 183.299 163.298C182.722 162.62 181.996 162.085 181.178 161.735C180.359 161.384 179.471 161.228 178.582 161.279C174.808 161.279 170.828 163.808 166.642 168.866C162.383 174.036 158.707 179.658 155.679 185.633L154.171 188.641L160.805 163.25C160.846 163.029 160.885 162.697 160.926 162.256C160.93 161.968 160.851 161.686 160.698 161.442C160.606 161.316 160.482 161.217 160.339 161.154C160.196 161.091 160.039 161.067 159.884 161.084L159.884 161.084ZM171.949 247.807L199.694 247.807L199.694 245.854C197.423 245.855 195.164 245.526 192.988 244.877C191.859 244.399 191.294 243.271 191.295 241.492C191.711 238.643 192.276 235.818 192.988 233.028C193.421 231.118 194.207 227.943 195.348 223.502L196.388 219.502C197.869 220.236 199.406 220.853 200.983 221.348C202.483 221.744 204.032 221.928 205.583 221.895C214.73 221.895 223.554 217.316 232.054 208.158C240.64 198.914 244.933 189.192 244.934 178.992C244.934 173.046 243.585 168.63 240.886 165.743C238.187 162.856 234.475 161.413 229.748 161.414C225.104 161.414 220.628 163.241 216.319 166.896C213.382 169.502 210.751 172.432 208.475 175.631L212.068 163.631C212.199 163.239 212.361 162.65 212.558 161.864C212.544 161.717 212.474 161.58 212.362 161.483C212.251 161.386 212.106 161.336 211.958 161.343L190.867 164.403L190.997 166.552C191.405 166.468 191.818 166.414 192.234 166.389C192.625 166.368 193.034 166.356 193.471 166.356C195.091 166.254 196.706 166.618 198.126 167.405C198.652 167.753 199.077 168.234 199.358 168.799C199.638 169.364 199.764 169.993 199.723 170.623C199.708 171.172 199.654 171.72 199.56 172.261C199.346 173.411 199.075 174.549 198.746 175.671L180.746 239.213C180.38 241.156 179.355 242.915 177.846 244.193C176.085 245.288 174.023 245.801 171.954 245.658L171.954 247.807ZM232.949 178.731C232.949 187.238 230.372 195.81 225.217 204.447C219.462 214.127 212.805 218.967 205.246 218.966C203.548 219.014 201.868 218.606 200.381 217.786C199.733 217.427 199.198 216.892 198.839 216.244C198.481 215.595 198.312 214.858 198.352 214.118C198.352 213.084 199.181 209.602 200.838 203.673C202.495 197.744 204.271 192.063 206.166 186.63C208.52 179.715 211.465 174.76 215.001 171.765C218.537 168.77 221.806 167.272 224.807 167.273C226.355 167.172 227.894 167.583 229.187 168.441C230.479 169.3 231.454 170.559 231.962 172.025C232.7 174.181 233.034 176.454 232.949 178.731ZM250.928 203.031C250.928 209.098 252.664 213.759 256.136 217.014C259.371 220.17 263.726 221.924 268.245 221.891C274.756 221.891 281.245 219.569 287.712 214.925C290.851 212.787 293.678 210.223 296.112 207.308L294.419 205.808C291.555 208.261 288.532 210.523 285.37 212.578C282.278 214.58 278.699 215.705 275.018 215.834C271.765 215.897 268.6 214.761 266.131 212.643C263.635 210.517 262.387 207.544 262.388 203.724C262.365 202.383 262.474 201.043 262.714 199.724C263.033 198.284 263.423 196.861 263.885 195.46L267.596 195.005C275.784 193.969 283.654 191.188 290.676 186.851C297.989 182.411 301.646 177.071 301.646 170.832C301.646 167.757 300.646 165.439 298.646 163.88C296.296 162.212 293.45 161.388 290.573 161.541C281.415 161.541 272.539 166.05 263.946 175.068C255.264 184.086 250.924 193.407 250.925 203.032L250.925 203.032ZM264.795 192.531C265.619 190.324 266.4 188.354 267.139 186.621C268.649 183.062 270.479 179.648 272.607 176.421C274.735 173.437 277.192 170.703 279.932 168.27C282.644 165.87 285.411 164.67 288.232 164.67C288.881 164.627 289.532 164.736 290.132 164.99C290.731 165.244 291.262 165.635 291.683 166.132C292.515 167.267 292.929 168.656 292.855 170.061C292.855 174.608 290.251 179.187 285.042 183.798C279.833 188.409 273.084 191.321 264.795 192.534L264.795 192.534Z" sodipodi:nodetypes="ccccccccccccccccccccccccccccccccccccccccccccccccccccccccccccccccccccccccccccccccccccccccccccccccccccccccccccccccccccccccccccccccccccccccccccccccccccccccccccccccccccccccccccccccccccccccccccccccccccccccccccccccccccccccccccccccccccccccccccccccccccccccccccccccccccccccccccccccccccccccccccccccccccccccccccccccccccccccccccccccccc"/>
</svg>
