<?xml version="1.0" standalone="no"?>
<!DOCTYPE svg PUBLIC "-//W3C//DTD SVG 20010904//EN" "http://www.w3.org/TR/2001/REC-SVG-20010904/DTD/svg10.dtd">
<!-- Created using Krita: https://krita.org -->
<svg xmlns="http://www.w3.org/2000/svg" 
    xmlns:xlink="http://www.w3.org/1999/xlink"
    xmlns:krita="http://krita.org/namespaces/svg/krita"
    xmlns:sodipodi="http://sodipodi.sourceforge.net/DTD/sodipodi-0.dtd"
    width="588.96pt"
    height="187.92pt"
    viewBox="0 0 588.96 187.92">
<defs/>
<path id="Mark_Verlan_" transform="matrix(0.719999961699249 0 0 0.719999961699249 350.650068811865 0.722164393968498)" fill="#1b1c20" fill-rule="evenodd" stroke-opacity="0" stroke="#000000" stroke-width="0" stroke-linecap="square" stroke-linejoin="bevel" d="M57.318 95.332L68.118 95.332L68.118 16.932L68.385 16.932C68.385 16.932 70.785 24.132 72.652 28.932L98.785 95.332L107.985 95.332L134.117 28.932C135.851 24.399 138.384 16.932 138.384 16.932L138.651 16.932L138.651 95.332L150.117 95.332L150.117 0L134.517 0L103.851 79.2L103.585 79.2L72.652 0L57.318 0ZM219.075 95.998C221.083 96.0446 223.079 95.6819 224.942 94.932L224.942 87.065L224.542 87.065C218.542 88.399 217.208 85.332 217.208 79.732L217.208 46.932C217.208 30.532 206.408 25.065 191.742 25.065C173.476 25.065 164.676 35.065 164.276 48.398L174.676 48.398C175.076 37.998 180.676 33.198 191.876 33.198C201.743 33.198 207.343 37.598 207.343 45.332C207.343 52.798 200.543 53.732 190.81 55.198C173.61 57.865 160.81 61.198 160.81 77.464C160.81 90.531 171.077 96.664 184.143 96.664C195.876 96.664 202.943 91.064 207.076 85.731L207.21 85.731C208.275 92.798 212.008 95.998 219.075 95.998ZM186.542 88.398C179.476 88.398 172.276 86.398 172.276 77.198C172.276 67.065 180.942 65.198 191.742 63.198C197.609 62.131 203.875 60.398 207.475 58.131L207.475 69.864C207.475 77.865 200.942 88.399 186.542 88.399ZM241.795 26.398L230.995 26.398L230.995 95.332L241.795 95.332L241.795 57.066C241.795 44.133 251.128 36.133 261.795 36.133C263.422 36.0539 265.051 36.2797 266.595 36.799L266.995 36.799L266.995 26.399C265.604 25.8162 264.102 25.5432 262.595 25.599C253.395 25.599 246.195 31.199 242.062 37.865L241.795 37.865L241.795 26.399ZM318.446 95.331L331.113 95.331L301.513 51.198L327.913 26.398L314.179 26.398L283.913 55.865L283.913 0L273.113 0L273.113 95.332L283.913 95.332L283.913 67.732L294.046 58.132ZM0 133.353L0 135.501C3.68867 135.935 6.022 136.977 7 138.626C7.978 140.275 9.139 145.202 10.483 153.405L21.757 222.805L24.361 222.805L74.068 140.705C74.8264 139.227 75.9054 137.937 77.226 136.929C78.561 136.225 80.0009 135.742 81.49 135.497L81.49 133.349L56.768 133.349L56.768 135.497C58.9694 135.691 61.136 136.172 63.213 136.927C63.8282 137.203 64.3416 137.665 64.6803 138.247C65.019 138.83 65.1662 139.505 65.101 140.176C65.101 141.78 64.081 144.639 62.041 148.754C60.819 151.193 59.5317 153.566 58.179 155.874L31.32 202.256L30.537 202.256L21.977 144.282C21.933 143.935 21.8897 143.578 21.847 143.209C21.8037 142.853 21.7817 142.494 21.781 142.135C21.7097 141.002 21.9907 139.875 22.5852 138.908C23.1797 137.942 24.0591 137.182 25.102 136.735C27.3608 135.936 29.737 135.518 32.133 135.499L32.133 133.351L0 133.351ZM64.914 203.034C64.914 209.104 66.6503 213.765 70.123 217.017C73.3582 220.173 77.7126 221.927 82.232 221.894C88.7433 221.894 95.232 219.572 101.698 214.928C104.837 212.79 107.664 210.226 110.098 207.311L108.405 205.811C105.541 208.264 102.518 210.526 99.356 212.581C96.2637 214.583 92.6854 215.708 89.004 215.837C85.7513 215.9 82.5864 214.764 80.117 212.646C77.621 210.52 76.3733 207.547 76.374 203.727C76.3515 202.386 76.4603 201.047 76.699 199.727C76.9157 198.664 77.3063 197.243 77.871 195.463L81.582 195.008C89.7696 193.972 97.6404 191.191 104.662 186.854C111.975 182.414 115.631 177.074 115.632 170.835C115.632 167.76 114.632 165.443 112.632 163.883C110.282 162.216 107.436 161.391 104.559 161.544C95.401 161.544 86.525 166.053 77.931 175.071C69.2497 184.089 64.9093 193.41 64.91 203.035L64.91 203.035ZM78.782 192.534C79.606 190.327 80.387 188.357 81.125 186.624C82.6355 183.065 84.4661 179.651 86.594 176.424C88.7212 173.44 91.1781 170.706 93.918 168.273C96.63 165.873 99.3967 164.671 102.218 164.668C102.867 164.625 103.518 164.734 104.117 164.988C104.717 165.242 105.248 165.633 105.669 166.13C106.501 167.265 106.915 168.654 106.841 170.059C106.841 174.606 104.237 179.185 99.028 183.796C93.8193 188.407 87.0703 191.319 78.781 192.532L78.781 192.532ZM144.282 161.089C144.065 161.089 141.948 161.48 137.931 162.261C133.914 163.042 130.212 163.78 126.825 164.474L124.22 164.995L124.22 167.144C125.305 167.011 126.238 166.902 127.02 166.818C127.668 166.74 128.32 166.697 128.973 166.688C129.578 166.625 130.19 166.684 130.772 166.863C131.354 167.042 131.893 167.337 132.358 167.73C133.058 168.564 133.408 169.638 133.335 170.724C133.294 172.193 133.108 173.654 132.781 175.086C132.412 176.867 131.924 178.886 131.317 181.141L120.461 220.332L130.455 220.332C132.423 213.953 133.998 209.027 135.179 205.554C137.046 200.043 138.74 195.616 140.262 192.273C142.691 186.924 145.558 181.784 148.833 176.907C152.026 172.174 154.469 169.807 156.164 169.807C156.473 169.797 156.778 169.876 157.043 170.035C157.289 170.196 157.499 170.406 157.659 170.653L158.44 172.086C158.847 172.801 159.4 173.422 160.063 173.909C160.971 174.489 162.042 174.763 163.117 174.69C163.976 174.734 164.833 174.584 165.626 174.252C166.419 173.919 167.127 173.412 167.697 172.769C168.828 171.412 169.419 169.684 169.354 167.919C169.37 166.23 168.782 164.59 167.695 163.297C167.118 162.619 166.392 162.084 165.574 161.734C164.755 161.383 163.867 161.227 162.978 161.278C159.204 161.278 155.224 163.807 151.038 168.865C146.779 174.035 143.103 179.657 140.075 185.632L138.567 188.64L145.201 163.249C145.242 163.028 145.281 162.696 145.322 162.255C145.326 161.967 145.247 161.685 145.094 161.441C145.002 161.315 144.878 161.216 144.735 161.153C144.592 161.09 144.435 161.066 144.28 161.083L144.28 161.083ZM169.255 206.468C168.878 207.9 168.572 209.158 168.337 210.243C168.033 211.679 167.859 213.138 167.816 214.605C167.816 217.426 168.751 219.423 170.622 220.594C171.87 221.384 173.323 221.791 174.8 221.766C178.455 221.766 182.089 219.966 185.7 216.366C188.916 212.786 191.841 208.954 194.447 204.908L192.689 203.671C190.763 206.515 188.63 209.214 186.307 211.744C183.789 214.522 181.749 215.911 180.186 215.911C179.849 215.947 179.509 215.882 179.208 215.726C178.907 215.57 178.659 215.328 178.494 215.032C178.173 214.374 178.017 213.648 178.038 212.916C178.038 212.522 178.082 212.129 178.168 211.744C178.255 211.353 178.537 210.225 179.014 208.359L200.687 130.103C200.597 129.929 200.467 129.78 200.307 129.666C200.148 129.553 199.964 129.48 199.77 129.452C196.279 130.319 193.313 130.97 190.87 131.405C190.084 131.538 188.414 131.777 185.861 132.122C183.308 132.467 181.05 132.77 179.087 133.033L179.087 135.182C181.454 135.053 183.828 135.195 186.163 135.605C186.737 135.762 187.234 136.123 187.562 136.619C187.889 137.116 188.024 137.716 187.941 138.305C187.941 138.652 187.918 139.105 187.876 139.672C187.83 140.246 187.721 140.814 187.55 141.364ZM246.745 173.34C246.745 181.073 243.825 189.743 237.985 199.35C231.922 209.911 225.622 215.191 219.085 215.191C218.043 215.213 217.009 215.011 216.051 214.601C215.093 214.191 214.234 213.58 213.531 212.811C212.037 211.225 211.29 208.692 211.29 205.211C211.29 198.302 213.987 190.067 219.382 180.505C225.522 169.638 232.166 164.205 239.315 164.205C240.298 164.19 241.274 164.379 242.18 164.761C243.086 165.142 243.903 165.708 244.579 166.422C246.025 167.9 246.748 170.203 246.749 173.331L246.749 173.331ZM238.658 161.284C229.531 161.284 220.712 166.433 212.2 176.73C203.952 186.637 199.828 196.153 199.828 205.276C199.828 210.578 201.258 214.674 204.118 217.563C205.329 218.901 206.803 219.976 208.446 220.721C210.09 221.466 211.869 221.866 213.674 221.896C215.891 221.871 218.088 221.475 220.174 220.723C223.527 219.259 226.605 217.232 229.274 214.729C231.796 212.561 234.074 210.125 236.068 207.463C237.91 204.966 239.221 203.066 240.001 201.763C239.436 203.755 238.861 206.212 238.276 209.135C237.778 211.344 237.484 213.594 237.397 215.857C237.342 217.376 237.814 218.867 238.732 220.078C239.188 220.641 239.771 221.088 240.434 221.382C241.097 221.675 241.819 221.807 242.543 221.767C245.48 221.622 248.294 220.537 250.569 218.675C253.379 216.614 257.103 212.696 261.74 206.923L260.177 205.556L255.926 209.723C255.286 210.331 254.738 210.841 254.281 211.253C253.824 211.665 253.413 212.023 253.046 212.327L251.881 213.238C251.329 213.671 250.745 214.062 250.136 214.41C249.742 214.646 249.295 214.781 248.836 214.801C248.398 214.813 247.97 214.663 247.636 214.38C247.462 214.208 247.328 213.999 247.244 213.769C247.159 213.539 247.127 213.293 247.148 213.049C247.148 212.098 247.951 208.293 249.557 201.633C250.538 197.945 251.728 193.563 253.128 188.488L259.571 165.188C259.757 164.581 259.897 164.115 259.991 163.788C260.085 163.461 260.225 163.017 260.411 162.454C260.496 162.191 260.507 161.909 260.443 161.64C260.357 161.543 260.247 161.471 260.124 161.431C260.001 161.391 259.869 161.385 259.743 161.413L252.243 162.252C252.072 162.243 251.901 162.271 251.74 162.332C251.58 162.393 251.435 162.487 251.313 162.608C251.111 162.963 250.956 163.343 250.849 163.737L249.388 168.645L249.06 167.733C248.575 166.306 247.763 165.012 246.689 163.954C244.802 162.173 242.126 161.282 238.66 161.282L238.66 161.282ZM276.72 220.334C279.561 210.892 281.634 204.382 282.938 200.804C284.367 196.967 286.16 193.275 288.293 189.78C290.988 185.392 293.985 181.196 297.261 177.222C302.272 171.325 306.426 168.377 309.723 168.376C310.227 168.321 310.737 168.397 311.204 168.596C311.67 168.796 312.078 169.112 312.386 169.515C312.9 170.32 313.162 171.26 313.138 172.215C313.109 173.011 313.033 173.804 312.91 174.591C312.691 176.027 312.398 177.45 312.031 178.855L303.723 210.496C303.53 211.201 303.388 211.919 303.3 212.644C303.194 213.421 303.14 214.204 303.137 214.988C303.137 217.55 303.809 219.319 305.154 220.294C306.355 221.221 307.824 221.735 309.341 221.759C312.533 221.759 315.874 220.045 319.364 216.616C322.402 213.462 325.178 210.066 327.664 206.46L325.776 204.767C323.683 207.771 321.367 210.612 318.847 213.267C317.432 214.591 316.184 215.253 315.102 215.253C314.811 215.272 314.52 215.209 314.263 215.071C314.006 214.932 313.793 214.725 313.648 214.471C313.34 213.937 313.183 213.33 313.192 212.714C313.235 212.043 313.344 211.378 313.517 210.728C313.734 209.795 313.93 209.003 314.103 208.352L322.672 177.167C323.019 175.865 323.301 174.65 323.518 173.521C323.73 172.449 323.839 171.359 323.844 170.266C323.844 166.533 322.514 163.95 319.853 162.518C318.308 161.747 316.596 161.367 314.87 161.412C309.888 161.412 304.251 164.906 297.958 171.893C293.066 177.593 288.596 183.643 284.584 189.993L293.214 161.993C293.105 161.75 292.924 161.546 292.696 161.408L281.123 163.947C279.744 164.251 278.462 164.511 277.276 164.728C276.09 164.945 274.096 165.27 271.294 165.704L271.294 167.853C271.902 167.766 272.456 167.69 272.955 167.625C273.462 167.559 273.973 167.525 274.484 167.525C276.568 167.525 277.968 167.885 278.684 168.605C279.054 169.003 279.34 169.472 279.525 169.984C279.71 170.495 279.789 171.039 279.758 171.582C279.763 172.362 279.686 173.141 279.53 173.906C279.377 174.626 278.823 176.687 277.87 180.09L266.722 220.332L276.722 220.332Z" sodipodi:nodetypes="cccccccccccccccccccccccccccccccccccccccccccccccccccccccccccccccccccccccccccccccccccccccccccccccccccccccccccccccccccccccccccccccccccccccccccccccccccccccccccccccccccccccccccccccccccccccccccccccccccccccccccccccccccccccccccccccccccccccccccccccccccccccccccccccccccccccccccccccccccccccccccccccccccccccccccccccc"/>
</svg>
