<svg xmlns="http://www.w3.org/2000/svg" width="662.563" height="96.906" viewBox="0 0 662.563 96.906">
  <metadata><?xpacket begin="﻿" id="W5M0MpCehiHzreSzNTczkc9d"?>
<x:xmpmeta xmlns:x="adobe:ns:meta/" x:xmptk="Adobe XMP Core 5.6-c138 79.159824, 2016/09/14-01:09:01        ">
   <rdf:RDF xmlns:rdf="http://www.w3.org/1999/02/22-rdf-syntax-ns#">
      <rdf:Description rdf:about=""/>
   </rdf:RDF>
</x:xmpmeta>
                                                                                                    
                                                                                                    
                                                                                                    
                                                                                                    
                                                                                                    
                                                                                                    
                                                                                                    
                                                                                                    
                                                                                                    
                                                                                                    
                                                                                                    
                                                                                                    
                                                                                                    
                                                                                                    
                                                                                                    
                                                                                                    
                                                                                                    
                                                                                                    
                                                                                                    
                                                                                                    
                           
<?xpacket end="w"?></metadata>
<defs>
    <style>
      .cls-1 {
        fill: #1b1c20;
        fill-rule: evenodd;
      }
    </style>
  </defs>
  <path id="MihaiBrunea_" data-name="MihaiBrunea  " class="cls-1" d="M214.31,274.71h10.8v-78.4h0.266s2.4,7.2,4.267,12l26.133,66.4h9.2l26.133-66.4c1.733-4.533,4.266-12,4.266-12h0.267v78.4h11.466V179.378h-15.6l-30.666,79.2h-0.266l-30.933-79.2H214.31V274.71Zm107.425,0h10.8V205.777h-10.8V274.71Zm0-82h10.8V179.378h-10.8v13.333Zm33.625-13.333h-10.8V274.71h10.8v-42.4c0-11.333,8-19.066,18.933-19.066,9.734,0,15.6,5.067,15.6,14V274.71h10.8v-48.4c0-14.267-8.8-22.133-23.2-22.133-10,0-16.933,4.133-21.866,10.666H355.36V179.378Zm111.48,96a14.784,14.784,0,0,0,5.866-1.066v-7.867h-0.4c-6,1.334-7.333-1.733-7.333-7.333v-32.8c0-16.4-10.8-21.867-25.466-21.867-18.267,0-27.067,10-27.467,23.333h10.4c0.4-10.4,6-15.2,17.2-15.2,9.867,0,15.466,4.4,15.466,12.134,0,7.466-6.8,8.4-16.533,9.866-17.2,2.667-30,6-30,22.266,0,13.067,10.266,19.2,23.333,19.2,11.733,0,18.8-5.6,22.933-10.933h0.133C456.04,272.176,459.773,275.376,466.84,275.376Zm-32.533-7.6c-7.067,0-14.267-2-14.267-11.2,0-10.133,8.667-12,19.467-14,5.866-1.067,12.133-2.8,15.733-5.067v11.733C455.24,257.243,448.707,267.777,434.307,267.777Zm44.386,6.933h10.8V205.777h-10.8V274.71Zm0-82h10.8V179.378h-10.8v13.333Zm50.28,33.561,8.61-30.859a4.429,4.429,0,0,1,2.113-2.9q1.53-.813,5.887-0.814,6.828,0,11.023,3.092t4.2,10.58q0,13.152-9.893,18.1-5.777,2.865-16.094,2.864Zm-1.116,44.206a17.954,17.954,0,0,1-5.925-.716,4.609,4.609,0,0,1-3.32-4.753,11.169,11.169,0,0,1,.2-1.985,20.777,20.777,0,0,1,.521-2.181l8.428-30.209q13.8,0.2,18.342,2.214,7.151,3.32,7.151,14.127a24.155,24.155,0,0,1-6.121,16.6q-6.12,6.9-19.271,6.9h0Zm-33.2,4.232H531.5q16.861,0,26.563-7.357t9.7-18.294q0-9.7-6.184-15.365-3.45-3.124-10.349-5.729,8.917-1.953,13.93-5.013,9.178-5.664,9.179-15.885,0-12.306-11.26-17.058a48.1,48.1,0,0,0-15.49-2.278H513.164v2.148q5.99,0.132,8.171,1.367t2.181,4.623a23.346,23.346,0,0,1-.651,4.427q-0.327,1.238-.939,3.448L505.59,262.731q-1.758,6.186-4.492,8.138-1.758,1.3-6.446,1.692v2.149Zm108.384-59.245q-0.326,0-6.351,1.172t-11.106,2.213l-2.6.521v2.149q1.627-.2,2.8-0.326a18.452,18.452,0,0,1,1.953-.13,4.515,4.515,0,0,1,3.385,1.042,4.215,4.215,0,0,1,.977,2.994,22.41,22.41,0,0,1-.554,4.362q-0.553,2.672-1.464,6.055L579.216,274.71h10q2.952-9.568,4.724-14.778,2.8-8.267,5.083-13.281a106.547,106.547,0,0,1,8.571-15.366q4.789-7.095,7.331-7.1a1.6,1.6,0,0,1,.879.228,2.1,2.1,0,0,1,.616.618l0.781,1.433a5.866,5.866,0,0,0,1.623,1.823,5.04,5.04,0,0,0,3.054.781,5.727,5.727,0,0,0,4.58-1.921,7.162,7.162,0,0,0,1.657-4.85,7.078,7.078,0,0,0-1.659-4.622,5.764,5.764,0,0,0-4.717-2.019q-5.661,0-11.94,7.587a91.212,91.212,0,0,0-10.963,16.767l-1.509,3.008,6.635-25.391c0.041-.221.08-0.553,0.121-0.994a1.486,1.486,0,0,0-.228-0.814,0.89,0.89,0,0,0-.814-0.358h0Zm28.56,48.822q-0.327,1.5-.456,2.346a15.1,15.1,0,0,0-.13,2.213q0,4.691,3.415,6.515a8.529,8.529,0,0,0,3.948.911q8.028,0,17.043-10.819,5.2-6.306,14.278-21.506l0.477-.006-1.7,6.126q-1.885,6.85-3.1,11.417a40.834,40.834,0,0,0-1.042,4.54,23.271,23.271,0,0,0-.325,3.7,6.074,6.074,0,0,0,1.812,4.865,6.894,6.894,0,0,0,4.653,1.556q5.486,0,11.876-7.169a54.953,54.953,0,0,0,6.2-8.528l-1.856-1.237q-2.355,2.929-3.5,4.362-1.846,2.343-2.547,3.06a22.421,22.421,0,0,1-2.547,2.311,3.359,3.359,0,0,1-1.974.749,1.467,1.467,0,0,1-1.347-.619,2.687,2.687,0,0,1-.39-1.465,8.4,8.4,0,0,1,.255-1.823q0.257-1.106.576-2.408l12.8-46.217h-9.821q-3.952,10.953-6.061,15.971a107.015,107.015,0,0,1-7.513,14.666,115.111,115.111,0,0,1-10.378,14.211q-5.832,6.846-9.719,6.844a3.027,3.027,0,0,1-2.235-.847,3.165,3.165,0,0,1-.851-2.347,7.21,7.21,0,0,1,.2-1.3q0.195-.912.651-2.542l12.656-43.988,0.195-1.075a1.027,1.027,0,0,0-.2-0.767,0.577,0.577,0,0,0-.591-0.32l-10.478,1.953-9.686,1.888v1.823a20.661,20.661,0,0,1,6.217.619q1.66,0.619,1.66,3.418a6.549,6.549,0,0,1-.1,1.139c-0.065.369-.142,0.771-0.228,1.205ZM703.91,274.71q4.26-14.163,6.218-19.53a64.234,64.234,0,0,1,5.354-11.024A111.614,111.614,0,0,1,724.45,231.6q7.516-8.846,12.463-8.846a2.95,2.95,0,0,1,2.663,1.139,4.8,4.8,0,0,1,.752,2.7,20.214,20.214,0,0,1-.228,2.376,42.307,42.307,0,0,1-.879,4.264l-8.308,31.641a14.98,14.98,0,0,0-.423,2.148,17.934,17.934,0,0,0-.163,2.344q0,3.843,2.016,5.306a7.034,7.034,0,0,0,4.187,1.465q4.788,0,10.023-5.143a80.368,80.368,0,0,0,8.3-10.156l-1.888-1.693a72.76,72.76,0,0,1-6.929,8.5q-2.122,1.986-3.745,1.986a1.559,1.559,0,0,1-1.455-.782,3.416,3.416,0,0,1-.455-1.757,10.139,10.139,0,0,1,.325-1.986q0.326-1.4.586-2.376l8.568-31.185q0.52-1.953.847-3.646a17.319,17.319,0,0,0,.325-3.255q0-5.6-3.99-7.748a10.554,10.554,0,0,0-4.983-1.106q-7.473,0-16.913,10.481a154.577,154.577,0,0,0-13.374,18.1l8.631-28a1.322,1.322,0,0,0-.518-0.585l-11.573,2.539q-2.07.456-3.848,0.781t-5.981.976v2.149q0.911-.13,1.66-0.228a11.834,11.834,0,0,1,1.53-.1q3.124,0,4.2,1.08a4.032,4.032,0,0,1,1.075,2.977,11.322,11.322,0,0,1-.228,2.324q-0.229,1.08-1.66,6.184L693.915,274.71h10Zm56.6-17.3q0,9.105,5.209,13.983a17.164,17.164,0,0,0,12.109,4.877q9.766,0,19.466-6.966a41.039,41.039,0,0,0,8.4-7.617l-1.693-1.5a85.736,85.736,0,0,1-9.05,6.77,20.356,20.356,0,0,1-10.351,3.256,13.254,13.254,0,0,1-8.887-3.191q-3.744-3.189-3.743-8.919a20.538,20.538,0,0,1,.325-4q0.325-1.595,1.172-4.264l3.711-.455a57.7,57.7,0,0,0,23.079-8.154q10.971-6.66,10.971-16.019,0-4.612-3-6.952a12.778,12.778,0,0,0-8.073-2.339q-13.739,0-26.628,13.527-13.022,13.527-13.021,27.964h0Zm13.868-10.5q1.236-3.31,2.343-5.91a63.866,63.866,0,0,1,5.469-10.2,48.749,48.749,0,0,1,7.324-8.151q4.068-3.6,8.3-3.605a4.16,4.16,0,0,1,3.451,1.462,6.1,6.1,0,0,1,1.171,3.929q0,6.82-7.812,13.737T774.38,246.91h0Zm87.508-19.194q0,11.6-8.761,26.01-9.093,15.841-18.9,15.841a7.316,7.316,0,0,1-5.554-2.38q-2.242-2.379-2.241-7.6,0-10.363,8.092-24.706,9.21-16.3,19.933-16.3a7.1,7.1,0,0,1,5.263,2.217q2.171,2.217,2.171,6.909h0ZM853.8,215.66q-13.691,0-26.458,15.446-12.373,14.861-12.373,28.546,0,7.953,4.291,12.287a13.184,13.184,0,0,0,9.556,4.333,19.807,19.807,0,0,0,6.5-1.173,32.031,32.031,0,0,0,9.1-5.994,45.782,45.782,0,0,0,6.794-7.266q2.762-3.746,3.933-5.7-0.847,2.988-1.726,7.372a37.023,37.023,0,0,0-.879,6.722,6.589,6.589,0,0,0,1.336,4.221,4.575,4.575,0,0,0,3.811,1.689,13.747,13.747,0,0,0,8.026-3.092q4.215-3.092,11.17-11.752l-1.562-1.367-4.251,4.167q-0.96.912-1.645,1.53t-1.235,1.074l-1.165.911a14.379,14.379,0,0,1-1.745,1.172,2.767,2.767,0,0,1-1.3.391,1.777,1.777,0,0,1-1.2-.421,1.669,1.669,0,0,1-.488-1.331q0-1.426,2.409-11.416,1.47-5.532,3.571-13.145l6.442-23.3q0.28-.911.421-1.4t0.42-1.334a1.511,1.511,0,0,0,.031-0.814,0.721,0.721,0,0,0-.7-0.227l-7.5.839a1.236,1.236,0,0,0-.93.356,4.86,4.86,0,0,0-.463,1.129l-1.461,4.908-0.329-.912a9.665,9.665,0,0,0-2.37-3.779Q859,215.66,853.8,215.66h0Z" transform="translate(-214.312 -179.375)"/>
</svg>
