<svg xmlns="http://www.w3.org/2000/svg" width="569.782" height="222.813" viewBox="0 0 569.782 222.813">
  <metadata><?xpacket begin="﻿" id="W5M0MpCehiHzreSzNTczkc9d"?>
<x:xmpmeta xmlns:x="adobe:ns:meta/" x:xmptk="Adobe XMP Core 5.6-c138 79.159824, 2016/09/14-01:09:01        ">
   <rdf:RDF xmlns:rdf="http://www.w3.org/1999/02/22-rdf-syntax-ns#">
      <rdf:Description rdf:about=""/>
   </rdf:RDF>
</x:xmpmeta>
                                                                                                    
                                                                                                    
                                                                                                    
                                                                                                    
                                                                                                    
                                                                                                    
                                                                                                    
                                                                                                    
                                                                                                    
                                                                                                    
                                                                                                    
                                                                                                    
                                                                                                    
                                                                                                    
                                                                                                    
                                                                                                    
                                                                                                    
                                                                                                    
                                                                                                    
                                                                                                    
                           
<?xpacket end="w"?></metadata>
<defs>
    <style>
      .cls-1 {
        fill: #1b1c20;
        fill-rule: evenodd;
      }
    </style>
  </defs>
  <path id="Flaviu_Cacoveanu_" data-name="Flaviu Cacoveanu " class="cls-1" d="M354.718,280.71h12V235.777h43.866V225.644H366.718V195.911h52.666V185.378H354.718V280.71Zm72.292,0h10.8V185.378h-10.8V280.71Zm77.505,0.666a14.784,14.784,0,0,0,5.866-1.066v-7.867h-0.4c-6,1.334-7.333-1.733-7.333-7.333v-32.8c0-16.4-10.8-21.867-25.466-21.867-18.267,0-27.066,10-27.466,23.333h10.4c0.4-10.4,6-15.2,17.2-15.2,9.867,0,15.467,4.4,15.467,12.134,0,7.466-6.8,8.4-16.534,9.866-17.2,2.667-30,6-30,22.266,0,13.067,10.266,19.2,23.333,19.2,11.733,0,18.8-5.6,22.933-10.933h0.133C493.715,278.176,497.448,281.376,504.515,281.376Zm-32.533-7.6c-7.067,0-14.267-2-14.267-11.2,0-10.133,8.667-12,19.467-14,5.866-1.067,12.133-2.8,15.733-5.067v11.733C492.915,263.243,486.382,273.777,471.982,273.777Zm58.6,6.933h12l24.8-68.933h-11.2L541.648,255.51c-2,6-4.534,14.533-4.534,14.533h-0.266s-2.534-8.4-4.533-14.533l-14.267-43.733h-11.6Zm42.027,0h10.8V211.777h-10.8V280.71Zm0-82h10.8V185.378h-10.8v13.333Zm77.678,82V211.777h-10.8v42.4c0,10.933-7.066,19.2-18,19.2-9.733,0-15.467-5.2-15.467-14.134V211.777h-10.8V259.51c0,14.267,9.067,22.8,23.2,22.8,10,0,15.867-4.4,20.8-11.067h0.266v9.467h10.8ZM138.807,317.038q-23.373,0-39.713,18.75-14.909,17.058-14.909,37.239a36.942,36.942,0,0,0,8.919,24.61q8.919,10.546,25.586,10.547a39.917,39.917,0,0,0,20.28-5.306,57.789,57.789,0,0,0,16.5-14.551l-2.148-1.888q-8.074,7.749-13.086,10.742a36.223,36.223,0,0,1-18.62,4.948,20.536,20.536,0,0,1-16.081-7.031q-6.251-7.032-6.25-20.768a61.722,61.722,0,0,1,10.287-34.31q11.782-18.228,30.013-18.229,11.849,0,16.992,8.919,2.8,4.818,3.515,12.695l2.344,0.326,4.883-26.563h-2.734a5.9,5.9,0,0,1-1.628,2.214,5.55,5.55,0,0,1-3.385.781,57.942,57.942,0,0,1-8.2-1.563,56.152,56.152,0,0,0-12.565-1.562h0Zm72.955,41.678q0,11.6-8.76,26.01-9.095,15.841-18.9,15.841a7.318,7.318,0,0,1-5.554-2.38q-2.241-2.379-2.241-7.6,0-10.363,8.092-24.706,9.21-16.3,19.933-16.3a7.1,7.1,0,0,1,5.264,2.217q2.169,2.217,2.17,6.909h0Zm-8.087-12.056q-13.691,0-26.458,15.446-12.372,14.861-12.372,28.546,0,7.953,4.29,12.287a13.184,13.184,0,0,0,9.556,4.333,19.812,19.812,0,0,0,6.5-1.173,32.042,32.042,0,0,0,9.1-5.994,45.736,45.736,0,0,0,6.794-7.266q2.763-3.746,3.933-5.7-0.847,2.988-1.725,7.372a37.023,37.023,0,0,0-.879,6.722,6.588,6.588,0,0,0,1.335,4.221,4.576,4.576,0,0,0,3.811,1.689,13.745,13.745,0,0,0,8.026-3.092q4.215-3.092,11.171-11.752l-1.563-1.367-4.251,4.167q-0.96.912-1.645,1.53t-1.235,1.074l-1.165.911a14.379,14.379,0,0,1-1.745,1.172,2.764,2.764,0,0,1-1.3.391,1.78,1.78,0,0,1-1.205-.421,1.669,1.669,0,0,1-.488-1.331q0-1.426,2.409-11.416,1.472-5.532,3.571-13.145l6.443-23.3q0.279-.91.42-1.4t0.42-1.334a1.514,1.514,0,0,0,.032-0.814,0.722,0.722,0,0,0-.7-0.227l-7.5.839a1.233,1.233,0,0,0-.93.356,4.85,4.85,0,0,0-.464,1.129l-1.461,4.908-0.328-.912a9.678,9.678,0,0,0-2.371-3.779q-2.831-2.672-8.029-2.672h0Zm66.591,0.261q-13.866,0-25.781,12.37Q232.44,371.726,232.441,386.5q0,9.636,5.4,15.2t14.128,5.566a27.716,27.716,0,0,0,16.6-5.4,47.671,47.671,0,0,0,8.789-8.92l-1.888-1.432-0.456.521a38.475,38.475,0,0,1-8.691,7.389,18.373,18.373,0,0,1-9.734,2.9q-6.249,0-9.375-4.171t-3.125-11.538a45.394,45.394,0,0,1,7.715-25.031q7.716-11.928,18.2-11.929a8.5,8.5,0,0,1,4.264.814,2.338,2.338,0,0,1,1.335,1.986,7.626,7.626,0,0,1-1.074,2.539,7.631,7.631,0,0,0-1.075,3.645,4.839,4.839,0,0,0,1.628,3.711,5.732,5.732,0,0,0,4.037,1.5,6.014,6.014,0,0,0,6.119-6.421q0-3.372-3.515-6.939t-11.459-3.567h0Zm29.865,44.791q0-13.476,8.2-27.408,8.724-14.908,18.685-14.909a8.309,8.309,0,0,1,8.334,5.664,22.009,22.009,0,0,1,1.172,7.877q0,11.525-6.967,25.261-8.2,16.016-18.815,16.015-5.209,0-7.91-3.548a14.353,14.353,0,0,1-2.7-8.952h0Zm27.6-45.052q-14.388,0-26.757,13.347-12.11,13.022-12.11,27.278,0,9.441,5.4,14.649t14.388,5.208q14.257,0,26.823-13.8,12.174-13.281,12.174-27.083a21.9,21.9,0,0,0-4.492-13.77q-4.493-5.826-15.43-5.827h0Zm69.93,0.261a5.1,5.1,0,0,0-3.614,1.367,4.594,4.594,0,0,0-1.464,3.516q0,2.343,2.929,5.175t2.93,4.851q0,4.037-6.706,13.8a139.7,139.7,0,0,1-13.411,16.862l-2.149,2.278q-0.78-13.41-1.562-20.247a223.38,223.38,0,0,0-3.725-22.331,34.907,34.907,0,0,0-1.3-4.72q-0.52-1.269-1.431-1.009l-2.147.651q-0.39.132-6.636,1.5t-8.2,1.758v1.693q1.236-.131,2.181-0.195t1.661-.065q4.36,0,5.924,3.19t3.19,14.192q0.781,5.015,1.628,15.43T366.61,399.4a45.066,45.066,0,0,0,.195,5.078q0.325,2.668,1.3,2.669,3.255,0,19.727-20.9,17.383-22,17.383-30.8a9.618,9.618,0,0,0-1.953-5.924,6.578,6.578,0,0,0-5.6-2.6h0Zm9.407,41.491q0,9.105,5.209,13.983a17.164,17.164,0,0,0,12.109,4.877q9.765,0,19.466-6.966a41.039,41.039,0,0,0,8.4-7.617l-1.693-1.5a85.736,85.736,0,0,1-9.05,6.77,20.356,20.356,0,0,1-10.351,3.256,13.254,13.254,0,0,1-8.887-3.191q-3.744-3.189-3.743-8.919a20.538,20.538,0,0,1,.325-4q0.325-1.594,1.172-4.264l3.711-.455a57.7,57.7,0,0,0,23.079-8.154q10.969-6.66,10.97-16.019,0-4.612-2.994-6.952a12.778,12.778,0,0,0-8.073-2.339q-13.738,0-26.628,13.527-13.022,13.527-13.021,27.964h0Zm13.868-10.5q1.236-3.311,2.343-5.91a63.866,63.866,0,0,1,5.469-10.2,48.749,48.749,0,0,1,7.324-8.151q4.068-3.6,8.3-3.605a4.16,4.16,0,0,1,3.451,1.462A6.1,6.1,0,0,1,449,355.437q0,6.82-7.812,13.737T420.94,377.91h0Zm87.508-19.194q0,11.6-8.761,26.01-9.093,15.841-18.9,15.841a7.316,7.316,0,0,1-5.554-2.38q-2.243-2.379-2.241-7.6,0-10.363,8.092-24.706,9.21-16.3,19.933-16.3a7.1,7.1,0,0,1,5.263,2.217q2.171,2.217,2.171,6.909h0Zm-8.087-12.056q-13.691,0-26.458,15.446-12.374,14.861-12.373,28.546,0,7.953,4.291,12.287a13.184,13.184,0,0,0,9.556,4.333,19.807,19.807,0,0,0,6.5-1.173,32.031,32.031,0,0,0,9.1-5.994,45.782,45.782,0,0,0,6.794-7.266q2.761-3.746,3.933-5.7-0.847,2.988-1.726,7.372a37.023,37.023,0,0,0-.879,6.722,6.589,6.589,0,0,0,1.336,4.221,4.575,4.575,0,0,0,3.811,1.689,13.747,13.747,0,0,0,8.026-3.092q4.215-3.092,11.17-11.752l-1.562-1.367-4.251,4.167q-0.96.912-1.645,1.53t-1.235,1.074l-1.165.911a14.458,14.458,0,0,1-1.745,1.172,2.767,2.767,0,0,1-1.3.391,1.777,1.777,0,0,1-1.2-.421,1.666,1.666,0,0,1-.488-1.331q0-1.426,2.409-11.416,1.47-5.532,3.571-13.145l6.442-23.3q0.281-.91.421-1.4c0.093-.326.232-0.77,0.42-1.334a1.511,1.511,0,0,0,.031-0.814,0.721,0.721,0,0,0-.7-0.227l-7.5.839a1.236,1.236,0,0,0-.93.356,4.86,4.86,0,0,0-.463,1.129l-1.461,4.908-0.329-.912a9.665,9.665,0,0,0-2.37-3.779q-2.831-2.672-8.029-2.672h0Zm38.062,59.05q4.26-14.163,6.218-19.53A64.234,64.234,0,0,1,550,375.156a111.486,111.486,0,0,1,8.968-12.553q7.517-8.845,12.463-8.846a2.951,2.951,0,0,1,2.663,1.139,4.8,4.8,0,0,1,.752,2.7,20.214,20.214,0,0,1-.228,2.376,42.307,42.307,0,0,1-.879,4.264l-8.308,31.641a14.98,14.98,0,0,0-.423,2.148,17.934,17.934,0,0,0-.163,2.344q0,3.843,2.016,5.306a7.034,7.034,0,0,0,4.187,1.465q4.788,0,10.023-5.143a80.368,80.368,0,0,0,8.3-10.156l-1.888-1.693a72.866,72.866,0,0,1-6.929,8.5q-2.124,1.986-3.745,1.986a1.559,1.559,0,0,1-1.455-.782,3.416,3.416,0,0,1-.455-1.757,10.139,10.139,0,0,1,.325-1.986q0.326-1.4.586-2.376l8.568-31.185q0.521-1.953.847-3.646a17.319,17.319,0,0,0,.325-3.255q0-5.6-3.99-7.748a10.554,10.554,0,0,0-4.983-1.106q-7.473,0-16.913,10.481a154.577,154.577,0,0,0-13.374,18.1l8.631-28a1.322,1.322,0,0,0-.518-0.585l-11.573,2.539q-2.07.456-3.848,0.781t-5.981.976v2.149q0.91-.13,1.66-0.228a11.834,11.834,0,0,1,1.53-.1q3.125,0,4.2,1.08a4.036,4.036,0,0,1,1.075,2.977,11.322,11.322,0,0,1-.228,2.324q-0.23,1.08-1.66,6.184L528.428,405.71h10Zm58.606-10.423q-0.327,1.5-.456,2.346a15.1,15.1,0,0,0-.13,2.213q0,4.691,3.415,6.515a8.526,8.526,0,0,0,3.948.911q8.028,0,17.043-10.819,5.2-6.306,14.278-21.506l0.477-.006-1.7,6.126q-1.885,6.851-3.1,11.417a40.834,40.834,0,0,0-1.042,4.54,23.271,23.271,0,0,0-.325,3.7,6.074,6.074,0,0,0,1.812,4.865,6.894,6.894,0,0,0,4.653,1.556q5.486,0,11.876-7.169a54.953,54.953,0,0,0,6.2-8.528l-1.856-1.237q-2.355,2.929-3.5,4.362-1.846,2.343-2.547,3.06a22.421,22.421,0,0,1-2.547,2.311,3.359,3.359,0,0,1-1.974.749,1.467,1.467,0,0,1-1.347-.619,2.687,2.687,0,0,1-.39-1.465,8.4,8.4,0,0,1,.255-1.823q0.256-1.106.576-2.408l12.8-46.217H643.62q-3.952,10.953-6.062,15.971a106.9,106.9,0,0,1-7.512,14.666,115.111,115.111,0,0,1-10.378,14.211q-5.832,6.846-9.719,6.844a3.027,3.027,0,0,1-2.235-.847,3.165,3.165,0,0,1-.851-2.347,7.21,7.21,0,0,1,.195-1.3q0.195-.912.651-2.542l12.656-43.988,0.195-1.075a1.027,1.027,0,0,0-.2-0.767,0.577,0.577,0,0,0-.591-0.32l-10.478,1.953-9.686,1.888v1.823a20.661,20.661,0,0,1,6.217.619q1.66,0.62,1.66,3.418a6.549,6.549,0,0,1-.1,1.139c-0.065.369-.142,0.771-0.228,1.2Z" transform="translate(-84.188 -185.375)"/>
</svg>
