<svg xmlns="http://www.w3.org/2000/svg" width="794.095" height="122.813" viewBox="0 0 794.095 122.813">
  <metadata><?xpacket begin="﻿" id="W5M0MpCehiHzreSzNTczkc9d"?>
<x:xmpmeta xmlns:x="adobe:ns:meta/" x:xmptk="Adobe XMP Core 5.6-c138 79.159824, 2016/09/14-01:09:01        ">
   <rdf:RDF xmlns:rdf="http://www.w3.org/1999/02/22-rdf-syntax-ns#">
      <rdf:Description rdf:about=""/>
   </rdf:RDF>
</x:xmpmeta>
                                                                                                    
                                                                                                    
                                                                                                    
                                                                                                    
                                                                                                    
                                                                                                    
                                                                                                    
                                                                                                    
                                                                                                    
                                                                                                    
                                                                                                    
                                                                                                    
                                                                                                    
                                                                                                    
                                                                                                    
                                                                                                    
                                                                                                    
                                                                                                    
                                                                                                    
                                                                                                    
                           
<?xpacket end="w"?></metadata>
<defs>
    <style>
      .cls-1 {
        fill: #1b1c20;
        fill-rule: evenodd;
      }
    </style>
  </defs>
  <path id="DianaCepleanu_" data-name="DianaCepleanu  " class="cls-1" d="M209.873,603.71h33.733c28.666,0,43.2-18.8,43.2-47.333s-13.6-48-42.266-48H209.873V603.71Zm12-10.533v-74.4h22.266c22.4,0,30.4,15.2,30.4,37.6s-8.933,36.8-31.333,36.8H221.873Zm76.4,10.533h10.8V534.777h-10.8V603.71Zm0-82h10.8V508.378h-10.8v13.333ZM375.6,604.376a14.784,14.784,0,0,0,5.866-1.066v-7.867h-0.4c-6,1.334-7.333-1.733-7.333-7.333v-32.8c0-16.4-10.8-21.867-25.466-21.867-18.267,0-27.067,10-27.466,23.333h10.4c0.4-10.4,6-15.2,17.2-15.2,9.867,0,15.466,4.4,15.466,12.134,0,7.466-6.8,8.4-16.533,9.866-17.2,2.667-30,6-30,22.266,0,13.067,10.266,19.2,23.333,19.2,11.733,0,18.8-5.6,22.933-10.933h0.133C364.8,601.176,368.537,604.376,375.6,604.376Zm-32.533-7.6c-7.067,0-14.267-2-14.267-11.2,0-10.133,8.667-12,19.467-14,5.866-1.067,12.133-2.8,15.733-5.067v11.733C364,586.243,357.471,596.777,343.071,596.777Zm55.253-62h-10.8V603.71h10.8v-42.4c0-11.333,8-19.066,18.933-19.066,9.733,0,15.6,5.067,15.6,14V603.71h10.8v-48.4c0-14.267-8.8-22.133-23.2-22.133-10,0-16.934,4.133-21.867,10.666h-0.266v-9.067Zm111.479,69.6a14.784,14.784,0,0,0,5.866-1.066v-7.867h-0.4c-6,1.334-7.333-1.733-7.333-7.333v-32.8c0-16.4-10.8-21.867-25.466-21.867-18.266,0-27.066,10-27.466,23.333h10.4c0.4-10.4,6-15.2,17.2-15.2,9.867,0,15.467,4.4,15.467,12.134,0,7.466-6.8,8.4-16.533,9.866-17.2,2.667-30,6-30,22.266,0,13.067,10.267,19.2,23.333,19.2,11.733,0,18.8-5.6,22.933-10.933h0.133C499,601.176,502.736,604.376,509.8,604.376Zm-32.533-7.6c-7.066,0-14.266-2-14.266-11.2,0-10.133,8.666-12,19.466-14,5.867-1.067,12.133-2.8,15.733-5.067v11.733C498.2,586.243,491.67,596.777,477.27,596.777Zm98.686-81.739q-23.373,0-39.713,18.75-14.91,17.058-14.909,37.239a36.942,36.942,0,0,0,8.919,24.61q8.919,10.547,25.586,10.547a39.917,39.917,0,0,0,20.28-5.306,57.789,57.789,0,0,0,16.5-14.551l-2.148-1.888q-8.075,7.749-13.086,10.742a36.223,36.223,0,0,1-18.62,4.948,20.536,20.536,0,0,1-16.081-7.031q-6.25-7.032-6.25-20.768a61.722,61.722,0,0,1,10.287-34.31q11.783-18.228,30.013-18.229,11.848,0,16.992,8.919,2.8,4.818,3.515,12.695l2.344,0.326,4.883-26.563h-2.734a5.9,5.9,0,0,1-1.628,2.214,5.55,5.55,0,0,1-3.385.781,57.942,57.942,0,0,1-8.2-1.563,56.152,56.152,0,0,0-12.565-1.562h0Zm27.013,71.374q0,9.1,5.208,13.983a17.164,17.164,0,0,0,12.109,4.877q9.767,0,19.467-6.966a41.057,41.057,0,0,0,8.4-7.617l-1.693-1.5a85.854,85.854,0,0,1-9.049,6.77,20.362,20.362,0,0,1-10.352,3.256,13.249,13.249,0,0,1-8.886-3.191q-3.746-3.189-3.744-8.919a20.451,20.451,0,0,1,.326-4,43.972,43.972,0,0,1,1.171-4.264l3.711-.455a57.709,57.709,0,0,0,23.08-8.154q10.97-6.66,10.97-16.019,0-4.613-2.995-6.952a12.776,12.776,0,0,0-8.073-2.339q-13.737,0-26.627,13.527-13.023,13.527-13.021,27.964h0Zm13.867-10.5q1.236-3.31,2.344-5.91a63.776,63.776,0,0,1,5.468-10.2,48.755,48.755,0,0,1,7.325-8.151q4.068-3.6,8.3-3.6a4.159,4.159,0,0,1,3.451,1.462,6.1,6.1,0,0,1,1.172,3.929q0,6.821-7.813,13.737t-20.247,8.736h0Zm27.639,55.274H672.22v-1.953a23.457,23.457,0,0,1-6.706-.977q-1.693-.717-1.693-3.385a82.451,82.451,0,0,1,1.693-8.464q0.649-2.865,2.36-9.526l1.041-4a31.757,31.757,0,0,0,4.6,1.846,16.647,16.647,0,0,0,4.6.547q13.72,0,26.471-13.737,12.877-13.866,12.879-29.166,0-8.919-4.048-13.249t-11.137-4.329q-6.966,0-13.429,5.482A51.833,51.833,0,0,0,681,559.008l3.593-12q0.2-.588.489-1.767a0.574,0.574,0,0,0-.6-0.521l-21.092,3.06,0.13,2.149a8.843,8.843,0,0,1,1.237-.163c0.391-.021.8-0.033,1.237-0.033a8.506,8.506,0,0,1,4.655,1.049,3.579,3.579,0,0,1,1.6,3.213,11.584,11.584,0,0,1-.162,1.638,35.032,35.032,0,0,1-.814,3.41l-18,63.542a8.61,8.61,0,0,1-2.9,4.98,9.865,9.865,0,0,1-5.892,1.465v2.149Zm61-69.076q0,12.761-7.731,25.716-8.634,14.52-19.972,14.519a9.509,9.509,0,0,1-4.864-1.18,3.949,3.949,0,0,1-2.03-3.668q0-1.551,2.486-10.445t5.329-17.043q3.531-10.372,8.835-14.865t9.806-4.492a7.085,7.085,0,0,1,7.154,4.752,18.565,18.565,0,0,1,.987,6.706h0Zm20.049,27.736q-0.565,2.148-.918,3.775a24.546,24.546,0,0,0-.521,4.362q0,4.232,2.806,5.989a7.575,7.575,0,0,0,4.178,1.172q5.482,0,10.9-5.4a90.324,90.324,0,0,0,8.747-11.458l-1.758-1.237a69.8,69.8,0,0,1-6.382,8.073q-3.777,4.167-6.121,4.167a1.728,1.728,0,0,1-1.692-.879,4.532,4.532,0,0,1-.456-2.116,5.315,5.315,0,0,1,.13-1.172q0.129-.586.846-3.385l21.673-78.256a1.229,1.229,0,0,0-.917-0.651q-5.237,1.3-8.9,1.953-1.179.2-5.009,0.717t-6.774.911v2.149a31.083,31.083,0,0,1,7.076.423,2.446,2.446,0,0,1,1.778,2.7c0,0.347-.023.8-0.065,1.367a7.825,7.825,0,0,1-.326,1.692Zm31.548-3.432q0,9.1,5.208,13.983a17.164,17.164,0,0,0,12.109,4.877q9.766,0,19.466-6.966a41.039,41.039,0,0,0,8.4-7.617l-1.693-1.5a85.854,85.854,0,0,1-9.049,6.77,20.362,20.362,0,0,1-10.352,3.256,13.254,13.254,0,0,1-8.887-3.191q-3.744-3.189-3.743-8.919a20.538,20.538,0,0,1,.325-4q0.325-1.594,1.172-4.264l3.711-.455a57.709,57.709,0,0,0,23.08-8.154q10.969-6.66,10.97-16.019,0-4.613-3-6.952a12.778,12.778,0,0,0-8.073-2.339q-13.737,0-26.628,13.527-13.021,13.527-13.02,27.964h0Zm13.867-10.5q1.236-3.31,2.344-5.91a63.776,63.776,0,0,1,5.468-10.2,48.755,48.755,0,0,1,7.325-8.151q4.068-3.6,8.3-3.6a4.159,4.159,0,0,1,3.451,1.462A6.1,6.1,0,0,1,799,553.437q0,6.821-7.813,13.737T770.94,575.91h0Zm87.508-19.194q0,11.6-8.76,26.01-9.095,15.842-18.9,15.841a7.318,7.318,0,0,1-5.554-2.38q-2.241-2.379-2.241-7.6,0-10.364,8.092-24.706,9.21-16.3,19.933-16.3a7.1,7.1,0,0,1,5.263,2.217q2.17,2.217,2.171,6.909h0Zm-8.087-12.056q-13.69,0-26.458,15.446-12.374,14.861-12.372,28.546,0,7.953,4.29,12.287a13.184,13.184,0,0,0,9.556,4.333,19.812,19.812,0,0,0,6.5-1.173,32.042,32.042,0,0,0,9.1-5.994,45.736,45.736,0,0,0,6.794-7.266q2.761-3.746,3.933-5.7-0.848,2.988-1.725,7.372a37.023,37.023,0,0,0-.879,6.722,6.588,6.588,0,0,0,1.335,4.221,4.575,4.575,0,0,0,3.811,1.689,13.747,13.747,0,0,0,8.026-3.092q4.215-3.091,11.171-11.752l-1.563-1.367-4.251,4.167q-0.96.912-1.645,1.53t-1.235,1.074l-1.165.911a14.379,14.379,0,0,1-1.745,1.172,2.764,2.764,0,0,1-1.3.391,1.78,1.78,0,0,1-1.205-.421,1.669,1.669,0,0,1-.488-1.331q0-1.427,2.409-11.416,1.47-5.532,3.571-13.145l6.443-23.3q0.279-.911.42-1.4t0.42-1.334a1.5,1.5,0,0,0,.031-0.814,0.72,0.72,0,0,0-.695-0.227l-7.5.839a1.232,1.232,0,0,0-.929.356,4.806,4.806,0,0,0-.464,1.129l-1.461,4.908-0.329-.912a9.665,9.665,0,0,0-2.37-3.779q-2.83-2.671-8.029-2.672h0Zm38.062,59.05q4.262-14.163,6.218-19.53A64.169,64.169,0,0,1,900,573.156a111.359,111.359,0,0,1,8.968-12.553q7.516-8.845,12.462-8.846a2.949,2.949,0,0,1,2.663,1.139,4.8,4.8,0,0,1,.752,2.7,19.994,19.994,0,0,1-.228,2.376,41.752,41.752,0,0,1-.879,4.264l-8.308,31.641a14.98,14.98,0,0,0-.423,2.148,17.934,17.934,0,0,0-.163,2.344q0,3.843,2.017,5.306a7.029,7.029,0,0,0,4.187,1.465q4.788,0,10.023-5.143a80.47,80.47,0,0,0,8.3-10.156l-1.888-1.693a72.76,72.76,0,0,1-6.929,8.5q-2.122,1.986-3.745,1.986a1.557,1.557,0,0,1-1.454-.782,3.407,3.407,0,0,1-.456-1.757,10.218,10.218,0,0,1,.325-1.986q0.326-1.4.586-2.376l8.569-31.185q0.52-1.953.846-3.646a17.24,17.24,0,0,0,.326-3.255q0-5.6-3.991-7.748a10.554,10.554,0,0,0-4.983-1.106q-7.473,0-16.912,10.481a154.462,154.462,0,0,0-13.374,18.1l8.63-28a1.31,1.31,0,0,0-.518-0.585l-11.573,2.539q-2.068.456-3.847,0.781t-5.982.976v2.149q0.912-.13,1.66-0.228a11.845,11.845,0,0,1,1.53-.1q3.126,0,4.2,1.08a4.035,4.035,0,0,1,1.074,2.977,11.253,11.253,0,0,1-.228,2.324q-0.23,1.08-1.66,6.184L878.428,603.71h10Zm58.606-10.423q-0.325,1.5-.455,2.346a14.939,14.939,0,0,0-.131,2.213q0,4.69,3.415,6.515a8.529,8.529,0,0,0,3.948.911q8.028,0,17.043-10.819,5.2-6.306,14.278-21.506l0.478-.006-1.7,6.126q-1.887,6.851-3.1,11.417a40.834,40.834,0,0,0-1.042,4.54,23.271,23.271,0,0,0-.325,3.7,6.071,6.071,0,0,0,1.813,4.865,6.893,6.893,0,0,0,4.653,1.556q5.485,0,11.875-7.169a54.881,54.881,0,0,0,6.193-8.528l-1.85-1.237q-2.355,2.929-3.5,4.362-1.846,2.343-2.547,3.06a22.421,22.421,0,0,1-2.547,2.311,3.359,3.359,0,0,1-1.974.749,1.466,1.466,0,0,1-1.346-.619,2.679,2.679,0,0,1-.391-1.465,8.4,8.4,0,0,1,.255-1.823q0.256-1.106.576-2.408l12.8-46.217h-9.819q-3.954,10.953-6.062,15.971a106.9,106.9,0,0,1-7.513,14.666,115.111,115.111,0,0,1-10.378,14.211q-5.832,6.846-9.719,6.844a3.023,3.023,0,0,1-2.234-.847,3.162,3.162,0,0,1-.852-2.347,7.21,7.21,0,0,1,.195-1.3q0.2-.912.651-2.542l12.656-43.988,0.195-1.075a1.027,1.027,0,0,0-.2-0.767,0.577,0.577,0,0,0-.591-0.32l-10.478,1.953-9.686,1.888v1.823a20.669,20.669,0,0,1,6.218.619q1.659,0.62,1.66,3.418a6.548,6.548,0,0,1-.1,1.139q-0.1.553-.228,1.205Z" transform="translate(-209.875 -508.375)"/>
</svg>
