<svg xmlns="http://www.w3.org/2000/svg" width="751.688" height="222.813" viewBox="0 0 751.688 222.813">
  <metadata><?xpacket begin="﻿" id="W5M0MpCehiHzreSzNTczkc9d"?>
<x:xmpmeta xmlns:x="adobe:ns:meta/" x:xmptk="Adobe XMP Core 5.6-c138 79.159824, 2016/09/14-01:09:01        ">
   <rdf:RDF xmlns:rdf="http://www.w3.org/1999/02/22-rdf-syntax-ns#">
      <rdf:Description rdf:about=""/>
   </rdf:RDF>
</x:xmpmeta>
                                                                                                    
                                                                                                    
                                                                                                    
                                                                                                    
                                                                                                    
                                                                                                    
                                                                                                    
                                                                                                    
                                                                                                    
                                                                                                    
                                                                                                    
                                                                                                    
                                                                                                    
                                                                                                    
                                                                                                    
                                                                                                    
                                                                                                    
                                                                                                    
                                                                                                    
                                                                                                    
                           
<?xpacket end="w"?></metadata>
<defs>
    <style>
      .cls-1 {
        fill: #1b1c20;
        fill-rule: evenodd;
      }
    </style>
  </defs>
  <path id="ValentinaRusu_Ciobanu_" data-name="ValentinaRusu Ciobanu  " class="cls-1" d="M247.466,784.71h13.2l33.466-95.332H281.6L258.4,760.31c-1.467,4.267-3.733,12.8-3.733,12.8H254.4s-2.266-8.4-3.733-12.8L227.2,689.378H214.266Zm100.051,0.666a14.79,14.79,0,0,0,5.867-1.066v-7.867h-0.4c-6,1.334-7.333-1.733-7.333-7.333v-32.8c0-16.4-10.8-21.867-25.467-21.867-18.266,0-27.066,10-27.466,23.333h10.4c0.4-10.4,6-15.2,17.2-15.2,9.866,0,15.466,4.4,15.466,12.134,0,7.466-6.8,8.4-16.533,9.866-17.2,2.667-30,6-30,22.266,0,13.067,10.267,19.2,23.333,19.2,11.734,0,18.8-5.6,22.933-10.933h0.134C336.717,782.176,340.451,785.376,347.517,785.376Zm-32.533-7.6c-7.066,0-14.266-2-14.266-11.2,0-10.133,8.667-12,19.466-14,5.867-1.067,12.134-2.8,15.733-5.067v11.733C335.917,767.243,329.384,777.777,314.984,777.777Zm44.56,6.933h10.8V689.378h-10.8V784.71Zm52.918,1.866c15.6,0,26.4-8.4,29.6-23.2H431.529c-2.4,9.333-9.067,14.133-19.067,14.133-13.866,0-21.466-10.667-22.266-24.666h53.333c0-22.8-11.067-38.8-31.733-38.8-19.6,0-32.666,16.267-32.666,36.266S391.4,786.576,412.462,786.576Zm-0.666-64c12.4,0,19.466,8.4,20.133,22.133H390.463C392.063,732.177,399,722.577,411.8,722.577Zm50.852-6.8h-10.8V784.71h10.8v-42.4c0-11.333,8-19.066,18.933-19.066,9.733,0,15.6,5.067,15.6,14V784.71h10.8v-48.4c0-14.267-8.8-22.133-23.2-22.133-10,0-16.933,4.133-21.866,10.666h-0.267v-9.067Zm50.64,8.8h10v47.2c0,9.733,6.4,13.333,15.2,13.333a42.038,42.038,0,0,0,8.666-.934v-9.333h-0.4a20.5,20.5,0,0,1-5.733.934c-4.4,0-6.933-1.6-6.933-6.4v-44.8h13.333v-8.8H534.088V694.044h-10.8v21.733h-10v8.8ZM554.7,784.71h10.8V715.777H554.7V784.71Zm0-82h10.8V689.378H554.7v13.333Zm33.626,13.066h-10.8V784.71h10.8v-42.4c0-11.333,8-19.066,18.933-19.066,9.733,0,15.6,5.067,15.6,14V784.71h10.8v-48.4c0-14.267-8.8-22.133-23.2-22.133-10,0-16.933,4.133-21.866,10.666h-0.267v-9.067Zm111.479,69.6a14.79,14.79,0,0,0,5.867-1.066v-7.867h-0.4c-6,1.334-7.333-1.733-7.333-7.333v-32.8c0-16.4-10.8-21.867-25.467-21.867-18.266,0-27.066,10-27.466,23.333h10.4c0.4-10.4,6-15.2,17.2-15.2,9.866,0,15.466,4.4,15.466,12.134,0,7.466-6.8,8.4-16.533,9.866-17.2,2.667-30,6-30,22.266,0,13.067,10.266,19.2,23.332,19.2,11.734,0,18.8-5.6,22.933-10.933h0.134C689.005,782.176,692.739,785.376,699.805,785.376Zm-32.533-7.6c-7.066,0-14.266-2-14.266-11.2,0-10.133,8.667-12,19.466-14,5.867-1.067,12.134-2.8,15.733-5.067v11.733C688.205,767.243,681.672,777.777,667.272,777.777Zm74.812-41.9,8.5-30.476a4.167,4.167,0,0,1,2.156-2.924,10.824,10.824,0,0,1,4.182-.65q7.513,0,12.285,2.99t4.771,11.372q0,11.048-6.985,15.693t-17.053,4.646q-1.235,0-2.273-.1t-5.587-.553h0ZM707.768,784.71h32.743v-2.149q-4.818-.2-6.966-1.367t-2.149-4.232a26.552,26.552,0,0,1,.652-4.948q0.39-1.562.878-3.313l7.488-27.806,8.7,0.651,16.406,43.164h19.727v-2.149q-4.625-.2-6.966-2.474a19.442,19.442,0,0,1-4.167-7.1l-12.35-32.674q10.175-2.213,15.848-5.665,10.434-6.381,10.434-17.972,0-12.112-11.992-16.606a46.026,46.026,0,0,0-15.839-2.343H727.169v2.148a18.852,18.852,0,0,1,7.161,1.4,4.281,4.281,0,0,1,2.214,4.192,20.906,20.906,0,0,1-.488,4.128q-0.489,2.373-1.01,4.127l-16.341,59.007q-1.758,6.186-4.492,8.138-1.758,1.3-6.445,1.692v2.149Zm86.173-10.423q-0.325,1.5-.456,2.346a15.1,15.1,0,0,0-.13,2.213q0,4.69,3.415,6.515a8.529,8.529,0,0,0,3.948.911q8.028,0,17.043-10.819,5.2-6.306,14.278-21.506l0.477-.006-1.7,6.126q-1.887,6.851-3.1,11.417a40.834,40.834,0,0,0-1.042,4.54,23.271,23.271,0,0,0-.325,3.7,6.071,6.071,0,0,0,1.813,4.865,6.89,6.89,0,0,0,4.652,1.556q5.487,0,11.876-7.169a54.953,54.953,0,0,0,6.2-8.528l-1.855-1.237q-2.357,2.929-3.5,4.362-1.846,2.343-2.547,3.06a22.421,22.421,0,0,1-2.547,2.311,3.359,3.359,0,0,1-1.974.749,1.467,1.467,0,0,1-1.347-.619,2.687,2.687,0,0,1-.39-1.465,8.4,8.4,0,0,1,.255-1.823q0.257-1.106.576-2.408l12.8-46.217h-9.821q-3.952,10.953-6.061,15.971a107.015,107.015,0,0,1-7.513,14.666,115.111,115.111,0,0,1-10.378,14.211q-5.832,6.846-9.719,6.844a3.027,3.027,0,0,1-2.235-.847,3.165,3.165,0,0,1-.851-2.347,7.21,7.21,0,0,1,.2-1.3q0.2-.912.651-2.542l12.656-43.988,0.195-1.075a1.027,1.027,0,0,0-.2-0.767,0.577,0.577,0,0,0-.591-0.32l-10.478,1.953L796.52,729.5v1.823a20.661,20.661,0,0,1,6.217.619q1.661,0.62,1.661,3.418a6.548,6.548,0,0,1-.1,1.139q-0.1.553-.228,1.205ZM855.293,786.6h2.148a5.46,5.46,0,0,1,1.139-1.758,2.71,2.71,0,0,1,1.921-.586,49.69,49.69,0,0,1,5.729,1.107,37.8,37.8,0,0,0,7.617,1.107,22.054,22.054,0,0,0,14.258-4.818q5.989-4.818,5.99-11.849a16.625,16.625,0,0,0-1.5-7.031,58.839,58.839,0,0,0-5.078-8.4l-4.622-6.64a71.057,71.057,0,0,1-4.59-7.162,10.331,10.331,0,0,1-1.009-4.687,6.3,6.3,0,0,1,2.246-5.241,7.979,7.979,0,0,1,5.111-1.791,10.432,10.432,0,0,1,9.895,5.925,29.421,29.421,0,0,1,2.539,9.5h2.149l2.669-18.489h-1.888a6.609,6.609,0,0,1-1.432,1.757,3.711,3.711,0,0,1-2.409.651,24.492,24.492,0,0,1-5.6-1.2,26.252,26.252,0,0,0-7.292-1.2q-7.486,0-11.556,4.329a14.157,14.157,0,0,0-4.069,9.993,16.237,16.237,0,0,0,1.888,7.422q1.236,2.475,6.12,9.766l5.4,8.008a15.068,15.068,0,0,1,1.725,3.32,13.542,13.542,0,0,1,.684,4.688,10.236,10.236,0,0,1-2.7,7.421,8.9,8.9,0,0,1-6.673,2.8q-7.1,0-10.677-6.706-1.955-3.645-3.386-11.523H857.9Zm53.736-12.311q-0.327,1.5-.456,2.346a15.1,15.1,0,0,0-.13,2.213q0,4.69,3.415,6.515a8.529,8.529,0,0,0,3.948.911q8.028,0,17.043-10.819,5.2-6.306,14.278-21.506l0.477-.006-1.7,6.126q-1.887,6.851-3.1,11.417a40.834,40.834,0,0,0-1.042,4.54,23.271,23.271,0,0,0-.325,3.7,6.071,6.071,0,0,0,1.813,4.865,6.89,6.89,0,0,0,4.652,1.556q5.486,0,11.876-7.169a54.953,54.953,0,0,0,6.2-8.528l-1.856-1.237q-2.355,2.929-3.5,4.362-1.846,2.343-2.547,3.06a22.421,22.421,0,0,1-2.547,2.311,3.359,3.359,0,0,1-1.974.749,1.467,1.467,0,0,1-1.347-.619,2.687,2.687,0,0,1-.39-1.465,8.4,8.4,0,0,1,.255-1.823q0.256-1.106.576-2.408l12.8-46.217H955.62q-3.952,10.953-6.061,15.971a107.015,107.015,0,0,1-7.513,14.666,115.111,115.111,0,0,1-10.378,14.211q-5.832,6.846-9.719,6.844a3.027,3.027,0,0,1-2.235-.847,3.165,3.165,0,0,1-.851-2.347,7.21,7.21,0,0,1,.195-1.3q0.195-.912.651-2.542l12.656-43.988,0.195-1.075a1.027,1.027,0,0,0-.2-0.767,0.577,0.577,0,0,0-.591-0.32l-10.478,1.953-9.686,1.888v1.823a20.661,20.661,0,0,1,6.217.619q1.66,0.62,1.661,3.418a6.548,6.548,0,0,1-.1,1.139c-0.065.369-.142,0.771-0.228,1.205ZM583.942,821.038q-23.373,0-39.713,18.75-14.91,17.058-14.909,37.239a36.942,36.942,0,0,0,8.919,24.61q8.919,10.547,25.586,10.547a39.917,39.917,0,0,0,20.28-5.306,57.8,57.8,0,0,0,16.5-14.551l-2.149-1.888q-8.073,7.749-13.086,10.742a36.22,36.22,0,0,1-18.619,4.948,20.535,20.535,0,0,1-16.081-7.031q-6.251-7.032-6.25-20.768a61.729,61.729,0,0,1,10.286-34.31q11.784-18.228,30.013-18.229,11.849,0,16.993,8.919,2.8,4.818,3.515,12.695l2.344,0.326,4.883-26.563h-2.735a5.887,5.887,0,0,1-1.627,2.214,5.551,5.551,0,0,1-3.386.781,57.966,57.966,0,0,1-8.2-1.563,56.152,56.152,0,0,0-12.565-1.562h0Zm52.105,15.43a6.076,6.076,0,0,0,4.59-2.051,7.1,7.1,0,0,0,1.92-5.046,7.223,7.223,0,0,0-1.92-5.078,6.036,6.036,0,0,0-4.59-2.083,5.933,5.933,0,0,0-4.557,2.083,7.286,7.286,0,0,0-1.888,5.078,7.2,7.2,0,0,0,1.888,5.013,5.927,5.927,0,0,0,4.557,2.084h0ZM634.5,851.116q-2.778.651-5.879,1.172-2.389.39-4.747,0.749t-7.72,1.009v2.148a26.689,26.689,0,0,1,6.795.554q1.722,0.553,1.723,2.9a6.685,6.685,0,0,1-.13,1.3c-0.088.434-.2,0.911-0.326,1.432l-9.268,33.464q-0.717,2.735-.976,4.134a18.15,18.15,0,0,0-.261,3.287,8.646,8.646,0,0,0,1.856,5.534,5.7,5.7,0,0,0,4.655,2.344q4.75,0,9.766-4.687a70,70,0,0,0,8.073-9.831l0.651-.912-1.692-1.432a73.5,73.5,0,0,1-5.274,6.511q-3.647,3.841-5.86,3.841a1.56,1.56,0,0,1-1.628-.782,3.484,3.484,0,0,1-.391-1.692,31.2,31.2,0,0,1,.912-4.427l13.145-46.485a0.518,0.518,0,0,0-.291-0.553Q637.282,850.465,634.5,851.116Zm22.187,44.6q0-13.476,8.2-27.408,8.722-14.908,18.685-14.909a8.309,8.309,0,0,1,8.333,5.664,22.009,22.009,0,0,1,1.172,7.877q0,11.524-6.966,25.261-8.2,16.016-18.815,16.015-5.209,0-7.91-3.548a14.346,14.346,0,0,1-2.7-8.952h0Zm27.6-45.052q-14.389,0-26.758,13.347-12.11,13.022-12.109,27.278,0,9.441,5.4,14.649t14.388,5.208q14.259,0,26.823-13.8,12.174-13.281,12.175-27.083a21.9,21.9,0,0,0-4.492-13.77q-4.492-5.826-15.43-5.827h0ZM709.6,903.59q-0.457,1.758,5.143,4.687a25.677,25.677,0,0,0,12.3,3q14.712,0,28.449-13.737,14.127-14.125,14.128-30.338a16.7,16.7,0,0,0-4.3-11.686,14.718,14.718,0,0,0-11.425-4.72q-7.573,0-14.692,6.575a78.292,78.292,0,0,0-9.9,12.109l13.292-49.218,0.13-.847a0.99,0.99,0,0,0-.294-0.781,0.928,0.928,0,0,0-.621-0.26,26.536,26.536,0,0,0-5.008.781q-3.5.782-3.96,0.846-4.191.653-6.645,0.912t-4.549.586v2.278q3.579,0.2,4.655.261a8.067,8.067,0,0,1,1.53.195,3.073,3.073,0,0,1,1.985,1.27,3.565,3.565,0,0,1,.424,1.66,14.035,14.035,0,0,1-.163,1.92,21.526,21.526,0,0,1-.553,2.572Zm18.209,4.622q-3.5,0-5.123-1.53a5.326,5.326,0,0,1-1.622-4.069q0-10.611,8.173-26.692,9.4-18.489,19.718-18.49a8.517,8.517,0,0,1,6.68,3.027,11.845,11.845,0,0,1,2.661,8.106q0,11.2-9.016,24.674-9.99,14.976-21.471,14.974h0Zm92.638-45.5q0,11.6-8.761,26.01-9.093,15.842-18.9,15.841a7.316,7.316,0,0,1-5.554-2.38q-2.243-2.379-2.241-7.6,0-10.364,8.092-24.706,9.21-16.3,19.933-16.3a7.1,7.1,0,0,1,5.263,2.217q2.17,2.217,2.171,6.909h0Zm-8.087-12.056q-13.69,0-26.458,15.446-12.374,14.861-12.373,28.546,0,7.953,4.291,12.287a13.184,13.184,0,0,0,9.556,4.333,19.807,19.807,0,0,0,6.5-1.173,32.031,32.031,0,0,0,9.1-5.994,45.782,45.782,0,0,0,6.794-7.266q2.761-3.746,3.933-5.7-0.848,2.988-1.726,7.372a37.023,37.023,0,0,0-.879,6.722,6.589,6.589,0,0,0,1.336,4.221,4.575,4.575,0,0,0,3.811,1.689,13.747,13.747,0,0,0,8.026-3.092q4.215-3.091,11.17-11.752l-1.562-1.367-4.251,4.167q-0.96.912-1.645,1.53t-1.235,1.074l-1.165.911a14.458,14.458,0,0,1-1.745,1.172,2.767,2.767,0,0,1-1.3.391,1.777,1.777,0,0,1-1.2-.421,1.666,1.666,0,0,1-.488-1.331q0-1.427,2.409-11.416,1.47-5.532,3.571-13.145l6.442-23.3q0.281-.911.421-1.4c0.093-.326.232-0.77,0.42-1.334a1.511,1.511,0,0,0,.031-0.814,0.721,0.721,0,0,0-.7-0.227l-7.5.839a1.236,1.236,0,0,0-.93.356,4.86,4.86,0,0,0-.463,1.129l-1.461,4.908-0.329-.912a9.665,9.665,0,0,0-2.37-3.779q-2.83-2.671-8.029-2.672h0Zm38.062,59.05q4.26-14.163,6.218-19.53A64.234,64.234,0,0,1,862,879.156a111.486,111.486,0,0,1,8.968-12.553q7.517-8.845,12.463-8.846a2.951,2.951,0,0,1,2.663,1.139,4.8,4.8,0,0,1,.752,2.7,20.214,20.214,0,0,1-.228,2.376,42.307,42.307,0,0,1-.879,4.264l-8.308,31.641a14.98,14.98,0,0,0-.423,2.148,17.934,17.934,0,0,0-.163,2.344q0,3.843,2.016,5.306a7.034,7.034,0,0,0,4.187,1.465q4.788,0,10.023-5.143a80.368,80.368,0,0,0,8.3-10.156l-1.888-1.693a72.866,72.866,0,0,1-6.929,8.5q-2.124,1.986-3.745,1.986a1.559,1.559,0,0,1-1.455-.782,3.416,3.416,0,0,1-.455-1.757,10.139,10.139,0,0,1,.325-1.986q0.326-1.4.586-2.376l8.568-31.185q0.521-1.953.847-3.646a17.319,17.319,0,0,0,.325-3.255q0-5.6-3.99-7.748a10.554,10.554,0,0,0-4.983-1.106q-7.473,0-16.913,10.481a154.577,154.577,0,0,0-13.374,18.1l8.631-28a1.322,1.322,0,0,0-.518-0.585l-11.573,2.539q-2.07.456-3.848,0.781t-5.981.976v2.149q0.91-.13,1.66-0.228a11.834,11.834,0,0,1,1.53-.1q3.125,0,4.2,1.08a4.036,4.036,0,0,1,1.075,2.977,11.322,11.322,0,0,1-.228,2.324q-0.23,1.08-1.66,6.184L840.428,909.71h10Zm58.606-10.423q-0.327,1.5-.456,2.346a15.1,15.1,0,0,0-.13,2.213q0,4.69,3.415,6.515a8.526,8.526,0,0,0,3.948.911q8.028,0,17.043-10.819,5.2-6.306,14.278-21.506l0.477-.006-1.7,6.126q-1.885,6.851-3.1,11.417a40.834,40.834,0,0,0-1.042,4.54,23.271,23.271,0,0,0-.325,3.7,6.074,6.074,0,0,0,1.812,4.865,6.894,6.894,0,0,0,4.653,1.556q5.486,0,11.876-7.169a54.953,54.953,0,0,0,6.2-8.528l-1.856-1.237q-2.355,2.929-3.5,4.362-1.846,2.343-2.547,3.06a22.421,22.421,0,0,1-2.547,2.311,3.359,3.359,0,0,1-1.974.749,1.467,1.467,0,0,1-1.347-.619,2.687,2.687,0,0,1-.39-1.465,8.4,8.4,0,0,1,.255-1.823q0.256-1.106.576-2.408l12.8-46.217H955.62q-3.952,10.953-6.062,15.971a106.9,106.9,0,0,1-7.512,14.666,115.111,115.111,0,0,1-10.378,14.211q-5.832,6.846-9.719,6.844a3.027,3.027,0,0,1-2.235-.847,3.165,3.165,0,0,1-.851-2.347,7.21,7.21,0,0,1,.195-1.3q0.195-.912.651-2.542l12.656-43.988,0.195-1.075a1.027,1.027,0,0,0-.2-0.767,0.577,0.577,0,0,0-.591-0.32l-10.478,1.953-9.686,1.888v1.823a20.661,20.661,0,0,1,6.217.619q1.66,0.62,1.66,3.418a6.549,6.549,0,0,1-.1,1.139c-0.065.369-.142,0.771-0.228,1.205Z" transform="translate(-214.281 -689.375)"/>
</svg>
