<svg xmlns="http://www.w3.org/2000/svg" width="667.188" height="98.25" viewBox="0 0 667.188 98.25">
  <metadata><?xpacket begin="﻿" id="W5M0MpCehiHzreSzNTczkc9d"?>
<x:xmpmeta xmlns:x="adobe:ns:meta/" x:xmptk="Adobe XMP Core 5.6-c138 79.159824, 2016/09/14-01:09:01        ">
   <rdf:RDF xmlns:rdf="http://www.w3.org/1999/02/22-rdf-syntax-ns#">
      <rdf:Description rdf:about=""/>
   </rdf:RDF>
</x:xmpmeta>
                                                                                                    
                                                                                                    
                                                                                                    
                                                                                                    
                                                                                                    
                                                                                                    
                                                                                                    
                                                                                                    
                                                                                                    
                                                                                                    
                                                                                                    
                                                                                                    
                                                                                                    
                                                                                                    
                                                                                                    
                                                                                                    
                                                                                                    
                                                                                                    
                                                                                                    
                                                                                                    
                           
<?xpacket end="w"?></metadata>
<defs>
    <style>
      .cls-1 {
        fill: #1b1c20;
        fill-rule: evenodd;
      }
    </style>
  </defs>
  <path id="LicăSainciuc_" data-name="LicăSainciuc  " class="cls-1" d="M212.908,426.71h62V415.643h-50V331.378h-12V426.71Zm69.2,0h10.8V357.777h-10.8V426.71Zm0-82h10.8V331.378h-10.8v13.333Zm52.745,83.865c17.2,0,28-9.6,29.467-26.133H353.651c-0.933,10.667-7.6,17.067-18.8,17.067-14.666,0-22.266-12-22.266-27.2s7.6-27.333,22.266-27.333c10.4,0,16.933,5.734,18.533,15.067h10.934c-2.4-14.667-13.2-24-29.467-24-20.533,0-33.332,16.267-33.332,36.266S314.318,428.576,334.851,428.576Zm93.013-1.2a14.794,14.794,0,0,0,5.867-1.066v-7.867h-0.4c-6,1.334-7.334-1.733-7.334-7.333v-32.8c0-16.4-10.8-21.867-25.466-21.867-18.266,0-27.066,10-27.466,23.333h10.4c0.4-10.4,6-15.2,17.2-15.2,9.867,0,15.467,4.4,15.467,12.134,0,7.466-6.8,8.4-16.533,9.866-17.2,2.667-30,6-30,22.266,0,13.067,10.267,19.2,23.333,19.2,11.733,0,18.8-5.6,22.933-10.933H416C417.064,424.176,420.8,427.376,427.864,427.376Zm-32.533-7.6c-7.066,0-14.266-2-14.266-11.2,0-10.133,8.666-12,19.466-14,5.867-1.067,12.133-2.8,15.733-5.067v11.733C416.264,409.243,409.731,419.777,395.331,419.777Zm5.2-73.6c10,0,16.533-6.8,16.933-14.8h-7.733c-0.8,4-4,6.533-9.333,6.533s-8-2.533-8.8-6.533h-8C384.131,340.311,391.464,346.178,400.531,346.178Zm37.825,83.006H440.7a10.118,10.118,0,0,1,1.888-3.321,4.476,4.476,0,0,1,3.385-1.106q1.563,0,8.041,2.441a36.082,36.082,0,0,0,12.793,2.441q12.109,0,19.368-8.04a26.744,26.744,0,0,0,7.259-18.457,23.035,23.035,0,0,0-2.213-10.37,33.731,33.731,0,0,0-5.469-7.964L473.708,371.87a57.849,57.849,0,0,1-6.966-8.582,14.481,14.481,0,0,1-1.823-7.542,11.953,11.953,0,0,1,4.027-9.212,14.908,14.908,0,0,1,10.46-3.678q10.461,0,14.229,7.724,2.077,4.349,2.4,13.825l2.344,0.326,5.4-26.563h-3.06a12.312,12.312,0,0,1-2.214,2.507,5.12,5.12,0,0,1-3.515,1.2,37.129,37.129,0,0,1-6.706-1.79,35.6,35.6,0,0,0-10.872-1.791q-11.85,0-17.969,6.934t-6.12,15.137a18.891,18.891,0,0,0,2.734,9.895q2.734,4.558,12.37,15.105l8.334,9.114a19.9,19.9,0,0,1,4.3,7.552,17.632,17.632,0,0,1,.847,5.209,18.8,18.8,0,0,1-4.492,12.109q-4.493,5.535-12.7,5.534a17.955,17.955,0,0,1-13.769-6.152q-5.632-6.153-5.632-16.309,0-.39.065-2.669l-2.539-.326Zm112.137-49.468q0,11.6-8.76,26.01-9.094,15.841-18.9,15.841a7.318,7.318,0,0,1-5.554-2.38q-2.241-2.379-2.241-7.6,0-10.363,8.092-24.706,9.21-16.3,19.933-16.3a7.1,7.1,0,0,1,5.264,2.217q2.169,2.217,2.17,6.909h0Zm-8.087-12.056q-13.69,0-26.457,15.446-12.373,14.861-12.373,28.546,0,7.953,4.29,12.287a13.184,13.184,0,0,0,9.557,4.333,19.807,19.807,0,0,0,6.5-1.173,32.042,32.042,0,0,0,9.1-5.994,45.736,45.736,0,0,0,6.794-7.266q2.763-3.746,3.933-5.7-0.846,2.988-1.725,7.372a37.023,37.023,0,0,0-.879,6.722,6.583,6.583,0,0,0,1.336,4.221,4.573,4.573,0,0,0,3.81,1.689,13.745,13.745,0,0,0,8.026-3.092q4.215-3.092,11.171-11.752l-1.563-1.367-4.251,4.167q-0.96.912-1.645,1.53T556.8,418.7l-1.164.911a14.457,14.457,0,0,1-1.746,1.172,2.76,2.76,0,0,1-1.3.391,1.78,1.78,0,0,1-1.2-.421,1.669,1.669,0,0,1-.488-1.331q0-1.426,2.409-11.416,1.471-5.532,3.572-13.145l6.442-23.3q0.279-.91.42-1.4c0.094-.326.233-0.77,0.42-1.334a1.5,1.5,0,0,0,.032-0.814,0.721,0.721,0,0,0-.7-0.227l-7.5.839a1.233,1.233,0,0,0-.93.356,4.85,4.85,0,0,0-.464,1.129l-1.461,4.908-0.328-.912a9.666,9.666,0,0,0-2.371-3.779q-2.83-2.672-8.029-2.672h0Zm52.971-14.192a6.076,6.076,0,0,0,4.59-2.051,7.109,7.109,0,0,0,1.92-5.046,7.227,7.227,0,0,0-1.92-5.078,6.036,6.036,0,0,0-4.59-2.083,5.935,5.935,0,0,0-4.558,2.083,7.291,7.291,0,0,0-1.888,5.078,7.2,7.2,0,0,0,1.888,5.013,5.929,5.929,0,0,0,4.558,2.084h0Zm-1.544,14.648q-2.777.651-5.878,1.172-2.39.39-4.748,0.749t-7.72,1.009v2.148a26.693,26.693,0,0,1,6.8.554q1.722,0.554,1.723,2.9a6.685,6.685,0,0,1-.13,1.3q-0.132.651-.326,1.432l-9.268,33.464q-0.717,2.734-.977,4.134a18.158,18.158,0,0,0-.26,3.287A8.645,8.645,0,0,0,574.9,425.8a5.706,5.706,0,0,0,4.655,2.344q4.752,0,9.767-4.687a70,70,0,0,0,8.073-9.831l0.651-.912-1.693-1.432a73.338,73.338,0,0,1-5.273,6.511q-3.647,3.841-5.861,3.841a1.559,1.559,0,0,1-1.627-.782,3.473,3.473,0,0,1-.391-1.692,31.047,31.047,0,0,1,.912-4.427l13.145-46.485a0.519,0.519,0,0,0-.291-0.553Q596.612,367.465,593.833,368.116Zm20.4,58.594q4.26-14.163,6.217-19.53a64.242,64.242,0,0,1,5.355-11.024,111.486,111.486,0,0,1,8.968-12.553q7.516-8.845,12.463-8.846A2.951,2.951,0,0,1,649.9,375.9a4.8,4.8,0,0,1,.751,2.7,20.153,20.153,0,0,1-.227,2.376,42.307,42.307,0,0,1-.879,4.264l-8.308,31.641a14.844,14.844,0,0,0-.423,2.148,17.934,17.934,0,0,0-.163,2.344q0,3.843,2.016,5.306a7.032,7.032,0,0,0,4.187,1.465q4.788,0,10.023-5.143a80.368,80.368,0,0,0,8.3-10.156l-1.888-1.693a72.841,72.841,0,0,1-6.93,8.5q-2.122,1.986-3.744,1.986a1.558,1.558,0,0,1-1.455-.782,3.417,3.417,0,0,1-.456-1.757,10.162,10.162,0,0,1,.326-1.986q0.325-1.4.586-2.376l8.568-31.185q0.52-1.953.846-3.646a17.24,17.24,0,0,0,.326-3.255q0-5.6-3.991-7.748a10.55,10.55,0,0,0-4.982-1.106q-7.474,0-16.913,10.481a154.577,154.577,0,0,0-13.374,18.1l8.63-28a1.313,1.313,0,0,0-.517-0.585l-11.574,2.539q-2.069.456-3.847,0.781t-5.981.976v2.149q0.911-.13,1.66-0.228a11.822,11.822,0,0,1,1.53-.1q3.125,0,4.2,1.08a4.035,4.035,0,0,1,1.074,2.977,11.253,11.253,0,0,1-.228,2.324q-0.228,1.08-1.66,6.184L604.237,426.71h10Zm94.742-58.789q-13.867,0-25.781,12.37Q671.149,392.726,671.15,407.5q0,9.636,5.4,15.2t14.128,5.566a27.711,27.711,0,0,0,16.6-5.4,47.61,47.61,0,0,0,8.789-8.92l-1.888-1.432-0.455.521a38.458,38.458,0,0,1-8.692,7.389,18.367,18.367,0,0,1-9.733,2.9q-6.249,0-9.375-4.171T682.8,407.615a45.394,45.394,0,0,1,7.715-25.031q7.714-11.928,18.2-11.929a8.5,8.5,0,0,1,4.264.814,2.338,2.338,0,0,1,1.335,1.986,7.615,7.615,0,0,1-1.075,2.539,7.629,7.629,0,0,0-1.074,3.645,4.836,4.836,0,0,0,1.628,3.711,5.731,5.731,0,0,0,4.036,1.5,6.014,6.014,0,0,0,6.12-6.421q0-3.372-3.516-6.939t-11.458-3.567h0Zm43.106-14.453a6.073,6.073,0,0,0,4.589-2.051,7.106,7.106,0,0,0,1.921-5.046,7.223,7.223,0,0,0-1.921-5.078,6.033,6.033,0,0,0-4.589-2.083,5.935,5.935,0,0,0-4.558,2.083,7.291,7.291,0,0,0-1.888,5.078,7.2,7.2,0,0,0,1.888,5.013,5.929,5.929,0,0,0,4.558,2.084h0Zm-1.544,14.648q-2.776.651-5.878,1.172-2.389.39-4.748,0.749t-7.72,1.009v2.148a26.678,26.678,0,0,1,6.795.554q1.723,0.554,1.724,2.9a6.61,6.61,0,0,1-.131,1.3q-0.13.651-.325,1.432l-9.268,33.464q-0.717,2.734-.977,4.134a18.158,18.158,0,0,0-.26,3.287A8.645,8.645,0,0,0,731.6,425.8a5.706,5.706,0,0,0,4.655,2.344q4.752,0,9.767-4.687a70,70,0,0,0,8.073-9.831l0.651-.912-1.693-1.432a73.338,73.338,0,0,1-5.273,6.511q-3.648,3.841-5.861,3.841a1.559,1.559,0,0,1-1.627-.782,3.473,3.473,0,0,1-.391-1.692,31.129,31.129,0,0,1,.911-4.427l13.145-46.485a0.517,0.517,0,0,0-.29-0.553Q753.314,367.465,750.537,368.116Zm13.312,48.171q-0.326,1.5-.455,2.346a14.939,14.939,0,0,0-.131,2.213q0,4.691,3.415,6.515a8.529,8.529,0,0,0,3.948.911q8.028,0,17.043-10.819,5.2-6.306,14.279-21.506l0.477-.006-1.7,6.126q-1.887,6.851-3.1,11.417a40.587,40.587,0,0,0-1.041,4.54,23.162,23.162,0,0,0-.326,3.7,6.071,6.071,0,0,0,1.813,4.865,6.893,6.893,0,0,0,4.653,1.556q5.486,0,11.875-7.169a54.822,54.822,0,0,0,6.2-8.528l-1.855-1.237q-2.356,2.929-3.5,4.362-1.846,2.343-2.547,3.06a22.421,22.421,0,0,1-2.547,2.311,3.359,3.359,0,0,1-1.974.749,1.466,1.466,0,0,1-1.346-.619,2.679,2.679,0,0,1-.391-1.465,8.4,8.4,0,0,1,.255-1.823q0.257-1.106.576-2.408l12.8-46.217h-9.82q-3.954,10.953-6.062,15.971a106.9,106.9,0,0,1-7.513,14.666,115.111,115.111,0,0,1-10.378,14.211q-5.832,6.846-9.718,6.844a3.024,3.024,0,0,1-2.235-.847,3.162,3.162,0,0,1-.852-2.347,7.146,7.146,0,0,1,.2-1.3q0.2-.912.651-2.542l12.655-43.988,0.2-1.075a1.032,1.032,0,0,0-.2-0.767,0.577,0.577,0,0,0-.591-0.32l-10.478,1.953-9.686,1.888v1.823a20.669,20.669,0,0,1,6.218.619q1.659,0.62,1.66,3.418a6.548,6.548,0,0,1-.1,1.139q-0.1.554-.228,1.2Zm101.257-48.366q-13.868,0-25.782,12.37Q827.279,392.726,827.28,407.5q0,9.636,5.4,15.2t14.127,5.566a27.716,27.716,0,0,0,16.6-5.4,47.641,47.641,0,0,0,8.789-8.92l-1.888-1.432-0.456.521a38.475,38.475,0,0,1-8.691,7.389,18.372,18.372,0,0,1-9.733,2.9q-6.25,0-9.375-4.171t-3.125-11.538a45.386,45.386,0,0,1,7.715-25.031q7.715-11.928,18.2-11.929a8.508,8.508,0,0,1,4.265.814,2.337,2.337,0,0,1,1.334,1.986,7.626,7.626,0,0,1-1.074,2.539,7.629,7.629,0,0,0-1.074,3.645,4.838,4.838,0,0,0,1.627,3.711,5.735,5.735,0,0,0,4.037,1.5,6.014,6.014,0,0,0,6.12-6.421q0-3.372-3.516-6.939t-11.458-3.567h0Z" transform="translate(-212.906 -331.375)"/>
</svg>
