<svg xmlns="http://www.w3.org/2000/svg" width="941.589" height="99.344" viewBox="0 0 941.589 99.344">
  <metadata><?xpacket begin="﻿" id="W5M0MpCehiHzreSzNTczkc9d"?>
<x:xmpmeta xmlns:x="adobe:ns:meta/" x:xmptk="Adobe XMP Core 5.6-c138 79.159824, 2016/09/14-01:09:01        ">
   <rdf:RDF xmlns:rdf="http://www.w3.org/1999/02/22-rdf-syntax-ns#">
      <rdf:Description rdf:about=""/>
   </rdf:RDF>
</x:xmpmeta>
                                                                                                    
                                                                                                    
                                                                                                    
                                                                                                    
                                                                                                    
                                                                                                    
                                                                                                    
                                                                                                    
                                                                                                    
                                                                                                    
                                                                                                    
                                                                                                    
                                                                                                    
                                                                                                    
                                                                                                    
                                                                                                    
                                                                                                    
                                                                                                    
                                                                                                    
                                                                                                    
                           
<?xpacket end="w"?></metadata>
<defs>
    <style>
      .cls-1 {
        fill: #1b1c20;
        fill-rule: evenodd;
      }
    </style>
  </defs>
  <path id="VBMMRDNGMR_" data-name="VBMMRDNGMR  " class="cls-1" d="M230.218,582.71h13.2l33.466-95.332H264.351l-23.2,70.932c-1.467,4.267-3.734,12.8-3.734,12.8h-0.266s-2.267-8.4-3.734-12.8l-23.466-70.932H197.019Zm54.719,0H327.47c10.266,0,18.533-3.334,23.866-9.067a26.064,26.064,0,0,0,6.933-18.266c0-12.8-8.4-20.533-19.2-23.066v-0.4c9.466-2.934,15.333-9.467,15.333-20,0-6.8-2.267-12.267-6.133-16.267-5.334-5.6-12.934-8.266-22.933-8.266h-40.4V582.71Zm12-10.8v-33.6h29.2c11.6,0,20,5.867,20,17.734a15.63,15.63,0,0,1-4.266,11.066c-3.2,3.067-8.134,4.8-14.933,4.8h-30Zm0-43.733v-30.4H325.47c10.666,0,16.933,5.6,16.933,14.8,0,9.866-6.933,15.6-18.533,15.6H296.937Zm73.106,54.533h10.8v-78.4h0.267s2.4,7.2,4.267,12l26.132,66.4h9.2l26.133-66.4c1.734-4.533,4.267-12,4.267-12h0.267v78.4h11.466V487.378h-15.6l-30.666,79.2h-0.267l-30.932-79.2H370.043V582.71Zm109.692,0h10.8v-78.4H490.8s2.4,7.2,4.267,12l26.133,66.4h9.2l26.133-66.4c1.733-4.533,4.266-12,4.266-12h0.267v78.4h11.467V487.378h-15.6l-30.666,79.2H526l-30.933-79.2H479.735V582.71Zm109.692,0h12V542.444h26.533c12.8,0,18.4,4.933,19.333,18.933,1.067,16,1.467,19.6,3.467,21.333h12.933v-0.534c-1.733-1.2-3.333-5.066-4.4-20.4-0.933-14.133-4-20.8-13.733-24.267v-0.4c11.466-3.733,16.533-12,16.533-23.6,0-15.6-11.333-26.133-28.133-26.133H589.427V582.71Zm12-84.932h28.933c14,0,19.333,5.866,19.333,17.466,0,10.8-6.666,17.467-20,17.467H601.426V497.778Zm74.493,84.932h33.733c28.666,0,43.2-18.8,43.2-47.333s-13.6-48-42.266-48H675.919V582.71Zm12-10.533v-74.4h22.266c22.4,0,30.4,15.2,30.4,37.6s-8.933,36.8-31.332,36.8H687.919Zm77.758,10.533h11.2V504.444h0.267s4,7.2,7.067,11.867l43.732,66.4H840.21V487.378h-11.2V565.91h-0.267s-3.733-7.333-6.933-12.266l-43.466-66.266H765.677V582.71Zm165.625,0h7.733v-50.4H898.369v10.4h28.666v2.267c0,16-9.2,29.333-28.8,29.333-19.333,0-32.933-15.6-32.933-38.933,0-22.4,10.4-39.6,33.333-39.6,15.066,0,24,7.6,26.666,20.266h12.4c-3.067-18.666-16.666-30.666-38.8-30.666-30,0-45.866,22-45.866,50,0,28.933,18,49.333,44.8,49.333,12.533,0,22.8-4.8,29.733-14.533h0.266Zm23.36,0h10.8v-78.4h0.266s2.4,7.2,4.267,12l26.133,66.4h9.2l26.13-66.4c1.73-4.533,4.27-12,4.27-12h0.26v78.4h11.47V487.378h-15.6l-30.67,79.2h-0.26L970,487.378H954.662V582.71Zm109.688,0h12V542.444h26.54c12.8,0,18.4,4.933,19.33,18.933,1.07,16,1.47,19.6,3.47,21.333h12.93v-0.534c-1.73-1.2-3.33-5.066-4.4-20.4-0.93-14.133-4-20.8-13.73-24.267v-0.4c11.46-3.733,16.53-12,16.53-23.6,0-15.6-11.33-26.133-28.13-26.133h-44.54V582.71Zm12-84.932h28.94c14,0,19.33,5.866,19.33,17.466,0,10.8-6.67,17.467-20,17.467h-28.27V497.778Z" transform="translate(-197.031 -485.375)"/>
</svg>
