<svg xmlns="http://www.w3.org/2000/svg" width="331.125" height="222.813" viewBox="0 0 331.125 222.813">
  <metadata><?xpacket begin="﻿" id="W5M0MpCehiHzreSzNTczkc9d"?>
<x:xmpmeta xmlns:x="adobe:ns:meta/" x:xmptk="Adobe XMP Core 5.6-c138 79.159824, 2016/09/14-01:09:01        ">
   <rdf:RDF xmlns:rdf="http://www.w3.org/1999/02/22-rdf-syntax-ns#">
      <rdf:Description rdf:about=""/>
   </rdf:RDF>
</x:xmpmeta>
                                                                                                    
                                                                                                    
                                                                                                    
                                                                                                    
                                                                                                    
                                                                                                    
                                                                                                    
                                                                                                    
                                                                                                    
                                                                                                    
                                                                                                    
                                                                                                    
                                                                                                    
                                                                                                    
                                                                                                    
                                                                                                    
                                                                                                    
                                                                                                    
                                                                                                    
                                                                                                    
                           
<?xpacket end="w"?></metadata>
<defs>
    <style>
      .cls-1 {
        fill: #1b1c20;
        fill-rule: evenodd;
      }
    </style>
  </defs>
  <path id="Mark_Verlan_" data-name="Mark Verlan " class="cls-1" d="M383.957,280.71h10.8v-78.4h0.267s2.4,7.2,4.267,12l26.133,66.4h9.2l26.132-66.4c1.734-4.533,4.267-12,4.267-12h0.267v78.4h11.466V185.378h-15.6l-30.666,79.2h-0.266l-30.933-79.2H383.957V280.71Zm161.757,0.666a14.794,14.794,0,0,0,5.867-1.066v-7.867h-0.4c-6,1.334-7.334-1.733-7.334-7.333v-32.8c0-16.4-10.8-21.867-25.466-21.867-18.266,0-27.066,10-27.466,23.333h10.4c0.4-10.4,6-15.2,17.2-15.2,9.867,0,15.467,4.4,15.467,12.134,0,7.466-6.8,8.4-16.533,9.866-17.2,2.667-30,6-30,22.266,0,13.067,10.267,19.2,23.333,19.2,11.733,0,18.8-5.6,22.933-10.933h0.134C534.914,278.176,538.647,281.376,545.714,281.376Zm-32.533-7.6c-7.066,0-14.266-2-14.266-11.2,0-10.133,8.666-12,19.466-14,5.867-1.067,12.133-2.8,15.733-5.067v11.733C534.114,263.243,527.581,273.777,513.181,273.777Zm55.253-62h-10.8V280.71h10.8V242.444c0-12.933,9.333-20.933,20-20.933a13.07,13.07,0,0,1,4.8.666h0.4v-10.4a10.392,10.392,0,0,0-4.4-.8c-9.2,0-16.4,5.6-20.533,12.266h-0.267V211.777Zm76.651,68.933h12.667l-29.6-44.133,26.4-24.8H640.818l-30.266,29.467V185.378h-10.8V280.71h10.8v-27.6l10.133-9.6ZM326.639,318.731v2.148q5.533,0.651,7,3.125t3.483,14.779l11.274,69.4H351l49.707-82.1a11.159,11.159,0,0,1,3.158-3.776,14.018,14.018,0,0,1,4.264-1.432v-2.148H383.407v2.148a25.4,25.4,0,0,1,6.445,1.43,3.219,3.219,0,0,1,1.888,3.249q0,2.406-3.06,8.578-1.833,3.658-3.862,7.12l-26.859,46.382h-0.783l-8.56-57.974q-0.066-.52-0.13-1.073a9.046,9.046,0,0,1-.066-1.074,5.5,5.5,0,0,1,3.321-5.4,21.581,21.581,0,0,1,7.031-1.236v-2.148H326.639Zm64.914,69.681q0,9.105,5.209,13.983a17.164,17.164,0,0,0,12.109,4.877q9.767,0,19.466-6.966a41.039,41.039,0,0,0,8.4-7.617l-1.693-1.5a85.854,85.854,0,0,1-9.049,6.77,20.362,20.362,0,0,1-10.352,3.256,13.254,13.254,0,0,1-8.887-3.191q-3.744-3.189-3.743-8.919a20.538,20.538,0,0,1,.325-4q0.325-1.594,1.172-4.264l3.711-.455a57.714,57.714,0,0,0,23.08-8.154q10.969-6.66,10.97-16.019,0-4.612-3-6.952a12.778,12.778,0,0,0-8.073-2.339q-13.737,0-26.628,13.527-13.022,13.527-13.021,27.964h0Zm13.868-10.5q1.236-3.311,2.343-5.91a63.866,63.866,0,0,1,5.469-10.2,48.749,48.749,0,0,1,7.324-8.151q4.068-3.6,8.3-3.605a4.16,4.16,0,0,1,3.451,1.462,6.1,6.1,0,0,1,1.172,3.929q0,6.82-7.813,13.737t-20.247,8.736h0Zm65.5-31.445q-0.325,0-6.351,1.172t-11.106,2.213l-2.605.521v2.149q1.627-.2,2.8-0.326a18.452,18.452,0,0,1,1.953-.13,4.515,4.515,0,0,1,3.385,1.042,4.215,4.215,0,0,1,.977,2.994,22.41,22.41,0,0,1-.554,4.362q-0.553,2.672-1.464,6.055L447.1,405.71h9.994q2.952-9.568,4.724-14.778,2.8-8.267,5.083-13.281a106.643,106.643,0,0,1,8.571-15.366q4.789-7.1,7.331-7.1a1.6,1.6,0,0,1,.879.228,2.1,2.1,0,0,1,.616.618l0.781,1.433a5.866,5.866,0,0,0,1.623,1.823,5.04,5.04,0,0,0,3.054.781,5.727,5.727,0,0,0,4.58-1.921,7.162,7.162,0,0,0,1.657-4.85,7.078,7.078,0,0,0-1.659-4.622,5.764,5.764,0,0,0-4.717-2.019q-5.661,0-11.94,7.587a91.212,91.212,0,0,0-10.963,16.767l-1.508,3.008,6.634-25.391c0.041-.221.08-0.553,0.121-0.994a1.486,1.486,0,0,0-.228-0.814,0.89,0.89,0,0,0-.814-0.358h0Zm24.973,45.379q-0.565,2.148-.918,3.775a24.546,24.546,0,0,0-.521,4.362q0,4.232,2.806,5.989a7.575,7.575,0,0,0,4.178,1.172q5.483,0,10.9-5.4a90.324,90.324,0,0,0,8.747-11.458l-1.758-1.237a69.8,69.8,0,0,1-6.382,8.073q-3.777,4.167-6.121,4.167a1.728,1.728,0,0,1-1.692-.879,4.532,4.532,0,0,1-.456-2.116,5.376,5.376,0,0,1,.13-1.172q0.13-.586.846-3.385l21.673-78.256a1.229,1.229,0,0,0-.917-0.651q-5.236,1.3-8.9,1.953-1.179.2-5.009,0.717t-6.774.911v2.149a31.083,31.083,0,0,1,7.076.423,2.446,2.446,0,0,1,1.778,2.7c0,0.347-.023.8-0.065,1.367a7.825,7.825,0,0,1-.326,1.692Zm77.49-33.128q0,11.6-8.76,26.01-9.095,15.841-18.9,15.841a7.318,7.318,0,0,1-5.554-2.38q-2.241-2.379-2.241-7.6,0-10.363,8.092-24.706,9.21-16.3,19.933-16.3a7.1,7.1,0,0,1,5.264,2.217q2.169,2.217,2.17,6.909h0Zm-8.087-12.056q-13.69,0-26.458,15.446-12.372,14.861-12.372,28.546,0,7.953,4.29,12.287a13.184,13.184,0,0,0,9.556,4.333,19.812,19.812,0,0,0,6.5-1.173,32.042,32.042,0,0,0,9.1-5.994,45.736,45.736,0,0,0,6.794-7.266q2.763-3.746,3.933-5.7-0.848,2.988-1.725,7.372a37.023,37.023,0,0,0-.879,6.722,6.588,6.588,0,0,0,1.335,4.221,4.576,4.576,0,0,0,3.811,1.689,13.745,13.745,0,0,0,8.026-3.092q4.215-3.092,11.171-11.752l-1.563-1.367-4.251,4.167q-0.96.912-1.645,1.53t-1.235,1.074l-1.165.911a14.379,14.379,0,0,1-1.745,1.172,2.764,2.764,0,0,1-1.3.391,1.78,1.78,0,0,1-1.2-.421,1.669,1.669,0,0,1-.488-1.331q0-1.426,2.409-11.416,1.471-5.532,3.571-13.145l6.443-23.3q0.279-.91.42-1.4t0.42-1.334a1.514,1.514,0,0,0,.032-0.814,0.722,0.722,0,0,0-.7-0.227l-7.5.839a1.233,1.233,0,0,0-.93.356,4.85,4.85,0,0,0-.464,1.129l-1.461,4.908-0.328-.912a9.678,9.678,0,0,0-2.371-3.779q-2.83-2.672-8.029-2.672h0Zm38.062,59.05q4.262-14.163,6.218-19.53a64.169,64.169,0,0,1,5.355-11.024A111.359,111.359,0,0,1,623.9,362.6q7.516-8.845,12.462-8.846a2.949,2.949,0,0,1,2.663,1.139,4.8,4.8,0,0,1,.752,2.7,19.994,19.994,0,0,1-.228,2.376,41.752,41.752,0,0,1-.879,4.264l-8.308,31.641a14.98,14.98,0,0,0-.423,2.148,17.934,17.934,0,0,0-.163,2.344q0,3.843,2.017,5.306a7.029,7.029,0,0,0,4.187,1.465q4.788,0,10.023-5.143a80.47,80.47,0,0,0,8.3-10.156l-1.888-1.693a72.76,72.76,0,0,1-6.929,8.5q-2.122,1.986-3.745,1.986a1.557,1.557,0,0,1-1.454-.782,3.417,3.417,0,0,1-.456-1.757,10.218,10.218,0,0,1,.325-1.986q0.326-1.4.586-2.376l8.569-31.185q0.52-1.953.846-3.646a17.24,17.24,0,0,0,.326-3.255q0-5.6-3.991-7.748a10.554,10.554,0,0,0-4.983-1.106q-7.473,0-16.912,10.481a154.462,154.462,0,0,0-13.374,18.1l8.63-28a1.31,1.31,0,0,0-.518-0.585l-11.573,2.539q-2.068.456-3.847,0.781t-5.982.976v2.149q0.912-.13,1.661-0.228a11.818,11.818,0,0,1,1.529-.1q3.126,0,4.2,1.08a4.035,4.035,0,0,1,1.074,2.977,11.253,11.253,0,0,1-.228,2.324q-0.23,1.08-1.66,6.184L593.361,405.71h10Z" transform="translate(-326.625 -185.375)"/>
</svg>
